<svg xmlns="http://www.w3.org/2000/svg" xmlns:xlink="http://www.w3.org/1999/xlink" width="471" zoomAndPan="magnify" viewBox="0 0 353.25 127.500001" height="170" preserveAspectRatio="xMidYMid meet" version="1.2"><defs/><g id="94fe506bd0"><g style="fill:#5b6946;fill-opacity:1;"><g transform="translate(49.605126, 49.642804)"><path style="stroke:none" d="M 25.53125 -0.03125 C 25.53125 -0.03125 25.566406 -0.0703125 25.640625 -0.15625 C 25.710938 -0.238281 25.769531 -0.398438 25.8125 -0.640625 C 25.851562 -0.878906 25.835938 -1.222656 25.765625 -1.671875 C 25.691406 -2.128906 25.503906 -2.734375 25.203125 -3.484375 L 22.359375 -10.765625 L 6.453125 -10.765625 L 3.59375 -3.484375 C 3.300781 -2.734375 3.117188 -2.128906 3.046875 -1.671875 C 2.972656 -1.222656 2.957031 -0.878906 3 -0.640625 C 3.039062 -0.398438 3.09375 -0.238281 3.15625 -0.15625 C 3.226562 -0.0703125 3.265625 -0.03125 3.265625 -0.03125 L 0.625 -0.03125 C 0.625 -0.03125 0.742188 -0.109375 0.984375 -0.265625 C 1.222656 -0.429688 1.523438 -0.765625 1.890625 -1.265625 C 2.253906 -1.765625 2.628906 -2.503906 3.015625 -3.484375 L 15.640625 -35.6875 L 28.25 -3.484375 C 28.644531 -2.503906 29.023438 -1.765625 29.390625 -1.265625 C 29.753906 -0.765625 30.050781 -0.429688 30.28125 -0.265625 C 30.519531 -0.109375 30.640625 -0.03125 30.640625 -0.03125 Z M 6.671875 -11.359375 L 22.140625 -11.359375 L 14.390625 -31.109375 Z M 6.671875 -11.359375 "/></g></g><g style="fill:#5b6946;fill-opacity:1;"><g transform="translate(81.350586, 49.642804)"><path style="stroke:none" d="M 4.6875 -38.109375 L 4.703125 -10.640625 C 4.703125 -8.828125 5.015625 -7.195312 5.640625 -5.75 C 6.273438 -4.3125 7.25 -3.164062 8.5625 -2.3125 C 9.875 -1.46875 11.5625 -1.046875 13.625 -1.046875 C 14.664062 -1.046875 15.726562 -1.265625 16.8125 -1.703125 C 17.894531 -2.140625 18.882812 -2.84375 19.78125 -3.8125 C 20.6875 -4.789062 21.414062 -6.0625 21.96875 -7.625 C 22.519531 -9.1875 22.796875 -11.085938 22.796875 -13.328125 C 22.796875 -15.765625 22.507812 -17.804688 21.9375 -19.453125 C 21.375 -21.109375 20.613281 -22.414062 19.65625 -23.375 C 18.707031 -24.332031 17.644531 -24.988281 16.46875 -25.34375 C 15.300781 -25.695312 14.109375 -25.796875 12.890625 -25.640625 C 11.679688 -25.492188 10.53125 -25.128906 9.4375 -24.546875 C 8.34375 -23.972656 7.390625 -23.222656 6.578125 -22.296875 C 5.773438 -21.378906 5.207031 -20.347656 4.875 -19.203125 C 4.863281 -20.378906 5.148438 -21.453125 5.734375 -22.421875 C 6.328125 -23.398438 7.125 -24.222656 8.125 -24.890625 C 9.132812 -25.566406 10.257812 -26.070312 11.5 -26.40625 C 12.75 -26.75 14.039062 -26.882812 15.375 -26.8125 C 16.71875 -26.738281 18.015625 -26.429688 19.265625 -25.890625 C 20.515625 -25.347656 21.640625 -24.539062 22.640625 -23.46875 C 23.648438 -22.40625 24.453125 -21.039062 25.046875 -19.375 C 25.648438 -17.71875 25.953125 -15.726562 25.953125 -13.40625 C 25.953125 -11.363281 25.648438 -9.519531 25.046875 -7.875 C 24.441406 -6.226562 23.578125 -4.816406 22.453125 -3.640625 C 21.328125 -2.472656 20 -1.570312 18.46875 -0.9375 C 16.9375 -0.3125 15.238281 0 13.375 0 C 11.425781 0 9.703125 -0.378906 8.203125 -1.140625 C 6.703125 -1.910156 5.535156 -2.925781 4.703125 -4.1875 L 4.703125 -2.9375 C 4.703125 -2.144531 4.546875 -1.535156 4.234375 -1.109375 C 3.929688 -0.679688 3.476562 -0.390625 2.875 -0.234375 C 2.269531 -0.078125 1.519531 0 0.625 0 C 0.625 0 0.707031 -0.0664062 0.875 -0.203125 C 1.050781 -0.347656 1.226562 -0.65625 1.40625 -1.125 C 1.582031 -1.601562 1.671875 -2.332031 1.671875 -3.3125 L 1.671875 -33.046875 C 1.671875 -34.046875 1.582031 -34.796875 1.40625 -35.296875 C 1.226562 -35.796875 1.050781 -36.125 0.875 -36.28125 C 0.707031 -36.445312 0.625 -36.53125 0.625 -36.53125 Z M 4.6875 -38.109375 "/></g></g><g style="fill:#5b6946;fill-opacity:1;"><g transform="translate(108.41515, 49.642804)"><path style="stroke:none" d="M 13.421875 -26.65625 C 15.203125 -26.65625 16.863281 -26.304688 18.40625 -25.609375 C 19.945312 -24.910156 21.300781 -23.945312 22.46875 -22.71875 C 23.644531 -21.5 24.5625 -20.082031 25.21875 -18.46875 C 25.882812 -16.863281 26.21875 -15.140625 26.21875 -13.296875 C 26.21875 -11.453125 25.882812 -9.722656 25.21875 -8.109375 C 24.5625 -6.503906 23.644531 -5.09375 22.46875 -3.875 C 21.300781 -2.65625 19.945312 -1.695312 18.40625 -1 C 16.863281 -0.3125 15.203125 0.03125 13.421875 0.03125 C 11.660156 0.03125 10.003906 -0.3125 8.453125 -1 C 6.898438 -1.695312 5.535156 -2.65625 4.359375 -3.875 C 3.191406 -5.09375 2.273438 -6.503906 1.609375 -8.109375 C 0.953125 -9.722656 0.625 -11.453125 0.625 -13.296875 C 0.625 -15.140625 0.953125 -16.863281 1.609375 -18.46875 C 2.273438 -20.082031 3.191406 -21.5 4.359375 -22.71875 C 5.535156 -23.945312 6.898438 -24.910156 8.453125 -25.609375 C 10.003906 -26.304688 11.660156 -26.65625 13.421875 -26.65625 Z M 13.421875 -1.125 C 14.753906 -1.125 16.003906 -1.445312 17.171875 -2.09375 C 18.335938 -2.738281 19.363281 -3.628906 20.25 -4.765625 C 21.144531 -5.898438 21.84375 -7.210938 22.34375 -8.703125 C 22.84375 -10.191406 23.09375 -11.765625 23.09375 -13.421875 C 23.09375 -15.097656 22.84375 -16.660156 22.34375 -18.109375 C 21.84375 -19.566406 21.144531 -20.851562 20.25 -21.96875 C 19.363281 -23.082031 18.335938 -23.945312 17.171875 -24.5625 C 16.003906 -25.1875 14.753906 -25.5 13.421875 -25.5 C 12.097656 -25.5 10.847656 -25.1875 9.671875 -24.5625 C 8.503906 -23.945312 7.472656 -23.082031 6.578125 -21.96875 C 5.691406 -20.851562 5 -19.566406 4.5 -18.109375 C 4.007812 -16.660156 3.765625 -15.097656 3.765625 -13.421875 C 3.765625 -11.765625 4.007812 -10.191406 4.5 -8.703125 C 5 -7.210938 5.691406 -5.898438 6.578125 -4.765625 C 7.472656 -3.628906 8.503906 -2.738281 9.671875 -2.09375 C 10.847656 -1.445312 12.097656 -1.125 13.421875 -1.125 Z M 13.421875 -1.125 "/></g></g><g style="fill:#5b6946;fill-opacity:1;"><g transform="translate(135.753595, 49.642804)"><path style="stroke:none" d="M 4.703125 -7.546875 C 4.703125 -6.296875 4.914062 -5.226562 5.34375 -4.34375 C 5.78125 -3.46875 6.363281 -2.757812 7.09375 -2.21875 C 7.820312 -1.6875 8.644531 -1.328125 9.5625 -1.140625 C 10.476562 -0.960938 11.410156 -0.957031 12.359375 -1.125 C 13.316406 -1.300781 14.238281 -1.65625 15.125 -2.1875 C 16.019531 -2.71875 16.8125 -3.421875 17.5 -4.296875 C 18.1875 -5.179688 18.703125 -6.25 19.046875 -7.5 C 18.816406 -5.90625 18.332031 -4.578125 17.59375 -3.515625 C 16.851562 -2.460938 15.957031 -1.65625 14.90625 -1.09375 C 13.851562 -0.53125 12.726562 -0.1875 11.53125 -0.0625 C 10.332031 0.0625 9.148438 -0.00390625 7.984375 -0.265625 C 6.828125 -0.535156 5.769531 -0.972656 4.8125 -1.578125 C 3.863281 -2.179688 3.101562 -2.941406 2.53125 -3.859375 C 1.957031 -4.773438 1.671875 -5.8125 1.671875 -6.96875 L 1.671875 -21.8125 C 1.671875 -22.8125 1.582031 -23.539062 1.40625 -24 C 1.226562 -24.46875 1.050781 -24.769531 0.875 -24.90625 C 0.707031 -25.039062 0.625 -25.109375 0.625 -25.109375 L 4.703125 -26.703125 C 4.703125 -26.703125 4.703125 -26.632812 4.703125 -26.5 C 4.703125 -26.363281 4.703125 -26.054688 4.703125 -25.578125 C 4.703125 -25.109375 4.703125 -24.378906 4.703125 -23.390625 C 4.703125 -23.390625 4.703125 -23.359375 4.703125 -23.296875 C 4.703125 -23.242188 4.703125 -23.070312 4.703125 -22.78125 C 4.703125 -22.5 4.703125 -22.039062 4.703125 -21.40625 C 4.703125 -20.769531 4.703125 -19.867188 4.703125 -18.703125 C 4.703125 -17.546875 4.703125 -16.054688 4.703125 -14.234375 C 4.703125 -12.410156 4.703125 -10.179688 4.703125 -7.546875 Z M 18.1875 0 C 18.1875 0 18.269531 -0.0664062 18.4375 -0.203125 C 18.613281 -0.347656 18.789062 -0.65625 18.96875 -1.125 C 19.144531 -1.601562 19.234375 -2.332031 19.234375 -3.3125 L 19.234375 -21.640625 C 19.234375 -22.640625 19.144531 -23.382812 18.96875 -23.875 C 18.789062 -24.363281 18.613281 -24.691406 18.4375 -24.859375 C 18.269531 -25.023438 18.1875 -25.109375 18.1875 -25.109375 L 22.234375 -26.671875 L 22.265625 -3.28125 C 22.265625 -2.300781 22.351562 -1.578125 22.53125 -1.109375 C 22.707031 -0.640625 22.875 -0.335938 23.03125 -0.203125 C 23.195312 -0.0664062 23.28125 0 23.28125 0 Z M 18.1875 0 "/></g></g><g style="fill:#5b6946;fill-opacity:1;"><g transform="translate(160.15403, 49.642804)"><path style="stroke:none" d="M 7.25 -26.65625 L 11.609375 -26.65625 L 11.609375 -25.796875 L 7.25 -25.796875 L 7.265625 -3.890625 C 7.253906 -3.191406 7.390625 -2.679688 7.671875 -2.359375 C 7.953125 -2.046875 8.289062 -1.875 8.6875 -1.84375 C 9.09375 -1.8125 9.46875 -1.878906 9.8125 -2.046875 C 10.164062 -2.210938 10.390625 -2.425781 10.484375 -2.6875 C 10.484375 -1.875 10.1875 -1.222656 9.59375 -0.734375 C 9.007812 -0.242188 8.3125 0 7.5 0 C 7.300781 0 7.019531 -0.046875 6.65625 -0.140625 C 6.300781 -0.234375 5.9375 -0.414062 5.5625 -0.6875 C 5.1875 -0.957031 4.867188 -1.347656 4.609375 -1.859375 C 4.359375 -2.378906 4.234375 -3.0625 4.234375 -3.90625 C 4.234375 -9.625 4.234375 -14.257812 4.234375 -17.8125 C 4.234375 -21.375 4.234375 -24.035156 4.234375 -25.796875 L 0.625 -25.796875 L 0.625 -26.65625 L 4.234375 -26.65625 C 4.234375 -27.332031 4.234375 -27.828125 4.234375 -28.140625 C 4.234375 -28.453125 4.234375 -28.609375 4.234375 -28.609375 C 4.234375 -29.609375 4.144531 -30.351562 3.96875 -30.84375 C 3.800781 -31.332031 3.628906 -31.660156 3.453125 -31.828125 C 3.273438 -31.992188 3.1875 -32.078125 3.1875 -32.078125 L 7.25 -33.640625 Z M 7.25 -26.65625 "/></g></g><g style="fill:#5b6946;fill-opacity:1;"><g transform="translate(172.883396, 49.642804)"><path style="stroke:none" d=""/></g></g><g style="fill:#5b6946;fill-opacity:1;"><g transform="translate(185.83057, 49.642804)"><path style="stroke:none" d=""/></g></g><g style="fill:#5b6946;fill-opacity:1;"><g transform="translate(198.777744, 49.642804)"><path style="stroke:none" d=""/></g></g><g style="fill:#5b6946;fill-opacity:1;"><g transform="translate(211.724918, 49.642804)"><path style="stroke:none" d=""/></g></g><g style="fill:#5b6946;fill-opacity:1;"><g transform="translate(224.672093, 49.642804)"><path style="stroke:none" d=""/></g></g><g style="fill:#5b6946;fill-opacity:1;"><g transform="translate(237.619267, 49.642804)"><path style="stroke:none" d=""/></g></g><g style="fill:#5b6946;fill-opacity:1;"><g transform="translate(69.689878, 94.396387)"><path style="stroke:none" d="M 8.96875 0.71875 C 6.84375 0.71875 4.59375 0.253906 2.21875 -0.671875 L 1.703125 -7.421875 L 2.6875 -7.578125 C 3.476562 -5.410156 4.40625 -3.722656 5.46875 -2.515625 C 6.53125 -1.316406 8.0625 -0.71875 10.0625 -0.71875 C 11.632812 -0.71875 12.9375 -1.164062 13.96875 -2.0625 C 15 -2.957031 15.515625 -4.109375 15.515625 -5.515625 C 15.515625 -6.679688 15.273438 -7.554688 14.796875 -8.140625 C 14.316406 -8.734375 13.617188 -9.203125 12.703125 -9.546875 C 11.796875 -9.890625 10.691406 -10.25 9.390625 -10.625 C 7.117188 -11.3125 5.394531 -12.1875 4.21875 -13.25 C 3.050781 -14.3125 2.46875 -15.875 2.46875 -17.9375 C 2.46875 -19.351562 2.847656 -20.617188 3.609375 -21.734375 C 4.367188 -22.847656 5.4375 -23.738281 6.8125 -24.40625 C 8.1875 -25.082031 9.785156 -25.421875 11.609375 -25.421875 C 12.492188 -25.421875 13.398438 -25.332031 14.328125 -25.15625 C 15.265625 -24.988281 16.316406 -24.734375 17.484375 -24.390625 L 18.09375 -18.15625 L 17.21875 -18 C 16.601562 -19.75 15.753906 -21.171875 14.671875 -22.265625 C 13.585938 -23.367188 12.253906 -23.921875 10.671875 -23.921875 C 9.296875 -23.921875 8.171875 -23.523438 7.296875 -22.734375 C 6.421875 -21.941406 5.984375 -21 5.984375 -19.90625 C 5.984375 -18.800781 6.28125 -17.914062 6.875 -17.25 C 7.476562 -16.582031 8.347656 -16.015625 9.484375 -15.546875 C 10.617188 -15.078125 11.960938 -14.601562 13.515625 -14.125 C 15.429688 -13.539062 16.863281 -12.757812 17.8125 -11.78125 C 18.757812 -10.800781 19.234375 -9.453125 19.234375 -7.734375 C 19.234375 -6.148438 18.800781 -4.710938 17.9375 -3.421875 C 17.082031 -2.140625 15.890625 -1.128906 14.359375 -0.390625 C 12.828125 0.347656 11.03125 0.71875 8.96875 0.71875 Z M 8.96875 0.71875 "/></g></g><g style="fill:#5b6946;fill-opacity:1;"><g transform="translate(89.850213, 94.396387)"><path style="stroke:none" d="M 13.046875 0.3125 C 12.566406 0.3125 11.957031 0.25 11.21875 0.125 C 10.476562 0.0078125 9.660156 -0.203125 8.765625 -0.515625 L 8.765625 6.140625 C 8.765625 7.335938 8.832031 8.289062 8.96875 9 C 9.101562 9.707031 9.488281 10.273438 10.125 10.703125 C 10.769531 11.128906 11.828125 11.550781 13.296875 11.96875 L 13.296875 13 L 0.984375 13 L 0.984375 11.96875 C 2.046875 11.550781 2.832031 11.160156 3.34375 10.796875 C 3.863281 10.441406 4.207031 9.910156 4.375 9.203125 C 4.550781 8.492188 4.640625 7.472656 4.640625 6.140625 L 4.640625 -18.828125 C 4.640625 -20.296875 4.296875 -21.347656 3.609375 -21.984375 C 2.921875 -22.628906 2.046875 -23 0.984375 -23.09375 L 0.984375 -24.125 C 2.253906 -24.195312 3.539062 -24.34375 4.84375 -24.5625 C 6.15625 -24.789062 7.289062 -25.09375 8.25 -25.46875 L 9.078125 -24.75 L 8.65625 -22.125 C 10.175781 -23.082031 11.585938 -23.84375 12.890625 -24.40625 C 14.191406 -24.976562 15.53125 -25.265625 16.90625 -25.265625 C 18.832031 -25.265625 20.539062 -24.765625 22.03125 -23.765625 C 23.53125 -22.773438 24.707031 -21.382812 25.5625 -19.59375 C 26.425781 -17.800781 26.859375 -15.6875 26.859375 -13.25 C 26.859375 -11.21875 26.472656 -9.378906 25.703125 -7.734375 C 24.929688 -6.085938 23.890625 -4.660156 22.578125 -3.453125 C 21.273438 -2.253906 19.796875 -1.328125 18.140625 -0.671875 C 16.492188 -0.015625 14.796875 0.3125 13.046875 0.3125 Z M 22.734375 -11.140625 C 22.734375 -14.847656 22.035156 -17.707031 20.640625 -19.71875 C 19.253906 -21.726562 17.410156 -22.734375 15.109375 -22.734375 C 14.148438 -22.734375 13.15625 -22.523438 12.125 -22.109375 C 11.09375 -21.703125 9.972656 -21.15625 8.765625 -20.46875 L 8.765625 -3.5 C 9.660156 -2.851562 10.625 -2.363281 11.65625 -2.03125 C 12.6875 -1.707031 13.769531 -1.546875 14.90625 -1.546875 C 17.414062 -1.546875 19.347656 -2.40625 20.703125 -4.125 C 22.054688 -5.84375 22.734375 -8.179688 22.734375 -11.140625 Z M 22.734375 -11.140625 "/></g></g><g style="fill:#5b6946;fill-opacity:1;"><g transform="translate(117.332217, 94.396387)"><path style="stroke:none" d="M 16.703125 -25.3125 C 17.460938 -25.3125 18.160156 -25.097656 18.796875 -24.671875 C 19.429688 -24.242188 19.75 -23.582031 19.75 -22.6875 C 19.75 -22.03125 19.566406 -21.453125 19.203125 -20.953125 C 18.847656 -20.460938 18.378906 -20.21875 17.796875 -20.21875 C 17.515625 -20.21875 17.191406 -20.34375 16.828125 -20.59375 C 16.472656 -20.851562 16.050781 -21.113281 15.5625 -21.375 C 15.082031 -21.632812 14.484375 -21.765625 13.765625 -21.765625 C 13.316406 -21.765625 12.617188 -21.609375 11.671875 -21.296875 C 10.734375 -20.984375 9.765625 -20.378906 8.765625 -19.484375 L 8.765625 -6.859375 C 8.765625 -5.585938 8.820312 -4.585938 8.9375 -3.859375 C 9.0625 -3.140625 9.363281 -2.570312 9.84375 -2.15625 C 10.332031 -1.75 11.140625 -1.375 12.265625 -1.03125 L 12.265625 0 L 0.984375 0 L 0.984375 -1.03125 C 2.046875 -1.375 2.832031 -1.71875 3.34375 -2.0625 C 3.863281 -2.40625 4.207031 -2.9375 4.375 -3.65625 C 4.550781 -4.382812 4.640625 -5.453125 4.640625 -6.859375 L 4.640625 -18.828125 C 4.640625 -20.296875 4.296875 -21.347656 3.609375 -21.984375 C 2.921875 -22.628906 2.046875 -23 0.984375 -23.09375 L 0.984375 -24.125 C 2.253906 -24.195312 3.539062 -24.34375 4.84375 -24.5625 C 6.15625 -24.789062 7.289062 -25.09375 8.25 -25.46875 L 9.078125 -24.75 L 8.515625 -20.828125 C 9.710938 -21.929688 11.050781 -22.953125 12.53125 -23.890625 C 14.007812 -24.835938 15.398438 -25.3125 16.703125 -25.3125 Z M 16.703125 -25.3125 "/></g></g><g style="fill:#5b6946;fill-opacity:1;"><g transform="translate(137.492552, 94.396387)"><path style="stroke:none" d="M 14.03125 0.671875 C 11.582031 0.671875 9.429688 0.113281 7.578125 -1 C 5.722656 -2.125 4.28125 -3.65625 3.25 -5.59375 C 2.21875 -7.539062 1.703125 -9.71875 1.703125 -12.125 C 1.703125 -14.625 2.296875 -16.878906 3.484375 -18.890625 C 4.671875 -20.910156 6.234375 -22.503906 8.171875 -23.671875 C 10.117188 -24.835938 12.222656 -25.421875 14.484375 -25.421875 C 16.929688 -25.421875 19.070312 -24.859375 20.90625 -23.734375 C 22.75 -22.617188 24.1875 -21.125 25.21875 -19.25 C 26.25 -17.382812 26.765625 -15.316406 26.765625 -13.046875 C 26.765625 -10.460938 26.195312 -8.140625 25.0625 -6.078125 C 23.925781 -4.015625 22.40625 -2.375 20.5 -1.15625 C 18.59375 0.0625 16.4375 0.671875 14.03125 0.671875 Z M 15.15625 -0.875 C 17.15625 -0.875 18.84375 -1.613281 20.21875 -3.09375 C 21.59375 -4.570312 22.28125 -6.722656 22.28125 -9.546875 C 22.28125 -12.390625 21.910156 -14.894531 21.171875 -17.0625 C 20.429688 -19.226562 19.414062 -20.910156 18.125 -22.109375 C 16.832031 -23.316406 15.363281 -23.921875 13.71875 -23.921875 C 11.582031 -23.921875 9.816406 -23.15625 8.421875 -21.625 C 7.035156 -20.101562 6.34375 -17.878906 6.34375 -14.953125 C 6.34375 -12.128906 6.710938 -9.660156 7.453125 -7.546875 C 8.191406 -5.441406 9.222656 -3.800781 10.546875 -2.625 C 11.867188 -1.457031 13.40625 -0.875 15.15625 -0.875 Z M 15.15625 -0.875 "/></g></g><g style="fill:#5b6946;fill-opacity:1;"><g transform="translate(164.871437, 94.396387)"><path style="stroke:none" d="M 24.4375 -6.75 C 24.4375 -4.726562 24.726562 -3.335938 25.3125 -2.578125 C 25.894531 -1.816406 26.773438 -1.300781 27.953125 -1.03125 L 27.953125 0 L 21.25 0 L 20.671875 -0.828125 L 20.671875 -3.203125 C 18.710938 -1.929688 17.003906 -1 15.546875 -0.40625 C 14.085938 0.175781 12.617188 0.46875 11.140625 0.46875 C 6.671875 0.46875 4.4375 -2.316406 4.4375 -7.890625 L 4.4375 -18.609375 C 4.4375 -19.953125 4.125 -20.957031 3.5 -21.625 C 2.882812 -22.300781 1.976562 -22.722656 0.78125 -22.890625 L 0.78125 -23.921875 C 3.5625 -24.335938 5.878906 -24.972656 7.734375 -25.828125 L 8.5625 -25.109375 L 8.5625 -10.46875 C 8.5625 -8.851562 8.65625 -7.425781 8.84375 -6.1875 C 9.03125 -4.945312 9.457031 -3.984375 10.125 -3.296875 C 10.800781 -2.609375 11.859375 -2.265625 13.296875 -2.265625 C 14.234375 -2.265625 15.285156 -2.445312 16.453125 -2.8125 C 17.617188 -3.175781 18.90625 -3.800781 20.3125 -4.6875 L 20.3125 -18.359375 C 20.3125 -19.703125 20 -20.707031 19.375 -21.375 C 18.757812 -22.039062 17.851562 -22.460938 16.65625 -22.640625 L 16.65625 -23.671875 C 19.4375 -24.078125 21.753906 -24.710938 23.609375 -25.578125 L 24.4375 -24.859375 Z M 24.4375 -6.75 "/></g></g><g style="fill:#5b6946;fill-opacity:1;"><g transform="translate(192.869062, 94.396387)"><path style="stroke:none" d="M 16.34375 -3.25 L 16.90625 -2.21875 C 13.675781 -0.257812 11.082031 0.71875 9.125 0.71875 C 7.238281 0.71875 5.925781 0.078125 5.1875 -1.203125 C 4.445312 -2.492188 4.078125 -4.445312 4.078125 -7.0625 L 4.078125 -22.578125 L 1.03125 -22.578125 L 1.03125 -23.609375 C 2.644531 -24.296875 3.984375 -25.144531 5.046875 -26.15625 C 6.117188 -27.175781 6.976562 -28.320312 7.625 -29.59375 L 8.765625 -29.59375 L 8.296875 -24.078125 L 15.3125 -24.5 L 15.3125 -22.578125 L 8.203125 -22.578125 L 8.203125 -11.5 C 8.203125 -9.09375 8.285156 -7.179688 8.453125 -5.765625 C 8.628906 -4.359375 8.988281 -3.363281 9.53125 -2.78125 C 10.082031 -2.195312 10.894531 -1.90625 11.96875 -1.90625 C 12.550781 -1.90625 13.203125 -2.007812 13.921875 -2.21875 C 14.640625 -2.425781 15.445312 -2.769531 16.34375 -3.25 Z M 16.34375 -3.25 "/></g></g><g style="fill:#5b6946;fill-opacity:1;"><g transform="translate(209.265433, 94.396387)"><path style="stroke:none" d="M 8.96875 0.71875 C 6.84375 0.71875 4.59375 0.253906 2.21875 -0.671875 L 1.703125 -7.421875 L 2.6875 -7.578125 C 3.476562 -5.410156 4.40625 -3.722656 5.46875 -2.515625 C 6.53125 -1.316406 8.0625 -0.71875 10.0625 -0.71875 C 11.632812 -0.71875 12.9375 -1.164062 13.96875 -2.0625 C 15 -2.957031 15.515625 -4.109375 15.515625 -5.515625 C 15.515625 -6.679688 15.273438 -7.554688 14.796875 -8.140625 C 14.316406 -8.734375 13.617188 -9.203125 12.703125 -9.546875 C 11.796875 -9.890625 10.691406 -10.25 9.390625 -10.625 C 7.117188 -11.3125 5.394531 -12.1875 4.21875 -13.25 C 3.050781 -14.3125 2.46875 -15.875 2.46875 -17.9375 C 2.46875 -19.351562 2.847656 -20.617188 3.609375 -21.734375 C 4.367188 -22.847656 5.4375 -23.738281 6.8125 -24.40625 C 8.1875 -25.082031 9.785156 -25.421875 11.609375 -25.421875 C 12.492188 -25.421875 13.398438 -25.332031 14.328125 -25.15625 C 15.265625 -24.988281 16.316406 -24.734375 17.484375 -24.390625 L 18.09375 -18.15625 L 17.21875 -18 C 16.601562 -19.75 15.753906 -21.171875 14.671875 -22.265625 C 13.585938 -23.367188 12.253906 -23.921875 10.671875 -23.921875 C 9.296875 -23.921875 8.171875 -23.523438 7.296875 -22.734375 C 6.421875 -21.941406 5.984375 -21 5.984375 -19.90625 C 5.984375 -18.800781 6.28125 -17.914062 6.875 -17.25 C 7.476562 -16.582031 8.347656 -16.015625 9.484375 -15.546875 C 10.617188 -15.078125 11.960938 -14.601562 13.515625 -14.125 C 15.429688 -13.539062 16.863281 -12.757812 17.8125 -11.78125 C 18.757812 -10.800781 19.234375 -9.453125 19.234375 -7.734375 C 19.234375 -6.148438 18.800781 -4.710938 17.9375 -3.421875 C 17.082031 -2.140625 15.890625 -1.128906 14.359375 -0.390625 C 12.828125 0.347656 11.03125 0.71875 8.96875 0.71875 Z M 8.96875 0.71875 "/></g></g><g style="fill:#5b6946;fill-opacity:1;"><g transform="translate(229.425775, 94.396387)"><path style="stroke:none" d="M 14.03125 0.671875 C 11.582031 0.671875 9.429688 0.113281 7.578125 -1 C 5.722656 -2.125 4.28125 -3.65625 3.25 -5.59375 C 2.21875 -7.539062 1.703125 -9.71875 1.703125 -12.125 C 1.703125 -14.625 2.296875 -16.878906 3.484375 -18.890625 C 4.671875 -20.910156 6.234375 -22.503906 8.171875 -23.671875 C 10.117188 -24.835938 12.222656 -25.421875 14.484375 -25.421875 C 16.929688 -25.421875 19.070312 -24.859375 20.90625 -23.734375 C 22.75 -22.617188 24.1875 -21.125 25.21875 -19.25 C 26.25 -17.382812 26.765625 -15.316406 26.765625 -13.046875 C 26.765625 -10.460938 26.195312 -8.140625 25.0625 -6.078125 C 23.925781 -4.015625 22.40625 -2.375 20.5 -1.15625 C 18.59375 0.0625 16.4375 0.671875 14.03125 0.671875 Z M 15.15625 -0.875 C 17.15625 -0.875 18.84375 -1.613281 20.21875 -3.09375 C 21.59375 -4.570312 22.28125 -6.722656 22.28125 -9.546875 C 22.28125 -12.390625 21.910156 -14.894531 21.171875 -17.0625 C 20.429688 -19.226562 19.414062 -20.910156 18.125 -22.109375 C 16.832031 -23.316406 15.363281 -23.921875 13.71875 -23.921875 C 11.582031 -23.921875 9.816406 -23.15625 8.421875 -21.625 C 7.035156 -20.101562 6.34375 -17.878906 6.34375 -14.953125 C 6.34375 -12.128906 6.710938 -9.660156 7.453125 -7.546875 C 8.191406 -5.441406 9.222656 -3.800781 10.546875 -2.625 C 11.867188 -1.457031 13.40625 -0.875 15.15625 -0.875 Z M 15.15625 -0.875 "/></g></g><g style="fill:#5b6946;fill-opacity:1;"><g transform="translate(256.804647, 94.396387)"><path style="stroke:none" d="M 24.90625 -17.0625 L 24.859375 -6.859375 C 24.859375 -5.585938 24.914062 -4.585938 25.03125 -3.859375 C 25.15625 -3.140625 25.457031 -2.570312 25.9375 -2.15625 C 26.414062 -1.75 27.222656 -1.375 28.359375 -1.03125 L 28.359375 0 L 17.0625 0 L 17.0625 -1.03125 C 18.132812 -1.375 18.925781 -1.71875 19.4375 -2.0625 C 19.957031 -2.40625 20.300781 -2.9375 20.46875 -3.65625 C 20.644531 -4.382812 20.734375 -5.453125 20.734375 -6.859375 L 20.734375 -15 C 20.734375 -16.613281 20.632812 -18 20.4375 -19.15625 C 20.25 -20.3125 19.820312 -21.1875 19.15625 -21.78125 C 18.488281 -22.382812 17.429688 -22.6875 15.984375 -22.6875 C 14.054688 -22.6875 11.648438 -21.773438 8.765625 -19.953125 L 8.765625 -6.859375 C 8.765625 -5.585938 8.820312 -4.585938 8.9375 -3.859375 C 9.0625 -3.140625 9.363281 -2.570312 9.84375 -2.15625 C 10.332031 -1.75 11.140625 -1.375 12.265625 -1.03125 L 12.265625 0 L 0.984375 0 L 0.984375 -1.03125 C 2.046875 -1.375 2.832031 -1.71875 3.34375 -2.0625 C 3.863281 -2.40625 4.207031 -2.9375 4.375 -3.65625 C 4.550781 -4.382812 4.640625 -5.453125 4.640625 -6.859375 L 4.640625 -18.828125 C 4.640625 -20.296875 4.296875 -21.347656 3.609375 -21.984375 C 2.921875 -22.628906 2.046875 -23 0.984375 -23.09375 L 0.984375 -24.125 C 2.253906 -24.195312 3.539062 -24.34375 4.84375 -24.5625 C 6.15625 -24.789062 7.289062 -25.09375 8.25 -25.46875 L 9.078125 -24.75 L 8.609375 -21.34375 C 10.535156 -22.757812 12.238281 -23.789062 13.71875 -24.4375 C 15.195312 -25.09375 16.675781 -25.421875 18.15625 -25.421875 C 22.65625 -25.421875 24.90625 -22.632812 24.90625 -17.0625 Z M 24.90625 -17.0625 "/></g></g><g style="fill:#5b6946;fill-opacity:1;"><g transform="translate(284.905391, 94.396387)"><path style="stroke:none" d="M 23.359375 -25.78125 C 23.941406 -25.78125 24.335938 -25.582031 24.546875 -25.1875 C 24.753906 -24.789062 24.835938 -24.328125 24.796875 -23.796875 C 24.765625 -23.265625 24.628906 -22.773438 24.390625 -22.328125 L 18.609375 -22.796875 C 19.441406 -22.003906 20.085938 -21.070312 20.546875 -20 C 21.015625 -18.9375 21.25 -17.785156 21.25 -16.546875 C 21.25 -15.109375 20.832031 -13.757812 20 -12.5 C 19.175781 -11.25 18.023438 -10.226562 16.546875 -9.4375 C 15.066406 -8.644531 13.367188 -8.25 11.453125 -8.25 C 11.003906 -8.25 10.546875 -8.273438 10.078125 -8.328125 C 9.617188 -8.378906 9.164062 -8.441406 8.71875 -8.515625 C 8.0625 -8.335938 7.5 -8.066406 7.03125 -7.703125 C 6.570312 -7.347656 6.34375 -6.859375 6.34375 -6.234375 C 6.34375 -5.585938 6.710938 -5.066406 7.453125 -4.671875 C 8.191406 -4.273438 9.25 -4.054688 10.625 -4.015625 L 15.625 -3.96875 C 18.476562 -3.9375 20.617188 -3.53125 22.046875 -2.75 C 23.472656 -1.976562 24.1875 -0.492188 24.1875 1.703125 C 24.1875 2.972656 23.832031 4.273438 23.125 5.609375 C 22.414062 6.953125 21.375 8.191406 20 9.328125 C 18.625 10.460938 17.050781 11.347656 15.28125 11.984375 C 13.519531 12.617188 11.640625 12.9375 9.640625 12.9375 C 7.992188 12.9375 6.507812 12.601562 5.1875 11.9375 C 3.863281 11.269531 2.8125 10.398438 2.03125 9.328125 C 1.257812 8.265625 0.875 7.113281 0.875 5.875 C 0.875 4.632812 1.273438 3.472656 2.078125 2.390625 C 2.890625 1.316406 4.035156 0.140625 5.515625 -1.140625 C 4.722656 -1.546875 4.144531 -2.054688 3.78125 -2.671875 C 3.425781 -3.296875 3.25 -4.003906 3.25 -4.796875 C 3.25 -5.753906 3.609375 -6.613281 4.328125 -7.375 C 5.054688 -8.132812 5.898438 -8.703125 6.859375 -9.078125 C 5.347656 -9.660156 4.109375 -10.550781 3.140625 -11.75 C 2.179688 -12.957031 1.703125 -14.40625 1.703125 -16.09375 C 1.703125 -17.769531 2.128906 -19.3125 2.984375 -20.71875 C 3.847656 -22.132812 5.046875 -23.265625 6.578125 -24.109375 C 8.109375 -24.953125 9.851562 -25.375 11.8125 -25.375 C 12.875 -25.375 13.859375 -25.234375 14.765625 -24.953125 C 15.679688 -24.679688 16.519531 -24.304688 17.28125 -23.828125 C 18.476562 -24.335938 19.609375 -24.789062 20.671875 -25.1875 C 21.742188 -25.582031 22.640625 -25.78125 23.359375 -25.78125 Z M 11.96875 -9.484375 C 13.582031 -9.617188 14.851562 -10.226562 15.78125 -11.3125 C 16.707031 -12.394531 17.171875 -13.9375 17.171875 -15.9375 C 17.171875 -18.507812 16.609375 -20.539062 15.484375 -22.03125 C 14.367188 -23.53125 12.90625 -24.210938 11.09375 -24.078125 C 9.4375 -23.941406 8.148438 -23.359375 7.234375 -22.328125 C 6.328125 -21.296875 5.875 -19.785156 5.875 -17.796875 C 5.875 -15.179688 6.429688 -13.113281 7.546875 -11.59375 C 8.671875 -10.082031 10.144531 -9.378906 11.96875 -9.484375 Z M 14.640625 -0.3125 L 9.796875 -0.359375 C 9.210938 -0.359375 8.671875 -0.390625 8.171875 -0.453125 C 7.671875 -0.523438 7.21875 -0.613281 6.8125 -0.71875 C 6.019531 0.238281 5.457031 1.101562 5.125 1.875 C 4.800781 2.65625 4.640625 3.472656 4.640625 4.328125 C 4.640625 6.285156 5.316406 7.835938 6.671875 8.984375 C 8.035156 10.140625 9.816406 10.71875 12.015625 10.71875 C 14.765625 10.71875 16.929688 10.03125 18.515625 8.65625 C 20.097656 7.28125 20.890625 5.53125 20.890625 3.40625 C 20.890625 1.789062 20.351562 0.773438 19.28125 0.359375 C 18.21875 -0.0546875 16.671875 -0.28125 14.640625 -0.3125 Z M 14.640625 -0.3125 "/></g></g></g></svg>