<svg xmlns="http://www.w3.org/2000/svg" xmlns:xlink="http://www.w3.org/1999/xlink" width="486" zoomAndPan="magnify" viewBox="0 0 364.5 364.499998" height="486" preserveAspectRatio="xMidYMid meet" version="1.2"><defs><filter x="0%" y="0%" width="100%" filterUnits="objectBoundingBox" id="eedee1a5a2" height="100%"><feColorMatrix values="0 0 0 0 1 0 0 0 0 1 0 0 0 0 1 0 0 0 1 0" type="matrix" in="SourceGraphic"/></filter><clipPath id="52b6c3063e"><path d="M 0 0 L 363.921875 0 L 363.921875 363.921875 L 0 363.921875 Z M 0 0 "/></clipPath><clipPath id="944689e47f"><path d="M 181.960938 0 C 81.464844 0 0 81.464844 0 181.960938 C 0 282.453125 81.464844 363.921875 181.960938 363.921875 C 282.453125 363.921875 363.921875 282.453125 363.921875 181.960938 C 363.921875 81.464844 282.453125 0 181.960938 0 Z M 181.960938 0 "/></clipPath><clipPath id="ea2dfb0aa8"><rect x="0" width="364" y="0" height="364"/></clipPath><clipPath id="1bba9b42e3"><path d="M 1 0.894531 L 231 0.894531 L 231 194.949219 L 1 194.949219 Z M 1 0.894531 "/></clipPath><clipPath id="e2a13ea5b4"><rect x="0" width="232" y="0" height="196"/></clipPath><clipPath id="d8232a644d"><path d="M 100.203125 253.097656 L 175.875 253.097656 L 175.875 307 L 100.203125 307 Z M 100.203125 253.097656 "/></clipPath></defs><g id="1fd553b026"><g mask="url(#0f39633f6f)" transform="matrix(1,0,0,1,0,0.00000000000000323)"><g clip-path="url(#ea2dfb0aa8)"><g clip-rule="nonzero" clip-path="url(#52b6c3063e)"><g clip-rule="nonzero" clip-path="url(#944689e47f)"><path style=" stroke:none;fill-rule:nonzero;fill:#828d77;fill-opacity:1;" d="M 0 0 L 363.921875 0 L 363.921875 363.921875 L 0 363.921875 Z M 0 0 "/></g></g></g><mask id="0f39633f6f"><g filter="url(#eedee1a5a2)"><rect x="0" width="364.5" y="0" height="364.499998" style="fill:#000000;fill-opacity:0.49;stroke:none;"/></g></mask></g><g mask="url(#072073c827)" transform="matrix(1,0,0,1,69,56)"><g clip-path="url(#e2a13ea5b4)"><g clip-rule="nonzero" clip-path="url(#1bba9b42e3)"><path style=" stroke:none;fill-rule:nonzero;fill:#fcf6e8;fill-opacity:1;" d="M 229.96875 1.820312 C 229.414062 1.242188 228.644531 0.914062 227.84375 0.914062 C 180.125 0.914062 145.125 13.886719 123.816406 39.472656 C 103.988281 63.273438 100.847656 92.058594 101.117188 109.5 C 97.53125 103.40625 93.265625 97.503906 88.195312 92.015625 C 68.703125 70.925781 41.066406 60.230469 6.050781 60.230469 C 4.707031 60.230469 3.539062 61.132812 3.195312 62.425781 C 2.851562 63.722656 -4.980469 94.464844 13.894531 118.976562 C 28.5 137.941406 54.769531 147.558594 91.972656 147.558594 C 92.835938 147.558594 93.65625 147.179688 94.21875 146.523438 C 94.777344 145.867188 95.023438 145 94.890625 144.144531 C 94.671875 142.761719 88.996094 110.023438 38 89.605469 C 36.496094 89 34.761719 89.730469 34.164062 91.25 C 33.554688 92.761719 34.292969 94.480469 35.808594 95.085938 C 73.964844 110.367188 85.128906 133.03125 88.082031 141.613281 C 54.902344 140.984375 31.542969 132.179688 18.609375 115.417969 C 4.246094 96.808594 7.101562 73.375 8.4375 66.152344 C 40.589844 66.621094 65.949219 76.660156 83.835938 95.996094 C 117.773438 132.691406 113.628906 191.210938 113.582031 191.796875 C 113.453125 193.425781 114.667969 194.84375 116.292969 194.96875 C 116.371094 194.980469 116.453125 194.984375 116.53125 194.984375 C 118.058594 194.984375 119.347656 193.808594 119.472656 192.257812 C 119.617188 190.386719 122.03125 156.625 108.144531 123.570312 C 107.316406 118.226562 101.691406 75.253906 128.351562 43.25 C 148.015625 19.640625 180.40625 7.394531 224.648438 6.839844 C 222.972656 24.507812 210.453125 111.753906 127.445312 113.777344 C 127.765625 103.402344 131.589844 66.933594 168.414062 45.761719 C 169.828125 44.945312 170.3125 43.140625 169.503906 41.726562 C 168.6875 40.3125 166.886719 39.828125 165.46875 40.640625 C 119.316406 67.179688 121.515625 116.433594 121.542969 116.929688 C 121.632812 118.496094 122.921875 119.71875 124.492188 119.71875 C 224.835938 119.71875 230.742188 5.148438 230.789062 3.992188 C 230.824219 3.1875 230.527344 2.402344 229.96875 1.820312 "/></g></g><mask id="072073c827"><g filter="url(#eedee1a5a2)"><rect x="0" width="364.5" y="0" height="364.499998" style="fill:#000000;fill-opacity:0.97;stroke:none;"/></g></mask></g><path style="fill:none;stroke-width:14;stroke-linecap:round;stroke-linejoin:miter;stroke:#fcf6e8;stroke-opacity:1;stroke-miterlimit:4;" d="M 9.355092 9.172624 C 52.608168 26.841527 95.862917 26.828335 139.116446 9.124599 " transform="matrix(0.144528,-0.417631,0.412905,0.142893,162.016752,296.029867)"/><g clip-rule="nonzero" clip-path="url(#d8232a644d)"><path style=" stroke:none;fill-rule:nonzero;fill:#fcf6e8;fill-opacity:1;" d="M 138.085938 253.101562 C 159.003906 253.101562 175.964844 265.15625 175.964844 280.03125 C 175.964844 294.90625 159.003906 306.964844 138.085938 306.964844 C 117.164062 306.964844 100.203125 294.90625 100.203125 280.03125 C 100.203125 265.15625 117.164062 253.101562 138.085938 253.101562 Z M 110.101562 293.914062 C 116.792969 303.410156 134.746094 304.890625 150.199219 297.222656 C 165.65625 289.558594 172.757812 275.644531 166.066406 266.148438 C 159.375 256.65625 141.425781 255.175781 125.96875 262.839844 C 110.515625 270.507812 103.410156 284.417969 110.101562 293.914062 Z M 110.101562 293.914062 "/></g></g></svg>