<svg width="1280" height="230" xmlns="http://www.w3.org/2000/svg" xmlns:xlink="http://www.w3.org/1999/xlink" xml:space="preserve" overflow="hidden"><defs><clipPath id="clip0"><rect x="0" y="-20" width="1280" height="230"/></clipPath><clipPath id="clip1"><rect x="0" y="-20" width="1280" height="230"/></clipPath><clipPath id="clip2"><rect x="0" y="-19" width="1280" height="229"/></clipPath><clipPath id="clip3"><rect x="0" y="-19" width="1280" height="229"/></clipPath><clipPath id="clip4"><rect x="-2" y="156" width="67" height="53"/></clipPath><clipPath id="clip5"><path d="M-148.582-1.46916 1367.17-1.46916C1370.17-1.46916 1373.05-0.27645 1375.18 1.84775 1377.3 3.96703 1378.49 6.85023 1378.49 9.85171L1378.49 146.486C1378.49 149.487 1377.3 152.37 1375.18 154.49 1373.05 156.614 1370.17 157.807 1367.17 157.807L-148.582 157.807C-151.588 157.807-154.466 156.614-156.59 154.49-158.714 152.37-159.907 149.487-159.907 146.486L-159.907 9.85171C-159.907 6.85023-158.714 3.96703-156.59 1.84775-154.466-0.27645-151.588-1.46916-148.582-1.46916Z" fill-rule="nonzero" clip-rule="nonzero"/></clipPath></defs><g clip-path="url(#clip0)" transform="matrix(1 0 0 1 0 20)"><g clip-path="url(#clip1)"><g clip-path="url(#clip2)"><g clip-path="url(#clip3)"><g><g><path d="M595.03 227.859C624.201 227.859 647.846 204.213 647.846 175.042L542.219 175.042C542.219 204.213 565.865 227.859 595.03 227.859Z" fill="#828D77" fill-rule="nonzero" fill-opacity="1" transform="matrix(1 0 0 1.00006 -161.785 -19)"/></g><g><path d="M489.402 227.859C518.573 227.859 542.219 204.213 542.219 175.042L436.591 175.042C436.591 204.213 460.237 227.859 489.402 227.859Z" fill="#828D77" fill-rule="nonzero" fill-opacity="1" transform="matrix(1 0 0 1.00006 -161.785 -19)"/></g><g><path d="M383.775 227.859C412.945 227.859 436.591 204.213 436.591 175.042L330.963 175.042C330.963 204.213 354.609 227.859 383.775 227.859Z" fill="#828D77" fill-rule="nonzero" fill-opacity="1" transform="matrix(1 0 0 1.00006 -161.785 -19)"/></g><g><path d="M278.147 227.859C307.317 227.859 330.963 204.213 330.963 175.042L225.331 175.042C225.331 204.213 248.976 227.859 278.147 227.859Z" fill="#828D77" fill-rule="nonzero" fill-opacity="1" transform="matrix(1 0 0 1.00006 -161.785 -19)"/></g><g clip-path="url(#clip4)"><path d="M172.519 227.859C201.69 227.859 225.331 204.213 225.331 175.042L119.703 175.042C119.703 204.213 143.349 227.859 172.519 227.859Z" fill="#828D77" fill-rule="nonzero" fill-opacity="1" transform="matrix(1 0 0 1.00006 -161.785 -19)"/></g><g><path d="M1124.5 227.859C1153.67 227.859 1177.32 204.213 1177.32 175.042L1071.69 175.042C1071.69 204.213 1095.33 227.859 1124.5 227.859Z" fill="#828D77" fill-rule="nonzero" fill-opacity="1" transform="matrix(1 0 0 1.00006 -161.785 -19)"/></g><g><path d="M1018.87 227.859C1048.04 227.859 1071.69 204.213 1071.69 175.042L966.055 175.042C966.055 204.213 989.701 227.859 1018.87 227.859Z" fill="#828D77" fill-rule="nonzero" fill-opacity="1" transform="matrix(1 0 0 1.00006 -161.785 -19)"/></g><g><path d="M913.244 227.859C942.409 227.859 966.055 204.213 966.055 175.042L860.428 175.042C860.428 204.213 884.073 227.859 913.244 227.859Z" fill="#828D77" fill-rule="nonzero" fill-opacity="1" transform="matrix(1 0 0 1.00006 -161.785 -19)"/></g><g><path d="M807.616 227.859C836.782 227.859 860.428 204.213 860.428 175.042L754.8 175.042C754.8 204.213 778.446 227.859 807.616 227.859Z" fill="#828D77" fill-rule="nonzero" fill-opacity="1" transform="matrix(1 0 0 1.00006 -161.785 -19)"/></g><g><path d="M701.988 227.859C731.154 227.859 754.8 204.213 754.8 175.042L649.172 175.042C649.172 204.213 672.818 227.859 701.988 227.859Z" fill="#828D77" fill-rule="nonzero" fill-opacity="1" transform="matrix(1 0 0 1.00006 -161.785 -19)"/></g><g><g clip-path="url(#clip5)"><path d="M1.87767 17.5299 1540.46 17.5299 1540.46 176.797 1.87767 176.797Z" fill="#828D77" fill-rule="nonzero" fill-opacity="1" transform="matrix(1 0 0 1.00006 -161.785 -19)"/></g></g><path d="M4.37631 0.236557C1.93188-0.788524 0.512541-2.57256 0.118279-5.12541-0.275983-7.68811 0.0985655-10.6845 1.24193-14.1146 2.38529-17.5447 3.9919-21.1226 6.07164-24.8582 8.16122-28.6037 10.4282-32.1718 12.8727-35.5624 17.8404-42.4867 23.291-48.8392 29.2345-54.625 35.1731-60.4207 41.2595-65.4771 47.4889-69.8041 48.1985-75.4815 47.9226-80.3407 46.6609-84.3918 45.3993-88.4527 42.9154-90.838 39.2094-91.5476 36.5382-92.0208 34.2417-91.7054 32.3098-90.6014 30.3779-89.4975 28.6826-87.8613 27.2238-85.6929 25.765-83.5244 24.464-81.08 23.3206-78.3596 22.1871-75.649 21.0733-72.9976 19.9694-70.3955 19.2597-68.7396 18.3135-67.6751 17.1307-67.202 15.9479-66.7289 14.7848-66.7289 13.6415-67.202 12.4981-67.6751 11.7096-68.4833 11.2759-69.6267 10.8422-70.77 11.0591-72.1697 11.9264-73.8256 13.8189-77.5316 16.2732-80.9716 19.2991-84.1552 22.3349-87.3488 25.627-89.8523 29.1754-91.6659 32.7238-93.4795 36.2623-94.1498 39.8008-93.6767 44.2953-93.1247 47.6959-91.0745 50.0121-87.5262 52.3383-83.9778 53.3042-79.291 52.91-73.4707 62.0421-79.1333 69.8731-82.7359 76.408-84.2735 82.9527-85.8111 88.2457-85.8111 92.2967-84.2735 96.3576-82.7359 99.1372-80.2373 100.635-76.7825 101.897-73.9438 102.35-70.7109 101.996-67.0837 101.641-63.4663 100.517-59.711 98.6246-55.8078 96.7421-51.9145 94.0906-48.1394 90.6606-44.4728 87.2305-40.8061 83.0365-37.519 78.0836-34.6162 72.012-31.0678 66.8077-28.9388 62.4708-28.2292 58.1438-27.5195 54.7039-27.8349 52.1412-29.1754 49.5883-30.5159 47.9226-32.4576 47.134-35.0105 46.3455-37.5732 46.4638-40.2739 47.4889-43.1126 48.3562-45.557 49.9037-47.893 52.1412-50.1304 54.3884-52.3777 57.3257-54.2505 60.9529-55.7487 64.5801-57.2468 68.8677-58.0748 73.8256-58.2325 75.6392-58.3114 76.9402-57.9762 77.7288-57.2271 78.5173-56.478 78.8721-55.6107 78.7933-54.625 78.7144-53.6394 78.3004-52.7917 77.5513-52.082 76.8022-51.3822 75.7969-51.0766 74.5352-51.1555 66.5022-51.7715 60.4798-51.1555 56.4583-49.3025 52.4467-47.4593 50.0516-45.281 49.263-42.7577 48.6322-40.7864 48.8786-38.8545 50.0121-36.9621 51.1555-35.0795 53.0085-33.6108 55.5712-32.5463 58.1339-31.4818 61.219-31.1664 64.8364-31.6001 68.4636-32.0338 72.4456-33.5911 76.7825-36.2721 79.7641-38.0709 82.4008-40.4119 84.6875-43.29 86.9742-46.1681 88.7878-49.2729 90.1283-52.6143 91.4688-55.9655 92.277-59.2477 92.553-62.4708 92.829-65.7038 92.4939-68.6213 91.5476-71.2234 90.3649-74.2987 88.2358-76.5854 85.1606-78.0836 82.0952-79.5818 77.9259-79.7986 72.6428-78.7341 67.3695-77.6696 60.8346-74.8112 53.0282-70.1589L52.5551-69.9224C52.0032-66.305 50.9978-62.3723 49.539-58.1142 48.0901-53.8562 46.1089-49.3271 43.5857-44.5319 41.2201-39.9585 38.6968-35.3653 36.0158-30.7524 33.3447-26.1494 30.6342-21.783 27.8743-17.6432 25.1145-13.5133 22.3547-9.9354 19.5948-6.89959 16.8448-3.87362 14.1934-1.69533 11.6307-0.354836 9.06803 0.985655 6.64824 1.18279 4.37631 0.236557ZM12.0447-9.20602C14.4103-8.10209 17.9488-10.6352 22.6701-16.8153 27.4012-23.0052 32.9505-32.3591 39.3276-44.8867 42.9548-52.0475 45.4387-59.0605 46.7792-65.9206 42.2057-62.4511 37.8492-58.3902 33.7094-53.7379 29.5795-49.0955 25.8636-44.3348 22.5518-39.4459 19.2498-34.5669 16.559-29.9836 14.4694-25.6862 12.3798-21.3986 11.0788-17.7615 10.5662-14.7651 10.0537-11.7687 10.5465-9.91569 12.0447-9.20602Z" fill="#FCF6E8" fill-rule="nonzero" fill-opacity="1" transform="matrix(1 0 0 1.00006 422.981 118.215)"/><path d="M4.61287-0.82795C1.93188-2.64156 0.433688-4.93813 0.118279-7.72754-0.197131-10.5268 0.31541-13.5035 1.6559-16.6576 2.99639-19.8117 4.88885-22.7982 7.33327-25.627 9.84177-28.6234 12.6558-31.1467 15.7705-33.1969 18.8852-35.247 21.8914-36.5185 24.7991-37.0212 27.7166-37.5337 30.0428-37.0458 31.7775-35.5624 32.9603-34.5374 33.4531-33.0392 33.256-31.0678 33.0589-29.0965 32.2703-26.9872 30.8904-24.7399 29.5105-22.5025 27.6378-20.3833 25.2722-18.3726 22.9165-16.3619 20.0877-14.844 16.7759-13.8189 15.2777-13.3458 14.0752-13.4049 13.1684-13.9963 12.2615-14.5877 11.7096-15.3959 11.5125-16.421 11.3153-17.4461 11.4927-18.3726 12.0447-19.2006 12.5967-20.0285 13.5823-20.4425 15.0017-20.4425 18.7866-20.4425 21.8323-21.0043 24.1486-22.1378 26.4747-23.2812 28.2094-24.7005 29.3528-26.3958 30.4962-28.0912 31.0678-29.7274 31.0678-31.3044 31.0678-32.8815 30.6342-34.0642 29.7668-34.8528 28.7417-35.8778 27.4012-36.1144 25.7453-35.5624 24.0894-35.0105 22.3152-33.9657 20.4228-32.4281 18.5402-30.8904 16.7364-29.0965 15.0017-27.0464 13.3458-25.1539 11.9461-23.084 10.8028-20.8367 9.65942-18.5993 9.00889-16.421 8.85118-14.292 8.69348-12.163 9.20602-10.2311 10.3888-8.49635 12.0447-6.29834 14.2723-5.32254 17.0715-5.55909 19.8708-5.79565 23.0348-7.04743 26.5733-9.3243 30.1216-11.611 33.8178-14.6863 37.6717-18.55L38.3814-17.8404C36.42-15.2382 34.0248-12.5967 31.1861-9.91569 28.3474-7.24457 25.3313-4.94799 22.1378-3.0161 18.9541-1.08422 15.8296 0.157705 12.7544 0.709672 9.67913 1.26164 6.96365 0.749098 4.61287-0.82795Z" fill="#FCF6E8" fill-rule="nonzero" fill-opacity="1" transform="matrix(1 0 0 1.00006 504.842 118.215)"/><path d="M6.50532-1.77418C4.61287-3.66664 4.02147-5.86465 4.73114-8.37807 5.44082-10.9013 7.71768-13.8583 11.5716-17.249 14.016-19.378 16.4112-21.4971 18.7669-23.6163 21.1324-25.7453 22.9461-27.9138 24.2077-30.1216 24.9962-31.4621 24.9962-32.6449 24.2077-33.67 23.4192-34.6951 22.4138-35.4047 21.1916-35.799 19.9792-36.1933 19.0231-36.0355 18.3135-35.3259 17.2095-34.3008 15.6719-32.7829 13.7006-30.7722 11.7293-28.7614 9.60028-26.5535 7.31356-24.1486 5.0367-21.7534 2.83869-19.378 0.709672-17.0124L0-17.8404 15.5931-35.6807C16.3027-36.5333 16.559-37.514 16.3619-38.618 16.1647-39.7219 15.869-40.9441 15.4748-42.2846 15.0805-43.6251 14.8834-45.0444 14.8834-46.5426 14.8834-47.8043 15.2777-48.8096 16.0662-49.5587 16.8547-50.3078 17.8009-50.7415 18.9049-50.8598 20.0088-50.9781 21.0043-50.7218 21.9013-50.091 22.8081-49.4602 23.3797-48.4351 23.6163-47.0157 23.774-45.833 23.5769-44.8276 23.0249-43.9996 22.4729-43.1717 22.123-41.8903 21.9801-40.1556 21.9801-39.4459 22.3251-38.7757 23.0249-38.1449 23.7346-37.514 24.5625-36.8438 25.5088-36.1341 26.455-35.4343 27.2829-34.6753 27.9926-33.8474 28.7023-33.0194 29.0177-32.0141 28.9388-30.8313 28.86-28.86 28.1897-26.9281 26.9281-25.0356 25.6665-23.1432 24.188-21.3493 22.4926-19.654 20.8072-17.9685 19.2006-16.421 17.6629-15.0017 16.1253-13.5823 15.0017-12.2813 14.292-11.0985 13.5823-9.91569 13.5823-8.89061 14.292-8.02323 15.9479-6.14063 18.757-6.2392 22.7292-8.31893 26.7113-10.4085 31.9254-14.9228 38.3814-21.8618L39.2094-21.507C35.1977-16.145 31.0678-11.5913 26.8098-7.84581 22.5616-4.11018 18.6486-1.63619 15.0608-0.413975 11.473 0.808237 8.61955 0.354836 6.50532-1.77418Z" fill="#FCF6E8" fill-rule="nonzero" fill-opacity="1" transform="matrix(1 0 0 1.00006 544.296 118.215)"/><path d="M-19.8511 33.3151C-20.7185 35.1287-21.7534 36.282-22.9658 36.7846-24.188 37.2972-25.3116 37.3169-26.3367 36.8438-27.3618 36.3805-28.0123 35.5821-28.2883 34.4388-28.5643 33.2954-28.2292 32.0141-27.2829 30.5947-23.5079 24.9272-19.9891 19.654-16.7167 14.7651-13.4443 9.87626-10.3297 5.12541-7.3727 0.512541-4.42559-4.08554-1.47848-8.74276 1.47848-13.464 4.43545-18.1952 7.52055-23.1925 10.7436-28.4657 12.6361-31.541 14.8045-35.0006 17.249-38.8545 19.6934-42.7183 22.1871-46.5525 24.7399-50.367 27.3026-54.1913 29.6682-57.6017 31.8367-60.5981 34.0051-63.5945 35.7103-65.7531 36.9621-67.0837 38.2237-68.503 39.4853-69.2521 40.747-69.331 42.0086-69.4098 43.0534-69.055 43.8814-68.2665 44.7093-67.478 45.1233-66.4923 45.1233-65.3095 45.1233-64.1366 44.4925-62.9636 43.2308-61.7809 42.4423-61.0712 40.5104-59.2773 37.4352-56.3992 34.3698-53.5211 30.713-49.677 26.455-44.867 22.2068-40.0669 17.9586-34.3254 13.7006-27.6378L8.37807-19.1414C5.7858-14.3314 5.28311-10.8225 6.86016-8.61463 8.42242-6.33776 11.2168-6.14063 15.2382-8.02323 19.2597-9.91569 24.1387-13.9372 29.8851-20.0877L30.713-19.6145C28.032-16.0662 25.2328-12.8529 22.3152-9.97483 19.4075-7.10657 16.559-4.77057 13.7597-2.95697 10.9605-1.14336 8.39778-0.0394262 6.07164 0.354836 3.75535 0.749098 1.89246 0.275983 0.473114-1.06451-0.31541-1.85303-0.749098-2.68098-0.82795-3.54836-4.0609 2.20787-7.22485 8.11194-10.3297 14.1737-13.4443 20.2306-16.6181 26.6127-19.8511 33.3151Z" fill="#FCF6E8" fill-rule="nonzero" fill-opacity="1" transform="matrix(1 0 0 1.00006 578.434 118.215)"/><path d="M1.41934-0.473114C-0.867377-2.28672-1.97131-4.56358-1.89246-7.31356-1.81361-10.0734-0.867377-13.0698 0.946229-16.3027 2.75983-19.5357 5.11555-22.7588 8.02323-25.9819 10.9408-29.2148 13.9372-31.8169 17.0124-33.7883 20.0877-35.7596 22.9559-36.9719 25.627-37.4352 28.308-37.9083 30.4765-37.4795 32.1324-36.1538 34.4979-34.3402 35.2865-31.403 34.4979-27.3421 33.7094-23.291 31.6987-19.0626 28.4657-14.6468 29.0177-13.7795 30.1216-13.3063 31.7775-13.2275 33.4334-13.1486 35.454-13.7597 37.8492-15.0608 40.2542-16.3619 42.7577-18.5106 45.3598-21.507L46.0695-20.7973C43.152-17.0124 40.4316-14.2526 37.9083-12.5178 35.3949-10.7831 33.0786-9.81712 30.9496-9.61999 28.8206-9.42286 26.8887-9.71856 25.1539-10.5071 22.4039-7.36284 19.4963-4.81 16.421-2.83869 13.3458-0.867377 10.4874 0.335123 7.84581 0.768811 5.21411 1.2025 3.07524 0.788524 1.41934-0.473114ZM8.02323-8.37807C9.83684-6.88973 12.1038-6.49547 14.8243-7.19528 17.5447-7.90495 20.3144-9.482 23.1432-11.9264 22.7489-12.3995 22.3349-13.0501 21.9013-13.878 21.4774-14.706 21.3493-15.7902 21.507-17.1307 21.6647-18.4712 22.3251-20.0088 23.498-21.7436 24.7597-23.5424 25.9227-24.6414 26.9872-25.0356 28.0517-25.4299 28.998-25.4496 29.8259-25.0948 30.6539-24.7399 31.265-24.326 31.6592-23.8529 32.4478-25.9819 32.7632-27.8743 32.6055-29.5302 32.4478-31.1861 31.9352-32.4083 31.0678-33.1969 29.8062-34.3008 28.1897-34.7936 26.2184-34.6753 24.2471-34.5571 22.197-33.8868 20.0679-32.6646 17.9488-31.4424 15.9873-29.7668 14.1737-27.6378 12.1236-25.1933 10.4085-22.6898 9.0286-20.1271 7.65854-17.5742 6.86016-15.2579 6.6236-13.1684 6.38704-11.0788 6.8503-9.482 8.02323-8.37807Z" fill="#FCF6E8" fill-rule="nonzero" fill-opacity="1" transform="matrix(1 0 0 1.00006 606.666 118.215)"/><path d="M6.50532-1.77418C4.61287-3.66664 4.02147-5.86465 4.73114-8.37807 5.44082-10.9013 7.71768-13.8583 11.5716-17.249 14.016-19.378 16.4112-21.4971 18.7669-23.6163 21.1324-25.7453 22.9461-27.9138 24.2077-30.1216 24.9962-31.4621 24.9962-32.6449 24.2077-33.67 23.4192-34.6951 22.4138-35.4047 21.1916-35.799 19.9792-36.1933 19.0231-36.0355 18.3135-35.3259 17.2095-34.3008 15.6719-32.7829 13.7006-30.7722 11.7293-28.7614 9.60028-26.5535 7.31356-24.1486 5.0367-21.7534 2.83869-19.378 0.709672-17.0124L0-17.8404 15.5931-35.6807C16.3027-36.5333 16.559-37.514 16.3619-38.618 16.1647-39.7219 15.869-40.9441 15.4748-42.2846 15.0805-43.6251 14.8834-45.0444 14.8834-46.5426 14.8834-47.8043 15.2777-48.8096 16.0662-49.5587 16.8547-50.3078 17.8009-50.7415 18.9049-50.8598 20.0088-50.9781 21.0043-50.7218 21.9013-50.091 22.8081-49.4602 23.3797-48.4351 23.6163-47.0157 23.774-45.833 23.5769-44.8276 23.0249-43.9996 22.4729-43.1717 22.123-41.8903 21.9801-40.1556 21.9801-39.4459 22.3251-38.7757 23.0249-38.1449 23.7346-37.514 24.5625-36.8438 25.5088-36.1341 26.455-35.4343 27.2829-34.6753 27.9926-33.8474 28.7023-33.0194 29.0177-32.0141 28.9388-30.8313 28.86-28.86 28.1897-26.9281 26.9281-25.0356 25.6665-23.1432 24.188-21.3493 22.4926-19.654 20.8072-17.9685 19.2006-16.421 17.6629-15.0017 16.1253-13.5823 15.0017-12.2813 14.292-11.0985 13.5823-9.91569 13.5823-8.89061 14.292-8.02323 15.9479-6.14063 18.757-6.2392 22.7292-8.31893 26.7113-10.4085 31.9254-14.9228 38.3814-21.8618L39.2094-21.507C35.1977-16.145 31.0678-11.5913 26.8098-7.84581 22.5616-4.11018 18.6486-1.63619 15.0608-0.413975 11.473 0.808237 8.61955 0.354836 6.50532-1.77418Z" fill="#FCF6E8" fill-rule="nonzero" fill-opacity="1" transform="matrix(1 0 0 1.00006 651.435 118.215)"/><path d="M14.7651-0.118279C13.5035-0.985655 13.1092-2.26701 13.5823-3.96233 14.0554-5.65766 15.0608-7.55998 16.5984-9.67913 18.1361-11.8081 19.861-13.9963 21.783-16.2436 23.7149-18.4909 25.5285-20.6298 27.2238-22.6701 28.9191-24.7202 30.2202-26.4944 31.127-27.9926 32.0338-29.4908 32.1324-30.5553 31.4227-31.1861 30.4765-32.1324 29.0374-32.0732 27.1055-31.0087 25.1736-29.9442 23.0249-28.2686 20.6593-25.9819 18.3036-23.6951 15.869-21.1374 13.3458-18.3135 10.5859-15.2382 7.96409-12.163 5.48024-9.08774 3.00625-6.02235 0.985655-3.58778-0.591393-1.77418-1.77418-0.354836-3.05553 0.275983-4.43545 0.118279-5.81536-0.0394262-6.79116-0.729385-7.3727-1.9516-7.96409-3.17381-7.71275-4.57344-6.6236-6.15049-5.91393-7.08193-4.88885-8.41749-3.54836-10.1522-2.20787-11.887-0.808237-13.74 0.650532-15.7113 2.1093-17.6827 3.35123-19.4174 4.37631-20.9156 5.95336-23.2664 7.16571-25.1342 8.02323-26.5141 8.89061-27.894 9.65942-29.1557 10.3297-30.299 10.9999-31.4424 11.8081-32.7632 12.7544-34.2614 13.6218-35.6807 14.6468-36.5579 15.8296-36.9029 17.0124-37.2578 18.0572-37.1986 18.964-36.7255 19.8708-36.2623 20.4031-35.4836 20.5608-34.3797 20.7185-33.2757 20.2454-32.0141 19.1414-30.5947 17.6432-28.6234 15.6128-26.5141 13.0501-24.2668 10.4874-22.0294 8.14644-19.5751 6.03221-16.8941 4.45516-14.9228 3.13438-13.1881 2.06988-11.6899 1.00537-10.1917 0.749098-9.24545 1.30106-8.85118 1.77418-8.53577 2.66127-9.04831 3.96233-10.3888 5.2634-11.7293 6.8503-13.5232 8.7329-15.7705 10.6254-18.0178 12.5572-20.2355 14.5286-22.4335 16.5787-24.7202 18.6584-26.9478 20.7776-29.1163 22.9066-31.2847 24.9765-33.1279 26.9872-34.6556 28.998-36.1933 30.9101-37.1789 32.7238-37.6126 34.5374-38.0463 36.1045-37.6372 37.4352-36.3904 38.6968-35.2076 39.1502-33.7488 38.7954-32.0141 38.4405-30.2793 37.5535-28.4263 36.1341-26.455 34.7246-24.4837 33.1377-22.4926 31.3635-20.4819 29.5894-18.481 27.9138-16.6181 26.3367-14.8834 24.7597-13.1486 23.5769-11.6504 22.7883-10.3888 22.0097-9.12717 21.9703-8.22036 22.6701-7.6684 23.3797-7.20514 24.1288-7.22485 24.9174-7.72754 25.7059-8.24008 26.9675-9.482 28.7023-11.4533 30.437-13.4246 32.9603-16.3422 36.2721-20.2059 38.2286-22.4779 40.2936-24.8385 42.462-27.2829 44.6305-29.7274 46.7693-31.8761 48.8885-33.7291 51.0175-35.5821 53.0677-36.8339 55.039-37.4943 57.0103-38.1646 58.745-37.8344 60.2432-36.5087 61.5837-35.4047 62.0963-34.0051 61.7809-32.3098 61.4655-30.6144 60.6769-28.7614 59.4153-26.7507 58.1537-24.7399 56.6752-22.7095 54.9798-20.6593 53.2845-18.619 51.6878-16.6773 50.1896-14.8243 48.7012-12.9712 47.6269-11.335 46.9566-9.91569 46.2864-8.49635 46.3061-7.43677 47.0157-6.74188 48.0408-5.79565 49.746-5.63795 52.1412-6.26877 54.5462-6.89959 57.3651-8.3485 60.5981-10.6254 63.831-12.9121 67.133-15.9873 70.5138-19.8511L71.3417-19.1414C68.503-15.9085 65.5066-12.8727 62.3525-10.034 59.2083-7.20514 56.1232-4.82971 53.0874-2.89783 50.0614-0.965942 47.3114 0.236557 44.8276 0.709672 42.3437 1.18279 40.3921 0.670245 38.9728-0.82795 37.5633-2.405 37.0113-4.1299 37.3169-6.0125 37.6323-7.90495 38.4997-9.89598 39.919-11.9856 41.3384-14.0752 42.9943-16.145 44.8867-18.1952 46.7792-20.2454 48.5632-22.1477 50.2487-23.912 51.944-25.6862 53.2057-27.2238 54.0336-28.5249 54.8616-29.8259 54.9207-30.7524 54.211-31.3044 53.0282-32.3295 51.4709-32.2309 49.539-31.0087 47.617-29.7865 45.4978-27.9138 43.1717-25.3905 40.8455-22.8771 38.5046-20.2059 36.1538-17.3672 32.7632-13.2669 29.7865-9.67913 27.2238-6.60389 24.6611-3.5385 22.3941-1.37992 20.4228-0.118279 18.4613 1.14336 16.5787 1.14336 14.7651-0.118279Z" fill="#FCF6E8" fill-rule="nonzero" fill-opacity="1" transform="matrix(1 0 0 1.00006 685.574 118.215)"/><path d="M4.61287-0.82795C1.93188-2.64156 0.433688-4.93813 0.118279-7.72754-0.197131-10.5268 0.31541-13.5035 1.6559-16.6576 2.99639-19.8117 4.88885-22.7982 7.33327-25.627 9.84177-28.6234 12.6558-31.1467 15.7705-33.1969 18.8852-35.247 21.8914-36.5185 24.7991-37.0212 27.7166-37.5337 30.0428-37.0458 31.7775-35.5624 32.9603-34.5374 33.4531-33.0392 33.256-31.0678 33.0589-29.0965 32.2703-26.9872 30.8904-24.7399 29.5105-22.5025 27.6378-20.3833 25.2722-18.3726 22.9165-16.3619 20.0877-14.844 16.7759-13.8189 15.2777-13.3458 14.0752-13.4049 13.1684-13.9963 12.2615-14.5877 11.7096-15.3959 11.5125-16.421 11.3153-17.4461 11.4927-18.3726 12.0447-19.2006 12.5967-20.0285 13.5823-20.4425 15.0017-20.4425 18.7866-20.4425 21.8323-21.0043 24.1486-22.1378 26.4747-23.2812 28.2094-24.7005 29.3528-26.3958 30.4962-28.0912 31.0678-29.7274 31.0678-31.3044 31.0678-32.8815 30.6342-34.0642 29.7668-34.8528 28.7417-35.8778 27.4012-36.1144 25.7453-35.5624 24.0894-35.0105 22.3152-33.9657 20.4228-32.4281 18.5402-30.8904 16.7364-29.0965 15.0017-27.0464 13.3458-25.1539 11.9461-23.084 10.8028-20.8367 9.65942-18.5993 9.00889-16.421 8.85118-14.292 8.69348-12.163 9.20602-10.2311 10.3888-8.49635 12.0447-6.29834 14.2723-5.32254 17.0715-5.55909 19.8708-5.79565 23.0348-7.04743 26.5733-9.3243 30.1216-11.611 33.8178-14.6863 37.6717-18.55L38.3814-17.8404C36.42-15.2382 34.0248-12.5967 31.1861-9.91569 28.3474-7.24457 25.3313-4.94799 22.1378-3.0161 18.9541-1.08422 15.8296 0.157705 12.7544 0.709672 9.67913 1.26164 6.96365 0.749098 4.61287-0.82795Z" fill="#FCF6E8" fill-rule="nonzero" fill-opacity="1" transform="matrix(1 0 0 1.00006 756.212 118.215)"/><path d="M6.50532-1.77418C4.61287-3.66664 4.02147-5.86465 4.73114-8.37807 5.44082-10.9013 7.71768-13.8583 11.5716-17.249 14.016-19.378 16.4112-21.4971 18.7669-23.6163 21.1324-25.7453 22.9461-27.9138 24.2077-30.1216 24.9962-31.4621 24.9962-32.6449 24.2077-33.67 23.4192-34.6951 22.4138-35.4047 21.1916-35.799 19.9792-36.1933 19.0231-36.0355 18.3135-35.3259 17.2095-34.3008 15.6719-32.7829 13.7006-30.7722 11.7293-28.7614 9.60028-26.5535 7.31356-24.1486 5.0367-21.7534 2.83869-19.378 0.709672-17.0124L0-17.8404 15.5931-35.6807C16.3027-36.5333 16.559-37.514 16.3619-38.618 16.1647-39.7219 15.869-40.9441 15.4748-42.2846 15.0805-43.6251 14.8834-45.0444 14.8834-46.5426 14.8834-47.8043 15.2777-48.8096 16.0662-49.5587 16.8547-50.3078 17.8009-50.7415 18.9049-50.8598 20.0088-50.9781 21.0043-50.7218 21.9013-50.091 22.8081-49.4602 23.3797-48.4351 23.6163-47.0157 23.774-45.833 23.5769-44.8276 23.0249-43.9996 22.4729-43.1717 22.123-41.8903 21.9801-40.1556 21.9801-39.4459 22.3251-38.7757 23.0249-38.1449 23.7346-37.514 24.5625-36.8438 25.5088-36.1341 26.455-35.4343 27.2829-34.6753 27.9926-33.8474 28.7023-33.0194 29.0177-32.0141 28.9388-30.8313 28.86-28.86 28.1897-26.9281 26.9281-25.0356 25.6665-23.1432 24.188-21.3493 22.4926-19.654 20.8072-17.9685 19.2006-16.421 17.6629-15.0017 16.1253-13.5823 15.0017-12.2813 14.292-11.0985 13.5823-9.91569 13.5823-8.89061 14.292-8.02323 15.9479-6.14063 18.757-6.2392 22.7292-8.31893 26.7113-10.4085 31.9254-14.9228 38.3814-21.8618L39.2094-21.507C35.1977-16.145 31.0678-11.5913 26.8098-7.84581 22.5616-4.11018 18.6486-1.63619 15.0608-0.413975 11.473 0.808237 8.61955 0.354836 6.50532-1.77418Z" fill="#FCF6E8" fill-rule="nonzero" fill-opacity="1" transform="matrix(1 0 0 1.00006 795.666 118.215)"/><path d="M-1.41934-2.60213C-3.1541-4.17918-4.2186-6.19977-4.61287-8.67377-5.00713-11.1576-4.33688-14.016-2.60213-17.249-1.89246-18.5895-0.946229-19.4174 0.236557-19.7328 1.41934-20.0482 2.44442-19.9694 3.3118-19.4963 5.67737-22.2413 7.99366-25.2525 10.2705-28.5249 12.5572-31.7972 15.0017-35.1977 17.6038-38.7362 17.8404-39.2094 18.1558-39.643 18.55-40.0373 19.8117-41.299 21.162-41.9495 22.6109-41.9889 24.0697-42.0283 25.4496-41.6932 26.7507-40.9835 28.0517-40.2739 29.0177-39.4065 29.6485-38.3814 30.437-37.2085 30.4962-36.0158 29.8259-34.7936 29.1557-33.5714 28.17-32.8026 26.869-32.4872 25.5679-32.1718 24.3654-32.6843 23.2615-34.0248 22.9461-34.4191 22.5715-35.1189 22.1378-36.1341 21.714-37.1592 21.231-37.4746 20.679-37.0803 19.2597-36.0651 18.5303-34.3994 18.4909-32.0732 18.4515-29.7471 18.7077-27.1449 19.2597-24.2668 19.8117-21.3986 20.3242-18.5303 20.7973-15.6522 21.2704-12.7741 21.2704-10.2705 20.7973-8.14151 23.0693-8.77233 25.4496-10.0537 27.9335-11.9856 30.4173-13.9174 33.3151-16.697 36.6269-20.3242L37.4352-19.7328C33.5813-14.9228 29.7865-11.0788 26.041-8.20065 22.3054-5.33239 18.9049-3.19352 15.8296-1.77418 14.016-0.591393 12.025 0.118279 9.85655 0.354836 7.69797 0.591393 5.61823 0.433688 3.6075-0.118279 1.59676-0.670245-0.0788524-1.4982-1.41934-2.60213ZM0-4.13975C0.946229-3.11467 2.18815-2.74012 3.72578-3.0161 5.2634-3.29209 6.88973-4.11018 8.61463-5.48024 10.3494-6.86016 11.9264-8.69348 13.3458-10.9802 14.7651-13.2669 15.7902-15.869 16.421-18.7866 16.8153-20.4425 16.9336-22.2462 16.7759-24.2077 16.6181-26.179 16.4802-28.17 16.3619-30.1808 16.2436-32.1915 16.3027-34.0248 16.5393-35.6807 14.568-32.6055 12.5967-29.7274 10.6254-27.0464 8.65405-24.3654 6.52996-21.6105 4.25803-18.7866 5.20426-17.6038 5.12541-16.0662 4.02147-14.1737 3.46951-13.1486 2.68098-12.0447 1.6559-10.8619 0.630819-9.67913-0.118279-8.51606-0.591393-7.3727-1.06451-6.2392-0.867377-5.16483 0-4.13975Z" fill="#FCF6E8" fill-rule="nonzero" fill-opacity="1" transform="matrix(1 0 0 1.00006 829.804 118.215)"/><g><path d="M1442.71 227.859C1471.88 227.859 1495.52 204.213 1495.52 175.042L1389.9 175.042C1389.9 204.213 1413.54 227.859 1442.71 227.859Z" fill="#828D77" fill-rule="nonzero" fill-opacity="1" transform="matrix(1 0 0 1.00006 -161.785 -19)"/></g><g><path d="M1337.09 227.859C1366.25 227.859 1389.9 204.213 1389.9 175.042L1284.27 175.042C1284.27 204.213 1307.92 227.859 1337.09 227.859Z" fill="#828D77" fill-rule="nonzero" fill-opacity="1" transform="matrix(1 0 0 1.00006 -161.785 -19)"/></g><g><path d="M1231.45 227.859C1260.62 227.859 1284.27 204.213 1284.27 175.042L1178.64 175.042C1178.64 204.213 1202.29 227.859 1231.45 227.859Z" fill="#828D77" fill-rule="nonzero" fill-opacity="1" transform="matrix(1 0 0 1.00006 -161.785 -19)"/></g></g></g></g></g></g></svg>