<svg xmlns="http://www.w3.org/2000/svg" xmlns:xlink="http://www.w3.org/1999/xlink" width="563" zoomAndPan="magnify" viewBox="0 0 422.25 469.499999" height="626" preserveAspectRatio="xMidYMid meet" version="1.2"><defs><clipPath id="17dda91299"><path d="M 0 0.167969 L 421.023438 0.167969 L 421.023438 468.835938 L 0 468.835938 Z M 0 0.167969 "/></clipPath><clipPath id="ae90580ee7"><path d="M 140.417969 10.976562 C 161.929688 4.449219 186.539062 0.167969 210.625 0.167969 C 234.710938 0.167969 257.882812 3.835938 279.242188 10.363281 C 279.695312 10.566406 280.152344 10.566406 280.605469 10.773438 C 360.8125 36.878906 419.886719 105.8125 421.023438 186.542969 L 421.023438 468.65625 L 0 468.65625 L 0 186.753906 C 1.136719 105.40625 59.300781 36.46875 140.417969 10.976562 Z M 140.417969 10.976562 "/></clipPath></defs><g id="4c0ee4d3b5"><g clip-rule="nonzero" clip-path="url(#17dda91299)"><g clip-rule="nonzero" clip-path="url(#ae90580ee7)"><path style=" stroke:none;fill-rule:nonzero;fill:#828d77;fill-opacity:1;" d="M 0 0.167969 L 421.023438 0.167969 L 421.023438 468.882812 L 0 468.882812 Z M 0 0.167969 "/></g></g><path style="fill:none;stroke-width:1;stroke-linecap:butt;stroke-linejoin:miter;stroke:#faf3dd;stroke-opacity:1;stroke-miterlimit:4;" d="M -0.000108796 0.498714 L 417.249694 0.498714 " transform="matrix(0.74825,0,0,0.74825,54.320394,422.704962)"/><path style="fill:none;stroke-width:1;stroke-linecap:butt;stroke-linejoin:miter;stroke:#faf3dd;stroke-opacity:1;stroke-miterlimit:4;" d="M -0.000108796 0.501234 L 417.249694 0.501234 " transform="matrix(0.74825,0,0,0.74825,54.320394,370.355421)"/><path style="fill:none;stroke-width:1;stroke-linecap:butt;stroke-linejoin:miter;stroke:#faf3dd;stroke-opacity:1;stroke-miterlimit:4;" d="M -0.000108796 0.498444 L 417.249694 0.498444 " transform="matrix(0.74825,0,0,0.74825,54.320394,318.005946)"/><path style="fill:none;stroke-width:1;stroke-linecap:butt;stroke-linejoin:miter;stroke:#faf3dd;stroke-opacity:1;stroke-miterlimit:4;" d="M -0.000108796 0.500916 L 417.249694 0.500916 " transform="matrix(0.74825,0,0,0.74825,54.320394,265.65644)"/><path style="fill:none;stroke-width:1;stroke-linecap:butt;stroke-linejoin:miter;stroke:#faf3dd;stroke-opacity:1;stroke-miterlimit:4;" d="M -0.000108796 0.498164 L 417.249694 0.498164 " transform="matrix(0.74825,0,0,0.74825,54.320394,213.306937)"/><g style="fill:#faf3dd;fill-opacity:1;"><g transform="translate(159.989093, 402.145214)"><path style="stroke:none" d="M 0.1875 -13.28125 L 10.171875 -13.28125 L 10.171875 -11.796875 L 6.109375 -11.796875 L 6.109375 0 L 4.28125 0 L 4.28125 -11.796875 L 0.1875 -11.796875 Z M 0.1875 -13.28125 "/></g></g><g style="fill:#faf3dd;fill-opacity:1;"><g transform="translate(169.925343, 402.145214)"><path style="stroke:none" d="M 1.171875 -13.28125 L 7.71875 -13.28125 C 8.789062 -13.28125 9.632812 -12.992188 10.25 -12.421875 C 10.863281 -11.859375 11.171875 -10.992188 11.171875 -9.828125 C 11.171875 -9.023438 11.019531 -8.367188 10.71875 -7.859375 C 10.425781 -7.359375 10.007812 -6.992188 9.46875 -6.765625 C 10.132812 -6.585938 10.65625 -6.226562 11.03125 -5.6875 C 11.414062 -5.15625 11.609375 -4.4375 11.609375 -3.53125 C 11.609375 -2.34375 11.296875 -1.457031 10.671875 -0.875 C 10.054688 -0.289062 9.210938 0 8.140625 0 L 1.171875 0 Z M 2.984375 -5.921875 L 2.984375 -1.484375 L 7.625 -1.484375 C 8.3125 -1.484375 8.847656 -1.664062 9.234375 -2.03125 C 9.617188 -2.40625 9.8125 -2.96875 9.8125 -3.71875 C 9.8125 -4.46875 9.617188 -5.019531 9.234375 -5.375 C 8.847656 -5.738281 8.3125 -5.921875 7.625 -5.921875 Z M 2.984375 -7.359375 L 7.203125 -7.359375 C 7.898438 -7.359375 8.4375 -7.546875 8.8125 -7.921875 C 9.1875 -8.304688 9.375 -8.878906 9.375 -9.640625 C 9.375 -10.359375 9.1875 -10.894531 8.8125 -11.25 C 8.4375 -11.613281 7.898438 -11.796875 7.203125 -11.796875 L 2.984375 -11.796875 Z M 2.984375 -7.359375 "/></g></g><g style="fill:#faf3dd;fill-opacity:1;"><g transform="translate(182.061235, 402.145214)"><path style="stroke:none" d="M 4.859375 -13.28125 L 7.34375 -13.28125 L 12.03125 0 L 10.125 0 L 8.890625 -3.53125 L 3.3125 -3.53125 L 2.0625 0 L 0.1875 0 Z M 8.359375 -5.03125 L 6.109375 -11.453125 L 3.828125 -5.03125 Z M 8.359375 -5.03125 "/></g></g><g style="fill:#faf3dd;fill-opacity:1;"><g transform="translate(54.320394, 402.519549)"><path style="stroke:none" d="M 5.875 -11.4375 C 7.050781 -11.4375 8.019531 -11.195312 8.78125 -10.71875 C 9.550781 -10.25 10.117188 -9.578125 10.484375 -8.703125 C 10.859375 -7.828125 11.046875 -6.789062 11.046875 -5.59375 C 11.046875 -4.382812 10.859375 -3.34375 10.484375 -2.46875 C 10.117188 -1.601562 9.550781 -0.929688 8.78125 -0.453125 C 8.019531 0.015625 7.050781 0.25 5.875 0.25 C 4.707031 0.25 3.742188 0.015625 2.984375 -0.453125 C 2.222656 -0.929688 1.65625 -1.601562 1.28125 -2.46875 C 0.90625 -3.34375 0.71875 -4.382812 0.71875 -5.59375 C 0.71875 -6.789062 0.90625 -7.828125 1.28125 -8.703125 C 1.65625 -9.578125 2.222656 -10.25 2.984375 -10.71875 C 3.742188 -11.195312 4.707031 -11.4375 5.875 -11.4375 Z M 5.875 -9.875 C 4.75 -9.875 3.925781 -9.488281 3.40625 -8.71875 C 2.894531 -7.957031 2.640625 -6.914062 2.640625 -5.59375 C 2.640625 -4.269531 2.894531 -3.222656 3.40625 -2.453125 C 3.925781 -1.691406 4.75 -1.3125 5.875 -1.3125 C 7.007812 -1.3125 7.835938 -1.691406 8.359375 -2.453125 C 8.878906 -3.222656 9.140625 -4.269531 9.140625 -5.59375 C 9.140625 -6.914062 8.878906 -7.957031 8.359375 -8.71875 C 7.835938 -9.488281 7.007812 -9.875 5.875 -9.875 Z M 5.875 -9.875 "/></g></g><g style="fill:#faf3dd;fill-opacity:1;"><g transform="translate(66.71155, 402.519549)"><path style="stroke:none" d="M 6 -11.4375 C 7.4375 -11.4375 8.570312 -11.101562 9.40625 -10.4375 C 10.238281 -9.769531 10.785156 -8.847656 11.046875 -7.671875 L 9.140625 -7.671875 C 8.910156 -8.367188 8.539062 -8.910156 8.03125 -9.296875 C 7.519531 -9.691406 6.851562 -9.890625 6.03125 -9.890625 C 4.851562 -9.890625 3.992188 -9.503906 3.453125 -8.734375 C 2.910156 -7.960938 2.640625 -6.914062 2.640625 -5.59375 C 2.640625 -4.257812 2.910156 -3.207031 3.453125 -2.4375 C 3.992188 -1.675781 4.851562 -1.296875 6.03125 -1.296875 C 6.851562 -1.296875 7.519531 -1.488281 8.03125 -1.875 C 8.539062 -2.257812 8.910156 -2.804688 9.140625 -3.515625 L 11.046875 -3.515625 C 10.785156 -2.328125 10.238281 -1.398438 9.40625 -0.734375 C 8.570312 -0.078125 7.4375 0.25 6 0.25 C 4.8125 0.25 3.828125 0.015625 3.046875 -0.453125 C 2.265625 -0.929688 1.679688 -1.601562 1.296875 -2.46875 C 0.910156 -3.34375 0.71875 -4.382812 0.71875 -5.59375 C 0.71875 -6.789062 0.910156 -7.828125 1.296875 -8.703125 C 1.679688 -9.578125 2.265625 -10.25 3.046875 -10.71875 C 3.828125 -11.195312 4.8125 -11.4375 6 -11.4375 Z M 6 -11.4375 "/></g></g><g style="fill:#faf3dd;fill-opacity:1;"><g transform="translate(79.038825, 402.519549)"><path style="stroke:none" d="M 0.15625 -11.171875 L 8.84375 -11.171875 L 8.84375 -9.609375 L 5.484375 -9.609375 L 5.484375 0 L 3.546875 0 L 3.546875 -9.609375 L 0.15625 -9.609375 Z M 0.15625 -11.171875 "/></g></g><g style="fill:#faf3dd;fill-opacity:1;"><g transform="translate(88.683517, 402.519549)"><path style="stroke:none" d="M 5.875 -11.4375 C 7.050781 -11.4375 8.019531 -11.195312 8.78125 -10.71875 C 9.550781 -10.25 10.117188 -9.578125 10.484375 -8.703125 C 10.859375 -7.828125 11.046875 -6.789062 11.046875 -5.59375 C 11.046875 -4.382812 10.859375 -3.34375 10.484375 -2.46875 C 10.117188 -1.601562 9.550781 -0.929688 8.78125 -0.453125 C 8.019531 0.015625 7.050781 0.25 5.875 0.25 C 4.707031 0.25 3.742188 0.015625 2.984375 -0.453125 C 2.222656 -0.929688 1.65625 -1.601562 1.28125 -2.46875 C 0.90625 -3.34375 0.71875 -4.382812 0.71875 -5.59375 C 0.71875 -6.789062 0.90625 -7.828125 1.28125 -8.703125 C 1.65625 -9.578125 2.222656 -10.25 2.984375 -10.71875 C 3.742188 -11.195312 4.707031 -11.4375 5.875 -11.4375 Z M 5.875 -9.875 C 4.75 -9.875 3.925781 -9.488281 3.40625 -8.71875 C 2.894531 -7.957031 2.640625 -6.914062 2.640625 -5.59375 C 2.640625 -4.269531 2.894531 -3.222656 3.40625 -2.453125 C 3.925781 -1.691406 4.75 -1.3125 5.875 -1.3125 C 7.007812 -1.3125 7.835938 -1.691406 8.359375 -2.453125 C 8.878906 -3.222656 9.140625 -4.269531 9.140625 -5.59375 C 9.140625 -6.914062 8.878906 -7.957031 8.359375 -8.71875 C 7.835938 -9.488281 7.007812 -9.875 5.875 -9.875 Z M 5.875 -9.875 "/></g></g><g style="fill:#faf3dd;fill-opacity:1;"><g transform="translate(101.074673, 402.519549)"><path style="stroke:none" d="M 0.890625 -11.171875 L 6.640625 -11.171875 C 7.554688 -11.171875 8.273438 -10.925781 8.796875 -10.4375 C 9.316406 -9.957031 9.578125 -9.222656 9.578125 -8.234375 C 9.578125 -6.984375 9.148438 -6.144531 8.296875 -5.71875 C 8.835938 -5.550781 9.253906 -5.242188 9.546875 -4.796875 C 9.847656 -4.359375 10 -3.757812 10 -3 C 10 -2 9.734375 -1.25 9.203125 -0.75 C 8.671875 -0.25 7.945312 0 7.03125 0 L 0.890625 0 Z M 2.8125 -4.828125 L 2.8125 -1.5625 L 6.453125 -1.5625 C 6.960938 -1.5625 7.359375 -1.695312 7.640625 -1.96875 C 7.929688 -2.238281 8.078125 -2.648438 8.078125 -3.203125 C 8.078125 -3.765625 7.929688 -4.175781 7.640625 -4.4375 C 7.359375 -4.695312 6.960938 -4.828125 6.453125 -4.828125 Z M 2.8125 -6.34375 L 6.0625 -6.34375 C 7.132812 -6.34375 7.671875 -6.90625 7.671875 -8.03125 C 7.671875 -9.082031 7.132812 -9.609375 6.0625 -9.609375 L 2.8125 -9.609375 Z M 2.8125 -6.34375 "/></g></g><g style="fill:#faf3dd;fill-opacity:1;"><g transform="translate(112.41195, 402.519549)"><path style="stroke:none" d="M 0.890625 -11.171875 L 9.1875 -11.171875 L 9.1875 -9.609375 L 2.8125 -9.609375 L 2.8125 -6.375 L 7.984375 -6.375 L 7.984375 -4.8125 L 2.8125 -4.8125 L 2.8125 -1.5625 L 9.1875 -1.5625 L 9.1875 0 L 0.890625 0 Z M 0.890625 -11.171875 "/></g></g><g style="fill:#faf3dd;fill-opacity:1;"><g transform="translate(122.599546, 402.519549)"><path style="stroke:none" d="M 2.78125 -9.609375 L 2.78125 -5.703125 L 5.609375 -5.703125 C 6.253906 -5.703125 6.753906 -5.875 7.109375 -6.21875 C 7.472656 -6.5625 7.65625 -7.046875 7.65625 -7.671875 C 7.65625 -8.296875 7.472656 -8.773438 7.109375 -9.109375 C 6.742188 -9.441406 6.242188 -9.609375 5.609375 -9.609375 Z M 2.78125 -4.15625 L 2.78125 0 L 0.859375 0 L 0.859375 -11.171875 L 6.078125 -11.171875 C 7.171875 -11.171875 8.023438 -10.890625 8.640625 -10.328125 C 9.253906 -9.773438 9.5625 -8.953125 9.5625 -7.859375 C 9.5625 -7.171875 9.4375 -6.585938 9.1875 -6.109375 C 8.945312 -5.640625 8.597656 -5.28125 8.140625 -5.03125 C 8.585938 -4.832031 8.9375 -4.53125 9.1875 -4.125 C 9.4375 -3.71875 9.5625 -3.25 9.5625 -2.71875 L 9.5625 -0.640625 C 9.5625 -0.503906 9.585938 -0.375 9.640625 -0.25 C 9.703125 -0.132812 9.800781 -0.0507812 9.9375 0 L 7.953125 0 C 7.847656 -0.0390625 7.769531 -0.125 7.71875 -0.25 C 7.675781 -0.382812 7.65625 -0.515625 7.65625 -0.640625 L 7.65625 -2.796875 C 7.65625 -3.171875 7.519531 -3.488281 7.25 -3.75 C 6.976562 -4.019531 6.660156 -4.15625 6.296875 -4.15625 Z M 2.78125 -4.15625 "/></g></g><g style="fill:#faf3dd;fill-opacity:1;"><g transform="translate(54.320394, 349.824429)"><path style="stroke:none" d="M 5.109375 -11.4375 C 6.460938 -11.4375 7.515625 -11.15625 8.265625 -10.59375 C 9.015625 -10.039062 9.390625 -9.253906 9.390625 -8.234375 L 7.46875 -8.234375 C 7.46875 -8.773438 7.238281 -9.195312 6.78125 -9.5 C 6.320312 -9.8125 5.710938 -9.96875 4.953125 -9.96875 C 4.285156 -9.96875 3.757812 -9.835938 3.375 -9.578125 C 2.988281 -9.328125 2.796875 -8.953125 2.796875 -8.453125 C 2.796875 -8.117188 2.878906 -7.828125 3.046875 -7.578125 C 3.222656 -7.328125 3.515625 -7.113281 3.921875 -6.9375 L 7.671875 -5.53125 C 8.359375 -5.257812 8.84375 -4.898438 9.125 -4.453125 C 9.40625 -4.015625 9.546875 -3.476562 9.546875 -2.84375 C 9.546875 -1.84375 9.171875 -1.078125 8.421875 -0.546875 C 7.679688 -0.015625 6.578125 0.25 5.109375 0.25 C 3.640625 0.25 2.539062 -0.03125 1.8125 -0.59375 C 1.082031 -1.15625 0.71875 -1.9375 0.71875 -2.9375 L 2.640625 -2.9375 C 2.640625 -2.332031 2.867188 -1.894531 3.328125 -1.625 C 3.796875 -1.351562 4.429688 -1.21875 5.234375 -1.21875 C 5.972656 -1.21875 6.554688 -1.34375 6.984375 -1.59375 C 7.421875 -1.84375 7.640625 -2.238281 7.640625 -2.78125 C 7.640625 -3.082031 7.566406 -3.34375 7.421875 -3.5625 C 7.273438 -3.789062 6.992188 -3.988281 6.578125 -4.15625 L 3 -5.5 C 2.238281 -5.800781 1.691406 -6.1875 1.359375 -6.65625 C 1.035156 -7.132812 0.875 -7.679688 0.875 -8.296875 C 0.875 -9.273438 1.238281 -10.039062 1.96875 -10.59375 C 2.707031 -11.15625 3.753906 -11.4375 5.109375 -11.4375 Z M 5.109375 -11.4375 "/></g></g><g style="fill:#faf3dd;fill-opacity:1;"><g transform="translate(65.178636, 349.824429)"><path style="stroke:none" d="M 0.890625 -11.171875 L 9.1875 -11.171875 L 9.1875 -9.609375 L 2.8125 -9.609375 L 2.8125 -6.375 L 7.984375 -6.375 L 7.984375 -4.8125 L 2.8125 -4.8125 L 2.8125 -1.5625 L 9.1875 -1.5625 L 9.1875 0 L 0.890625 0 Z M 0.890625 -11.171875 "/></g></g><g style="fill:#faf3dd;fill-opacity:1;"><g transform="translate(75.366233, 349.824429)"><path style="stroke:none" d="M 0.875 -11.171875 L 6.390625 -11.171875 C 7.503906 -11.171875 8.382812 -10.867188 9.03125 -10.265625 C 9.675781 -9.660156 10 -8.75 10 -7.53125 C 10 -6.34375 9.675781 -5.425781 9.03125 -4.78125 C 8.382812 -4.144531 7.503906 -3.828125 6.390625 -3.828125 L 2.796875 -3.828125 L 2.796875 0 L 0.875 0 Z M 2.796875 -5.375 L 6 -5.375 C 6.664062 -5.375 7.175781 -5.566406 7.53125 -5.953125 C 7.894531 -6.347656 8.078125 -6.875 8.078125 -7.53125 C 8.078125 -8.21875 7.894531 -8.734375 7.53125 -9.078125 C 7.175781 -9.429688 6.664062 -9.609375 6 -9.609375 L 2.796875 -9.609375 Z M 2.796875 -5.375 "/></g></g><g style="fill:#faf3dd;fill-opacity:1;"><g transform="translate(86.511898, 349.824429)"><path style="stroke:none" d="M 0.15625 -11.171875 L 8.84375 -11.171875 L 8.84375 -9.609375 L 5.484375 -9.609375 L 5.484375 0 L 3.546875 0 L 3.546875 -9.609375 L 0.15625 -9.609375 Z M 0.15625 -11.171875 "/></g></g><g style="fill:#faf3dd;fill-opacity:1;"><g transform="translate(96.15659, 349.824429)"><path style="stroke:none" d="M 0.890625 -11.171875 L 9.1875 -11.171875 L 9.1875 -9.609375 L 2.8125 -9.609375 L 2.8125 -6.375 L 7.984375 -6.375 L 7.984375 -4.8125 L 2.8125 -4.8125 L 2.8125 -1.5625 L 9.1875 -1.5625 L 9.1875 0 L 0.890625 0 Z M 0.890625 -11.171875 "/></g></g><g style="fill:#faf3dd;fill-opacity:1;"><g transform="translate(106.344187, 349.824429)"><path style="stroke:none" d="M 0.875 -11.171875 L 3.546875 -11.171875 L 6.546875 -3.09375 L 9.515625 -11.171875 L 12.171875 -11.171875 L 12.171875 0 L 10.25 0 L 10.25 -8.53125 L 7.078125 0 L 5.96875 0 L 2.796875 -8.515625 L 2.796875 0 L 0.875 0 Z M 0.875 -11.171875 "/></g></g><g style="fill:#faf3dd;fill-opacity:1;"><g transform="translate(120.012764, 349.824429)"><path style="stroke:none" d="M 0.890625 -11.171875 L 6.640625 -11.171875 C 7.554688 -11.171875 8.273438 -10.925781 8.796875 -10.4375 C 9.316406 -9.957031 9.578125 -9.222656 9.578125 -8.234375 C 9.578125 -6.984375 9.148438 -6.144531 8.296875 -5.71875 C 8.835938 -5.550781 9.253906 -5.242188 9.546875 -4.796875 C 9.847656 -4.359375 10 -3.757812 10 -3 C 10 -2 9.734375 -1.25 9.203125 -0.75 C 8.671875 -0.25 7.945312 0 7.03125 0 L 0.890625 0 Z M 2.8125 -4.828125 L 2.8125 -1.5625 L 6.453125 -1.5625 C 6.960938 -1.5625 7.359375 -1.695312 7.640625 -1.96875 C 7.929688 -2.238281 8.078125 -2.648438 8.078125 -3.203125 C 8.078125 -3.765625 7.929688 -4.175781 7.640625 -4.4375 C 7.359375 -4.695312 6.960938 -4.828125 6.453125 -4.828125 Z M 2.8125 -6.34375 L 6.0625 -6.34375 C 7.132812 -6.34375 7.671875 -6.90625 7.671875 -8.03125 C 7.671875 -9.082031 7.132812 -9.609375 6.0625 -9.609375 L 2.8125 -9.609375 Z M 2.8125 -6.34375 "/></g></g><g style="fill:#faf3dd;fill-opacity:1;"><g transform="translate(131.35004, 349.824429)"><path style="stroke:none" d="M 0.890625 -11.171875 L 9.1875 -11.171875 L 9.1875 -9.609375 L 2.8125 -9.609375 L 2.8125 -6.375 L 7.984375 -6.375 L 7.984375 -4.8125 L 2.8125 -4.8125 L 2.8125 -1.5625 L 9.1875 -1.5625 L 9.1875 0 L 0.890625 0 Z M 0.890625 -11.171875 "/></g></g><g style="fill:#faf3dd;fill-opacity:1;"><g transform="translate(141.537637, 349.824429)"><path style="stroke:none" d="M 2.78125 -9.609375 L 2.78125 -5.703125 L 5.609375 -5.703125 C 6.253906 -5.703125 6.753906 -5.875 7.109375 -6.21875 C 7.472656 -6.5625 7.65625 -7.046875 7.65625 -7.671875 C 7.65625 -8.296875 7.472656 -8.773438 7.109375 -9.109375 C 6.742188 -9.441406 6.242188 -9.609375 5.609375 -9.609375 Z M 2.78125 -4.15625 L 2.78125 0 L 0.859375 0 L 0.859375 -11.171875 L 6.078125 -11.171875 C 7.171875 -11.171875 8.023438 -10.890625 8.640625 -10.328125 C 9.253906 -9.773438 9.5625 -8.953125 9.5625 -7.859375 C 9.5625 -7.171875 9.4375 -6.585938 9.1875 -6.109375 C 8.945312 -5.640625 8.597656 -5.28125 8.140625 -5.03125 C 8.585938 -4.832031 8.9375 -4.53125 9.1875 -4.125 C 9.4375 -3.71875 9.5625 -3.25 9.5625 -2.71875 L 9.5625 -0.640625 C 9.5625 -0.503906 9.585938 -0.375 9.640625 -0.25 C 9.703125 -0.132812 9.800781 -0.0507812 9.9375 0 L 7.953125 0 C 7.847656 -0.0390625 7.769531 -0.125 7.71875 -0.25 C 7.675781 -0.382812 7.65625 -0.515625 7.65625 -0.640625 L 7.65625 -2.796875 C 7.65625 -3.171875 7.519531 -3.488281 7.25 -3.75 C 6.976562 -4.019531 6.660156 -4.15625 6.296875 -4.15625 Z M 2.78125 -4.15625 "/></g></g><g style="fill:#faf3dd;fill-opacity:1;"><g transform="translate(162.383975, 349.450094)"><path style="stroke:none" d="M 0.1875 -13.28125 L 10.171875 -13.28125 L 10.171875 -11.796875 L 6.109375 -11.796875 L 6.109375 0 L 4.28125 0 L 4.28125 -11.796875 L 0.1875 -11.796875 Z M 0.1875 -13.28125 "/></g></g><g style="fill:#faf3dd;fill-opacity:1;"><g transform="translate(172.320225, 349.450094)"><path style="stroke:none" d="M 1.171875 -13.28125 L 7.71875 -13.28125 C 8.789062 -13.28125 9.632812 -12.992188 10.25 -12.421875 C 10.863281 -11.859375 11.171875 -10.992188 11.171875 -9.828125 C 11.171875 -9.023438 11.019531 -8.367188 10.71875 -7.859375 C 10.425781 -7.359375 10.007812 -6.992188 9.46875 -6.765625 C 10.132812 -6.585938 10.65625 -6.226562 11.03125 -5.6875 C 11.414062 -5.15625 11.609375 -4.4375 11.609375 -3.53125 C 11.609375 -2.34375 11.296875 -1.457031 10.671875 -0.875 C 10.054688 -0.289062 9.210938 0 8.140625 0 L 1.171875 0 Z M 2.984375 -5.921875 L 2.984375 -1.484375 L 7.625 -1.484375 C 8.3125 -1.484375 8.847656 -1.664062 9.234375 -2.03125 C 9.617188 -2.40625 9.8125 -2.96875 9.8125 -3.71875 C 9.8125 -4.46875 9.617188 -5.019531 9.234375 -5.375 C 8.847656 -5.738281 8.3125 -5.921875 7.625 -5.921875 Z M 2.984375 -7.359375 L 7.203125 -7.359375 C 7.898438 -7.359375 8.4375 -7.546875 8.8125 -7.921875 C 9.1875 -8.304688 9.375 -8.878906 9.375 -9.640625 C 9.375 -10.359375 9.1875 -10.894531 8.8125 -11.25 C 8.4375 -11.613281 7.898438 -11.796875 7.203125 -11.796875 L 2.984375 -11.796875 Z M 2.984375 -7.359375 "/></g></g><g style="fill:#faf3dd;fill-opacity:1;"><g transform="translate(184.456117, 349.450094)"><path style="stroke:none" d="M 4.859375 -13.28125 L 7.34375 -13.28125 L 12.03125 0 L 10.125 0 L 8.890625 -3.53125 L 3.3125 -3.53125 L 2.0625 0 L 0.1875 0 Z M 8.359375 -5.03125 L 6.109375 -11.453125 L 3.828125 -5.03125 Z M 8.359375 -5.03125 "/></g></g><g style="fill:#faf3dd;fill-opacity:1;"><g transform="translate(54.320394, 297.82054)"><path style="stroke:none" d="M 3.53125 -11.171875 L 5.453125 -11.171875 L 5.453125 -2.96875 C 5.453125 -1.914062 5.175781 -1.113281 4.625 -0.5625 C 4.070312 -0.0195312 3.335938 0.25 2.421875 0.25 C 2.003906 0.25 1.597656 0.207031 1.203125 0.125 C 0.816406 0.0390625 0.46875 -0.09375 0.15625 -0.28125 L 0.15625 -1.75 C 0.445312 -1.582031 0.734375 -1.46875 1.015625 -1.40625 C 1.296875 -1.34375 1.585938 -1.3125 1.890625 -1.3125 C 2.367188 -1.3125 2.757812 -1.445312 3.0625 -1.71875 C 3.375 -2 3.53125 -2.441406 3.53125 -3.046875 Z M 3.53125 -11.171875 "/></g></g><g style="fill:#faf3dd;fill-opacity:1;"><g transform="translate(61.282492, 297.82054)"><path style="stroke:none" d="M 0.875 -11.171875 L 2.796875 -11.171875 L 2.796875 -3.890625 C 2.796875 -3.066406 3.03125 -2.429688 3.5 -1.984375 C 3.96875 -1.535156 4.6875 -1.3125 5.65625 -1.3125 C 6.632812 -1.3125 7.347656 -1.535156 7.796875 -1.984375 C 8.242188 -2.429688 8.46875 -3.066406 8.46875 -3.890625 L 8.46875 -11.171875 L 10.375 -11.171875 L 10.375 -3.890625 C 10.375 -2.609375 9.976562 -1.597656 9.1875 -0.859375 C 8.40625 -0.117188 7.226562 0.25 5.65625 0.25 C 4.082031 0.25 2.890625 -0.117188 2.078125 -0.859375 C 1.273438 -1.597656 0.875 -2.609375 0.875 -3.890625 Z M 0.875 -11.171875 "/></g></g><g style="fill:#faf3dd;fill-opacity:1;"><g transform="translate(73.162673, 297.82054)"><path style="stroke:none" d="M 0.875 -11.171875 L 2.796875 -11.171875 L 2.796875 -1.5625 L 9.171875 -1.5625 L 9.171875 0 L 0.875 0 Z M 0.875 -11.171875 "/></g></g><g style="fill:#faf3dd;fill-opacity:1;"><g transform="translate(83.126718, 297.82054)"><path style="stroke:none" d="M 0.15625 -11.171875 L 2.375 -11.171875 L 5.125 -5.171875 L 7.890625 -11.171875 L 10.109375 -11.171875 L 6.078125 -3.1875 L 6.078125 0 L 4.171875 0 L 4.171875 -3.1875 Z M 0.15625 -11.171875 "/></g></g><g style="fill:#faf3dd;fill-opacity:1;"><g transform="translate(159.989093, 297.446205)"><path style="stroke:none" d="M 1.15625 -13.28125 L 3.640625 -13.28125 L 7.6875 -2.90625 L 11.703125 -13.28125 L 14.1875 -13.28125 L 14.1875 0 L 12.375 0 L 12.375 -10.671875 L 8.21875 0 L 7.125 0 L 2.953125 -10.65625 L 2.953125 0 L 1.15625 0 Z M 1.15625 -13.28125 "/></g></g><g style="fill:#faf3dd;fill-opacity:1;"><g transform="translate(174.893497, 297.446205)"><path style="stroke:none" d="M 0.1875 -9.484375 L 1.953125 -9.484375 L 4.484375 -2.140625 L 7 -9.484375 L 8.765625 -9.484375 L 4.5 2.234375 C 4.238281 2.910156 3.882812 3.390625 3.4375 3.671875 C 3 3.953125 2.46875 4.09375 1.84375 4.09375 C 1.5 4.09375 1.175781 4.0625 0.875 4 C 0.570312 3.945312 0.285156 3.878906 0.015625 3.796875 L 0.015625 2.578125 C 0.253906 2.671875 0.484375 2.734375 0.703125 2.765625 C 0.929688 2.796875 1.164062 2.8125 1.40625 2.8125 C 1.78125 2.8125 2.082031 2.738281 2.3125 2.59375 C 2.550781 2.457031 2.734375 2.210938 2.859375 1.859375 L 3.578125 -0.15625 Z M 0.1875 -9.484375 "/></g></g><g style="fill:#faf3dd;fill-opacity:1;"><g transform="translate(183.426527, 297.446205)"><path style="stroke:none" d="M 2.140625 -12.5 L 3.453125 -12.5 L 3.453125 -9.484375 L 6.46875 -9.484375 L 6.46875 -8.234375 L 3.453125 -8.234375 L 3.453125 -2.546875 C 3.453125 -2.023438 3.585938 -1.644531 3.859375 -1.40625 C 4.140625 -1.164062 4.476562 -1.046875 4.875 -1.046875 C 5.15625 -1.046875 5.421875 -1.070312 5.671875 -1.125 C 5.921875 -1.1875 6.1875 -1.316406 6.46875 -1.515625 L 6.46875 -0.203125 C 6.164062 -0.046875 5.847656 0.0703125 5.515625 0.15625 C 5.191406 0.25 4.820312 0.296875 4.40625 0.296875 C 3.632812 0.296875 3.003906 0.0625 2.515625 -0.40625 C 2.023438 -0.882812 1.78125 -1.546875 1.78125 -2.390625 L 1.78125 -8.234375 L 0.359375 -8.234375 L 0.359375 -9.484375 L 1.78125 -9.484375 Z M 2.140625 -12.5 "/></g></g><g style="fill:#faf3dd;fill-opacity:1;"><g transform="translate(189.72199, 297.446205)"><path style="stroke:none" d="M 1.15625 -13.28125 L 2.828125 -13.28125 L 2.828125 -8.703125 C 3.128906 -9.046875 3.515625 -9.3125 3.984375 -9.5 C 4.453125 -9.6875 5.003906 -9.78125 5.640625 -9.78125 C 6.859375 -9.78125 7.785156 -9.441406 8.421875 -8.765625 C 9.054688 -8.097656 9.375 -7.242188 9.375 -6.203125 L 9.375 0 L 7.703125 0 L 7.703125 -6.203125 C 7.703125 -6.867188 7.5 -7.40625 7.09375 -7.8125 C 6.695312 -8.226562 6.085938 -8.4375 5.265625 -8.4375 C 4.515625 -8.4375 3.921875 -8.238281 3.484375 -7.84375 C 3.046875 -7.457031 2.828125 -6.910156 2.828125 -6.203125 L 2.828125 0 L 1.15625 0 Z M 1.15625 -13.28125 "/></g></g><g style="fill:#faf3dd;fill-opacity:1;"><g transform="translate(199.847863, 297.446205)"><path style="stroke:none" d="M 4.625 -9.78125 C 5.863281 -9.78125 6.785156 -9.53125 7.390625 -9.03125 C 8.003906 -8.539062 8.320312 -7.921875 8.34375 -7.171875 L 6.71875 -7.171875 C 6.675781 -7.566406 6.488281 -7.890625 6.15625 -8.140625 C 5.820312 -8.398438 5.300781 -8.53125 4.59375 -8.53125 C 3.851562 -8.53125 3.328125 -8.394531 3.015625 -8.125 C 2.703125 -7.863281 2.546875 -7.550781 2.546875 -7.1875 C 2.546875 -6.84375 2.617188 -6.550781 2.765625 -6.3125 C 2.921875 -6.082031 3.21875 -5.878906 3.65625 -5.703125 L 6.578125 -4.75 C 7.316406 -4.5 7.828125 -4.175781 8.109375 -3.78125 C 8.390625 -3.382812 8.53125 -2.910156 8.53125 -2.359375 C 8.53125 -1.566406 8.195312 -0.925781 7.53125 -0.4375 C 6.875 0.0507812 5.90625 0.296875 4.625 0.296875 C 3.375 0.296875 2.414062 0.0546875 1.75 -0.421875 C 1.09375 -0.910156 0.75 -1.578125 0.71875 -2.421875 L 2.390625 -2.421875 C 2.429688 -1.953125 2.644531 -1.585938 3.03125 -1.328125 C 3.414062 -1.078125 3.96875 -0.953125 4.6875 -0.953125 C 5.414062 -0.953125 5.957031 -1.078125 6.3125 -1.328125 C 6.675781 -1.585938 6.859375 -1.914062 6.859375 -2.3125 C 6.859375 -2.59375 6.789062 -2.84375 6.65625 -3.0625 C 6.53125 -3.28125 6.242188 -3.472656 5.796875 -3.640625 L 2.921875 -4.625 C 2.191406 -4.894531 1.671875 -5.226562 1.359375 -5.625 C 1.054688 -6.03125 0.90625 -6.554688 0.90625 -7.203125 C 0.90625 -7.953125 1.207031 -8.566406 1.8125 -9.046875 C 2.425781 -9.535156 3.363281 -9.78125 4.625 -9.78125 Z M 4.625 -9.78125 "/></g></g><g style="fill:#faf3dd;fill-opacity:1;"><g transform="translate(208.687749, 297.446205)"><path style="stroke:none" d=""/></g></g><g style="fill:#faf3dd;fill-opacity:1;"><g transform="translate(213.049047, 297.446205)"><path style="stroke:none" d="M 6.328125 -13.578125 C 7.359375 -13.578125 8.144531 -13.296875 8.6875 -12.734375 C 9.226562 -12.171875 9.5 -11.460938 9.5 -10.609375 C 9.5 -9.835938 9.273438 -9.191406 8.828125 -8.671875 C 8.390625 -8.148438 7.785156 -7.722656 7.015625 -7.390625 L 6.703125 -7.265625 L 9.6875 -3.71875 C 9.914062 -4.195312 10.09375 -4.726562 10.21875 -5.3125 C 10.34375 -5.90625 10.40625 -6.5625 10.40625 -7.28125 L 11.796875 -7.28125 C 11.796875 -6.34375 11.691406 -5.476562 11.484375 -4.6875 C 11.285156 -3.90625 11.003906 -3.203125 10.640625 -2.578125 L 12.828125 0 L 10.734375 0 L 9.640625 -1.3125 C 8.523438 -0.238281 7.117188 0.296875 5.421875 0.296875 C 4.015625 0.296875 2.921875 -0.0390625 2.140625 -0.71875 C 1.367188 -1.40625 0.984375 -2.320312 0.984375 -3.46875 C 0.984375 -4.457031 1.226562 -5.269531 1.71875 -5.90625 C 2.207031 -6.539062 2.992188 -7.109375 4.078125 -7.609375 L 4.25 -7.6875 C 3.894531 -8.164062 3.601562 -8.628906 3.375 -9.078125 C 3.15625 -9.535156 3.046875 -10.035156 3.046875 -10.578125 C 3.046875 -11.484375 3.320312 -12.207031 3.875 -12.75 C 4.425781 -13.300781 5.242188 -13.578125 6.328125 -13.578125 Z M 5.78125 -8.34375 L 6.46875 -8.65625 C 6.957031 -8.863281 7.34375 -9.117188 7.625 -9.421875 C 7.914062 -9.722656 8.0625 -10.101562 8.0625 -10.5625 C 8.0625 -11.082031 7.914062 -11.484375 7.625 -11.765625 C 7.332031 -12.054688 6.921875 -12.203125 6.390625 -12.203125 C 5.847656 -12.203125 5.429688 -12.054688 5.140625 -11.765625 C 4.847656 -11.472656 4.703125 -11.070312 4.703125 -10.5625 C 4.703125 -10.175781 4.789062 -9.820312 4.96875 -9.5 C 5.15625 -9.175781 5.425781 -8.789062 5.78125 -8.34375 Z M 8.75 -2.359375 L 5.15625 -6.5625 L 5.109375 -6.546875 C 4.234375 -6.160156 3.609375 -5.742188 3.234375 -5.296875 C 2.859375 -4.859375 2.671875 -4.296875 2.671875 -3.609375 C 2.671875 -2.835938 2.929688 -2.222656 3.453125 -1.765625 C 3.984375 -1.304688 4.710938 -1.078125 5.640625 -1.078125 C 6.859375 -1.078125 7.894531 -1.503906 8.75 -2.359375 Z M 8.75 -2.359375 "/></g></g><g style="fill:#faf3dd;fill-opacity:1;"><g transform="translate(225.791737, 297.446205)"><path style="stroke:none" d=""/></g></g><g style="fill:#faf3dd;fill-opacity:1;"><g transform="translate(230.153036, 297.446205)"><path style="stroke:none" d="M 1.171875 -13.28125 L 10.671875 -13.28125 L 10.671875 -11.796875 L 2.984375 -11.796875 L 2.984375 -7.375 L 9.28125 -7.375 L 9.28125 -5.90625 L 2.984375 -5.90625 L 2.984375 0 L 1.171875 0 Z M 1.171875 -13.28125 "/></g></g><g style="fill:#faf3dd;fill-opacity:1;"><g transform="translate(240.696084, 297.446205)"><path style="stroke:none" d="M 5.265625 -9.78125 C 6.671875 -9.78125 7.738281 -9.328125 8.46875 -8.421875 C 9.195312 -7.523438 9.5625 -6.300781 9.5625 -4.75 C 9.5625 -3.1875 9.195312 -1.953125 8.46875 -1.046875 C 7.738281 -0.148438 6.671875 0.296875 5.265625 0.296875 C 3.867188 0.296875 2.800781 -0.148438 2.0625 -1.046875 C 1.332031 -1.953125 0.96875 -3.1875 0.96875 -4.75 C 0.96875 -6.300781 1.332031 -7.523438 2.0625 -8.421875 C 2.800781 -9.328125 3.867188 -9.78125 5.265625 -9.78125 Z M 5.265625 -8.4375 C 4.398438 -8.4375 3.742188 -8.109375 3.296875 -7.453125 C 2.859375 -6.804688 2.640625 -5.90625 2.640625 -4.75 C 2.640625 -3.582031 2.859375 -2.671875 3.296875 -2.015625 C 3.742188 -1.367188 4.398438 -1.046875 5.265625 -1.046875 C 6.140625 -1.046875 6.796875 -1.367188 7.234375 -2.015625 C 7.671875 -2.671875 7.890625 -3.582031 7.890625 -4.75 C 7.890625 -5.90625 7.671875 -6.804688 7.234375 -7.453125 C 6.796875 -8.109375 6.140625 -8.4375 5.265625 -8.4375 Z M 5.265625 -8.4375 "/></g></g><g style="fill:#faf3dd;fill-opacity:1;"><g transform="translate(250.821958, 297.446205)"><path style="stroke:none" d="M 1.15625 -13.28125 L 2.78125 -13.28125 L 2.78125 0 L 1.15625 0 Z M 1.15625 -13.28125 "/></g></g><g style="fill:#faf3dd;fill-opacity:1;"><g transform="translate(254.348908, 297.446205)"><path style="stroke:none" d="M 1.15625 -13.28125 L 2.828125 -13.28125 L 2.828125 -5.375 L 5.234375 -5.375 L 7.734375 -9.484375 L 9.515625 -9.484375 L 6.625 -4.75 L 9.515625 0 L 7.734375 0 L 5.234375 -4.109375 L 2.828125 -4.109375 L 2.828125 0 L 1.15625 0 Z M 1.15625 -13.28125 "/></g></g><g style="fill:#faf3dd;fill-opacity:1;"><g transform="translate(263.716287, 297.446205)"><path style="stroke:none" d="M 1.15625 -13.28125 L 2.78125 -13.28125 L 2.78125 0 L 1.15625 0 Z M 1.15625 -13.28125 "/></g></g><g style="fill:#faf3dd;fill-opacity:1;"><g transform="translate(267.243237, 297.446205)"><path style="stroke:none" d="M 5.265625 -9.78125 C 6.671875 -9.78125 7.738281 -9.328125 8.46875 -8.421875 C 9.195312 -7.523438 9.5625 -6.300781 9.5625 -4.75 C 9.5625 -3.1875 9.195312 -1.953125 8.46875 -1.046875 C 7.738281 -0.148438 6.671875 0.296875 5.265625 0.296875 C 3.867188 0.296875 2.800781 -0.148438 2.0625 -1.046875 C 1.332031 -1.953125 0.96875 -3.1875 0.96875 -4.75 C 0.96875 -6.300781 1.332031 -7.523438 2.0625 -8.421875 C 2.800781 -9.328125 3.867188 -9.78125 5.265625 -9.78125 Z M 5.265625 -8.4375 C 4.398438 -8.4375 3.742188 -8.109375 3.296875 -7.453125 C 2.859375 -6.804688 2.640625 -5.90625 2.640625 -4.75 C 2.640625 -3.582031 2.859375 -2.671875 3.296875 -2.015625 C 3.742188 -1.367188 4.398438 -1.046875 5.265625 -1.046875 C 6.140625 -1.046875 6.796875 -1.367188 7.234375 -2.015625 C 7.671875 -2.671875 7.890625 -3.582031 7.890625 -4.75 C 7.890625 -5.90625 7.671875 -6.804688 7.234375 -7.453125 C 6.796875 -8.109375 6.140625 -8.4375 5.265625 -8.4375 Z M 5.265625 -8.4375 "/></g></g><g style="fill:#faf3dd;fill-opacity:1;"><g transform="translate(277.369111, 297.446205)"><path style="stroke:none" d="M 1.15625 -9.484375 L 2.390625 -9.484375 L 2.578125 -8.6875 C 2.816406 -9.050781 3.113281 -9.320312 3.46875 -9.5 C 3.820312 -9.6875 4.195312 -9.78125 4.59375 -9.78125 C 4.945312 -9.78125 5.25 -9.742188 5.5 -9.671875 C 5.75 -9.597656 5.976562 -9.5 6.1875 -9.375 L 6.1875 -8.03125 C 5.957031 -8.164062 5.722656 -8.265625 5.484375 -8.328125 C 5.253906 -8.398438 4.972656 -8.4375 4.640625 -8.4375 C 4.359375 -8.4375 4.078125 -8.363281 3.796875 -8.21875 C 3.515625 -8.070312 3.28125 -7.84375 3.09375 -7.53125 C 2.914062 -7.226562 2.828125 -6.820312 2.828125 -6.3125 L 2.828125 0 L 1.15625 0 Z M 1.15625 -9.484375 "/></g></g><g style="fill:#faf3dd;fill-opacity:1;"><g transform="translate(283.399095, 297.446205)"><path style="stroke:none" d="M 5.265625 -9.78125 C 6.671875 -9.78125 7.738281 -9.328125 8.46875 -8.421875 C 9.195312 -7.523438 9.5625 -6.300781 9.5625 -4.75 C 9.5625 -4.65625 9.5625 -4.566406 9.5625 -4.484375 C 9.5625 -4.410156 9.554688 -4.335938 9.546875 -4.265625 L 2.65625 -4.265625 C 2.71875 -3.234375 2.972656 -2.421875 3.421875 -1.828125 C 3.878906 -1.242188 4.53125 -0.953125 5.375 -0.953125 C 5.988281 -0.953125 6.492188 -1.109375 6.890625 -1.421875 C 7.296875 -1.734375 7.59375 -2.164062 7.78125 -2.71875 L 9.484375 -2.71875 C 9.242188 -1.800781 8.78125 -1.066406 8.09375 -0.515625 C 7.40625 0.0234375 6.488281 0.296875 5.34375 0.296875 C 3.914062 0.296875 2.828125 -0.148438 2.078125 -1.046875 C 1.335938 -1.953125 0.96875 -3.1875 0.96875 -4.75 C 0.96875 -6.300781 1.332031 -7.523438 2.0625 -8.421875 C 2.800781 -9.328125 3.867188 -9.78125 5.265625 -9.78125 Z M 7.875 -5.34375 C 7.8125 -6.34375 7.5625 -7.125 7.125 -7.6875 C 6.6875 -8.25 6.066406 -8.53125 5.265625 -8.53125 C 4.472656 -8.53125 3.859375 -8.25 3.421875 -7.6875 C 2.984375 -7.132812 2.726562 -6.351562 2.65625 -5.34375 Z M 7.875 -5.34375 "/></g></g><g style="fill:#faf3dd;fill-opacity:1;"><g transform="translate(54.320394, 245.471034)"><path style="stroke:none" d="M 0.875 -11.171875 L 3.546875 -11.171875 L 6.546875 -3.09375 L 9.515625 -11.171875 L 12.171875 -11.171875 L 12.171875 0 L 10.25 0 L 10.25 -8.53125 L 7.078125 0 L 5.96875 0 L 2.796875 -8.515625 L 2.796875 0 L 0.875 0 Z M 0.875 -11.171875 "/></g></g><g style="fill:#faf3dd;fill-opacity:1;"><g transform="translate(67.988971, 245.471034)"><path style="stroke:none" d="M 4 -11.171875 L 6.671875 -11.171875 L 10.5 0 L 8.5 0 L 7.546875 -2.78125 L 3.109375 -2.78125 L 2.171875 0 L 0.15625 0 Z M 7.015625 -4.34375 L 5.328125 -9.296875 L 3.65625 -4.34375 Z M 7.015625 -4.34375 "/></g></g><g style="fill:#faf3dd;fill-opacity:1;"><g transform="translate(79.262377, 245.471034)"><path style="stroke:none" d="M 0.15625 -11.171875 L 2.375 -11.171875 L 5.125 -5.171875 L 7.890625 -11.171875 L 10.109375 -11.171875 L 6.078125 -3.1875 L 6.078125 0 L 4.171875 0 L 4.171875 -3.1875 Z M 0.15625 -11.171875 "/></g></g><g style="fill:#faf3dd;fill-opacity:1;"><g transform="translate(90.127885, 245.471034)"><path style="stroke:none" d=""/></g></g><g style="fill:#faf3dd;fill-opacity:1;"><g transform="translate(94.758682, 245.471034)"><path style="stroke:none" d="M 4.953125 -11.4375 C 6.222656 -11.4375 7.21875 -11.15625 7.9375 -10.59375 C 8.65625 -10.03125 9.015625 -9.273438 9.015625 -8.328125 C 9.015625 -7.679688 8.890625 -7.128906 8.640625 -6.671875 C 8.390625 -6.222656 7.96875 -5.78125 7.375 -5.34375 L 3.609375 -2.828125 C 3.109375 -2.460938 2.804688 -2.039062 2.703125 -1.5625 L 9.1875 -1.5625 L 9.1875 0 L 0.71875 0 L 0.71875 -1.203125 C 0.71875 -1.804688 0.820312 -2.304688 1.03125 -2.703125 C 1.25 -3.109375 1.597656 -3.484375 2.078125 -3.828125 L 5.96875 -6.46875 C 6.382812 -6.78125 6.675781 -7.070312 6.84375 -7.34375 C 7.019531 -7.613281 7.109375 -7.941406 7.109375 -8.328125 C 7.109375 -8.804688 6.941406 -9.195312 6.609375 -9.5 C 6.285156 -9.800781 5.734375 -9.953125 4.953125 -9.953125 C 4.265625 -9.953125 3.734375 -9.796875 3.359375 -9.484375 C 2.984375 -9.179688 2.796875 -8.769531 2.796875 -8.25 L 0.875 -8.25 C 0.875 -8.914062 1.046875 -9.484375 1.390625 -9.953125 C 1.742188 -10.429688 2.222656 -10.796875 2.828125 -11.046875 C 3.441406 -11.304688 4.148438 -11.4375 4.953125 -11.4375 Z M 4.953125 -11.4375 "/></g></g><g style="fill:#faf3dd;fill-opacity:1;"><g transform="translate(105.297572, 245.471034)"><path style="stroke:none" d="M 4.953125 -11.4375 C 6.273438 -11.4375 7.25 -11.171875 7.875 -10.640625 C 8.5 -10.117188 8.8125 -9.398438 8.8125 -8.484375 C 8.8125 -7.867188 8.671875 -7.34375 8.390625 -6.90625 C 8.117188 -6.476562 7.695312 -6.144531 7.125 -5.90625 C 7.8125 -5.664062 8.328125 -5.296875 8.671875 -4.796875 C 9.015625 -4.296875 9.1875 -3.691406 9.1875 -2.984375 C 9.1875 -1.984375 8.835938 -1.191406 8.140625 -0.609375 C 7.453125 -0.0351562 6.390625 0.25 4.953125 0.25 C 3.515625 0.25 2.445312 -0.0351562 1.75 -0.609375 C 1.0625 -1.191406 0.71875 -1.984375 0.71875 -2.984375 C 0.71875 -3.691406 0.882812 -4.296875 1.21875 -4.796875 C 1.5625 -5.296875 2.082031 -5.664062 2.78125 -5.90625 C 2.207031 -6.144531 1.78125 -6.476562 1.5 -6.90625 C 1.21875 -7.34375 1.078125 -7.867188 1.078125 -8.484375 C 1.078125 -9.398438 1.390625 -10.117188 2.015625 -10.640625 C 2.648438 -11.171875 3.628906 -11.4375 4.953125 -11.4375 Z M 4.953125 -9.953125 C 4.265625 -9.953125 3.765625 -9.789062 3.453125 -9.46875 C 3.148438 -9.144531 3 -8.710938 3 -8.171875 C 3 -7.628906 3.148438 -7.195312 3.453125 -6.875 C 3.765625 -6.550781 4.265625 -6.390625 4.953125 -6.390625 C 5.628906 -6.390625 6.125 -6.550781 6.4375 -6.875 C 6.757812 -7.195312 6.921875 -7.628906 6.921875 -8.171875 C 6.921875 -8.710938 6.757812 -9.144531 6.4375 -9.46875 C 6.125 -9.789062 5.628906 -9.953125 4.953125 -9.953125 Z M 4.953125 -1.234375 C 5.773438 -1.234375 6.363281 -1.414062 6.71875 -1.78125 C 7.082031 -2.144531 7.265625 -2.648438 7.265625 -3.296875 C 7.265625 -3.929688 7.082031 -4.429688 6.71875 -4.796875 C 6.363281 -5.171875 5.773438 -5.359375 4.953125 -5.359375 C 4.140625 -5.359375 3.550781 -5.171875 3.1875 -4.796875 C 2.820312 -4.429688 2.640625 -3.929688 2.640625 -3.296875 C 2.640625 -2.648438 2.820312 -2.144531 3.1875 -1.78125 C 3.550781 -1.414062 4.140625 -1.234375 4.953125 -1.234375 Z M 4.953125 -1.234375 "/></g></g><g style="fill:#faf3dd;fill-opacity:1;"><g transform="translate(115.804521, 245.471034)"><path style="stroke:none" d="M 0.15625 -11.171875 L 8.84375 -11.171875 L 8.84375 -9.609375 L 5.484375 -9.609375 L 5.484375 0 L 3.546875 0 L 3.546875 -9.609375 L 0.15625 -9.609375 Z M 0.15625 -11.171875 "/></g></g><g style="fill:#faf3dd;fill-opacity:1;"><g transform="translate(125.449213, 245.471034)"><path style="stroke:none" d="M 0.875 -11.171875 L 2.796875 -11.171875 L 2.796875 -6.375 L 8.46875 -6.375 L 8.46875 -11.171875 L 10.375 -11.171875 L 10.375 0 L 8.46875 0 L 8.46875 -4.8125 L 2.796875 -4.8125 L 2.796875 0 L 0.875 0 Z M 0.875 -11.171875 "/></g></g><g style="fill:#faf3dd;fill-opacity:1;"><g transform="translate(159.989093, 245.096699)"><path style="stroke:none" d="M 5.96875 -13.578125 C 7.488281 -13.578125 8.6875 -13.253906 9.5625 -12.609375 C 10.4375 -11.960938 10.875 -11.0625 10.875 -9.90625 L 9.0625 -9.90625 C 9.0625 -10.625 8.765625 -11.179688 8.171875 -11.578125 C 7.585938 -11.972656 6.8125 -12.171875 5.84375 -12.171875 C 4.957031 -12.171875 4.253906 -11.988281 3.734375 -11.625 C 3.210938 -11.269531 2.953125 -10.757812 2.953125 -10.09375 C 2.953125 -9.664062 3.0625 -9.28125 3.28125 -8.9375 C 3.507812 -8.59375 3.894531 -8.304688 4.4375 -8.078125 L 8.84375 -6.40625 C 9.664062 -6.09375 10.238281 -5.671875 10.5625 -5.140625 C 10.882812 -4.617188 11.046875 -4 11.046875 -3.28125 C 11.046875 -2.101562 10.609375 -1.210938 9.734375 -0.609375 C 8.867188 -0.00390625 7.613281 0.296875 5.96875 0.296875 C 4.332031 0.296875 3.085938 -0.0195312 2.234375 -0.65625 C 1.390625 -1.289062 0.96875 -2.195312 0.96875 -3.375 L 2.765625 -3.375 C 2.765625 -2.582031 3.054688 -2.003906 3.640625 -1.640625 C 4.234375 -1.273438 5.050781 -1.09375 6.09375 -1.09375 C 7.0625 -1.09375 7.828125 -1.257812 8.390625 -1.59375 C 8.953125 -1.925781 9.234375 -2.460938 9.234375 -3.203125 C 9.234375 -3.609375 9.144531 -3.96875 8.96875 -4.28125 C 8.800781 -4.601562 8.441406 -4.867188 7.890625 -5.078125 L 3.625 -6.703125 C 2.726562 -7.066406 2.09375 -7.519531 1.71875 -8.0625 C 1.34375 -8.613281 1.15625 -9.253906 1.15625 -9.984375 C 1.15625 -11.109375 1.578125 -11.988281 2.421875 -12.625 C 3.273438 -13.257812 4.457031 -13.578125 5.96875 -13.578125 Z M 5.96875 -13.578125 "/></g></g><g style="fill:#faf3dd;fill-opacity:1;"><g transform="translate(171.556113, 245.096699)"><path style="stroke:none" d="M 1.15625 -9.484375 L 2.421875 -9.484375 L 2.65625 -8.125 C 2.957031 -8.65625 3.363281 -9.0625 3.875 -9.34375 C 4.382812 -9.632812 5.003906 -9.78125 5.734375 -9.78125 C 7.003906 -9.78125 7.957031 -9.328125 8.59375 -8.421875 C 9.238281 -7.523438 9.5625 -6.300781 9.5625 -4.75 C 9.5625 -3.1875 9.238281 -1.953125 8.59375 -1.046875 C 7.957031 -0.148438 7.003906 0.296875 5.734375 0.296875 C 5.078125 0.296875 4.503906 0.175781 4.015625 -0.0625 C 3.535156 -0.3125 3.140625 -0.65625 2.828125 -1.09375 L 2.828125 3.796875 L 1.15625 3.796875 Z M 2.828125 -5.328125 L 2.828125 -4.15625 C 2.828125 -3.207031 3.035156 -2.453125 3.453125 -1.890625 C 3.878906 -1.328125 4.507812 -1.046875 5.34375 -1.046875 C 6.21875 -1.046875 6.859375 -1.367188 7.265625 -2.015625 C 7.679688 -2.671875 7.890625 -3.582031 7.890625 -4.75 C 7.890625 -5.90625 7.679688 -6.804688 7.265625 -7.453125 C 6.859375 -8.109375 6.21875 -8.4375 5.34375 -8.4375 C 4.507812 -8.4375 3.878906 -8.15625 3.453125 -7.59375 C 3.035156 -7.03125 2.828125 -6.273438 2.828125 -5.328125 Z M 2.828125 -5.328125 "/></g></g><g style="fill:#faf3dd;fill-opacity:1;"><g transform="translate(181.681987, 245.096699)"><path style="stroke:none" d="M 1.15625 -9.484375 L 2.390625 -9.484375 L 2.578125 -8.6875 C 2.816406 -9.050781 3.113281 -9.320312 3.46875 -9.5 C 3.820312 -9.6875 4.195312 -9.78125 4.59375 -9.78125 C 4.945312 -9.78125 5.25 -9.742188 5.5 -9.671875 C 5.75 -9.597656 5.976562 -9.5 6.1875 -9.375 L 6.1875 -8.03125 C 5.957031 -8.164062 5.722656 -8.265625 5.484375 -8.328125 C 5.253906 -8.398438 4.972656 -8.4375 4.640625 -8.4375 C 4.359375 -8.4375 4.078125 -8.363281 3.796875 -8.21875 C 3.515625 -8.070312 3.28125 -7.84375 3.09375 -7.53125 C 2.914062 -7.226562 2.828125 -6.820312 2.828125 -6.3125 L 2.828125 0 L 1.15625 0 Z M 1.15625 -9.484375 "/></g></g><g style="fill:#faf3dd;fill-opacity:1;"><g transform="translate(187.711972, 245.096699)"><path style="stroke:none" d="M 1.15625 -9.484375 L 2.828125 -9.484375 L 2.828125 0 L 1.15625 0 Z M 1.15625 -13.28125 L 2.828125 -13.28125 L 2.828125 -11.5 L 1.15625 -11.5 Z M 1.15625 -13.28125 "/></g></g><g style="fill:#faf3dd;fill-opacity:1;"><g transform="translate(191.276849, 245.096699)"><path style="stroke:none" d="M 1.15625 -9.484375 L 2.421875 -9.484375 L 2.640625 -8.453125 C 2.929688 -8.859375 3.328125 -9.179688 3.828125 -9.421875 C 4.335938 -9.660156 4.941406 -9.78125 5.640625 -9.78125 C 6.859375 -9.78125 7.785156 -9.441406 8.421875 -8.765625 C 9.054688 -8.097656 9.375 -7.242188 9.375 -6.203125 L 9.375 0 L 7.703125 0 L 7.703125 -6.203125 C 7.703125 -6.867188 7.5 -7.40625 7.09375 -7.8125 C 6.695312 -8.226562 6.085938 -8.4375 5.265625 -8.4375 C 4.515625 -8.4375 3.921875 -8.238281 3.484375 -7.84375 C 3.046875 -7.457031 2.828125 -6.910156 2.828125 -6.203125 L 2.828125 0 L 1.15625 0 Z M 1.15625 -9.484375 "/></g></g><g style="fill:#faf3dd;fill-opacity:1;"><g transform="translate(201.402723, 245.096699)"><path style="stroke:none" d="M 8.140625 -9.484375 L 9.375 -9.484375 L 9.375 0.546875 C 9.375 1.617188 9.035156 2.476562 8.359375 3.125 C 7.691406 3.769531 6.660156 4.09375 5.265625 4.09375 C 3.878906 4.09375 2.847656 3.800781 2.171875 3.21875 C 1.492188 2.644531 1.15625 1.863281 1.15625 0.875 L 1.15625 0.703125 L 2.8125 0.703125 L 2.828125 0.875 C 2.847656 1.488281 3.050781 1.96875 3.4375 2.3125 C 3.820312 2.664062 4.429688 2.84375 5.265625 2.84375 C 6.140625 2.84375 6.765625 2.632812 7.140625 2.21875 C 7.515625 1.800781 7.703125 1.242188 7.703125 0.546875 L 7.703125 -1.078125 C 7.054688 -0.160156 6.082031 0.296875 4.78125 0.296875 C 3.519531 0.296875 2.566406 -0.148438 1.921875 -1.046875 C 1.285156 -1.953125 0.96875 -3.1875 0.96875 -4.75 C 0.96875 -6.300781 1.285156 -7.523438 1.921875 -8.421875 C 2.566406 -9.328125 3.519531 -9.78125 4.78125 -9.78125 C 5.5 -9.78125 6.117188 -9.628906 6.640625 -9.328125 C 7.160156 -9.035156 7.578125 -8.625 7.890625 -8.09375 Z M 7.703125 -4.15625 L 7.703125 -5.328125 C 7.703125 -6.273438 7.488281 -7.03125 7.0625 -7.59375 C 6.644531 -8.15625 6.015625 -8.4375 5.171875 -8.4375 C 4.304688 -8.4375 3.664062 -8.109375 3.25 -7.453125 C 2.84375 -6.804688 2.640625 -5.90625 2.640625 -4.75 C 2.640625 -3.582031 2.84375 -2.671875 3.25 -2.015625 C 3.664062 -1.367188 4.304688 -1.046875 5.171875 -1.046875 C 6.015625 -1.046875 6.644531 -1.328125 7.0625 -1.890625 C 7.488281 -2.453125 7.703125 -3.207031 7.703125 -4.15625 Z M 7.703125 -4.15625 "/></g></g><g style="fill:#faf3dd;fill-opacity:1;"><g transform="translate(211.528596, 245.096699)"><path style="stroke:none" d="M 5.96875 -13.578125 C 7.488281 -13.578125 8.6875 -13.253906 9.5625 -12.609375 C 10.4375 -11.960938 10.875 -11.0625 10.875 -9.90625 L 9.0625 -9.90625 C 9.0625 -10.625 8.765625 -11.179688 8.171875 -11.578125 C 7.585938 -11.972656 6.8125 -12.171875 5.84375 -12.171875 C 4.957031 -12.171875 4.253906 -11.988281 3.734375 -11.625 C 3.210938 -11.269531 2.953125 -10.757812 2.953125 -10.09375 C 2.953125 -9.664062 3.0625 -9.28125 3.28125 -8.9375 C 3.507812 -8.59375 3.894531 -8.304688 4.4375 -8.078125 L 8.84375 -6.40625 C 9.664062 -6.09375 10.238281 -5.671875 10.5625 -5.140625 C 10.882812 -4.617188 11.046875 -4 11.046875 -3.28125 C 11.046875 -2.101562 10.609375 -1.210938 9.734375 -0.609375 C 8.867188 -0.00390625 7.613281 0.296875 5.96875 0.296875 C 4.332031 0.296875 3.085938 -0.0195312 2.234375 -0.65625 C 1.390625 -1.289062 0.96875 -2.195312 0.96875 -3.375 L 2.765625 -3.375 C 2.765625 -2.582031 3.054688 -2.003906 3.640625 -1.640625 C 4.234375 -1.273438 5.050781 -1.09375 6.09375 -1.09375 C 7.0625 -1.09375 7.828125 -1.257812 8.390625 -1.59375 C 8.953125 -1.925781 9.234375 -2.460938 9.234375 -3.203125 C 9.234375 -3.609375 9.144531 -3.96875 8.96875 -4.28125 C 8.800781 -4.601562 8.441406 -4.867188 7.890625 -5.078125 L 3.625 -6.703125 C 2.726562 -7.066406 2.09375 -7.519531 1.71875 -8.0625 C 1.34375 -8.613281 1.15625 -9.253906 1.15625 -9.984375 C 1.15625 -11.109375 1.578125 -11.988281 2.421875 -12.625 C 3.273438 -13.257812 4.457031 -13.578125 5.96875 -13.578125 Z M 5.96875 -13.578125 "/></g></g><g style="fill:#faf3dd;fill-opacity:1;"><g transform="translate(223.095617, 245.096699)"><path style="stroke:none" d="M 5.265625 -9.78125 C 6.671875 -9.78125 7.738281 -9.328125 8.46875 -8.421875 C 9.195312 -7.523438 9.5625 -6.300781 9.5625 -4.75 C 9.5625 -3.1875 9.195312 -1.953125 8.46875 -1.046875 C 7.738281 -0.148438 6.671875 0.296875 5.265625 0.296875 C 3.867188 0.296875 2.800781 -0.148438 2.0625 -1.046875 C 1.332031 -1.953125 0.96875 -3.1875 0.96875 -4.75 C 0.96875 -6.300781 1.332031 -7.523438 2.0625 -8.421875 C 2.800781 -9.328125 3.867188 -9.78125 5.265625 -9.78125 Z M 5.265625 -8.4375 C 4.398438 -8.4375 3.742188 -8.109375 3.296875 -7.453125 C 2.859375 -6.804688 2.640625 -5.90625 2.640625 -4.75 C 2.640625 -3.582031 2.859375 -2.671875 3.296875 -2.015625 C 3.742188 -1.367188 4.398438 -1.046875 5.265625 -1.046875 C 6.140625 -1.046875 6.796875 -1.367188 7.234375 -2.015625 C 7.671875 -2.671875 7.890625 -3.582031 7.890625 -4.75 C 7.890625 -5.90625 7.671875 -6.804688 7.234375 -7.453125 C 6.796875 -8.109375 6.140625 -8.4375 5.265625 -8.4375 Z M 5.265625 -8.4375 "/></g></g><g style="fill:#faf3dd;fill-opacity:1;"><g transform="translate(233.221491, 245.096699)"><path style="stroke:none" d="M 1.15625 -9.484375 L 2.421875 -9.484375 L 2.640625 -8.453125 C 2.929688 -8.859375 3.328125 -9.179688 3.828125 -9.421875 C 4.335938 -9.660156 4.941406 -9.78125 5.640625 -9.78125 C 6.859375 -9.78125 7.785156 -9.441406 8.421875 -8.765625 C 9.054688 -8.097656 9.375 -7.242188 9.375 -6.203125 L 9.375 0 L 7.703125 0 L 7.703125 -6.203125 C 7.703125 -6.867188 7.5 -7.40625 7.09375 -7.8125 C 6.695312 -8.226562 6.085938 -8.4375 5.265625 -8.4375 C 4.515625 -8.4375 3.921875 -8.238281 3.484375 -7.84375 C 3.046875 -7.457031 2.828125 -6.910156 2.828125 -6.203125 L 2.828125 0 L 1.15625 0 Z M 1.15625 -9.484375 "/></g></g><g style="fill:#faf3dd;fill-opacity:1;"><g transform="translate(243.347365, 245.096699)"><path style="stroke:none" d="M 8.140625 -9.484375 L 9.375 -9.484375 L 9.375 0.546875 C 9.375 1.617188 9.035156 2.476562 8.359375 3.125 C 7.691406 3.769531 6.660156 4.09375 5.265625 4.09375 C 3.878906 4.09375 2.847656 3.800781 2.171875 3.21875 C 1.492188 2.644531 1.15625 1.863281 1.15625 0.875 L 1.15625 0.703125 L 2.8125 0.703125 L 2.828125 0.875 C 2.847656 1.488281 3.050781 1.96875 3.4375 2.3125 C 3.820312 2.664062 4.429688 2.84375 5.265625 2.84375 C 6.140625 2.84375 6.765625 2.632812 7.140625 2.21875 C 7.515625 1.800781 7.703125 1.242188 7.703125 0.546875 L 7.703125 -1.078125 C 7.054688 -0.160156 6.082031 0.296875 4.78125 0.296875 C 3.519531 0.296875 2.566406 -0.148438 1.921875 -1.046875 C 1.285156 -1.953125 0.96875 -3.1875 0.96875 -4.75 C 0.96875 -6.300781 1.285156 -7.523438 1.921875 -8.421875 C 2.566406 -9.328125 3.519531 -9.78125 4.78125 -9.78125 C 5.5 -9.78125 6.117188 -9.628906 6.640625 -9.328125 C 7.160156 -9.035156 7.578125 -8.625 7.890625 -8.09375 Z M 7.703125 -4.15625 L 7.703125 -5.328125 C 7.703125 -6.273438 7.488281 -7.03125 7.0625 -7.59375 C 6.644531 -8.15625 6.015625 -8.4375 5.171875 -8.4375 C 4.304688 -8.4375 3.664062 -8.109375 3.25 -7.453125 C 2.84375 -6.804688 2.640625 -5.90625 2.640625 -4.75 C 2.640625 -3.582031 2.84375 -2.671875 3.25 -2.015625 C 3.664062 -1.367188 4.304688 -1.046875 5.171875 -1.046875 C 6.015625 -1.046875 6.644531 -1.328125 7.0625 -1.890625 C 7.488281 -2.453125 7.703125 -3.207031 7.703125 -4.15625 Z M 7.703125 -4.15625 "/></g></g><g style="fill:#faf3dd;fill-opacity:1;"><g transform="translate(134.163393, 161.399132)"><path style="stroke:none" d="M 4.84375 -19.234375 C 4.894531 -20.617188 5.1875 -21.800781 5.71875 -22.78125 C 6.25 -23.757812 6.941406 -24.550781 7.796875 -25.15625 C 8.648438 -25.769531 9.585938 -26.195312 10.609375 -26.4375 C 11.640625 -26.675781 12.679688 -26.738281 13.734375 -26.625 C 14.796875 -26.519531 15.800781 -26.25 16.75 -25.8125 C 17.695312 -25.375 18.515625 -24.773438 19.203125 -24.015625 C 19.890625 -23.253906 20.367188 -22.335938 20.640625 -21.265625 L 17.9375 -20.609375 C 17.601562 -21.796875 17.085938 -22.75 16.390625 -23.46875 C 15.691406 -24.1875 14.894531 -24.695312 14 -25 C 13.101562 -25.300781 12.171875 -25.394531 11.203125 -25.28125 C 10.234375 -25.164062 9.304688 -24.859375 8.421875 -24.359375 C 7.546875 -23.859375 6.789062 -23.175781 6.15625 -22.3125 C 5.53125 -21.457031 5.09375 -20.429688 4.84375 -19.234375 Z M 0.625 0 C 0.625 0 0.707031 -0.0664062 0.875 -0.203125 C 1.050781 -0.347656 1.226562 -0.65625 1.40625 -1.125 C 1.582031 -1.601562 1.671875 -2.332031 1.671875 -3.3125 L 1.671875 -21.6875 C 1.671875 -22.6875 1.582031 -23.429688 1.40625 -23.921875 C 1.226562 -24.410156 1.050781 -24.738281 0.875 -24.90625 C 0.707031 -25.070312 0.625 -25.15625 0.625 -25.15625 L 4.6875 -26.71875 L 4.71875 -3.296875 C 4.71875 -2.316406 4.800781 -1.585938 4.96875 -1.109375 C 5.144531 -0.640625 5.316406 -0.335938 5.484375 -0.203125 C 5.648438 -0.0664062 5.734375 0 5.734375 0 Z M 0.625 0 "/></g></g><g style="fill:#faf3dd;fill-opacity:1;"><g transform="translate(155.921301, 161.399132)"><path style="stroke:none" d="M 3.765625 -13.953125 C 3.785156 -11.929688 4.078125 -10.1875 4.640625 -8.71875 C 5.203125 -7.257812 5.960938 -6.039062 6.921875 -5.0625 C 7.878906 -4.082031 8.953125 -3.320312 10.140625 -2.78125 C 11.328125 -2.238281 12.566406 -1.898438 13.859375 -1.765625 C 15.148438 -1.640625 16.414062 -1.679688 17.65625 -1.890625 C 18.894531 -2.109375 20.035156 -2.476562 21.078125 -3 C 22.128906 -3.53125 23.007812 -4.1875 23.71875 -4.96875 C 24.425781 -5.757812 24.890625 -6.664062 25.109375 -7.6875 C 25.003906 -6.6875 24.664062 -5.726562 24.09375 -4.8125 C 23.519531 -3.894531 22.757812 -3.070312 21.8125 -2.34375 C 20.875 -1.613281 19.796875 -1.035156 18.578125 -0.609375 C 17.359375 -0.179688 16.046875 0.03125 14.640625 0.03125 C 12.492188 0.03125 10.5625 -0.335938 8.84375 -1.078125 C 7.125 -1.828125 5.648438 -2.84375 4.421875 -4.125 C 3.203125 -5.414062 2.265625 -6.890625 1.609375 -8.546875 C 0.953125 -10.210938 0.625 -11.972656 0.625 -13.828125 C 0.625 -15.671875 0.96875 -17.375 1.65625 -18.9375 C 2.34375 -20.5 3.289062 -21.859375 4.5 -23.015625 C 5.707031 -24.171875 7.097656 -25.070312 8.671875 -25.71875 C 10.253906 -26.375 11.929688 -26.703125 13.703125 -26.703125 C 15.460938 -26.703125 17.085938 -26.472656 18.578125 -26.015625 C 20.066406 -25.554688 21.351562 -24.835938 22.4375 -23.859375 C 23.53125 -22.878906 24.378906 -21.597656 24.984375 -20.015625 C 25.597656 -18.429688 25.90625 -16.515625 25.90625 -14.265625 L 3.765625 -14.265625 Z M 13.703125 -25.546875 C 12.429688 -25.546875 11.222656 -25.285156 10.078125 -24.765625 C 8.929688 -24.253906 7.90625 -23.53125 7 -22.59375 C 6.09375 -21.65625 5.351562 -20.546875 4.78125 -19.265625 C 4.21875 -17.984375 3.890625 -16.578125 3.796875 -15.046875 L 23.0625 -15.046875 C 23.0625 -16.546875 22.875 -17.929688 22.5 -19.203125 C 22.132812 -20.472656 21.570312 -21.582031 20.8125 -22.53125 C 20.0625 -23.476562 19.09375 -24.21875 17.90625 -24.75 C 16.726562 -25.28125 15.328125 -25.546875 13.703125 -25.546875 Z M 13.703125 -25.546875 "/></g></g><g style="fill:#faf3dd;fill-opacity:1;"><g transform="translate(182.944015, 161.399132)"><path style="stroke:none" d="M 23.203125 -7.015625 C 22.816406 -5.660156 22.269531 -4.53125 21.5625 -3.625 C 20.863281 -2.71875 20.0625 -2 19.15625 -1.46875 C 18.257812 -0.9375 17.316406 -0.550781 16.328125 -0.3125 C 15.335938 -0.0820312 14.378906 0.03125 13.453125 0.03125 C 11.691406 0.03125 10.035156 -0.265625 8.484375 -0.859375 C 6.929688 -1.460938 5.566406 -2.34375 4.390625 -3.5 C 3.210938 -4.65625 2.289062 -6.054688 1.625 -7.703125 C 0.957031 -9.359375 0.625 -11.234375 0.625 -13.328125 C 0.625 -15.171875 0.957031 -16.898438 1.625 -18.515625 C 2.289062 -20.128906 3.210938 -21.546875 4.390625 -22.765625 C 5.566406 -23.992188 6.929688 -24.953125 8.484375 -25.640625 C 10.035156 -26.328125 11.691406 -26.671875 13.453125 -26.671875 C 14.960938 -26.671875 16.421875 -26.457031 17.828125 -26.03125 C 19.234375 -25.613281 20.476562 -25.035156 21.5625 -24.296875 C 22.644531 -23.554688 23.453125 -22.710938 23.984375 -21.765625 L 21.984375 -19.1875 C 21.546875 -20.6875 20.890625 -21.90625 20.015625 -22.84375 C 19.148438 -23.78125 18.144531 -24.460938 17 -24.890625 C 15.863281 -25.328125 14.679688 -25.546875 13.453125 -25.546875 C 12.117188 -25.546875 10.863281 -25.234375 9.6875 -24.609375 C 8.519531 -23.992188 7.488281 -23.128906 6.59375 -22.015625 C 5.707031 -20.898438 5.015625 -19.613281 4.515625 -18.15625 C 4.015625 -16.695312 3.765625 -15.128906 3.765625 -13.453125 C 3.765625 -11.535156 4.003906 -9.863281 4.484375 -8.4375 C 4.972656 -7.019531 5.628906 -5.820312 6.453125 -4.84375 C 7.285156 -3.863281 8.226562 -3.09375 9.28125 -2.53125 C 10.34375 -1.976562 11.445312 -1.609375 12.59375 -1.421875 C 13.75 -1.234375 14.890625 -1.226562 16.015625 -1.40625 C 17.148438 -1.582031 18.203125 -1.914062 19.171875 -2.40625 C 20.148438 -2.894531 20.988281 -3.53125 21.6875 -4.3125 C 22.394531 -5.09375 22.898438 -5.992188 23.203125 -7.015625 Z M 23.203125 -7.015625 "/></g></g><g style="fill:#faf3dd;fill-opacity:1;"><g transform="translate(208.045451, 161.399132)"><path style="stroke:none" d="M 3.140625 -33.484375 C 3.835938 -33.484375 4.429688 -33.234375 4.921875 -32.734375 C 5.421875 -32.234375 5.671875 -31.632812 5.671875 -30.9375 C 5.671875 -30.257812 5.421875 -29.675781 4.921875 -29.1875 C 4.429688 -28.695312 3.835938 -28.453125 3.140625 -28.453125 C 2.460938 -28.453125 1.875 -28.695312 1.375 -29.1875 C 0.875 -29.675781 0.625 -30.257812 0.625 -30.9375 C 0.625 -31.632812 0.875 -32.234375 1.375 -32.734375 C 1.875 -33.234375 2.460938 -33.484375 3.140625 -33.484375 Z M 0.875 0 C 0.875 0 0.957031 -0.0664062 1.125 -0.203125 C 1.300781 -0.347656 1.476562 -0.65625 1.65625 -1.125 C 1.832031 -1.601562 1.921875 -2.332031 1.921875 -3.3125 L 1.921875 -21.6875 C 1.921875 -22.6875 1.832031 -23.429688 1.65625 -23.921875 C 1.476562 -24.410156 1.300781 -24.738281 1.125 -24.90625 C 0.957031 -25.070312 0.875 -25.15625 0.875 -25.15625 L 4.9375 -26.71875 L 4.96875 -3.296875 C 4.96875 -2.316406 5.050781 -1.585938 5.21875 -1.109375 C 5.394531 -0.640625 5.566406 -0.335938 5.734375 -0.203125 C 5.898438 -0.0664062 5.984375 0 5.984375 0 Z M 0.875 0 "/></g></g><g style="fill:#faf3dd;fill-opacity:1;"><g transform="translate(215.156687, 161.399132)"><path style="stroke:none" d="M 7.265625 -26.703125 L 11.625 -26.703125 L 11.625 -25.84375 L 7.265625 -25.84375 L 7.28125 -3.890625 C 7.269531 -3.191406 7.40625 -2.679688 7.6875 -2.359375 C 7.96875 -2.046875 8.304688 -1.875 8.703125 -1.84375 C 9.109375 -1.8125 9.484375 -1.878906 9.828125 -2.046875 C 10.179688 -2.210938 10.40625 -2.425781 10.5 -2.6875 C 10.5 -1.875 10.203125 -1.222656 9.609375 -0.734375 C 9.023438 -0.242188 8.328125 0 7.515625 0 C 7.316406 0 7.035156 -0.046875 6.671875 -0.140625 C 6.316406 -0.234375 5.953125 -0.414062 5.578125 -0.6875 C 5.203125 -0.957031 4.882812 -1.347656 4.625 -1.859375 C 4.363281 -2.378906 4.234375 -3.066406 4.234375 -3.921875 C 4.234375 -9.640625 4.234375 -14.28125 4.234375 -17.84375 C 4.234375 -21.414062 4.234375 -24.082031 4.234375 -25.84375 L 0.625 -25.84375 L 0.625 -26.703125 L 4.234375 -26.703125 C 4.234375 -27.378906 4.234375 -27.875 4.234375 -28.1875 C 4.234375 -28.507812 4.234375 -28.671875 4.234375 -28.671875 C 4.234375 -29.671875 4.144531 -30.414062 3.96875 -30.90625 C 3.800781 -31.394531 3.628906 -31.722656 3.453125 -31.890625 C 3.273438 -32.054688 3.1875 -32.140625 3.1875 -32.140625 L 7.265625 -33.71875 Z M 7.265625 -26.703125 "/></g></g><g style="fill:#faf3dd;fill-opacity:1;"><g transform="translate(227.90702, 161.399132)"><path style="stroke:none" d="M 21.03125 -11.109375 L 21.03125 -17.859375 C 21.03125 -18.878906 20.957031 -19.867188 20.8125 -20.828125 C 20.675781 -21.785156 20.382812 -22.644531 19.9375 -23.40625 C 19.5 -24.164062 18.835938 -24.769531 17.953125 -25.21875 C 17.066406 -25.675781 15.878906 -25.90625 14.390625 -25.90625 C 12.953125 -25.90625 11.632812 -25.597656 10.4375 -24.984375 C 9.25 -24.378906 8.242188 -23.523438 7.421875 -22.421875 C 6.597656 -21.328125 6.015625 -20.050781 5.671875 -18.59375 L 3 -20.359375 C 3.757812 -21.953125 4.742188 -23.210938 5.953125 -24.140625 C 7.160156 -25.066406 8.492188 -25.726562 9.953125 -26.125 C 11.421875 -26.519531 12.910156 -26.71875 14.421875 -26.71875 C 16.097656 -26.71875 17.507812 -26.5625 18.65625 -26.25 C 19.8125 -25.9375 20.742188 -25.492188 21.453125 -24.921875 C 22.171875 -24.359375 22.722656 -23.707031 23.109375 -22.96875 C 23.492188 -22.226562 23.75 -21.425781 23.875 -20.5625 C 24.007812 -19.695312 24.078125 -18.804688 24.078125 -17.890625 L 24.078125 -3.296875 C 24.078125 -2.316406 24.164062 -1.585938 24.34375 -1.109375 C 24.519531 -0.640625 24.691406 -0.335938 24.859375 -0.203125 C 25.023438 -0.0664062 25.109375 0 25.109375 0 C 24.390625 0 23.722656 -0.0664062 23.109375 -0.203125 C 22.492188 -0.335938 21.992188 -0.640625 21.609375 -1.109375 C 21.222656 -1.585938 21.03125 -2.320312 21.03125 -3.3125 L 21.03125 -6.65625 C 20.664062 -5.832031 20.203125 -5.019531 19.640625 -4.21875 C 19.078125 -3.414062 18.390625 -2.695312 17.578125 -2.0625 C 16.773438 -1.4375 15.832031 -0.9375 14.75 -0.5625 C 13.664062 -0.1875 12.425781 0 11.03125 0 C 9.394531 0 7.984375 -0.171875 6.796875 -0.515625 C 5.609375 -0.867188 4.617188 -1.335938 3.828125 -1.921875 C 3.035156 -2.503906 2.398438 -3.140625 1.921875 -3.828125 C 1.453125 -4.515625 1.117188 -5.195312 0.921875 -5.875 C 0.722656 -6.550781 0.625 -7.160156 0.625 -7.703125 C 0.625 -9.203125 0.878906 -10.476562 1.390625 -11.53125 C 1.910156 -12.59375 2.609375 -13.472656 3.484375 -14.171875 C 4.359375 -14.867188 5.351562 -15.429688 6.46875 -15.859375 C 7.582031 -16.296875 8.742188 -16.640625 9.953125 -16.890625 C 11.171875 -17.140625 12.367188 -17.332031 13.546875 -17.46875 C 14.734375 -17.613281 15.828125 -17.753906 16.828125 -17.890625 C 17.835938 -18.023438 18.695312 -18.191406 19.40625 -18.390625 C 20.125 -18.585938 20.617188 -18.867188 20.890625 -19.234375 C 20.753906 -18.867188 20.410156 -18.566406 19.859375 -18.328125 C 19.316406 -18.097656 18.625 -17.890625 17.78125 -17.703125 C 16.9375 -17.523438 16.015625 -17.34375 15.015625 -17.15625 C 14.023438 -16.96875 13.003906 -16.738281 11.953125 -16.46875 C 10.898438 -16.195312 9.890625 -15.859375 8.921875 -15.453125 C 7.953125 -15.046875 7.078125 -14.539062 6.296875 -13.9375 C 5.523438 -13.34375 4.914062 -12.613281 4.46875 -11.75 C 4.019531 -10.882812 3.796875 -9.851562 3.796875 -8.65625 C 3.796875 -6.25 4.503906 -4.441406 5.921875 -3.234375 C 7.347656 -2.023438 9.265625 -1.421875 11.671875 -1.421875 C 13.171875 -1.421875 14.503906 -1.6875 15.671875 -2.21875 C 16.835938 -2.75 17.816406 -3.46875 18.609375 -4.375 C 19.410156 -5.28125 20.015625 -6.316406 20.421875 -7.484375 C 20.828125 -8.648438 21.03125 -9.859375 21.03125 -11.109375 Z M 21.03125 -11.109375 "/></g></g><g style="fill:#faf3dd;fill-opacity:1;"><g transform="translate(254.131278, 161.399132)"><path style="stroke:none" d="M 1.671875 -33.109375 C 1.671875 -34.109375 1.582031 -34.859375 1.40625 -35.359375 C 1.226562 -35.859375 1.050781 -36.191406 0.875 -36.359375 C 0.707031 -36.523438 0.625 -36.609375 0.625 -36.609375 L 4.6875 -38.171875 L 4.71875 -3.296875 C 4.71875 -2.316406 4.800781 -1.585938 4.96875 -1.109375 C 5.144531 -0.640625 5.316406 -0.335938 5.484375 -0.203125 C 5.648438 -0.0664062 5.734375 0 5.734375 0 L 0.625 0 C 0.625 0 0.707031 -0.0664062 0.875 -0.203125 C 1.050781 -0.347656 1.226562 -0.65625 1.40625 -1.125 C 1.582031 -1.601562 1.671875 -2.332031 1.671875 -3.3125 Z M 1.671875 -33.109375 "/></g></g><g style="fill:#faf3dd;fill-opacity:1;"><g transform="translate(260.993007, 161.399132)"><path style="stroke:none" d="M 20.765625 -7.0625 C 20.765625 -7.988281 20.5 -8.75 19.96875 -9.34375 C 19.445312 -9.9375 18.738281 -10.414062 17.84375 -10.78125 C 16.945312 -11.144531 15.941406 -11.457031 14.828125 -11.71875 C 13.710938 -11.976562 12.5625 -12.226562 11.375 -12.46875 C 10.195312 -12.71875 9.050781 -13.015625 7.9375 -13.359375 C 6.820312 -13.703125 5.8125 -14.144531 4.90625 -14.6875 C 4.007812 -15.226562 3.300781 -15.925781 2.78125 -16.78125 C 2.257812 -17.632812 2 -18.695312 2 -19.96875 C 2 -20.144531 2.023438 -20.425781 2.078125 -20.8125 C 2.140625 -21.207031 2.273438 -21.660156 2.484375 -22.171875 C 2.691406 -22.679688 3.015625 -23.195312 3.453125 -23.71875 C 3.898438 -24.238281 4.507812 -24.722656 5.28125 -25.171875 C 6.050781 -25.617188 7.019531 -25.976562 8.1875 -26.25 C 9.363281 -26.53125 10.785156 -26.671875 12.453125 -26.671875 C 14.035156 -26.671875 15.429688 -26.554688 16.640625 -26.328125 C 17.859375 -26.109375 18.882812 -25.851562 19.71875 -25.5625 C 20.5625 -25.269531 21.195312 -25.007812 21.625 -24.78125 C 22.0625 -24.5625 22.28125 -24.453125 22.28125 -24.453125 L 21.3125 -20.359375 C 21.3125 -20.359375 21.289062 -20.488281 21.25 -20.75 C 21.207031 -21.019531 21.101562 -21.367188 20.9375 -21.796875 C 20.769531 -22.234375 20.492188 -22.6875 20.109375 -23.15625 C 19.722656 -23.632812 19.191406 -24.085938 18.515625 -24.515625 C 17.847656 -24.941406 16.984375 -25.289062 15.921875 -25.5625 C 14.867188 -25.832031 13.585938 -25.96875 12.078125 -25.96875 C 11.210938 -25.96875 10.367188 -25.835938 9.546875 -25.578125 C 8.722656 -25.328125 7.984375 -24.953125 7.328125 -24.453125 C 6.671875 -23.953125 6.144531 -23.328125 5.75 -22.578125 C 5.363281 -21.828125 5.171875 -20.960938 5.171875 -19.984375 C 5.171875 -19.054688 5.441406 -18.289062 5.984375 -17.6875 C 6.535156 -17.09375 7.273438 -16.597656 8.203125 -16.203125 C 9.140625 -15.816406 10.1875 -15.492188 11.34375 -15.234375 C 12.507812 -14.972656 13.707031 -14.71875 14.9375 -14.46875 C 16.175781 -14.21875 17.375 -13.9375 18.53125 -13.625 C 19.695312 -13.3125 20.742188 -12.90625 21.671875 -12.40625 C 22.609375 -11.90625 23.351562 -11.265625 23.90625 -10.484375 C 24.457031 -9.710938 24.734375 -8.742188 24.734375 -7.578125 C 24.734375 -6.117188 24.320312 -4.816406 23.5 -3.671875 C 22.675781 -2.535156 21.367188 -1.640625 19.578125 -0.984375 C 17.785156 -0.328125 15.4375 0 12.53125 0 C 10.78125 0 9.269531 -0.113281 8 -0.34375 C 6.738281 -0.582031 5.664062 -0.890625 4.78125 -1.265625 C 3.90625 -1.640625 3.1875 -2.03125 2.625 -2.4375 C 2.070312 -2.84375 1.632812 -3.226562 1.3125 -3.59375 C 1 -3.957031 0.769531 -4.238281 0.625 -4.4375 L 2.75 -7.015625 C 2.832031 -6.773438 2.988281 -6.40625 3.21875 -5.90625 C 3.445312 -5.414062 3.785156 -4.867188 4.234375 -4.265625 C 4.691406 -3.671875 5.285156 -3.097656 6.015625 -2.546875 C 6.742188 -1.992188 7.644531 -1.539062 8.71875 -1.1875 C 9.789062 -0.832031 11.078125 -0.65625 12.578125 -0.65625 C 13.953125 -0.65625 15.125 -0.804688 16.09375 -1.109375 C 17.0625 -1.421875 17.847656 -1.820312 18.453125 -2.3125 C 19.054688 -2.8125 19.53125 -3.347656 19.875 -3.921875 C 20.21875 -4.503906 20.453125 -5.070312 20.578125 -5.625 C 20.703125 -6.1875 20.765625 -6.664062 20.765625 -7.0625 Z M 20.765625 -7.0625 "/></g></g><g style="fill:#faf3dd;fill-opacity:1;"><g transform="translate(104.504926, 116.803547)"><path style="stroke:none" d="M 14.65625 -0.65625 C 13.832031 -1.65625 13.625 -2.859375 14.03125 -4.265625 C 14.445312 -5.671875 15.128906 -7.148438 16.078125 -8.703125 C 13.867188 -6.378906 11.644531 -4.398438 9.40625 -2.765625 C 7.164062 -1.140625 5.144531 -0.109375 3.34375 0.328125 C 1.550781 0.773438 0.160156 0.445312 -0.828125 -0.65625 C -1.660156 -1.65625 -1.878906 -2.859375 -1.484375 -4.265625 C -1.097656 -5.671875 -0.382812 -7.1875 0.65625 -8.8125 C 1.707031 -10.445312 2.757812 -12.066406 3.8125 -13.671875 C 4.96875 -15.492188 6.097656 -17.316406 7.203125 -19.140625 C 8.304688 -20.960938 9.523438 -22.785156 10.859375 -24.609375 C 11.347656 -25.265625 11.960938 -25.660156 12.703125 -25.796875 C 13.453125 -25.941406 14.144531 -25.847656 14.78125 -25.515625 C 15.414062 -25.179688 15.816406 -24.65625 15.984375 -23.9375 C 16.148438 -23.21875 15.875 -22.363281 15.15625 -21.375 C 14.664062 -20.707031 13.863281 -19.847656 12.75 -18.796875 C 11.644531 -17.753906 10.441406 -16.625 9.140625 -15.40625 C 7.847656 -14.195312 6.675781 -12.984375 5.625 -11.765625 C 4.582031 -10.546875 3.867188 -9.394531 3.484375 -8.3125 C 3.097656 -7.238281 3.289062 -6.316406 4.0625 -5.546875 C 5.269531 -4.335938 7.117188 -4.328125 9.609375 -5.515625 C 12.097656 -6.703125 15.191406 -9.226562 18.890625 -13.09375 L 19.296875 -13.671875 C 20.460938 -15.492188 21.597656 -17.316406 22.703125 -19.140625 C 23.804688 -20.960938 25.019531 -22.785156 26.34375 -24.609375 C 26.84375 -25.265625 27.460938 -25.660156 28.203125 -25.796875 C 28.953125 -25.941406 29.644531 -25.847656 30.28125 -25.515625 C 30.914062 -25.179688 31.316406 -24.65625 31.484375 -23.9375 C 31.648438 -23.21875 31.375 -22.363281 30.65625 -21.375 C 30.15625 -20.707031 29.351562 -19.847656 28.25 -18.796875 C 27.144531 -17.753906 25.941406 -16.625 24.640625 -15.40625 C 23.347656 -14.195312 22.175781 -12.984375 21.125 -11.765625 C 20.070312 -10.546875 19.351562 -9.394531 18.96875 -8.3125 C 18.582031 -7.238281 18.773438 -6.316406 19.546875 -5.546875 C 20.816406 -4.335938 22.765625 -4.394531 25.390625 -5.71875 C 28.015625 -7.039062 31.316406 -9.800781 35.296875 -14 L 35.875 -13.75 C 33.988281 -11.320312 32 -9.082031 29.90625 -7.03125 C 27.8125 -4.988281 25.769531 -3.316406 23.78125 -2.015625 C 21.789062 -0.722656 19.992188 0.0703125 18.390625 0.375 C 16.785156 0.675781 15.539062 0.332031 14.65625 -0.65625 Z M 14.65625 -0.65625 "/></g></g><g style="fill:#faf3dd;fill-opacity:1;"><g transform="translate(133.914803, 116.803547)"><path style="stroke:none" d="M -17.8125 23.359375 C -18.414062 24.242188 -19.117188 24.78125 -19.921875 24.96875 C -20.722656 25.164062 -21.441406 25.082031 -22.078125 24.71875 C -22.710938 24.363281 -23.113281 23.8125 -23.28125 23.0625 C -23.445312 22.320312 -23.195312 21.507812 -22.53125 20.625 C -21.757812 19.519531 -20.679688 18.097656 -19.296875 16.359375 C -17.921875 14.617188 -16.128906 12.335938 -13.921875 9.515625 C -11.710938 6.703125 -9.03125 3.171875 -5.875 -1.078125 C -5.164062 -2.015625 -4.269531 -3.320312 -3.1875 -5 C -2.113281 -6.6875 -0.957031 -8.507812 0.28125 -10.46875 C 1.53125 -12.4375 2.773438 -14.375 4.015625 -16.28125 C 5.253906 -18.1875 6.398438 -19.894531 7.453125 -21.40625 C 8.503906 -22.925781 9.363281 -24.046875 10.03125 -24.765625 C 11.132812 -25.929688 12.164062 -26.414062 13.125 -26.21875 C 14.09375 -26.03125 14.742188 -25.4375 15.078125 -24.4375 C 15.410156 -23.445312 15.078125 -22.367188 14.078125 -21.203125 L 11.09375 -17.890625 C 13.3125 -19.828125 15.484375 -21.515625 17.609375 -22.953125 C 19.734375 -24.390625 21.675781 -25.351562 23.4375 -25.84375 C 25.207031 -26.34375 26.644531 -26.175781 27.75 -25.34375 C 29.070312 -24.351562 29.773438 -23.03125 29.859375 -21.375 C 29.941406 -19.71875 29.566406 -17.894531 28.734375 -15.90625 C 27.910156 -13.914062 26.78125 -11.957031 25.34375 -10.03125 C 24.070312 -8.3125 22.648438 -6.707031 21.078125 -5.21875 C 19.503906 -3.726562 17.914062 -2.515625 16.3125 -1.578125 C 16.875 -1.460938 17.5 -1.429688 18.1875 -1.484375 C 18.875 -1.546875 19.601562 -1.6875 20.375 -1.90625 C 22.695312 -2.625 25.320312 -3.976562 28.25 -5.96875 C 31.175781 -7.957031 33.992188 -10.414062 36.703125 -13.34375 L 37.359375 -13 C 34.984375 -9.96875 32.148438 -7.347656 28.859375 -5.140625 C 25.578125 -2.929688 22.390625 -1.300781 19.296875 -0.25 C 16.367188 0.75 13.71875 1.148438 11.34375 0.953125 C 8.96875 0.753906 7.3125 -0.195312 6.375 -1.90625 C 4.769531 -4.226562 5.378906 -6.738281 8.203125 -9.4375 C 8.972656 -10.21875 9.726562 -10.425781 10.46875 -10.0625 C 11.21875 -9.707031 11.675781 -9.140625 11.84375 -8.359375 C 12.007812 -7.585938 11.566406 -6.875 10.515625 -6.21875 C 9.691406 -5.71875 8.863281 -5.175781 8.03125 -4.59375 C 7.207031 -4.019531 6.988281 -3.34375 7.375 -2.5625 C 7.757812 -1.789062 8.445312 -1.554688 9.4375 -1.859375 C 10.4375 -2.160156 11.597656 -2.835938 12.921875 -3.890625 C 14.242188 -4.941406 15.625 -6.226562 17.0625 -7.75 C 18.5 -9.269531 19.828125 -10.859375 21.046875 -12.515625 C 22.203125 -14.109375 23.207031 -15.664062 24.0625 -17.1875 C 24.914062 -18.707031 25.441406 -20.070312 25.640625 -21.28125 C 25.835938 -22.5 25.519531 -23.382812 24.6875 -23.9375 C 23.96875 -24.488281 22.75 -24.335938 21.03125 -23.484375 C 19.320312 -22.628906 17.390625 -21.34375 15.234375 -19.625 C 13.085938 -17.914062 10.894531 -16.039062 8.65625 -14 C 6.414062 -11.957031 4.382812 -9.96875 2.5625 -8.03125 C 1.570312 -6.820312 0.523438 -5.566406 -0.578125 -4.265625 C -1.679688 -2.960938 -2.785156 -1.625 -3.890625 -0.25 C -4.554688 0.582031 -5.425781 1.867188 -6.5 3.609375 C -7.582031 5.347656 -8.726562 7.289062 -9.9375 9.4375 C -11.15625 11.59375 -12.328125 13.675781 -13.453125 15.6875 C -14.585938 17.707031 -15.554688 19.421875 -16.359375 20.828125 C -17.160156 22.242188 -17.644531 23.085938 -17.8125 23.359375 Z M -17.8125 23.359375 "/></g></g><g style="fill:#faf3dd;fill-opacity:1;"><g transform="translate(166.555639, 116.803547)"><path style="stroke:none" d="M 3.234375 -0.578125 C 1.359375 -1.847656 0.304688 -3.460938 0.078125 -5.421875 C -0.140625 -7.390625 0.21875 -9.476562 1.15625 -11.6875 C 2.09375 -13.894531 3.421875 -15.992188 5.140625 -17.984375 C 6.898438 -20.078125 8.867188 -21.867188 11.046875 -23.359375 C 13.234375 -24.847656 15.347656 -25.785156 17.390625 -26.171875 C 19.441406 -26.566406 21.070312 -26.15625 22.28125 -24.9375 C 23.332031 -24 23.816406 -22.851562 23.734375 -21.5 C 23.648438 -20.144531 23.25 -18.800781 22.53125 -17.46875 C 21.8125 -16.144531 20.957031 -15.046875 19.96875 -14.171875 C 18.96875 -13.285156 17.96875 -13.003906 16.96875 -13.328125 C 15.976562 -13.660156 15.304688 -14.3125 14.953125 -15.28125 C 14.597656 -16.25 14.832031 -17.226562 15.65625 -18.21875 C 16.09375 -18.71875 16.710938 -19.21875 17.515625 -19.71875 C 18.316406 -20.21875 19.085938 -20.710938 19.828125 -21.203125 C 20.578125 -21.703125 21.085938 -22.226562 21.359375 -22.78125 C 21.640625 -23.332031 21.476562 -23.882812 20.875 -24.4375 C 20.15625 -25.15625 19.210938 -25.320312 18.046875 -24.9375 C 16.890625 -24.550781 15.648438 -23.816406 14.328125 -22.734375 C 13.003906 -21.660156 11.734375 -20.40625 10.515625 -18.96875 C 9.359375 -17.644531 8.378906 -16.195312 7.578125 -14.625 C 6.773438 -13.050781 6.316406 -11.515625 6.203125 -10.015625 C 6.097656 -8.523438 6.460938 -7.175781 7.296875 -5.96875 C 8.453125 -4.414062 10.007812 -3.722656 11.96875 -3.890625 C 13.925781 -4.054688 16.148438 -4.941406 18.640625 -6.546875 C 21.128906 -8.148438 23.722656 -10.300781 26.421875 -13 L 26.921875 -12.515625 C 25.210938 -10.460938 23.332031 -8.5 21.28125 -6.625 C 19.238281 -4.75 17.140625 -3.160156 14.984375 -1.859375 C 12.835938 -0.566406 10.753906 0.226562 8.734375 0.53125 C 6.722656 0.84375 4.890625 0.472656 3.234375 -0.578125 Z M 3.234375 -0.578125 "/></g></g><g style="fill:#faf3dd;fill-opacity:1;"><g transform="translate(189.50361, 116.803547)"><path style="stroke:none" d="M 1 -0.328125 C -0.601562 -1.597656 -1.378906 -3.195312 -1.328125 -5.125 C -1.273438 -7.0625 -0.613281 -9.160156 0.65625 -11.421875 C 1.925781 -13.691406 3.585938 -15.957031 5.640625 -18.21875 C 7.679688 -20.488281 9.773438 -22.3125 11.921875 -23.6875 C 14.078125 -25.070312 16.09375 -25.929688 17.96875 -26.265625 C 19.851562 -26.597656 21.375 -26.289062 22.53125 -25.34375 C 24.1875 -24.070312 24.738281 -22.015625 24.1875 -19.171875 C 23.632812 -16.328125 22.226562 -13.359375 19.96875 -10.265625 C 20.351562 -9.660156 21.125 -9.332031 22.28125 -9.28125 C 23.445312 -9.226562 24.867188 -9.65625 26.546875 -10.5625 C 28.234375 -11.46875 29.988281 -12.972656 31.8125 -15.078125 L 32.3125 -14.578125 C 30.269531 -11.929688 28.363281 -10 26.59375 -8.78125 C 24.820312 -7.5625 23.191406 -6.882812 21.703125 -6.75 C 20.210938 -6.613281 18.859375 -6.820312 17.640625 -7.375 C 15.710938 -5.164062 13.671875 -3.367188 11.515625 -1.984375 C 9.359375 -0.609375 7.351562 0.226562 5.5 0.53125 C 3.65625 0.84375 2.15625 0.554688 1 -0.328125 Z M 5.640625 -5.875 C 6.898438 -4.832031 8.484375 -4.554688 10.390625 -5.046875 C 12.296875 -5.546875 14.242188 -6.65625 16.234375 -8.375 C 15.960938 -8.695312 15.671875 -9.148438 15.359375 -9.734375 C 15.054688 -10.316406 14.960938 -11.078125 15.078125 -12.015625 C 15.191406 -12.953125 15.660156 -14.03125 16.484375 -15.25 C 17.367188 -16.519531 18.179688 -17.289062 18.921875 -17.5625 C 19.671875 -17.84375 20.332031 -17.859375 20.90625 -17.609375 C 21.488281 -17.359375 21.921875 -17.066406 22.203125 -16.734375 C 22.753906 -18.222656 22.972656 -19.546875 22.859375 -20.703125 C 22.753906 -21.867188 22.394531 -22.726562 21.78125 -23.28125 C 20.90625 -24.050781 19.773438 -24.394531 18.390625 -24.3125 C 17.003906 -24.226562 15.566406 -23.757812 14.078125 -22.90625 C 12.585938 -22.050781 11.207031 -20.878906 9.9375 -19.390625 C 8.5 -17.671875 7.296875 -15.914062 6.328125 -14.125 C 5.367188 -12.332031 4.804688 -10.703125 4.640625 -9.234375 C 4.472656 -7.773438 4.804688 -6.65625 5.640625 -5.875 Z M 5.640625 -5.875 "/></g></g><g style="fill:#faf3dd;fill-opacity:1;"><g transform="translate(216.179601, 116.803547)"><path style="stroke:none" d="M 10.359375 -0.078125 C 9.472656 -0.691406 9.195312 -1.59375 9.53125 -2.78125 C 9.863281 -3.96875 10.566406 -5.304688 11.640625 -6.796875 C 12.710938 -8.285156 13.925781 -9.816406 15.28125 -11.390625 C 16.632812 -12.960938 17.90625 -14.46875 19.09375 -15.90625 C 20.28125 -17.34375 21.191406 -18.582031 21.828125 -19.625 C 22.460938 -20.675781 22.53125 -21.425781 22.03125 -21.875 C 21.375 -22.53125 20.367188 -22.484375 19.015625 -21.734375 C 17.660156 -20.992188 16.15625 -19.820312 14.5 -18.21875 C 12.84375 -16.625 11.128906 -14.832031 9.359375 -12.84375 C 7.429688 -10.6875 5.597656 -8.53125 3.859375 -6.375 C 2.117188 -4.21875 0.691406 -2.507812 -0.421875 -1.25 C -1.242188 -0.25 -2.140625 0.191406 -3.109375 0.078125 C -4.078125 -0.0234375 -4.765625 -0.503906 -5.171875 -1.359375 C -5.585938 -2.222656 -5.410156 -3.207031 -4.640625 -4.3125 C -4.140625 -4.96875 -3.421875 -5.90625 -2.484375 -7.125 C -1.546875 -8.34375 -0.566406 -9.640625 0.453125 -11.015625 C 1.472656 -12.398438 2.34375 -13.613281 3.0625 -14.65625 C 4.164062 -16.320312 5.019531 -17.632812 5.625 -18.59375 C 6.238281 -19.5625 6.78125 -20.445312 7.25 -21.25 C 7.71875 -22.050781 8.285156 -22.976562 8.953125 -24.03125 C 9.554688 -25.019531 10.269531 -25.640625 11.09375 -25.890625 C 11.925781 -26.140625 12.660156 -26.097656 13.296875 -25.765625 C 13.929688 -25.429688 14.300781 -24.878906 14.40625 -24.109375 C 14.519531 -23.335938 14.191406 -22.453125 13.421875 -21.453125 C 12.367188 -20.078125 10.945312 -18.597656 9.15625 -17.015625 C 7.363281 -15.441406 5.71875 -13.71875 4.21875 -11.84375 C 3.113281 -10.46875 2.1875 -9.253906 1.4375 -8.203125 C 0.695312 -7.148438 0.519531 -6.488281 0.90625 -6.21875 C 1.238281 -5.988281 1.859375 -6.34375 2.765625 -7.28125 C 3.679688 -8.226562 4.800781 -9.488281 6.125 -11.0625 C 7.457031 -12.632812 8.8125 -14.191406 10.1875 -15.734375 C 11.625 -17.335938 13.085938 -18.898438 14.578125 -20.421875 C 16.066406 -21.941406 17.515625 -23.238281 18.921875 -24.3125 C 20.335938 -25.394531 21.679688 -26.085938 22.953125 -26.390625 C 24.222656 -26.691406 25.328125 -26.398438 26.265625 -25.515625 C 27.148438 -24.679688 27.46875 -23.65625 27.21875 -22.4375 C 26.96875 -21.226562 26.34375 -19.929688 25.34375 -18.546875 C 24.351562 -17.171875 23.234375 -15.78125 21.984375 -14.375 C 20.742188 -12.96875 19.570312 -11.65625 18.46875 -10.4375 C 17.363281 -9.21875 16.535156 -8.164062 15.984375 -7.28125 C 15.429688 -6.40625 15.40625 -5.773438 15.90625 -5.390625 C 16.40625 -5.054688 16.929688 -5.066406 17.484375 -5.421875 C 18.035156 -5.785156 18.914062 -6.65625 20.125 -8.03125 C 21.34375 -9.414062 23.113281 -11.460938 25.4375 -14.171875 C 26.8125 -15.765625 28.257812 -17.414062 29.78125 -19.125 C 31.300781 -20.84375 32.804688 -22.347656 34.296875 -23.640625 C 35.785156 -24.941406 37.21875 -25.828125 38.59375 -26.296875 C 39.976562 -26.765625 41.195312 -26.53125 42.25 -25.59375 C 43.1875 -24.820312 43.546875 -23.84375 43.328125 -22.65625 C 43.109375 -21.46875 42.554688 -20.171875 41.671875 -18.765625 C 40.785156 -17.359375 39.75 -15.9375 38.5625 -14.5 C 37.375 -13.0625 36.253906 -11.691406 35.203125 -10.390625 C 34.160156 -9.097656 33.398438 -7.953125 32.921875 -6.953125 C 32.453125 -5.960938 32.46875 -5.21875 32.96875 -4.71875 C 33.6875 -4.0625 34.890625 -3.953125 36.578125 -4.390625 C 38.265625 -4.828125 40.238281 -5.847656 42.5 -7.453125 C 44.757812 -9.054688 47.078125 -11.210938 49.453125 -13.921875 L 50.03125 -13.421875 C 48.050781 -11.160156 45.953125 -9.035156 43.734375 -7.046875 C 41.523438 -5.054688 39.359375 -3.382812 37.234375 -2.03125 C 35.109375 -0.675781 33.175781 0.164062 31.4375 0.5 C 29.695312 0.832031 28.332031 0.472656 27.34375 -0.578125 C 26.34375 -1.679688 25.953125 -2.894531 26.171875 -4.21875 C 26.398438 -5.550781 27.007812 -6.945312 28 -8.40625 C 29 -9.875 30.160156 -11.320312 31.484375 -12.75 C 32.804688 -14.1875 34.0625 -15.523438 35.25 -16.765625 C 36.4375 -18.015625 37.316406 -19.09375 37.890625 -20 C 38.472656 -20.914062 38.519531 -21.566406 38.03125 -21.953125 C 37.195312 -22.671875 36.101562 -22.601562 34.75 -21.75 C 33.394531 -20.894531 31.898438 -19.582031 30.265625 -17.8125 C 28.640625 -16.039062 27 -14.160156 25.34375 -12.171875 C 22.96875 -9.304688 20.882812 -6.796875 19.09375 -4.640625 C 17.300781 -2.484375 15.710938 -0.960938 14.328125 -0.078125 C 12.953125 0.804688 11.628906 0.804688 10.359375 -0.078125 Z M 10.359375 -0.078125 "/></g></g><g style="fill:#faf3dd;fill-opacity:1;"><g transform="translate(260.998653, 116.803547)"><path style="stroke:none" d="M -2.3125 -0.65625 C -3.144531 -1.65625 -3.367188 -2.859375 -2.984375 -4.265625 C -2.597656 -5.671875 -1.878906 -7.1875 -0.828125 -8.8125 C 0.222656 -10.445312 1.269531 -12.066406 2.3125 -13.671875 C 3.476562 -15.492188 4.613281 -17.316406 5.71875 -19.140625 C 6.820312 -20.960938 8.035156 -22.785156 9.359375 -24.609375 C 9.859375 -25.265625 10.476562 -25.660156 11.21875 -25.796875 C 11.96875 -25.941406 12.660156 -25.847656 13.296875 -25.515625 C 13.929688 -25.179688 14.332031 -24.65625 14.5 -23.9375 C 14.664062 -23.21875 14.390625 -22.363281 13.671875 -21.375 C 13.171875 -20.707031 12.367188 -19.847656 11.265625 -18.796875 C 10.160156 -17.753906 8.957031 -16.625 7.65625 -15.40625 C 6.363281 -14.195312 5.191406 -12.984375 4.140625 -11.765625 C 3.085938 -10.546875 2.367188 -9.394531 1.984375 -8.3125 C 1.597656 -7.238281 1.789062 -6.316406 2.5625 -5.546875 C 3.832031 -4.335938 5.78125 -4.394531 8.40625 -5.71875 C 11.03125 -7.039062 14.332031 -9.800781 18.3125 -14 L 18.890625 -13.75 C 17.015625 -11.320312 15.023438 -9.082031 12.921875 -7.03125 C 10.828125 -4.988281 8.785156 -3.316406 6.796875 -2.015625 C 4.804688 -0.722656 3.007812 0.0703125 1.40625 0.375 C -0.195312 0.675781 -1.4375 0.332031 -2.3125 -0.65625 Z M 14.578125 -34.21875 C 15.460938 -35.488281 16.5 -36.300781 17.6875 -36.65625 C 18.875 -37.019531 19.910156 -36.894531 20.796875 -36.28125 C 21.617188 -35.726562 22.046875 -34.816406 22.078125 -33.546875 C 22.109375 -32.273438 21.707031 -31.0625 20.875 -29.90625 C 20.050781 -28.6875 19.046875 -27.894531 17.859375 -27.53125 C 16.671875 -27.175781 15.601562 -27.273438 14.65625 -27.828125 C 13.832031 -28.378906 13.421875 -29.304688 13.421875 -30.609375 C 13.421875 -31.910156 13.804688 -33.113281 14.578125 -34.21875 Z M 14.578125 -34.21875 "/></g></g><g style="fill:#faf3dd;fill-opacity:1;"><g transform="translate(274.833664, 116.803547)"><path style="stroke:none" d="M 11.4375 -0.828125 C 10.4375 -1.929688 10.0625 -3.144531 10.3125 -4.46875 C 10.5625 -5.800781 11.179688 -7.179688 12.171875 -8.609375 C 13.171875 -10.046875 14.316406 -11.453125 15.609375 -12.828125 C 16.910156 -14.210938 18.140625 -15.515625 19.296875 -16.734375 C 20.460938 -17.953125 21.347656 -19 21.953125 -19.875 C 22.554688 -20.757812 22.613281 -21.425781 22.125 -21.875 C 21.457031 -22.53125 20.445312 -22.484375 19.09375 -21.734375 C 17.738281 -20.992188 16.234375 -19.820312 14.578125 -18.21875 C 12.921875 -16.625 11.207031 -14.832031 9.4375 -12.84375 C 7.507812 -10.6875 5.675781 -8.53125 3.9375 -6.375 C 2.195312 -4.21875 0.773438 -2.507812 -0.328125 -1.25 C -1.160156 -0.25 -2.054688 0.191406 -3.015625 0.078125 C -3.984375 -0.0234375 -4.675781 -0.503906 -5.09375 -1.359375 C -5.507812 -2.222656 -5.332031 -3.207031 -4.5625 -4.3125 C -4.0625 -4.96875 -3.34375 -5.90625 -2.40625 -7.125 C -1.46875 -8.34375 -0.488281 -9.640625 0.53125 -11.015625 C 1.5625 -12.398438 2.429688 -13.613281 3.140625 -14.65625 C 4.253906 -16.320312 5.113281 -17.632812 5.71875 -18.59375 C 6.320312 -19.5625 6.859375 -20.445312 7.328125 -21.25 C 7.796875 -22.050781 8.363281 -22.976562 9.03125 -24.03125 C 9.632812 -25.019531 10.347656 -25.640625 11.171875 -25.890625 C 12.003906 -26.140625 12.738281 -26.097656 13.375 -25.765625 C 14.007812 -25.429688 14.378906 -24.878906 14.484375 -24.109375 C 14.597656 -23.335938 14.269531 -22.453125 13.5 -21.453125 C 12.445312 -20.078125 11.023438 -18.597656 9.234375 -17.015625 C 7.441406 -15.441406 5.800781 -13.71875 4.3125 -11.84375 C 3.207031 -10.46875 2.28125 -9.253906 1.53125 -8.203125 C 0.789062 -7.148438 0.613281 -6.488281 1 -6.21875 C 1.320312 -5.988281 1.9375 -6.34375 2.84375 -7.28125 C 3.757812 -8.226562 4.878906 -9.488281 6.203125 -11.0625 C 7.535156 -12.632812 8.890625 -14.191406 10.265625 -15.734375 C 11.703125 -17.335938 13.164062 -18.898438 14.65625 -20.421875 C 16.15625 -21.941406 17.609375 -23.238281 19.015625 -24.3125 C 20.421875 -25.394531 21.757812 -26.085938 23.03125 -26.390625 C 24.300781 -26.691406 25.40625 -26.398438 26.34375 -25.515625 C 27.226562 -24.679688 27.554688 -23.65625 27.328125 -22.4375 C 27.109375 -21.226562 26.539062 -19.929688 25.625 -18.546875 C 24.71875 -17.171875 23.6875 -15.765625 22.53125 -14.328125 C 21.375 -12.890625 20.285156 -11.535156 19.265625 -10.265625 C 18.242188 -9.003906 17.492188 -7.875 17.015625 -6.875 C 16.546875 -5.882812 16.5625 -5.140625 17.0625 -4.640625 C 17.78125 -3.972656 18.992188 -3.890625 20.703125 -4.390625 C 22.421875 -4.890625 24.410156 -5.953125 26.671875 -7.578125 C 28.941406 -9.210938 31.265625 -11.296875 33.640625 -13.828125 L 34.125 -13.34375 C 32.144531 -11.070312 30.046875 -8.941406 27.828125 -6.953125 C 25.617188 -4.960938 23.453125 -3.304688 21.328125 -1.984375 C 19.203125 -0.660156 17.269531 0.132812 15.53125 0.40625 C 13.789062 0.6875 12.425781 0.273438 11.4375 -0.828125 Z M 11.4375 -0.828125 "/></g></g><g style="fill:#faf3dd;fill-opacity:1;"><g transform="translate(303.663623, 116.803547)"><path style="stroke:none" d="M -15.15625 26.515625 C -16.320312 25.410156 -16.789062 24.082031 -16.5625 22.53125 C -16.34375 20.988281 -15.613281 19.332031 -14.375 17.5625 C -13.132812 15.789062 -11.546875 14.050781 -9.609375 12.34375 C -7.953125 10.851562 -6.019531 9.457031 -3.8125 8.15625 C -1.601562 6.863281 0.671875 5.734375 3.015625 4.765625 C 5.367188 3.796875 7.566406 3.09375 9.609375 2.65625 C 10.710938 0.9375 11.800781 -0.816406 12.875 -2.609375 C 13.957031 -4.398438 15.050781 -6.179688 16.15625 -7.953125 C 14.28125 -5.796875 12.332031 -4 10.3125 -2.5625 C 8.300781 -1.132812 6.394531 -0.210938 4.59375 0.203125 C 2.800781 0.617188 1.269531 0.332031 0 -0.65625 C -1.539062 -1.925781 -2.160156 -3.539062 -1.859375 -5.5 C -1.554688 -7.46875 -0.59375 -9.566406 1.03125 -11.796875 C 2.664062 -14.035156 4.613281 -16.234375 6.875 -18.390625 C 9.132812 -20.492188 11.394531 -22.164062 13.65625 -23.40625 C 15.925781 -24.644531 17.972656 -25.414062 19.796875 -25.71875 C 21.617188 -26.019531 22.972656 -25.816406 23.859375 -25.109375 C 24.578125 -24.546875 24.9375 -23.796875 24.9375 -22.859375 C 25.101562 -23.140625 25.269531 -23.40625 25.4375 -23.65625 C 25.601562 -23.90625 25.796875 -24.140625 26.015625 -24.359375 C 26.898438 -25.515625 27.863281 -26.050781 28.90625 -25.96875 C 29.957031 -25.882812 30.71875 -25.398438 31.1875 -24.515625 C 31.65625 -23.640625 31.394531 -22.507812 30.40625 -21.125 C 29.800781 -20.238281 28.832031 -19.160156 27.5 -17.890625 C 26.175781 -16.617188 24.78125 -15.207031 23.3125 -13.65625 C 21.851562 -12.113281 20.597656 -10.488281 19.546875 -8.78125 C 18.335938 -6.789062 17.148438 -4.910156 15.984375 -3.140625 C 14.828125 -1.378906 13.722656 0.300781 12.671875 1.90625 C 16.265625 0.851562 19.207031 -0.441406 21.5 -1.984375 C 23.789062 -3.535156 25.832031 -5.300781 27.625 -7.28125 C 29.425781 -9.269531 31.375 -11.453125 33.46875 -13.828125 L 34.125 -13.421875 C 32.195312 -11.210938 30.113281 -8.835938 27.875 -6.296875 C 25.632812 -3.753906 23.09375 -1.410156 20.25 0.734375 C 17.40625 2.890625 14.078125 4.46875 10.265625 5.46875 C 6.234375 11.320312 2.769531 15.847656 -0.125 19.046875 C -3.019531 22.253906 -5.445312 24.492188 -7.40625 25.765625 C -9.375 27.035156 -10.960938 27.640625 -12.171875 27.578125 C -13.390625 27.523438 -14.382812 27.171875 -15.15625 26.515625 Z M -10.765625 21.953125 C -9.171875 23.109375 -6.835938 22.332031 -3.765625 19.625 C -0.703125 16.925781 2.84375 12.648438 6.875 6.796875 L 7.296875 6.125 C 3.921875 7.007812 0.9375 8.070312 -1.65625 9.3125 C -4.25 10.5625 -6.320312 11.847656 -7.875 13.171875 C -8.8125 14.003906 -9.691406 14.972656 -10.515625 16.078125 C -11.347656 17.179688 -11.847656 18.253906 -12.015625 19.296875 C -12.179688 20.347656 -11.765625 21.234375 -10.765625 21.953125 Z M 5.875 -5.296875 C 6.59375 -4.472656 7.519531 -4.1875 8.65625 -4.4375 C 9.789062 -4.6875 11.019531 -5.289062 12.34375 -6.25 C 13.664062 -7.21875 14.972656 -8.378906 16.265625 -9.734375 C 17.566406 -11.085938 18.769531 -12.453125 19.875 -13.828125 C 20.488281 -14.878906 21.054688 -15.914062 21.578125 -16.9375 C 22.109375 -17.957031 22.648438 -18.992188 23.203125 -20.046875 C 23.359375 -20.710938 23.421875 -21.320312 23.390625 -21.875 C 23.367188 -22.425781 23.191406 -22.8125 22.859375 -23.03125 C 21.984375 -23.75 20.835938 -23.96875 19.421875 -23.6875 C 18.015625 -23.414062 16.507812 -22.769531 14.90625 -21.75 C 13.3125 -20.726562 11.796875 -19.5 10.359375 -18.0625 C 8.921875 -16.625 7.703125 -15.101562 6.703125 -13.5 C 5.710938 -11.894531 5.109375 -10.375 4.890625 -8.9375 C 4.671875 -7.507812 5 -6.296875 5.875 -5.296875 Z M 5.875 -5.296875 "/></g></g></g></svg>