<svg width="835" height="149" xmlns="http://www.w3.org/2000/svg" xmlns:xlink="http://www.w3.org/1999/xlink" xml:space="preserve" overflow="hidden"><defs><clipPath id="clip0"><rect x="193" y="345" width="835" height="149"/></clipPath><clipPath id="clip1"><rect x="193" y="345" width="835" height="149"/></clipPath><clipPath id="clip2"><rect x="194" y="346" width="834" height="148"/></clipPath><clipPath id="clip3"><rect x="194" y="346" width="834" height="148"/></clipPath><clipPath id="clip4"><rect x="88" y="346" width="1105" height="148"/></clipPath><clipPath id="clip5"><path d="M97.4594 357.267 1075.08 357.267C1077.02 357.267 1078.88 358.035 1080.25 359.399 1081.62 360.763 1082.39 362.616 1082.39 364.544L1082.39 452.365C1082.39 454.297 1081.62 456.147 1080.25 457.514 1078.88 458.878 1077.02 459.646 1075.08 459.646L97.4594 459.646C95.521 459.646 93.6654 458.878 92.2935 457.514 90.9249 456.147 90.1546 454.297 90.1546 452.365L90.1546 364.544C90.1546 362.616 90.9249 360.763 92.2935 359.399 93.6654 358.035 95.521 357.267 97.4594 357.267Z" fill-rule="nonzero" clip-rule="nonzero"/></clipPath></defs><g clip-path="url(#clip0)" transform="translate(-193 -345)"><g clip-path="url(#clip1)"><g clip-path="url(#clip2)"><g clip-path="url(#clip3)"><g clip-path="url(#clip4)"><g><path d="M1.95087 0 1098 0 1098 147.394 1.95087 147.394Z" fill="#FFFFFF" fill-rule="nonzero" fill-opacity="1" transform="matrix(1.0034 0 0 1 88.1971 346)"/></g><g><path d="M383.228 147.071C401.975 147.071 417.176 131.873 417.176 113.122L349.279 113.122C349.279 131.873 364.477 147.071 383.228 147.071Z" fill="#828D77" fill-rule="nonzero" fill-opacity="1" transform="matrix(1.0034 0 0 1 88.1971 346)"/></g><g><path d="M315.331 147.071C334.079 147.071 349.279 131.873 349.279 113.122L281.383 113.122C281.383 131.873 296.581 147.071 315.331 147.071Z" fill="#828D77" fill-rule="nonzero" fill-opacity="1" transform="matrix(1.0034 0 0 1 88.1971 346)"/></g><g><path d="M247.434 147.071C266.182 147.071 281.383 131.873 281.383 113.122L213.486 113.122C213.486 131.873 228.684 147.071 247.434 147.071Z" fill="#828D77" fill-rule="nonzero" fill-opacity="1" transform="matrix(1.0034 0 0 1 88.1971 346)"/></g><g><path d="M179.538 147.071C198.285 147.071 213.486 131.873 213.486 113.122L145.589 113.122C145.589 131.873 160.787 147.071 179.538 147.071Z" fill="#828D77" fill-rule="nonzero" fill-opacity="1" transform="matrix(1.0034 0 0 1 88.1971 346)"/></g><g><path d="M111.641 147.071C130.388 147.071 145.589 131.873 145.589 113.122L77.6892 113.122C77.6892 131.873 92.8902 147.071 111.641 147.071Z" fill="#828D77" fill-rule="nonzero" fill-opacity="1" transform="matrix(1.0034 0 0 1 88.1971 346)"/></g><g><path d="M723.565 147.071C742.316 147.071 757.513 131.873 757.513 113.122L689.617 113.122C689.617 131.873 704.814 147.071 723.565 147.071Z" fill="#828D77" fill-rule="nonzero" fill-opacity="1" transform="matrix(1.0034 0 0 1 88.1971 346)"/></g><g><path d="M655.668 147.071C674.416 147.071 689.617 131.873 689.617 113.122L621.72 113.122C621.72 131.873 636.918 147.071 655.668 147.071Z" fill="#828D77" fill-rule="nonzero" fill-opacity="1" transform="matrix(1.0034 0 0 1 88.1971 346)"/></g><g><path d="M587.771 147.071C606.519 147.071 621.72 131.873 621.72 113.122L553.823 113.122C553.823 131.873 569.021 147.071 587.771 147.071Z" fill="#828D77" fill-rule="nonzero" fill-opacity="1" transform="matrix(1.0034 0 0 1 88.1971 346)"/></g><g><path d="M519.875 147.071C538.622 147.071 553.823 131.873 553.823 113.122L485.926 113.122C485.926 131.873 501.124 147.071 519.875 147.071Z" fill="#828D77" fill-rule="nonzero" fill-opacity="1" transform="matrix(1.0034 0 0 1 88.1971 346)"/></g><g><path d="M451.978 147.071C470.725 147.071 485.926 131.873 485.926 113.122L418.03 113.122C418.03 131.873 433.227 147.071 451.978 147.071Z" fill="#828D77" fill-rule="nonzero" fill-opacity="1" transform="matrix(1.0034 0 0 1 88.1971 346)"/></g><g><g clip-path="url(#clip5)"><path d="M1.95087 11.2675 990.943 11.2675 990.943 113.646 1.95087 113.646Z" fill="#828D77" fill-rule="nonzero" fill-opacity="1" transform="matrix(1.0034 0 0 1 88.1971 346)"/></g></g><path d="M23.6896 0.532922C20.803 0.888203 17.9576 0.812071 15.1502 0.304527 12.3397-0.203018 9.79561-1.11025 7.51166-2.42353 5.23405-3.74314 3.41324-5.42438 2.04287-7.47359 0.678841-9.52915 0-11.921 0-14.6553 0-16.879 0.653464-18.9124 1.96674-20.7586 3.28635-22.6111 5.11986-24.0893 7.47359-25.1996 9.83368-26.3162 12.5554-26.9126 15.6451-26.9887 18.7316-27.0648 22.0211-26.4716 25.5168-25.2123 26.6746-24.8062 27.4201-24.1972 27.75-23.3851 28.0799-22.573 28.0926-21.7864 27.7881-21.025 27.4835-20.2701 26.976-19.7308 26.2654-19.4009 25.5612-19.071 24.7301-19.1598 23.7658-19.6674 20.7269-21.3835 17.8814-22.4969 15.2263-23.0045 12.5681-23.512 10.2397-23.4993 8.23491-22.9664 6.23645-22.4335 4.69479-21.4564 3.60357-20.0353 2.51869-18.6205 2.05556-16.8537 2.20782-14.7315 2.35057-12.6569 3.03258-10.8741 4.25069-9.37689 5.46879-7.87963 7.04853-6.6869 8.99623-5.7987 10.9408-4.91684 13.0883-4.33951 15.442-4.06036 17.8021-3.78121 20.1686-3.81927 22.5477-4.17455 25.4819-4.63134 28.2258-5.55127 30.7826-6.94067 33.3457-8.33642 35.4203-10.208 37.0127-12.5617 38.6115-14.9218 39.3601-17.745 39.2586-21.0377 39.2078-23.1091 38.6876-24.9902 37.6979-26.6842 36.7082-28.3844 35.6074-30.0149 34.3988-31.582 33.3837-33.0031 32.3306-34.4686 31.2394-35.9849 30.1545-37.5075 29.3488-39.1127 28.8158-40.8066 28.2829-42.5069 28.2956-44.2896 28.8539-46.1612 29.5645-48.5466 30.8651-50.5197 32.762-52.0868 34.6558-53.6601 36.8541-54.8338 39.3601-55.6142 41.8724-56.4009 44.4292-56.8196 47.0367-56.8704 49.641-56.9211 52.0297-56.6166 54.2058-55.9568 56.3882-55.297 58.0821-54.2946 59.2939-52.9496 60.512-51.6109 60.9688-49.9329 60.6643-47.9122 60.3597-46.085 59.5477-44.5624 58.2281-43.3443 56.9148-42.1325 55.3604-41.1619 53.5586-40.4259 51.7632-39.6963 49.9931-39.1951 48.2421-38.916 46.4974-38.6368 45.0478-38.548 43.8899-38.6495 42.7733-38.8018 42.0754-39.2395 41.7963-39.9691 41.5171-40.7051 41.606-41.3903 42.0628-42.0247 42.5195-42.6591 43.2555-42.8494 44.2706-42.5957 48.1089-41.6313 51.1541-41.4791 53.4064-42.1389 55.665-42.7987 56.5912-44.6703 56.1852-47.7599 55.9314-49.7806 55.1193-51.4143 53.749-52.6577 52.3849-53.9012 50.7291-54.707 48.775-55.0813 46.8273-55.4619 44.832-55.3985 42.786-54.8909 40.7368-54.3897 38.916-53.4318 37.3172-52.0106 35.7248-50.5895 34.6019-48.664 33.942-46.2373 33.13-42.9954 32.9523-40.3403 33.4091-38.2689 33.8659-36.1943 34.6463-34.3481 35.7565-32.7239 36.5686-31.5566 37.4441-30.4273 38.3831-29.3361 39.322-28.2512 40.1912-27.0902 40.9969-25.8467 41.809-24.6096 42.3927-23.1567 42.7479-21.4818 43.56-18.1479 43.3443-14.9123 42.1008-11.775 40.8637-8.6346 38.7003-5.95096 35.6043-3.71776 32.5146-1.49091 28.543-0.0761317 23.6896 0.532922Z" fill="#FCF6E8" fill-rule="nonzero" fill-opacity="1" transform="matrix(1.0034 0 0 1 463.364 434.196)"/><path d="M13.4372-0.609053C12.6759-1.52263 12.4856-2.6202 12.8663-3.90809 13.2469-5.20233 13.8687-6.55367 14.7315-7.96845 12.7076-5.84311 10.6711-4.03498 8.61557-2.53772 6.56636-1.04681 4.72016-0.101509 3.07064 0.304527 1.42747 0.710562 0.152263 0.406036-0.761317-0.609053-1.52263-1.52263-1.72565-2.6202-1.37037-3.90809-1.01509-5.20233-0.355281-6.59174 0.609053-8.08265 1.57339-9.5799 2.53138-11.0581 3.48937-12.5237 4.55521-14.1986 5.58933-15.8671 6.59808-17.5357 7.61317-19.2106 8.72977-20.8791 9.94787-22.5477 10.4047-23.1567 10.9693-23.5247 11.6481-23.6516 12.3333-23.7785 12.9678-23.6896 13.5514-23.3851 14.1351-23.0806 14.5031-22.5984 14.6553-21.9386 14.8076-21.2852 14.5538-20.5048 13.894-19.5912 13.4372-18.9822 12.7013-18.1955 11.6862-17.2311 10.6775-16.2731 9.5799-15.239 8.38717-14.1224 7.20079-13.0058 6.1286-11.8892 5.16427-10.7726 4.19993-9.66238 3.54012-8.61557 3.18484-7.62586 2.82956-6.64249 3.0072-5.7987 3.71776-5.08813 4.83436-3.97154 6.52829-3.95885 8.8059-5.05007 11.0803-6.14129 13.9131-8.45379 17.3073-11.9907L17.6879-12.5237C18.7538-14.1986 19.7879-15.8671 20.7966-17.5357 21.8117-19.2106 22.9283-20.8791 24.1464-22.5477 24.6032-23.1567 25.1679-23.5247 25.8467-23.6516 26.5319-23.7785 27.1663-23.6896 27.75-23.3851 28.3337-23.0806 28.7016-22.5984 28.8539-21.9386 29.0062-21.2852 28.7524-20.5048 28.0926-19.5912 27.6358-18.9822 26.8999-18.1955 25.8848-17.2311 24.876-16.2731 23.7785-15.239 22.5857-14.1224 21.3993-13.0058 20.3272-11.8892 19.3628-10.7726 18.3985-9.66238 17.7387-8.61557 17.3834-7.62586 17.0281-6.64249 17.2058-5.7987 17.9163-5.08813 19.0837-3.97154 20.8664-4.02229 23.2709-5.2404 25.6722-6.4585 28.6953-8.98671 32.3433-12.8282L32.8762-12.5998C31.1569-10.3729 29.3361-8.32373 27.4074-6.44582 25.4851-4.57424 23.6135-3.04527 21.7864-1.85254 19.9655-0.666152 18.3224 0.0634431 16.8505 0.342593 15.3849 0.621742 14.2493 0.304527 13.4372-0.609053Z" fill="#FCF6E8" fill-rule="nonzero" fill-opacity="1" transform="matrix(1.0034 0 0 1 513.724 434.196)"/><path d="M-16.3302 21.4057C-16.879 22.2178-17.523 22.7126-18.2589 22.8903-18.9949 23.0679-19.6547 22.9918-20.2383 22.6619-20.822 22.332-21.1836 21.8244-21.3296 21.1392-21.4818 20.4604-21.2566 19.7181-20.6571 18.906-19.9465 17.8909-18.9568 16.584-17.6879 14.9853-16.4254 13.3928-14.7822 11.3087-12.7521 8.72977-10.7282 6.14763-8.27615 2.90886-5.39266-0.989712-4.73285-1.85254-3.90809-3.05161-2.91838-4.59328-1.93501-6.14129-0.875514-7.80984 0.266461-9.60528 1.40844-11.3975 2.54407-13.1644 3.6797-14.9091 4.82167-16.6602 5.86848-18.2272 6.82647-19.6166 7.79081-21.0123 8.5775-22.0401 9.18656-22.6999 10.2016-23.7658 11.1469-24.2099 12.0288-24.0322 12.917-23.8546 13.5134-23.309 13.8179-22.3954 14.1224-21.4882 13.8179-20.5048 12.9043-19.439L10.1763-16.4064C12.1969-18.1733 14.1795-19.7118 16.1272-21.025 18.0813-22.3447 19.864-23.2329 21.4818-23.6896 23.106-24.1464 24.4256-23.9942 25.4407-23.2329 26.6493-22.3193 27.2932-21.1012 27.3693-19.5785 27.4455-18.0622 27.1029-16.3969 26.3416-14.5792 25.5866-12.7584 24.5525-10.963 23.2329-9.18656 22.0655-7.61951 20.7586-6.15398 19.3121-4.78361 17.8719-3.41324 16.4222-2.29981 14.9599-1.4465 15.4674-1.34499 16.0321-1.31962 16.6602-1.37037 17.2946-1.42112 17.9671-1.54801 18.6776-1.75103 20.7998-2.40132 23.2011-3.63529 25.8848-5.4561 28.5748-7.28326 31.1569-9.53549 33.6375-12.2191L34.2466-11.9146C32.0641-9.12946 29.4661-6.72814 26.4558-4.70748 23.4422-2.68364 20.5207-1.19273 17.6879-0.228395 15.0043 0.685185 12.5744 1.05315 10.392 0.875514 8.21588 0.697874 6.70276-0.177641 5.84945-1.75103 4.37757-3.8732 4.92953-6.17301 7.51166-8.65364 8.22222-9.3642 8.9201-9.55453 9.60528-9.22462 10.2905-8.89472 10.7092-8.37449 10.8615-7.66392 11.0137-6.9597 10.6077-6.30624 9.64335-5.69719 8.88203-5.2404 8.12071-4.74554 7.3594-4.21262 6.60442-3.6797 6.40775-3.06113 6.76303-2.36008 7.1088-1.64952 7.74005-1.43381 8.65364-1.71296 9.56721-1.99211 10.6267-2.60751 11.8385-3.5655 13.0566-4.52984 14.3191-5.70353 15.6324-7.09294 16.952-8.48868 18.1701-9.94787 19.2867-11.4705 20.3525-12.9329 21.2725-14.3572 22.0528-15.7466 22.8395-17.1423 23.3217-18.3985 23.4993-19.5151 23.677-20.6317 23.3851-21.4374 22.6238-21.9386 21.964-22.4462 20.8474-22.3066 19.274-21.5199 17.707-20.7395 15.9401-19.5658 13.9702-17.9925 11.9971-16.4254 9.98594-14.7061 7.93038-12.8282 5.88117-10.9566 4.02546-9.1358 2.36008-7.3594 1.4465-6.24914 0.482167-5.10082-0.532922-3.90809-1.54801-2.72171-2.55676-1.49726-3.5655-0.228395-4.17455 0.532922-4.96759 1.70662-5.95096 3.29904-6.94067 4.89781-7.99383 6.68055-9.11042 8.65364-10.227 10.6331-11.2992 12.5427-12.3333 14.3889-13.3738 16.2319-14.262 17.8021-14.9979 19.0964-15.7339 20.3906-16.178 21.1583-16.3302 21.4057Z" fill="#FCF6E8" fill-rule="nonzero" fill-opacity="1" transform="matrix(1.0034 0 0 1 545.114 434.196)"/><path d="M-16.3302 21.4057C-16.879 22.2178-17.523 22.7126-18.2589 22.8903-18.9949 23.0679-19.6547 22.9918-20.2383 22.6619-20.822 22.332-21.1836 21.8244-21.3296 21.1392-21.4818 20.4604-21.2566 19.7181-20.6571 18.906-19.9465 17.8909-18.9568 16.584-17.6879 14.9853-16.4254 13.3928-14.7822 11.3087-12.7521 8.72977-10.7282 6.14763-8.27615 2.90886-5.39266-0.989712-4.73285-1.85254-3.90809-3.05161-2.91838-4.59328-1.93501-6.14129-0.875514-7.80984 0.266461-9.60528 1.40844-11.3975 2.54407-13.1644 3.6797-14.9091 4.82167-16.6602 5.86848-18.2272 6.82647-19.6166 7.79081-21.0123 8.5775-22.0401 9.18656-22.6999 10.2016-23.7658 11.1469-24.2099 12.0288-24.0322 12.917-23.8546 13.5134-23.309 13.8179-22.3954 14.1224-21.4882 13.8179-20.5048 12.9043-19.439L10.1763-16.4064C12.1969-18.1733 14.1795-19.7118 16.1272-21.025 18.0813-22.3447 19.864-23.2329 21.4818-23.6896 23.106-24.1464 24.4256-23.9942 25.4407-23.2329 26.6493-22.3193 27.2932-21.1012 27.3693-19.5785 27.4455-18.0622 27.1029-16.3969 26.3416-14.5792 25.5866-12.7584 24.5525-10.963 23.2329-9.18656 22.0655-7.61951 20.7586-6.15398 19.3121-4.78361 17.8719-3.41324 16.4222-2.29981 14.9599-1.4465 15.4674-1.34499 16.0321-1.31962 16.6602-1.37037 17.2946-1.42112 17.9671-1.54801 18.6776-1.75103 20.7998-2.40132 23.2011-3.63529 25.8848-5.4561 28.5748-7.28326 31.1569-9.53549 33.6375-12.2191L34.2466-11.9146C32.0641-9.12946 29.4661-6.72814 26.4558-4.70748 23.4422-2.68364 20.5207-1.19273 17.6879-0.228395 15.0043 0.685185 12.5744 1.05315 10.392 0.875514 8.21588 0.697874 6.70276-0.177641 5.84945-1.75103 4.37757-3.8732 4.92953-6.17301 7.51166-8.65364 8.22222-9.3642 8.9201-9.55453 9.60528-9.22462 10.2905-8.89472 10.7092-8.37449 10.8615-7.66392 11.0137-6.9597 10.6077-6.30624 9.64335-5.69719 8.88203-5.2404 8.12071-4.74554 7.3594-4.21262 6.60442-3.6797 6.40775-3.06113 6.76303-2.36008 7.1088-1.64952 7.74005-1.43381 8.65364-1.71296 9.56721-1.99211 10.6267-2.60751 11.8385-3.5655 13.0566-4.52984 14.3191-5.70353 15.6324-7.09294 16.952-8.48868 18.1701-9.94787 19.2867-11.4705 20.3525-12.9329 21.2725-14.3572 22.0528-15.7466 22.8395-17.1423 23.3217-18.3985 23.4993-19.5151 23.677-20.6317 23.3851-21.4374 22.6238-21.9386 21.964-22.4462 20.8474-22.3066 19.274-21.5199 17.707-20.7395 15.9401-19.5658 13.9702-17.9925 11.9971-16.4254 9.98594-14.7061 7.93038-12.8282 5.88117-10.9566 4.02546-9.1358 2.36008-7.3594 1.4465-6.24914 0.482167-5.10082-0.532922-3.90809-1.54801-2.72171-2.55676-1.49726-3.5655-0.228395-4.17455 0.532922-4.96759 1.70662-5.95096 3.29904-6.94067 4.89781-7.99383 6.68055-9.11042 8.65364-10.227 10.6331-11.2992 12.5427-12.3333 14.3889-13.3738 16.2319-14.262 17.8021-14.9979 19.0964-15.7339 20.3906-16.178 21.1583-16.3302 21.4057Z" fill="#FCF6E8" fill-rule="nonzero" fill-opacity="1" transform="matrix(1.0034 0 0 1 579.474 434.196)"/><path d="M0.91358-0.304527C-0.558299-1.47188-1.26886-2.93741-1.21811-4.70748-1.16735-6.47437-0.558299-8.39352 0.609053-10.4681 1.77641-12.549 3.2927-14.6236 5.16427-16.6982 7.03266-18.7792 8.95182-20.4477 10.9249-21.7102 12.9043-22.9791 14.7505-23.7658 16.4698-24.0703 18.1955-24.3748 19.5912-24.0957 20.6571-23.2329 22.1702-22.0655 22.6746-20.1781 22.167-17.5737 21.6595-14.9662 20.3684-12.2477 18.297-9.41495 18.6523-8.85665 19.3565-8.55213 20.416-8.50137 21.4818-8.45062 22.7824-8.84396 24.3241-9.68141 25.8721-10.5189 27.4835-11.8956 29.1584-13.8179L29.6152-13.3611C27.7373-10.9312 25.9863-9.16118 24.3621-8.04458 22.7443-6.93433 21.2534-6.31893 19.8831-6.19204 18.519-6.06516 17.2851-6.25549 16.178-6.76303 14.4016-4.73285 12.5237-3.08333 10.5442-1.81447 8.57116-0.551955 6.73765 0.215706 5.03738 0.494856 3.34345 0.774005 1.96991 0.507545 0.91358-0.304527ZM5.16427-5.39266C6.33162-4.42833 7.78447-4.17455 9.52915-4.63134 11.2707-5.08813 13.0566-6.09688 14.8837-7.66392 14.63-7.96845 14.3635-8.38717 14.0844-8.9201 13.8052-9.45302 13.7164-10.1445 13.8179-11.001 13.9194-11.8639 14.3508-12.8536 15.1121-13.9702 15.9242-15.1375 16.6665-15.8481 17.3453-16.1019 18.0305-16.3556 18.6396-16.3683 19.1725-16.1399 19.7054-15.9115 20.0988-15.6451 20.3525-15.3405 20.8601-16.7014 21.0631-17.9163 20.9616-18.9822 20.8601-20.048 20.5302-20.8347 19.9719-21.3422 19.1598-22.0433 18.1193-22.3573 16.8505-22.2812 15.588-22.2051 14.2747-21.7737 12.9043-20.987 11.5403-20.2066 10.2778-19.1344 9.11042-17.7641 7.79081-16.197 6.6869-14.5919 5.7987-12.9424 4.91684-11.2992 4.40295-9.8083 4.25069-8.46331 4.09842-7.12466 4.40295-6.10322 5.16427-5.39266Z" fill="#FCF6E8" fill-rule="nonzero" fill-opacity="1" transform="matrix(1.0034 0 0 1 613.835 434.196)"/><path d="M4.17455-1.14198C2.96279-2.35057 2.58213-3.76217 3.03258-5.37997 3.48937-7.00412 4.9549-8.90741 7.43553-11.0898 9.00892-12.4507 10.5506-13.8116 12.0669-15.1756 13.5895-16.546 14.7569-17.9417 15.5689-19.3628 16.0765-20.2257 16.0765-20.9806 15.5689-21.6341 15.0614-22.2939 14.4143-22.7507 13.6276-23.0045 12.8409-23.2582 12.2223-23.1567 11.775-22.6999 11.0645-22.0401 10.0748-21.0631 8.8059-19.7689 7.54338-18.481 6.17936-17.0662 4.70748-15.5182 3.2356-13.9765 1.81764-12.4507 0.45679-10.9376L0-11.4705 10.024-22.9283C10.4808-23.4866 10.6457-24.1211 10.5189-24.8316 10.392-25.5422 10.2016-26.3225 9.94787-27.179 9.6941-28.0418 9.56721-28.9554 9.56721-29.9198 9.56721-30.7223 9.82099-31.3663 10.3285-31.8484 10.8361-32.3306 11.4388-32.6097 12.143-32.6859 12.8536-32.762 13.5007-32.597 14.0844-32.191 14.668-31.785 15.036-31.1283 15.1883-30.2243 15.2898-29.463 15.1629-28.8158 14.8076-28.2829 14.4523-27.75 14.2239-26.9284 14.1224-25.8213 14.1224-25.3645 14.3508-24.9331 14.8076-24.5271 15.2644-24.1211 15.791-23.6896 16.3937-23.2329 17.0027-22.7761 17.5357-22.2812 17.9925-21.7483 18.4492-21.2217 18.6523-20.5809 18.6015-19.8196 18.5508-18.5508 18.1193-17.3073 17.3073-16.0892 16.5015-14.8774 15.5562-13.7291 14.465-12.6379 13.3738-11.553 12.3333-10.5569 11.3436-9.64335 10.3603-8.72977 9.64335-7.89232 9.18656-7.131 8.72977-6.37603 8.72977-5.72257 9.18656-5.16427 10.2524-3.94616 12.0605-4.00326 14.6173-5.34191 17.1709-6.6869 20.5238-9.58625 24.6794-14.0463L25.2123-13.8179C22.6301-10.3729 19.9719-7.45139 17.2311-5.05007 14.4967-2.64558 11.9812-1.05315 9.68141-0.266461 7.37843 0.520233 5.54492 0.228395 4.17455-1.14198Z" fill="#FCF6E8" fill-rule="nonzero" fill-opacity="1" transform="matrix(1.0034 0 0 1 642.71 434.196)"/><path d="M-3.26097-0.45679C-4.27606-1.47188-4.73285-2.68364-4.63134-4.09842-4.52984-5.51955-4.04767-7.03584-3.18484-8.65364-2.32836-10.2778-1.29424-11.921-0.0761317-13.5895 1.14198-15.2644 2.3918-16.8695 3.6797-18.4112 4.97394-19.9592 6.10322-21.3105 7.06756-22.4715 6.40775-22.37 5.74794-22.2431 5.08813-22.0909 4.42833-21.9386 3.74314-21.8625 3.03258-21.8625 2.6773-21.8625 2.37277-21.9767 2.119-22.2051 1.87157-22.4335 1.75103-22.7253 1.75103-23.0806 1.75103-23.4866 1.87157-23.8165 2.119-24.0703 2.37277-24.3241 2.6773-24.451 3.03258-24.451 3.8954-24.451 4.75823-24.3875 5.62106-24.2606 6.48388-24.1337 7.31499-24.0195 8.12071-23.918 9.18656-25.2884 10.2714-26.7666 11.3817-28.3591 12.4983-29.9578 13.5768-31.4868 14.6173-32.9523 15.6578-34.4242 16.5777-35.6614 17.3834-36.6701 18.1955-37.7359 19.0583-38.3577 19.9719-38.5353 20.8855-38.713 21.6404-38.5734 22.2431-38.1166 22.8522-37.6598 23.1567-37.0127 23.1567-36.1752 23.1567-35.3441 22.6492-34.4496 21.6341-33.4853 20.6253-32.5209 19.1471-31.2901 17.1931-29.7929 15.2454-28.302 13.1613-26.3447 10.9376-23.918 11.7401-24.0195 12.5237-24.1337 13.285-24.2606 14.0463-24.3875 14.833-24.451 15.6451-24.451 16.0003-24.451 16.2985-24.3241 16.546-24.0703 16.7997-23.8165 16.9266-23.4866 16.9266-23.0806 16.9266-22.7253 16.7997-22.4335 16.546-22.2051 16.2985-21.9767 16.0003-21.8625 15.6451-21.8625 14.6807-21.8625 13.7037-21.9767 12.714-22.2051 11.7306-22.4335 10.7599-22.5984 9.79561-22.6999L8.65364-21.3422C5.56396-17.5928 3.2356-14.3001 1.66221-11.4578 0.095165-8.62191-0.126886-6.52512 0.989712-5.16427 1.94453-4.04767 3.69873-4.07305 6.25549-5.2404 8.81859-6.40775 11.9717-8.98671 15.7212-12.9805L16.2541-12.7521C14.5792-10.576 12.7901-8.55213 10.8868-6.67421 8.98988-4.80264 7.14369-3.2356 5.34191-1.96674 3.54647-0.704219 1.8906 0.0888203 0.36797 0.418724-1.14515 0.748628-2.35374 0.45679-3.26097-0.45679Z" fill="#FCF6E8" fill-rule="nonzero" fill-opacity="1" transform="matrix(1.0034 0 0 1 664.729 434.196)"/><path d="M2.95645-0.532922C1.23714-1.70027 0.27915-3.1785 0.0761317-4.97394-0.126886-6.7662 0.203018-8.67267 1.06584-10.6965 1.92867-12.7267 3.14043-14.6553 4.70748-16.4825 6.3221-18.4017 8.12706-20.0163 10.1255-21.3296 12.1303-22.6492 14.0653-23.4739 15.9369-23.8038 17.8148-24.1337 19.3121-23.8165 20.4287-22.8522 21.1805-22.1924 21.4945-21.2281 21.3676-19.9592 21.2471-18.6967 20.7459-17.3453 19.8577-15.8988 18.9695-14.4587 17.7641-13.0947 16.2414-11.8004 14.7251-10.5125 12.9075-9.54184 10.7853-8.88203 9.82099-8.5775 9.04698-8.61557 8.46331-8.99623 7.87963-9.37689 7.52435-9.89712 7.39746-10.5569 7.27058-11.2167 7.38477-11.8068 7.74005-12.3333 8.09534-12.8663 8.72977-13.1327 9.64335-13.1327 12.07-13.1327 14.0273-13.5007 15.5182-14.2366 17.0154-14.9726 18.132-15.8798 18.868-16.9647 19.6039-18.0559 19.9719-19.1027 19.9719-20.1115 19.9719-21.1265 19.6927-21.8879 19.1344-22.3954 18.4746-23.0552 17.6118-23.2075 16.546-22.8522 15.4865-22.4969 14.3508-21.8244 13.1327-20.8347 11.921-19.8513 10.7599-18.703 9.64335-17.3834 8.5775-16.1716 7.67661-14.8457 6.94067-13.3992 6.21108-11.959 5.7987-10.5569 5.69719-9.18656 5.59568-7.81619 5.92558-6.57587 6.6869-5.46879 7.74323-4.04767 9.16752-3.41324 10.963-3.5655 12.7647-3.71776 14.8013-4.52349 17.0789-5.98903 19.3628-7.46091 21.7419-9.43399 24.2226-11.9146L24.6794-11.4705C23.4105-9.79561 21.8625-8.09534 20.0353-6.36968 18.2145-4.65038 16.2827-3.17215 14.2366-1.92867 12.1874-0.691529 10.1763 0.101509 8.19685 0.45679 6.22376 0.812071 4.47908 0.482167 2.95645-0.532922Z" fill="#FCF6E8" fill-rule="nonzero" fill-opacity="1" transform="matrix(1.0034 0 0 1 683.776 434.196)"/><path d="M4.17455-1.14198C2.96279-2.35057 2.58213-3.76217 3.03258-5.37997 3.48937-7.00412 4.9549-8.90741 7.43553-11.0898 9.00892-12.4507 10.5506-13.8116 12.0669-15.1756 13.5895-16.546 14.7569-17.9417 15.5689-19.3628 16.0765-20.2257 16.0765-20.9806 15.5689-21.6341 15.0614-22.2939 14.4143-22.7507 13.6276-23.0045 12.8409-23.2582 12.2223-23.1567 11.775-22.6999 11.0645-22.0401 10.0748-21.0631 8.8059-19.7689 7.54338-18.481 6.17936-17.0662 4.70748-15.5182 3.2356-13.9765 1.81764-12.4507 0.45679-10.9376L0-11.4705 10.024-22.9283C10.4808-23.4866 10.6457-24.1211 10.5189-24.8316 10.392-25.5422 10.2016-26.3225 9.94787-27.179 9.6941-28.0418 9.56721-28.9554 9.56721-29.9198 9.56721-30.7223 9.82099-31.3663 10.3285-31.8484 10.8361-32.3306 11.4388-32.6097 12.143-32.6859 12.8536-32.762 13.5007-32.597 14.0844-32.191 14.668-31.785 15.036-31.1283 15.1883-30.2243 15.2898-29.463 15.1629-28.8158 14.8076-28.2829 14.4523-27.75 14.2239-26.9284 14.1224-25.8213 14.1224-25.3645 14.3508-24.9331 14.8076-24.5271 15.2644-24.1211 15.791-23.6896 16.3937-23.2329 17.0027-22.7761 17.5357-22.2812 17.9925-21.7483 18.4492-21.2217 18.6523-20.5809 18.6015-19.8196 18.5508-18.5508 18.1193-17.3073 17.3073-16.0892 16.5015-14.8774 15.5562-13.7291 14.465-12.6379 13.3738-11.553 12.3333-10.5569 11.3436-9.64335 10.3603-8.72977 9.64335-7.89232 9.18656-7.131 8.72977-6.37603 8.72977-5.72257 9.18656-5.16427 10.2524-3.94616 12.0605-4.00326 14.6173-5.34191 17.1709-6.6869 20.5238-9.58625 24.6794-14.0463L25.2123-13.8179C22.6301-10.3729 19.9719-7.45139 17.2311-5.05007 14.4967-2.64558 11.9812-1.05315 9.68141-0.266461 7.37843 0.520233 5.54492 0.228395 4.17455-1.14198Z" fill="#FCF6E8" fill-rule="nonzero" fill-opacity="1" transform="matrix(1.0034 0 0 1 709.222 434.196)"/><path d="M-0.91358-1.6749C-2.02066-2.68047-2.70267-3.97788-2.95645-5.5703-3.21022-7.16907-2.78198-9.00892-1.6749-11.0898-1.21811-11.9432-0.609053-12.4729 0.152263-12.6759 0.91358-12.8789 1.57339-12.8282 2.13169-12.5237 3.6448-14.3001 5.13254-16.2351 6.59808-18.335 8.06996-20.4318 9.64335-22.6238 11.3182-24.9077 11.4705-25.2123 11.6672-25.4914 11.9146-25.7452 12.7267-26.5478 13.6022-26.9633 14.5412-26.9887 15.4801-27.0141 16.362-26.7984 17.1931-26.3416 18.0305-25.8911 18.6523-25.3392 19.0583-24.6794 19.5658-23.918 19.6039-23.144 19.1725-22.3573 18.7411-21.577 18.1067-21.0885 17.2692-20.8855 16.4381-20.6824 15.6704-21.006 14.9599-21.8625 14.7569-22.1163 14.5158-22.573 14.2366-23.2329 13.9575-23.8927 13.6403-24.0957 13.285-23.8419 12.3714-23.1821 11.9019-22.1036 11.8765-20.6063 11.8575-19.1154 12.0225-17.4468 12.3714-15.5943 12.7267-13.7481 13.0566-11.9019 13.3611-10.0494 13.6656-8.20319 13.6656-6.60125 13.3611-5.2404 14.833-5.64643 16.362-6.46485 17.9544-7.70199 19.5532-8.94547 21.412-10.7282 23.5374-13.0566L24.0703-12.6759C21.5897-9.58625 19.1471-7.11831 16.7363-5.26578 14.3318-3.41958 12.1462-2.04604 10.1763-1.14198 9.00892-0.380658 7.72737 0.0761317 6.33162 0.228395 4.94222 0.380658 3.60357 0.27915 2.30933-0.0761317 1.02143-0.431413-0.0507545-0.964335-0.91358-1.6749ZM0-2.65192C0.609053-1.99846 1.40209-1.76372 2.38546-1.94136 3.37517-2.119 4.42198-2.64558 5.53224-3.52743 6.64883-4.41564 7.66392-5.58933 8.5775-7.05487 9.49108-8.52675 10.1509-10.1953 10.5569-12.0669 10.8107-13.1327 10.8868-14.2937 10.7853-15.5562 10.6838-16.8251 10.595-18.1067 10.5189-19.4009 10.4427-20.6951 10.4808-21.8688 10.6331-22.9283 9.3642-20.9552 8.09534-19.1091 6.82647-17.3834 5.56396-15.6641 4.19993-13.894 2.72805-12.0669 3.33711-11.3119 3.28635-10.3285 2.57579-9.11042 2.22685-8.45062 1.72565-7.74005 1.06584-6.97874 0.406036-6.22376-0.0761317-5.48148-0.380658-4.74554-0.685185-4.0096-0.558299-3.31173 0-2.65192Z" fill="#FCF6E8" fill-rule="nonzero" fill-opacity="1" transform="matrix(1.0034 0 0 1 731.241 434.196)"/><g><path d="M928.109 147.071C946.859 147.071 962.057 131.873 962.057 113.122L894.16 113.122C894.16 131.873 909.358 147.071 928.109 147.071Z" fill="#828D77" fill-rule="nonzero" fill-opacity="1" transform="matrix(1.0034 0 0 1 88.1971 346)"/></g><g><path d="M860.212 147.071C878.963 147.071 894.16 131.873 894.16 113.122L826.264 113.122C826.264 131.873 841.461 147.071 860.212 147.071Z" fill="#828D77" fill-rule="nonzero" fill-opacity="1" transform="matrix(1.0034 0 0 1 88.1971 346)"/></g><g><path d="M792.315 147.071C811.063 147.071 826.264 131.873 826.264 113.122L758.367 113.122C758.367 131.873 773.565 147.071 792.315 147.071Z" fill="#828D77" fill-rule="nonzero" fill-opacity="1" transform="matrix(1.0034 0 0 1 88.1971 346)"/></g></g></g></g></g></g></svg>