<svg xmlns="http://www.w3.org/2000/svg" xmlns:xlink="http://www.w3.org/1999/xlink" width="744" zoomAndPan="magnify" viewBox="0 0 558 326.999992" height="436" preserveAspectRatio="xMidYMid meet" version="1.2"><defs><filter x="0%" y="0%" width="100%" filterUnits="objectBoundingBox" id="a48c498645" height="100%"><feColorMatrix values="0 0 0 0 1 0 0 0 0 1 0 0 0 0 1 0 0 0 1 0" type="matrix" in="SourceGraphic"/></filter><clipPath id="aef44d8698"><path d="M 1 0 L 123.910156 0 L 123.910156 103.609375 L 1 103.609375 Z M 1 0 "/></clipPath><clipPath id="22ac91f0f6"><rect x="0" width="124" y="0" height="104"/></clipPath><clipPath id="a11479751e"><path d="M 235.1875 104.753906 L 275.589844 104.753906 L 275.589844 133.613281 L 235.1875 133.613281 Z M 235.1875 104.753906 "/></clipPath><clipPath id="ea21557c4d"><path d="M 183 42 L 197 42 L 197 63.679688 L 183 63.679688 Z M 183 42 "/></clipPath><clipPath id="899b3fc0ea"><path d="M 205 42 L 219 42 L 219 63.679688 L 205 63.679688 Z M 205 42 "/></clipPath><clipPath id="57049ca95d"><rect x="0" width="339" y="0" height="64"/></clipPath></defs><g id="2a3d02f5a5"><g mask="url(#78b48d8ec9)" transform="matrix(1,0,0,1,218,0)"><g clip-path="url(#22ac91f0f6)"><g clip-rule="nonzero" clip-path="url(#aef44d8698)"><path style=" stroke:none;fill-rule:nonzero;fill:#fcf6e8;fill-opacity:1;" d="M 123.3125 0.496094 C 123.011719 0.183594 122.605469 0.0117188 122.175781 0.0117188 C 96.699219 0.0117188 78.011719 6.9375 66.632812 20.597656 C 56.050781 33.304688 54.371094 48.675781 54.515625 57.984375 C 52.601562 54.730469 50.324219 51.582031 47.617188 48.652344 C 37.210938 37.390625 22.453125 31.679688 3.757812 31.679688 C 3.042969 31.679688 2.417969 32.160156 2.234375 32.851562 C 2.050781 33.546875 -2.128906 49.957031 7.949219 63.042969 C 15.746094 73.171875 29.769531 78.304688 49.632812 78.304688 C 50.09375 78.304688 50.53125 78.101562 50.832031 77.75 C 51.132812 77.402344 51.261719 76.9375 51.191406 76.484375 C 51.074219 75.746094 48.042969 58.265625 20.816406 47.363281 C 20.015625 47.039062 19.089844 47.429688 18.769531 48.242188 C 18.445312 49.046875 18.839844 49.964844 19.648438 50.289062 C 40.019531 58.449219 45.980469 70.550781 47.558594 75.128906 C 29.84375 74.792969 17.371094 70.09375 10.464844 61.144531 C 2.796875 51.210938 4.320312 38.699219 5.035156 34.839844 C 22.199219 35.09375 35.738281 40.449219 45.289062 50.773438 C 63.410156 70.367188 61.195312 101.609375 61.171875 101.925781 C 61.101562 102.792969 61.75 103.550781 62.621094 103.617188 C 62.660156 103.621094 62.703125 103.625 62.746094 103.625 C 63.558594 103.625 64.25 102.996094 64.316406 102.171875 C 64.394531 101.171875 65.683594 83.144531 58.265625 65.496094 C 57.828125 62.644531 54.824219 39.703125 69.054688 22.613281 C 79.554688 10.007812 96.847656 3.472656 120.46875 3.171875 C 119.574219 12.609375 112.890625 59.1875 68.570312 60.269531 C 68.742188 54.730469 70.785156 35.257812 90.445312 23.953125 C 91.199219 23.519531 91.460938 22.554688 91.027344 21.800781 C 90.589844 21.046875 89.628906 20.785156 88.875 21.21875 C 64.234375 35.390625 65.40625 61.6875 65.421875 61.953125 C 65.46875 62.789062 66.15625 63.441406 66.996094 63.441406 C 120.570312 63.441406 123.722656 2.269531 123.75 1.652344 C 123.765625 1.222656 123.609375 0.804688 123.3125 0.496094 "/></g></g><mask id="78b48d8ec9"><g filter="url(#a48c498645)"><rect x="0" width="558" y="0" height="326.999992" style="fill:#000000;fill-opacity:0.97;stroke:none;"/></g></mask></g><path style="fill:none;stroke-width:14;stroke-linecap:round;stroke-linejoin:miter;stroke:#fcf6e8;stroke-opacity:1;stroke-miterlimit:4;" d="M 9.354015 9.166667 C 52.611437 26.841532 95.862989 26.834565 139.118902 9.124465 " transform="matrix(0.0771642,-0.222975,0.220451,0.076291,268.190994,127.675436)"/><g clip-rule="nonzero" clip-path="url(#a11479751e)"><path style=" stroke:none;fill-rule:nonzero;fill:#fcf6e8;fill-opacity:1;" d="M 255.414062 104.753906 C 266.582031 104.753906 275.636719 111.191406 275.636719 119.132812 C 275.636719 127.078125 266.582031 133.515625 255.414062 133.515625 C 244.242188 133.515625 235.191406 127.078125 235.191406 119.132812 C 235.191406 111.191406 244.246094 104.753906 255.414062 104.753906 Z M 240.472656 126.546875 C 244.046875 131.613281 253.628906 132.40625 261.882812 128.3125 C 270.132812 124.21875 273.925781 116.792969 270.355469 111.722656 C 266.78125 106.652344 257.195312 105.863281 248.945312 109.957031 C 240.695312 114.046875 236.902344 121.476562 240.472656 126.546875 Z M 240.472656 126.546875 "/></g><g style="fill:#fcf6e8;fill-opacity:1;"><g transform="translate(70.145909, 217.022974)"><path style="stroke:none" d="M 15.484375 1.25 C 11.804688 1.25 7.921875 0.445312 3.828125 -1.15625 L 2.9375 -12.8125 L 4.625 -13.078125 C 5.988281 -9.335938 7.585938 -6.429688 9.421875 -4.359375 C 11.265625 -2.285156 13.910156 -1.25 17.359375 -1.25 C 20.085938 -1.25 22.335938 -2.019531 24.109375 -3.5625 C 25.890625 -5.101562 26.78125 -7.085938 26.78125 -9.515625 C 26.78125 -11.535156 26.363281 -13.050781 25.53125 -14.0625 C 24.707031 -15.070312 23.507812 -15.875 21.9375 -16.46875 C 20.363281 -17.0625 18.453125 -17.679688 16.203125 -18.328125 C 12.285156 -19.515625 9.316406 -21.023438 7.296875 -22.859375 C 5.273438 -24.703125 4.265625 -27.40625 4.265625 -30.96875 C 4.265625 -33.40625 4.914062 -35.585938 6.21875 -37.515625 C 7.53125 -39.441406 9.375 -40.984375 11.75 -42.140625 C 14.125 -43.296875 16.882812 -43.875 20.03125 -43.875 C 21.570312 -43.875 23.140625 -43.722656 24.734375 -43.421875 C 26.335938 -43.128906 28.148438 -42.6875 30.171875 -42.09375 L 31.234375 -31.328125 L 29.71875 -31.0625 C 28.65625 -34.082031 27.1875 -36.539062 25.3125 -38.4375 C 23.445312 -40.34375 21.148438 -41.296875 18.421875 -41.296875 C 16.046875 -41.296875 14.101562 -40.613281 12.59375 -39.25 C 11.082031 -37.882812 10.328125 -36.253906 10.328125 -34.359375 C 10.328125 -32.453125 10.84375 -30.921875 11.875 -29.765625 C 12.914062 -28.609375 14.414062 -27.628906 16.375 -26.828125 C 18.332031 -26.023438 20.644531 -25.210938 23.3125 -24.390625 C 26.632812 -23.378906 29.113281 -22.023438 30.75 -20.328125 C 32.382812 -18.640625 33.203125 -16.3125 33.203125 -13.34375 C 33.203125 -10.613281 32.457031 -8.132812 30.96875 -5.90625 C 29.488281 -3.6875 27.425781 -1.9375 24.78125 -0.65625 C 22.144531 0.613281 19.046875 1.25 15.484375 1.25 Z M 15.484375 1.25 "/></g></g><g style="fill:#fcf6e8;fill-opacity:1;"><g transform="translate(104.941748, 217.022974)"><path style="stroke:none" d="M 22.515625 0.53125 C 21.679688 0.53125 20.625 0.425781 19.34375 0.21875 C 18.070312 0.0078125 16.664062 -0.359375 15.125 -0.890625 L 15.125 10.59375 C 15.125 12.664062 15.242188 14.3125 15.484375 15.53125 C 15.722656 16.75 16.390625 17.726562 17.484375 18.46875 C 18.585938 19.207031 20.414062 19.929688 22.96875 20.640625 L 22.96875 22.421875 L 1.6875 22.421875 L 1.6875 20.640625 C 3.53125 19.929688 4.894531 19.265625 5.78125 18.640625 C 6.675781 18.023438 7.269531 17.109375 7.5625 15.890625 C 7.863281 14.671875 8.015625 12.90625 8.015625 10.59375 L 8.015625 -32.484375 C 8.015625 -35.035156 7.421875 -36.859375 6.234375 -37.953125 C 5.046875 -39.054688 3.53125 -39.695312 1.6875 -39.875 L 1.6875 -41.65625 C 3.882812 -41.769531 6.109375 -42.019531 8.359375 -42.40625 C 10.617188 -42.789062 12.578125 -43.3125 14.234375 -43.96875 L 15.65625 -42.71875 L 14.953125 -38.1875 C 17.566406 -39.84375 20 -41.160156 22.25 -42.140625 C 24.5 -43.117188 26.8125 -43.609375 29.1875 -43.609375 C 32.507812 -43.609375 35.460938 -42.75 38.046875 -41.03125 C 40.628906 -39.3125 42.660156 -36.90625 44.140625 -33.8125 C 45.628906 -30.726562 46.375 -27.082031 46.375 -22.875 C 46.375 -19.375 45.703125 -16.195312 44.359375 -13.34375 C 43.023438 -10.5 41.226562 -8.035156 38.96875 -5.953125 C 36.71875 -3.878906 34.171875 -2.28125 31.328125 -1.15625 C 28.484375 -0.03125 25.546875 0.53125 22.515625 0.53125 Z M 39.25 -19.21875 C 39.25 -25.632812 38.046875 -30.578125 35.640625 -34.046875 C 33.242188 -37.515625 30.054688 -39.25 26.078125 -39.25 C 24.410156 -39.25 22.6875 -38.890625 20.90625 -38.171875 C 19.132812 -37.460938 17.207031 -36.515625 15.125 -35.328125 L 15.125 -6.046875 C 16.664062 -4.921875 18.328125 -4.078125 20.109375 -3.515625 C 21.890625 -2.953125 23.757812 -2.671875 25.71875 -2.671875 C 30.050781 -2.671875 33.390625 -4.148438 35.734375 -7.109375 C 38.078125 -10.078125 39.25 -14.113281 39.25 -19.21875 Z M 39.25 -19.21875 "/></g></g><g style="fill:#fcf6e8;fill-opacity:1;"><g transform="translate(152.374461, 217.022974)"><path style="stroke:none" d="M 28.84375 -43.703125 C 30.144531 -43.703125 31.34375 -43.328125 32.4375 -42.578125 C 33.539062 -41.835938 34.09375 -40.695312 34.09375 -39.15625 C 34.09375 -38.03125 33.78125 -37.035156 33.15625 -36.171875 C 32.53125 -35.316406 31.710938 -34.890625 30.703125 -34.890625 C 30.234375 -34.890625 29.6875 -35.109375 29.0625 -35.546875 C 28.4375 -35.992188 27.707031 -36.441406 26.875 -36.890625 C 26.039062 -37.335938 25.003906 -37.5625 23.765625 -37.5625 C 22.992188 -37.5625 21.789062 -37.289062 20.15625 -36.75 C 18.53125 -36.21875 16.851562 -35.179688 15.125 -33.640625 L 15.125 -11.84375 C 15.125 -9.644531 15.226562 -7.921875 15.4375 -6.671875 C 15.644531 -5.429688 16.164062 -4.453125 17 -3.734375 C 17.832031 -3.023438 19.226562 -2.375 21.1875 -1.78125 L 21.1875 0 L 1.6875 0 L 1.6875 -1.78125 C 3.53125 -2.375 4.894531 -2.96875 5.78125 -3.5625 C 6.675781 -4.15625 7.269531 -5.070312 7.5625 -6.3125 C 7.863281 -7.5625 8.015625 -9.40625 8.015625 -11.84375 L 8.015625 -32.484375 C 8.015625 -35.035156 7.421875 -36.859375 6.234375 -37.953125 C 5.046875 -39.054688 3.53125 -39.695312 1.6875 -39.875 L 1.6875 -41.65625 C 3.882812 -41.769531 6.109375 -42.019531 8.359375 -42.40625 C 10.617188 -42.789062 12.578125 -43.3125 14.234375 -43.96875 L 15.65625 -42.71875 L 14.6875 -35.953125 C 16.757812 -37.847656 19.070312 -39.613281 21.625 -41.25 C 24.175781 -42.882812 26.582031 -43.703125 28.84375 -43.703125 Z M 28.84375 -43.703125 "/></g></g><g style="fill:#fcf6e8;fill-opacity:1;"><g transform="translate(187.1703, 217.022974)"><path style="stroke:none" d="M 24.203125 1.15625 C 19.992188 1.15625 16.285156 0.191406 13.078125 -1.734375 C 9.878906 -3.660156 7.390625 -6.300781 5.609375 -9.65625 C 3.828125 -13.007812 2.9375 -16.765625 2.9375 -20.921875 C 2.9375 -25.242188 3.957031 -29.140625 6 -32.609375 C 8.050781 -36.085938 10.753906 -38.832031 14.109375 -40.84375 C 17.460938 -42.863281 21.097656 -43.875 25.015625 -43.875 C 29.222656 -43.875 32.910156 -42.910156 36.078125 -40.984375 C 39.253906 -39.054688 41.734375 -36.472656 43.515625 -33.234375 C 45.296875 -30.003906 46.1875 -26.429688 46.1875 -22.515625 C 46.1875 -18.066406 45.207031 -14.0625 43.25 -10.5 C 41.289062 -6.9375 38.664062 -4.101562 35.375 -2 C 32.082031 0.101562 28.359375 1.15625 24.203125 1.15625 Z M 26.171875 -1.515625 C 29.609375 -1.515625 32.515625 -2.789062 34.890625 -5.34375 C 37.265625 -7.894531 38.453125 -11.601562 38.453125 -16.46875 C 38.453125 -21.394531 37.8125 -25.722656 36.53125 -29.453125 C 35.257812 -33.191406 33.507812 -36.097656 31.28125 -38.171875 C 29.0625 -40.253906 26.523438 -41.296875 23.671875 -41.296875 C 19.992188 -41.296875 16.953125 -39.972656 14.546875 -37.328125 C 12.148438 -34.691406 10.953125 -30.851562 10.953125 -25.8125 C 10.953125 -20.945312 11.585938 -16.6875 12.859375 -13.03125 C 14.140625 -9.382812 15.921875 -6.550781 18.203125 -4.53125 C 20.484375 -2.519531 23.140625 -1.515625 26.171875 -1.515625 Z M 26.171875 -1.515625 "/></g></g><g style="fill:#fcf6e8;fill-opacity:1;"><g transform="translate(234.425035, 217.022974)"><path style="stroke:none" d="M 42.1875 -11.65625 C 42.1875 -8.15625 42.691406 -5.75 43.703125 -4.4375 C 44.710938 -3.132812 46.222656 -2.25 48.234375 -1.78125 L 48.234375 0 L 36.671875 0 L 35.6875 -1.421875 L 35.6875 -5.515625 C 32.300781 -3.316406 29.347656 -1.710938 26.828125 -0.703125 C 24.304688 0.296875 21.769531 0.796875 19.21875 0.796875 C 11.507812 0.796875 7.65625 -4.003906 7.65625 -13.609375 L 7.65625 -32.125 C 7.65625 -34.4375 7.117188 -36.171875 6.046875 -37.328125 C 4.984375 -38.492188 3.410156 -39.222656 1.328125 -39.515625 L 1.328125 -41.296875 C 6.140625 -42.003906 10.144531 -43.101562 13.34375 -44.59375 L 14.78125 -43.34375 L 14.78125 -18.0625 C 14.78125 -15.28125 14.941406 -12.816406 15.265625 -10.671875 C 15.585938 -8.535156 16.328125 -6.875 17.484375 -5.6875 C 18.640625 -4.507812 20.46875 -3.921875 22.96875 -3.921875 C 24.5625 -3.921875 26.367188 -4.226562 28.390625 -4.84375 C 30.410156 -5.46875 32.632812 -6.550781 35.0625 -8.09375 L 35.0625 -31.6875 C 35.0625 -34 34.523438 -35.734375 33.453125 -36.890625 C 32.390625 -38.046875 30.820312 -38.773438 28.75 -39.078125 L 28.75 -40.84375 C 33.550781 -41.5625 37.554688 -42.660156 40.765625 -44.140625 L 42.1875 -42.890625 Z M 42.1875 -11.65625 "/></g></g><g style="fill:#fcf6e8;fill-opacity:1;"><g transform="translate(282.747686, 217.022974)"><path style="stroke:none" d="M 28.21875 -5.609375 L 29.1875 -3.828125 C 23.613281 -0.441406 19.132812 1.25 15.75 1.25 C 12.488281 1.25 10.21875 0.140625 8.9375 -2.078125 C 7.664062 -4.304688 7.03125 -7.675781 7.03125 -12.1875 L 7.03125 -38.984375 L 1.78125 -38.984375 L 1.78125 -40.765625 C 4.570312 -41.953125 6.882812 -43.421875 8.71875 -45.171875 C 10.5625 -46.921875 12.046875 -48.894531 13.171875 -51.09375 L 15.125 -51.09375 L 14.328125 -41.5625 L 26.4375 -42.28125 L 26.4375 -38.984375 L 14.15625 -38.984375 L 14.15625 -19.84375 C 14.15625 -15.6875 14.300781 -12.390625 14.59375 -9.953125 C 14.894531 -7.523438 15.519531 -5.804688 16.46875 -4.796875 C 17.414062 -3.796875 18.804688 -3.296875 20.640625 -3.296875 C 21.648438 -3.296875 22.78125 -3.472656 24.03125 -3.828125 C 25.28125 -4.179688 26.675781 -4.773438 28.21875 -5.609375 Z M 28.21875 -5.609375 "/></g></g><g style="fill:#fcf6e8;fill-opacity:1;"><g transform="translate(311.047092, 217.022974)"><path style="stroke:none" d="M 15.484375 1.25 C 11.804688 1.25 7.921875 0.445312 3.828125 -1.15625 L 2.9375 -12.8125 L 4.625 -13.078125 C 5.988281 -9.335938 7.585938 -6.429688 9.421875 -4.359375 C 11.265625 -2.285156 13.910156 -1.25 17.359375 -1.25 C 20.085938 -1.25 22.335938 -2.019531 24.109375 -3.5625 C 25.890625 -5.101562 26.78125 -7.085938 26.78125 -9.515625 C 26.78125 -11.535156 26.363281 -13.050781 25.53125 -14.0625 C 24.707031 -15.070312 23.507812 -15.875 21.9375 -16.46875 C 20.363281 -17.0625 18.453125 -17.679688 16.203125 -18.328125 C 12.285156 -19.515625 9.316406 -21.023438 7.296875 -22.859375 C 5.273438 -24.703125 4.265625 -27.40625 4.265625 -30.96875 C 4.265625 -33.40625 4.914062 -35.585938 6.21875 -37.515625 C 7.53125 -39.441406 9.375 -40.984375 11.75 -42.140625 C 14.125 -43.296875 16.882812 -43.875 20.03125 -43.875 C 21.570312 -43.875 23.140625 -43.722656 24.734375 -43.421875 C 26.335938 -43.128906 28.148438 -42.6875 30.171875 -42.09375 L 31.234375 -31.328125 L 29.71875 -31.0625 C 28.65625 -34.082031 27.1875 -36.539062 25.3125 -38.4375 C 23.445312 -40.34375 21.148438 -41.296875 18.421875 -41.296875 C 16.046875 -41.296875 14.101562 -40.613281 12.59375 -39.25 C 11.082031 -37.882812 10.328125 -36.253906 10.328125 -34.359375 C 10.328125 -32.453125 10.84375 -30.921875 11.875 -29.765625 C 12.914062 -28.609375 14.414062 -27.628906 16.375 -26.828125 C 18.332031 -26.023438 20.644531 -25.210938 23.3125 -24.390625 C 26.632812 -23.378906 29.113281 -22.023438 30.75 -20.328125 C 32.382812 -18.640625 33.203125 -16.3125 33.203125 -13.34375 C 33.203125 -10.613281 32.457031 -8.132812 30.96875 -5.90625 C 29.488281 -3.6875 27.425781 -1.9375 24.78125 -0.65625 C 22.144531 0.613281 19.046875 1.25 15.484375 1.25 Z M 15.484375 1.25 "/></g></g><g style="fill:#fcf6e8;fill-opacity:1;"><g transform="translate(345.842943, 217.022974)"><path style="stroke:none" d="M 24.203125 1.15625 C 19.992188 1.15625 16.285156 0.191406 13.078125 -1.734375 C 9.878906 -3.660156 7.390625 -6.300781 5.609375 -9.65625 C 3.828125 -13.007812 2.9375 -16.765625 2.9375 -20.921875 C 2.9375 -25.242188 3.957031 -29.140625 6 -32.609375 C 8.050781 -36.085938 10.753906 -38.832031 14.109375 -40.84375 C 17.460938 -42.863281 21.097656 -43.875 25.015625 -43.875 C 29.222656 -43.875 32.910156 -42.910156 36.078125 -40.984375 C 39.253906 -39.054688 41.734375 -36.472656 43.515625 -33.234375 C 45.296875 -30.003906 46.1875 -26.429688 46.1875 -22.515625 C 46.1875 -18.066406 45.207031 -14.0625 43.25 -10.5 C 41.289062 -6.9375 38.664062 -4.101562 35.375 -2 C 32.082031 0.101562 28.359375 1.15625 24.203125 1.15625 Z M 26.171875 -1.515625 C 29.609375 -1.515625 32.515625 -2.789062 34.890625 -5.34375 C 37.265625 -7.894531 38.453125 -11.601562 38.453125 -16.46875 C 38.453125 -21.394531 37.8125 -25.722656 36.53125 -29.453125 C 35.257812 -33.191406 33.507812 -36.097656 31.28125 -38.171875 C 29.0625 -40.253906 26.523438 -41.296875 23.671875 -41.296875 C 19.992188 -41.296875 16.953125 -39.972656 14.546875 -37.328125 C 12.148438 -34.691406 10.953125 -30.851562 10.953125 -25.8125 C 10.953125 -20.945312 11.585938 -16.6875 12.859375 -13.03125 C 14.140625 -9.382812 15.921875 -6.550781 18.203125 -4.53125 C 20.484375 -2.519531 23.140625 -1.515625 26.171875 -1.515625 Z M 26.171875 -1.515625 "/></g></g><g style="fill:#fcf6e8;fill-opacity:1;"><g transform="translate(393.097655, 217.022974)"><path style="stroke:none" d="M 42.984375 -29.453125 L 42.890625 -11.84375 C 42.890625 -9.644531 42.992188 -7.921875 43.203125 -6.671875 C 43.410156 -5.429688 43.929688 -4.453125 44.765625 -3.734375 C 45.597656 -3.023438 46.992188 -2.375 48.953125 -1.78125 L 48.953125 0 L 29.453125 0 L 29.453125 -1.78125 C 31.296875 -2.375 32.660156 -2.96875 33.546875 -3.5625 C 34.441406 -4.15625 35.035156 -5.070312 35.328125 -6.3125 C 35.628906 -7.5625 35.78125 -9.40625 35.78125 -11.84375 L 35.78125 -25.90625 C 35.78125 -28.6875 35.613281 -31.070312 35.28125 -33.0625 C 34.957031 -35.050781 34.21875 -36.5625 33.0625 -37.59375 C 31.90625 -38.632812 30.082031 -39.15625 27.59375 -39.15625 C 24.269531 -39.15625 20.113281 -37.582031 15.125 -34.4375 L 15.125 -11.84375 C 15.125 -9.644531 15.226562 -7.921875 15.4375 -6.671875 C 15.644531 -5.429688 16.164062 -4.453125 17 -3.734375 C 17.832031 -3.023438 19.226562 -2.375 21.1875 -1.78125 L 21.1875 0 L 1.6875 0 L 1.6875 -1.78125 C 3.53125 -2.375 4.894531 -2.96875 5.78125 -3.5625 C 6.675781 -4.15625 7.269531 -5.070312 7.5625 -6.3125 C 7.863281 -7.5625 8.015625 -9.40625 8.015625 -11.84375 L 8.015625 -32.484375 C 8.015625 -35.035156 7.421875 -36.859375 6.234375 -37.953125 C 5.046875 -39.054688 3.53125 -39.695312 1.6875 -39.875 L 1.6875 -41.65625 C 3.882812 -41.769531 6.109375 -42.019531 8.359375 -42.40625 C 10.617188 -42.789062 12.578125 -43.3125 14.234375 -43.96875 L 15.65625 -42.71875 L 14.859375 -36.84375 C 18.179688 -39.28125 21.117188 -41.0625 23.671875 -42.1875 C 26.222656 -43.3125 28.773438 -43.875 31.328125 -43.875 C 39.097656 -43.875 42.984375 -39.066406 42.984375 -29.453125 Z M 42.984375 -29.453125 "/></g></g><g style="fill:#fcf6e8;fill-opacity:1;"><g transform="translate(441.598285, 217.022974)"><path style="stroke:none" d="M 40.3125 -44.5 C 41.320312 -44.5 42.003906 -44.15625 42.359375 -43.46875 C 42.710938 -42.789062 42.859375 -41.988281 42.796875 -41.0625 C 42.742188 -40.144531 42.507812 -39.300781 42.09375 -38.53125 L 32.125 -39.34375 C 33.550781 -37.976562 34.664062 -36.375 35.46875 -34.53125 C 36.269531 -32.6875 36.671875 -30.695312 36.671875 -28.5625 C 36.671875 -26.070312 35.957031 -23.742188 34.53125 -21.578125 C 33.101562 -19.410156 31.113281 -17.644531 28.5625 -16.28125 C 26.007812 -14.914062 23.078125 -14.234375 19.765625 -14.234375 C 18.984375 -14.234375 18.191406 -14.273438 17.390625 -14.359375 C 16.597656 -14.453125 15.816406 -14.5625 15.046875 -14.6875 C 13.910156 -14.382812 12.941406 -13.921875 12.140625 -13.296875 C 11.347656 -12.679688 10.953125 -11.835938 10.953125 -10.765625 C 10.953125 -9.640625 11.585938 -8.734375 12.859375 -8.046875 C 14.140625 -7.367188 15.960938 -7 18.328125 -6.9375 L 26.96875 -6.859375 C 31.894531 -6.796875 35.585938 -6.097656 38.046875 -4.765625 C 40.503906 -3.429688 41.734375 -0.863281 41.734375 2.9375 C 41.734375 5.132812 41.125 7.390625 39.90625 9.703125 C 38.695312 12.015625 36.90625 14.148438 34.53125 16.109375 C 32.15625 18.066406 29.441406 19.59375 26.390625 20.6875 C 23.335938 21.789062 20.085938 22.34375 16.640625 22.34375 C 13.796875 22.34375 11.226562 21.765625 8.9375 20.609375 C 6.65625 19.453125 4.847656 17.953125 3.515625 16.109375 C 2.179688 14.265625 1.515625 12.273438 1.515625 10.140625 C 1.515625 8.003906 2.210938 6 3.609375 4.125 C 5.003906 2.257812 6.972656 0.234375 9.515625 -1.953125 C 8.148438 -2.671875 7.15625 -3.5625 6.53125 -4.625 C 5.914062 -5.695312 5.609375 -6.914062 5.609375 -8.28125 C 5.609375 -9.9375 6.226562 -11.414062 7.46875 -12.71875 C 8.71875 -14.03125 10.175781 -15.007812 11.84375 -15.65625 C 9.226562 -16.664062 7.085938 -18.207031 5.421875 -20.28125 C 3.765625 -22.363281 2.9375 -24.859375 2.9375 -27.765625 C 2.9375 -30.671875 3.675781 -33.335938 5.15625 -35.765625 C 6.644531 -38.203125 8.707031 -40.144531 11.34375 -41.59375 C 13.988281 -43.050781 17 -43.78125 20.375 -43.78125 C 22.21875 -43.78125 23.925781 -43.539062 25.5 -43.0625 C 27.070312 -42.59375 28.507812 -41.945312 29.8125 -41.125 C 31.894531 -42.007812 33.851562 -42.789062 35.6875 -43.46875 C 37.53125 -44.15625 39.070312 -44.5 40.3125 -44.5 Z M 20.640625 -16.375 C 23.429688 -16.613281 25.628906 -17.664062 27.234375 -19.53125 C 28.835938 -21.40625 29.640625 -24.0625 29.640625 -27.5 C 29.640625 -31.945312 28.675781 -35.460938 26.75 -38.046875 C 24.820312 -40.628906 22.285156 -41.800781 19.140625 -41.5625 C 16.285156 -41.320312 14.070312 -40.3125 12.5 -38.53125 C 10.925781 -36.75 10.140625 -34.140625 10.140625 -30.703125 C 10.140625 -26.191406 11.101562 -22.628906 13.03125 -20.015625 C 14.96875 -17.410156 17.503906 -16.195312 20.640625 -16.375 Z M 25.28125 -0.53125 L 16.90625 -0.625 C 15.894531 -0.625 14.957031 -0.679688 14.09375 -0.796875 C 13.238281 -0.921875 12.457031 -1.070312 11.75 -1.25 C 10.382812 0.414062 9.421875 1.914062 8.859375 3.25 C 8.296875 4.582031 8.015625 5.988281 8.015625 7.46875 C 8.015625 10.851562 9.1875 13.539062 11.53125 15.53125 C 13.875 17.519531 16.941406 18.515625 20.734375 18.515625 C 25.484375 18.515625 29.222656 17.328125 31.953125 14.953125 C 34.679688 12.578125 36.046875 9.550781 36.046875 5.875 C 36.046875 3.082031 35.125 1.332031 33.28125 0.625 C 31.445312 -0.0820312 28.78125 -0.46875 25.28125 -0.53125 Z M 25.28125 -0.53125 "/></g></g><g mask="url(#73d4a5236e)" transform="matrix(1,0,0,1,110,256)"><g clip-path="url(#57049ca95d)"><g style="fill:#faf3dd;fill-opacity:1;"><g transform="translate(0.902609, 24.558341)"><path style="stroke:none" d="M 5.96875 0.390625 C 5.21875 0.390625 4.53125 0.285156 3.90625 0.078125 C 3.28125 -0.117188 2.742188 -0.367188 2.296875 -0.671875 L 2.40625 0.171875 L 1.390625 0.171875 L 1.25 -3.953125 L 1.984375 -3.953125 C 2.023438 -3.296875 2.207031 -2.710938 2.53125 -2.203125 C 2.863281 -1.691406 3.296875 -1.285156 3.828125 -0.984375 C 4.359375 -0.691406 4.929688 -0.546875 5.546875 -0.546875 C 6.234375 -0.546875 6.84375 -0.707031 7.375 -1.03125 C 7.914062 -1.363281 8.1875 -1.835938 8.1875 -2.453125 C 8.1875 -2.898438 8.050781 -3.273438 7.78125 -3.578125 C 7.519531 -3.878906 7.191406 -4.128906 6.796875 -4.328125 C 6.410156 -4.523438 5.863281 -4.765625 5.15625 -5.046875 C 4.3125 -5.359375 3.632812 -5.65625 3.125 -5.9375 C 2.613281 -6.21875 2.171875 -6.597656 1.796875 -7.078125 C 1.429688 -7.554688 1.25 -8.164062 1.25 -8.90625 C 1.25 -9.4375 1.375 -9.960938 1.625 -10.484375 C 1.882812 -11.015625 2.316406 -11.460938 2.921875 -11.828125 C 3.535156 -12.203125 4.347656 -12.390625 5.359375 -12.390625 C 5.847656 -12.390625 6.351562 -12.304688 6.875 -12.140625 C 7.394531 -11.984375 7.878906 -11.722656 8.328125 -11.359375 L 8.28125 -12.265625 L 9.28125 -12.265625 L 9.28125 -8.0625 L 8.515625 -8.0625 C 8.472656 -8.988281 8.191406 -9.789062 7.671875 -10.46875 C 7.148438 -11.15625 6.414062 -11.5 5.46875 -11.5 C 4.75 -11.5 4.175781 -11.316406 3.75 -10.953125 C 3.332031 -10.597656 3.125 -10.171875 3.125 -9.671875 C 3.125 -9.203125 3.257812 -8.804688 3.53125 -8.484375 C 3.8125 -8.171875 4.160156 -7.898438 4.578125 -7.671875 C 4.992188 -7.453125 5.554688 -7.207031 6.265625 -6.9375 C 7.097656 -6.601562 7.769531 -6.289062 8.28125 -6 C 8.789062 -5.707031 9.222656 -5.328125 9.578125 -4.859375 C 9.941406 -4.390625 10.125 -3.816406 10.125 -3.140625 C 10.125 -2.367188 9.925781 -1.71875 9.53125 -1.1875 C 9.144531 -0.664062 8.632812 -0.269531 8 0 C 7.375 0.257812 6.695312 0.390625 5.96875 0.390625 Z M 5.96875 0.390625 "/></g></g><g style="fill:#faf3dd;fill-opacity:1;"><g transform="translate(12.969156, 24.558341)"><path style="stroke:none" d="M 6.125 0.390625 C 4.757812 0.390625 3.757812 0 3.125 -0.78125 C 2.5 -1.570312 2.1875 -2.925781 2.1875 -4.84375 L 2.1875 -9.125 C 2.1875 -9.789062 2.21875 -10.3125 2.28125 -10.6875 L 0.625 -10.609375 L 0.625 -11.59375 L 1.375 -11.59375 C 1.988281 -11.59375 2.457031 -11.644531 2.78125 -11.75 C 3.101562 -11.863281 3.375 -12.023438 3.59375 -12.234375 L 4.296875 -12.234375 L 4.296875 -4.921875 C 4.296875 -3.515625 4.488281 -2.484375 4.875 -1.828125 C 5.269531 -1.171875 5.925781 -0.84375 6.84375 -0.84375 C 7.4375 -0.84375 8.015625 -1.015625 8.578125 -1.359375 C 9.148438 -1.710938 9.609375 -2.15625 9.953125 -2.6875 L 9.953125 -8.859375 C 9.953125 -9.609375 9.992188 -10.21875 10.078125 -10.6875 L 8.359375 -10.609375 L 8.359375 -11.59375 L 9.09375 -11.59375 C 9.71875 -11.59375 10.1875 -11.644531 10.5 -11.75 C 10.820312 -11.863281 11.097656 -12.023438 11.328125 -12.234375 L 12.03125 -12.234375 L 12 -3.171875 C 12 -2.242188 11.96875 -1.488281 11.90625 -0.90625 L 13.625 -1.015625 L 13.625 0 L 10.203125 0 C 10.117188 -0.5 10.0625 -0.976562 10.03125 -1.4375 C 9.5 -0.90625 8.878906 -0.46875 8.171875 -0.125 C 7.472656 0.21875 6.789062 0.390625 6.125 0.390625 Z M 6.125 0.390625 "/></g></g><g style="fill:#faf3dd;fill-opacity:1;"><g transform="translate(28.25013, 24.558341)"><path style="stroke:none" d="M 0.84375 5.40625 C 1.300781 5.40625 1.628906 5.285156 1.828125 5.046875 C 2.035156 4.816406 2.15625 4.53125 2.1875 4.1875 C 2.21875 3.84375 2.238281 3.269531 2.25 2.46875 L 2.296875 -9.125 C 2.296875 -9.789062 2.332031 -10.3125 2.40625 -10.6875 L 0.703125 -10.578125 L 0.703125 -11.59375 C 1.640625 -11.59375 2.285156 -11.644531 2.640625 -11.75 C 2.992188 -11.851562 3.28125 -12.015625 3.5 -12.234375 L 4.21875 -12.234375 C 4.28125 -11.453125 4.3125 -11.019531 4.3125 -10.9375 C 4.800781 -11.375 5.378906 -11.722656 6.046875 -11.984375 C 6.722656 -12.253906 7.390625 -12.390625 8.046875 -12.390625 C 8.984375 -12.390625 9.851562 -12.144531 10.65625 -11.65625 C 11.457031 -11.164062 12.097656 -10.46875 12.578125 -9.5625 C 13.066406 -8.65625 13.3125 -7.613281 13.3125 -6.4375 C 13.3125 -5.101562 13.03125 -3.921875 12.46875 -2.890625 C 11.914062 -1.859375 11.171875 -1.050781 10.234375 -0.46875 C 9.296875 0.101562 8.285156 0.390625 7.203125 0.390625 C 6.097656 0.390625 5.132812 0.125 4.3125 -0.40625 L 4.3125 3.578125 C 4.3125 4.296875 4.28125 4.835938 4.21875 5.203125 L 5.734375 5.140625 L 5.734375 6.125 L 0.84375 6.125 Z M 7.15625 -0.578125 C 7.90625 -0.578125 8.554688 -0.804688 9.109375 -1.265625 C 9.660156 -1.734375 10.085938 -2.382812 10.390625 -3.21875 C 10.691406 -4.050781 10.84375 -4.992188 10.84375 -6.046875 C 10.84375 -7.484375 10.535156 -8.703125 9.921875 -9.703125 C 9.304688 -10.703125 8.390625 -11.203125 7.171875 -11.203125 C 6.648438 -11.203125 6.140625 -11.070312 5.640625 -10.8125 C 5.140625 -10.5625 4.707031 -10.242188 4.34375 -9.859375 C 4.363281 -9.753906 4.375 -9.269531 4.375 -8.40625 L 4.34375 -1.515625 C 5.15625 -0.890625 6.09375 -0.578125 7.15625 -0.578125 Z M 7.15625 -0.578125 "/></g></g><g style="fill:#faf3dd;fill-opacity:1;"><g transform="translate(43.531105, 24.558341)"><path style="stroke:none" d="M 0.84375 5.40625 C 1.300781 5.40625 1.628906 5.285156 1.828125 5.046875 C 2.035156 4.816406 2.15625 4.53125 2.1875 4.1875 C 2.21875 3.84375 2.238281 3.269531 2.25 2.46875 L 2.296875 -9.125 C 2.296875 -9.789062 2.332031 -10.3125 2.40625 -10.6875 L 0.703125 -10.578125 L 0.703125 -11.59375 C 1.640625 -11.59375 2.285156 -11.644531 2.640625 -11.75 C 2.992188 -11.851562 3.28125 -12.015625 3.5 -12.234375 L 4.21875 -12.234375 C 4.28125 -11.453125 4.3125 -11.019531 4.3125 -10.9375 C 4.800781 -11.375 5.378906 -11.722656 6.046875 -11.984375 C 6.722656 -12.253906 7.390625 -12.390625 8.046875 -12.390625 C 8.984375 -12.390625 9.851562 -12.144531 10.65625 -11.65625 C 11.457031 -11.164062 12.097656 -10.46875 12.578125 -9.5625 C 13.066406 -8.65625 13.3125 -7.613281 13.3125 -6.4375 C 13.3125 -5.101562 13.03125 -3.921875 12.46875 -2.890625 C 11.914062 -1.859375 11.171875 -1.050781 10.234375 -0.46875 C 9.296875 0.101562 8.285156 0.390625 7.203125 0.390625 C 6.097656 0.390625 5.132812 0.125 4.3125 -0.40625 L 4.3125 3.578125 C 4.3125 4.296875 4.28125 4.835938 4.21875 5.203125 L 5.734375 5.140625 L 5.734375 6.125 L 0.84375 6.125 Z M 7.15625 -0.578125 C 7.90625 -0.578125 8.554688 -0.804688 9.109375 -1.265625 C 9.660156 -1.734375 10.085938 -2.382812 10.390625 -3.21875 C 10.691406 -4.050781 10.84375 -4.992188 10.84375 -6.046875 C 10.84375 -7.484375 10.535156 -8.703125 9.921875 -9.703125 C 9.304688 -10.703125 8.390625 -11.203125 7.171875 -11.203125 C 6.648438 -11.203125 6.140625 -11.070312 5.640625 -10.8125 C 5.140625 -10.5625 4.707031 -10.242188 4.34375 -9.859375 C 4.363281 -9.753906 4.375 -9.269531 4.375 -8.40625 L 4.34375 -1.515625 C 5.15625 -0.890625 6.09375 -0.578125 7.15625 -0.578125 Z M 7.15625 -0.578125 "/></g></g><g style="fill:#faf3dd;fill-opacity:1;"><g transform="translate(58.812079, 24.558341)"><path style="stroke:none" d="M 7.015625 0.390625 C 5.910156 0.390625 4.894531 0.128906 3.96875 -0.390625 C 3.050781 -0.910156 2.320312 -1.632812 1.78125 -2.5625 C 1.25 -3.488281 0.984375 -4.539062 0.984375 -5.71875 C 0.984375 -6.957031 1.242188 -8.082031 1.765625 -9.09375 C 2.296875 -10.113281 3.019531 -10.914062 3.9375 -11.5 C 4.863281 -12.09375 5.890625 -12.390625 7.015625 -12.390625 C 8.109375 -12.390625 9.117188 -12.117188 10.046875 -11.578125 C 10.984375 -11.046875 11.71875 -10.3125 12.25 -9.375 C 12.789062 -8.445312 13.0625 -7.414062 13.0625 -6.28125 C 13.0625 -5.070312 12.789062 -3.953125 12.25 -2.921875 C 11.71875 -1.898438 10.988281 -1.09375 10.0625 -0.5 C 9.144531 0.09375 8.128906 0.390625 7.015625 0.390625 Z M 7.203125 -0.578125 C 8.367188 -0.578125 9.226562 -1.054688 9.78125 -2.015625 C 10.332031 -2.972656 10.609375 -4.164062 10.609375 -5.59375 C 10.609375 -7.207031 10.304688 -8.585938 9.703125 -9.734375 C 9.109375 -10.890625 8.210938 -11.46875 7.015625 -11.46875 C 5.828125 -11.46875 4.929688 -10.976562 4.328125 -10 C 3.734375 -9.03125 3.4375 -7.832031 3.4375 -6.40625 C 3.4375 -5.382812 3.570312 -4.425781 3.84375 -3.53125 C 4.125 -2.644531 4.546875 -1.929688 5.109375 -1.390625 C 5.679688 -0.847656 6.378906 -0.578125 7.203125 -0.578125 Z M 7.203125 -0.578125 "/></g></g><g style="fill:#faf3dd;fill-opacity:1;"><g transform="translate(73.805189, 24.558341)"><path style="stroke:none" d="M 1.0625 -0.71875 C 1.519531 -0.71875 1.847656 -0.832031 2.046875 -1.0625 C 2.253906 -1.300781 2.375 -1.597656 2.40625 -1.953125 C 2.445312 -2.316406 2.46875 -2.878906 2.46875 -3.640625 L 2.46875 -9.125 C 2.46875 -9.789062 2.5 -10.3125 2.5625 -10.6875 L 0.859375 -10.609375 L 0.859375 -11.59375 L 1.609375 -11.59375 C 2.210938 -11.59375 2.648438 -11.644531 2.921875 -11.75 C 3.203125 -11.851562 3.460938 -12.015625 3.703125 -12.234375 L 4.390625 -12.234375 C 4.453125 -11.609375 4.492188 -10.816406 4.515625 -9.859375 C 4.910156 -10.515625 5.476562 -11.097656 6.21875 -11.609375 C 6.96875 -12.128906 7.742188 -12.390625 8.546875 -12.390625 C 9.023438 -12.390625 9.421875 -12.257812 9.734375 -12 C 10.054688 -11.738281 10.21875 -11.363281 10.21875 -10.875 C 10.21875 -10.613281 10.117188 -10.351562 9.921875 -10.09375 C 9.722656 -9.84375 9.441406 -9.71875 9.078125 -9.71875 C 8.722656 -9.71875 8.429688 -9.847656 8.203125 -10.109375 C 7.984375 -10.378906 7.894531 -10.695312 7.9375 -11.0625 C 7.332031 -11.082031 6.722656 -10.847656 6.109375 -10.359375 C 5.492188 -9.878906 4.96875 -9.242188 4.53125 -8.453125 L 4.5625 -2.546875 C 4.5625 -1.828125 4.53125 -1.28125 4.46875 -0.90625 L 5.96875 -0.984375 L 5.96875 0 L 1.0625 0 Z M 1.0625 -0.71875 "/></g></g><g style="fill:#faf3dd;fill-opacity:1;"><g transform="translate(85.152085, 24.558341)"><path style="stroke:none" d="M 5.5625 0.390625 C 3.375 0.390625 2.285156 -1.082031 2.296875 -4.03125 L 2.359375 -10.984375 L 0.5 -10.96875 L 0.5 -12 C 1.269531 -12.019531 1.921875 -12.367188 2.453125 -13.046875 C 2.992188 -13.722656 3.390625 -14.492188 3.640625 -15.359375 L 4.46875 -15.359375 L 4.46875 -12 L 8.5 -12 L 8.5 -11.0625 L 4.46875 -11.015625 C 4.445312 -8.566406 4.429688 -6.867188 4.421875 -5.921875 C 4.421875 -4.984375 4.421875 -4.457031 4.421875 -4.34375 C 4.421875 -3.207031 4.554688 -2.363281 4.828125 -1.8125 C 5.097656 -1.257812 5.566406 -0.984375 6.234375 -0.984375 C 6.648438 -0.984375 7.0625 -1.109375 7.46875 -1.359375 C 7.882812 -1.617188 8.242188 -1.972656 8.546875 -2.421875 L 9.1875 -1.890625 C 8.5625 -0.960938 7.945312 -0.347656 7.34375 -0.046875 C 6.738281 0.242188 6.144531 0.390625 5.5625 0.390625 Z M 5.5625 0.390625 "/></g></g><g style="fill:#faf3dd;fill-opacity:1;"><g transform="translate(95.39552, 24.558341)"><path style="stroke:none" d="M 3.4375 -14.609375 C 3.09375 -14.609375 2.789062 -14.75 2.53125 -15.03125 C 2.28125 -15.3125 2.15625 -15.644531 2.15625 -16.03125 C 2.15625 -16.414062 2.285156 -16.75 2.546875 -17.03125 C 2.816406 -17.320312 3.117188 -17.46875 3.453125 -17.46875 C 3.828125 -17.46875 4.132812 -17.328125 4.375 -17.046875 C 4.625 -16.765625 4.75 -16.425781 4.75 -16.03125 C 4.75 -15.644531 4.613281 -15.3125 4.34375 -15.03125 C 4.082031 -14.75 3.78125 -14.609375 3.4375 -14.609375 Z M 1.0625 -0.71875 C 1.519531 -0.71875 1.847656 -0.832031 2.046875 -1.0625 C 2.253906 -1.300781 2.375 -1.597656 2.40625 -1.953125 C 2.445312 -2.316406 2.46875 -2.878906 2.46875 -3.640625 L 2.46875 -9.125 C 2.46875 -9.582031 2.5 -10.101562 2.5625 -10.6875 L 0.859375 -10.578125 L 0.859375 -11.59375 C 1.804688 -11.59375 2.484375 -11.644531 2.890625 -11.75 C 3.296875 -11.863281 3.613281 -12.023438 3.84375 -12.234375 L 4.53125 -12.234375 L 4.53125 -2.546875 C 4.53125 -1.828125 4.5 -1.28125 4.4375 -0.90625 L 5.953125 -0.984375 L 5.953125 0 L 1.0625 0 Z M 1.0625 -0.71875 "/></g></g><g style="fill:#faf3dd;fill-opacity:1;"><g transform="translate(103.096203, 24.558341)"><path style="stroke:none" d="M 1.0625 -0.71875 C 1.519531 -0.71875 1.847656 -0.832031 2.046875 -1.0625 C 2.253906 -1.300781 2.375 -1.59375 2.40625 -1.9375 C 2.4375 -2.28125 2.457031 -2.847656 2.46875 -3.640625 L 2.5 -9.125 C 2.5 -9.789062 2.53125 -10.3125 2.59375 -10.6875 L 0.890625 -10.578125 L 0.890625 -11.59375 C 1.828125 -11.59375 2.472656 -11.644531 2.828125 -11.75 C 3.179688 -11.851562 3.476562 -12.015625 3.71875 -12.234375 L 4.421875 -12.234375 C 4.453125 -11.929688 4.484375 -11.445312 4.515625 -10.78125 C 5.054688 -11.257812 5.675781 -11.644531 6.375 -11.9375 C 7.070312 -12.238281 7.753906 -12.390625 8.421875 -12.390625 C 9.816406 -12.390625 10.832031 -11.953125 11.46875 -11.078125 C 12.113281 -10.203125 12.4375 -8.847656 12.4375 -7.015625 L 12.4375 -2.546875 C 12.4375 -1.828125 12.40625 -1.28125 12.34375 -0.90625 L 13.84375 -0.984375 L 13.84375 0 L 8.953125 0 L 8.953125 -0.71875 C 9.410156 -0.71875 9.738281 -0.832031 9.9375 -1.0625 C 10.144531 -1.300781 10.269531 -1.597656 10.3125 -1.953125 C 10.351562 -2.316406 10.375 -2.878906 10.375 -3.640625 L 10.375 -7.015625 C 10.351562 -8.390625 10.125 -9.421875 9.6875 -10.109375 C 9.257812 -10.804688 8.582031 -11.15625 7.65625 -11.15625 C 7.082031 -11.15625 6.507812 -11.007812 5.9375 -10.71875 C 5.375 -10.4375 4.90625 -10.0625 4.53125 -9.59375 C 4.550781 -9.425781 4.5625 -9.113281 4.5625 -8.65625 L 4.53125 -2.546875 C 4.53125 -1.828125 4.5 -1.28125 4.4375 -0.90625 L 5.953125 -0.984375 L 5.953125 0 L 1.0625 0 Z M 1.0625 -0.71875 "/></g></g><g style="fill:#faf3dd;fill-opacity:1;"><g transform="translate(118.617056, 24.558341)"><path style="stroke:none" d="M 6.84375 6.5 C 5.46875 6.5 4.332031 6.347656 3.4375 6.046875 C 2.539062 5.742188 1.882812 5.34375 1.46875 4.84375 C 1.050781 4.351562 0.84375 3.828125 0.84375 3.265625 C 0.84375 2.585938 1.066406 2 1.515625 1.5 C 1.960938 1 2.472656 0.628906 3.046875 0.390625 C 2.503906 0.210938 2.09375 -0.0234375 1.8125 -0.328125 C 1.53125 -0.640625 1.390625 -1.035156 1.390625 -1.515625 C 1.390625 -2.085938 1.617188 -2.613281 2.078125 -3.09375 C 2.535156 -3.570312 3.109375 -3.867188 3.796875 -3.984375 C 3.035156 -4.335938 2.441406 -4.828125 2.015625 -5.453125 C 1.585938 -6.085938 1.375 -6.8125 1.375 -7.625 C 1.375 -8.5625 1.613281 -9.390625 2.09375 -10.109375 C 2.582031 -10.828125 3.210938 -11.382812 3.984375 -11.78125 C 4.765625 -12.1875 5.582031 -12.390625 6.4375 -12.390625 C 7.519531 -12.390625 8.535156 -12.09375 9.484375 -11.5 C 9.722656 -12.1875 10.109375 -12.742188 10.640625 -13.171875 C 11.179688 -13.609375 11.765625 -13.828125 12.390625 -13.828125 C 12.785156 -13.828125 13.09375 -13.71875 13.3125 -13.5 C 13.539062 -13.28125 13.65625 -12.988281 13.65625 -12.625 C 13.65625 -12.394531 13.570312 -12.171875 13.40625 -11.953125 C 13.238281 -11.742188 12.992188 -11.640625 12.671875 -11.640625 C 12.398438 -11.640625 12.164062 -11.71875 11.96875 -11.875 C 11.78125 -12.039062 11.660156 -12.242188 11.609375 -12.484375 C 11.234375 -12.429688 10.929688 -12.253906 10.703125 -11.953125 C 10.484375 -11.660156 10.320312 -11.304688 10.21875 -10.890625 C 10.625 -10.523438 10.9375 -10.09375 11.15625 -9.59375 C 11.382812 -9.101562 11.5 -8.585938 11.5 -8.046875 C 11.5 -7.160156 11.265625 -6.363281 10.796875 -5.65625 C 10.335938 -4.957031 9.71875 -4.40625 8.9375 -4 C 8.164062 -3.601562 7.332031 -3.40625 6.4375 -3.40625 C 6.226562 -3.40625 5.960938 -3.421875 5.640625 -3.453125 C 5.398438 -3.503906 5.128906 -3.53125 4.828125 -3.53125 C 4.296875 -3.53125 3.847656 -3.410156 3.484375 -3.171875 C 3.128906 -2.941406 2.953125 -2.660156 2.953125 -2.328125 C 2.953125 -1.859375 3.242188 -1.546875 3.828125 -1.390625 C 4.410156 -1.242188 5.40625 -1.148438 6.8125 -1.109375 C 8.78125 -1.003906 10.253906 -0.6875 11.234375 -0.15625 C 12.222656 0.375 12.71875 1.257812 12.71875 2.5 C 12.71875 3.3125 12.429688 4.019531 11.859375 4.625 C 11.296875 5.238281 10.5625 5.703125 9.65625 6.015625 C 8.75 6.335938 7.8125 6.5 6.84375 6.5 Z M 6.5 -4.265625 C 7.363281 -4.265625 8.023438 -4.566406 8.484375 -5.171875 C 8.941406 -5.785156 9.171875 -6.582031 9.171875 -7.5625 C 9.171875 -8.675781 8.925781 -9.617188 8.4375 -10.390625 C 7.945312 -11.160156 7.265625 -11.546875 6.390625 -11.546875 C 5.535156 -11.546875 4.867188 -11.226562 4.390625 -10.59375 C 3.910156 -9.957031 3.671875 -9.144531 3.671875 -8.15625 C 3.671875 -6.988281 3.921875 -6.046875 4.421875 -5.328125 C 4.929688 -4.617188 5.625 -4.265625 6.5 -4.265625 Z M 6.8125 5.5625 C 7.695312 5.5625 8.46875 5.445312 9.125 5.21875 C 9.789062 4.988281 10.300781 4.675781 10.65625 4.28125 C 11.007812 3.894531 11.1875 3.46875 11.1875 3 C 11.1875 2.1875 10.796875 1.625 10.015625 1.3125 C 9.242188 1.007812 8.097656 0.835938 6.578125 0.796875 C 5.566406 0.765625 4.742188 0.695312 4.109375 0.59375 C 3.671875 0.882812 3.332031 1.238281 3.09375 1.65625 C 2.851562 2.070312 2.734375 2.507812 2.734375 2.96875 C 2.734375 3.757812 3.101562 4.390625 3.84375 4.859375 C 4.59375 5.328125 5.582031 5.5625 6.8125 5.5625 Z M 6.8125 5.5625 "/></g></g><g style="fill:#faf3dd;fill-opacity:1;"><g transform="translate(132.842542, 24.558341)"><path style="stroke:none" d=""/></g></g><g style="fill:#faf3dd;fill-opacity:1;"><g transform="translate(140.11144, 24.558341)"><path style="stroke:none" d="M 6.859375 0.390625 C 5.753906 0.390625 4.757812 0.128906 3.875 -0.390625 C 2.988281 -0.910156 2.289062 -1.65625 1.78125 -2.625 C 1.269531 -3.59375 1.015625 -4.707031 1.015625 -5.96875 C 1.015625 -7.09375 1.269531 -8.144531 1.78125 -9.125 C 2.289062 -10.113281 3.003906 -10.90625 3.921875 -11.5 C 4.835938 -12.09375 5.882812 -12.390625 7.0625 -12.390625 C 7.96875 -12.390625 8.785156 -12.1875 9.515625 -11.78125 C 10.253906 -11.382812 10.835938 -10.789062 11.265625 -10 C 11.703125 -9.207031 11.921875 -8.234375 11.921875 -7.078125 L 3.484375 -6.9375 C 3.460938 -5.019531 3.773438 -3.523438 4.421875 -2.453125 C 5.078125 -1.378906 6.082031 -0.84375 7.4375 -0.84375 C 8.175781 -0.84375 8.929688 -1.03125 9.703125 -1.40625 C 10.484375 -1.789062 11.082031 -2.265625 11.5 -2.828125 L 12.078125 -2.359375 C 11.460938 -1.421875 10.671875 -0.726562 9.703125 -0.28125 C 8.734375 0.164062 7.785156 0.390625 6.859375 0.390625 Z M 9.671875 -7.9375 C 9.671875 -8.90625 9.453125 -9.734375 9.015625 -10.421875 C 8.585938 -11.109375 7.941406 -11.453125 7.078125 -11.453125 C 5.097656 -11.453125 3.921875 -10.28125 3.546875 -7.9375 Z M 9.671875 -7.9375 "/></g></g><g style="fill:#faf3dd;fill-opacity:1;"><g transform="translate(154.073059, 24.558341)"><path style="stroke:none" d="M 1.0625 -0.71875 C 1.519531 -0.71875 1.847656 -0.832031 2.046875 -1.0625 C 2.253906 -1.300781 2.375 -1.597656 2.40625 -1.953125 C 2.445312 -2.316406 2.46875 -2.878906 2.46875 -3.640625 L 2.46875 -9.125 C 2.46875 -9.789062 2.5 -10.3125 2.5625 -10.6875 L 0.859375 -10.578125 L 0.859375 -11.59375 C 1.804688 -11.59375 2.457031 -11.644531 2.8125 -11.75 C 3.164062 -11.851562 3.460938 -12.015625 3.703125 -12.234375 L 4.390625 -12.234375 C 4.421875 -11.992188 4.453125 -11.570312 4.484375 -10.96875 C 4.984375 -11.394531 5.546875 -11.738281 6.171875 -12 C 6.796875 -12.257812 7.410156 -12.390625 8.015625 -12.390625 C 8.796875 -12.390625 9.460938 -12.25 10.015625 -11.96875 C 10.566406 -11.6875 10.992188 -11.289062 11.296875 -10.78125 C 11.878906 -11.238281 12.523438 -11.617188 13.234375 -11.921875 C 13.941406 -12.234375 14.625 -12.390625 15.28125 -12.390625 C 16.695312 -12.390625 17.726562 -11.957031 18.375 -11.09375 C 19.019531 -10.238281 19.328125 -8.878906 19.296875 -7.015625 L 19.265625 -2.546875 C 19.265625 -1.828125 19.234375 -1.28125 19.171875 -0.90625 L 20.6875 -0.984375 L 20.6875 0 L 15.796875 0 L 15.796875 -0.71875 C 16.253906 -0.71875 16.582031 -0.832031 16.78125 -1.0625 C 16.988281 -1.300781 17.109375 -1.597656 17.140625 -1.953125 C 17.179688 -2.316406 17.203125 -2.878906 17.203125 -3.640625 L 17.203125 -7.015625 C 17.203125 -8.390625 16.984375 -9.414062 16.546875 -10.09375 C 16.117188 -10.769531 15.441406 -11.109375 14.515625 -11.109375 C 14.023438 -11.109375 13.523438 -11 13.015625 -10.78125 C 12.515625 -10.570312 12.070312 -10.289062 11.6875 -9.9375 C 11.84375 -9.4375 11.921875 -8.851562 11.921875 -8.1875 L 11.875 -2.546875 C 11.875 -1.828125 11.84375 -1.28125 11.78125 -0.90625 L 13.296875 -0.984375 L 13.296875 0 L 8.40625 0 L 8.40625 -0.71875 C 8.863281 -0.71875 9.191406 -0.832031 9.390625 -1.0625 C 9.597656 -1.300781 9.71875 -1.59375 9.75 -1.9375 C 9.78125 -2.28125 9.800781 -2.847656 9.8125 -3.640625 L 9.84375 -7.015625 C 9.851562 -8.398438 9.648438 -9.4375 9.234375 -10.125 C 8.816406 -10.8125 8.15625 -11.15625 7.25 -11.15625 C 6.75 -11.15625 6.253906 -11.050781 5.765625 -10.84375 C 5.285156 -10.632812 4.867188 -10.359375 4.515625 -10.015625 L 4.53125 -8.71875 L 4.53125 -2.546875 C 4.53125 -1.828125 4.5 -1.28125 4.4375 -0.90625 L 5.953125 -0.984375 L 5.953125 0 L 1.0625 0 Z M 1.0625 -0.71875 "/></g></g><g style="fill:#faf3dd;fill-opacity:1;"><g transform="translate(176.478542, 24.558341)"><path style="stroke:none" d="M 6.859375 0.390625 C 5.753906 0.390625 4.757812 0.128906 3.875 -0.390625 C 2.988281 -0.910156 2.289062 -1.65625 1.78125 -2.625 C 1.269531 -3.59375 1.015625 -4.707031 1.015625 -5.96875 C 1.015625 -7.09375 1.269531 -8.144531 1.78125 -9.125 C 2.289062 -10.113281 3.003906 -10.90625 3.921875 -11.5 C 4.835938 -12.09375 5.882812 -12.390625 7.0625 -12.390625 C 7.96875 -12.390625 8.785156 -12.1875 9.515625 -11.78125 C 10.253906 -11.382812 10.835938 -10.789062 11.265625 -10 C 11.703125 -9.207031 11.921875 -8.234375 11.921875 -7.078125 L 3.484375 -6.9375 C 3.460938 -5.019531 3.773438 -3.523438 4.421875 -2.453125 C 5.078125 -1.378906 6.082031 -0.84375 7.4375 -0.84375 C 8.175781 -0.84375 8.929688 -1.03125 9.703125 -1.40625 C 10.484375 -1.789062 11.082031 -2.265625 11.5 -2.828125 L 12.078125 -2.359375 C 11.460938 -1.421875 10.671875 -0.726562 9.703125 -0.28125 C 8.734375 0.164062 7.785156 0.390625 6.859375 0.390625 Z M 9.671875 -7.9375 C 9.671875 -8.90625 9.453125 -9.734375 9.015625 -10.421875 C 8.585938 -11.109375 7.941406 -11.453125 7.078125 -11.453125 C 5.097656 -11.453125 3.921875 -10.28125 3.546875 -7.9375 Z M 9.671875 -7.9375 "/></g></g><g style="fill:#faf3dd;fill-opacity:1;"><g transform="translate(190.440161, 24.558341)"><path style="stroke:none" d="M 1.0625 -0.71875 C 1.519531 -0.71875 1.847656 -0.832031 2.046875 -1.0625 C 2.253906 -1.300781 2.375 -1.597656 2.40625 -1.953125 C 2.445312 -2.316406 2.46875 -2.878906 2.46875 -3.640625 L 2.46875 -9.125 C 2.46875 -9.789062 2.5 -10.3125 2.5625 -10.6875 L 0.859375 -10.609375 L 0.859375 -11.59375 L 1.609375 -11.59375 C 2.210938 -11.59375 2.648438 -11.644531 2.921875 -11.75 C 3.203125 -11.851562 3.460938 -12.015625 3.703125 -12.234375 L 4.390625 -12.234375 C 4.453125 -11.609375 4.492188 -10.816406 4.515625 -9.859375 C 4.910156 -10.515625 5.476562 -11.097656 6.21875 -11.609375 C 6.96875 -12.128906 7.742188 -12.390625 8.546875 -12.390625 C 9.023438 -12.390625 9.421875 -12.257812 9.734375 -12 C 10.054688 -11.738281 10.21875 -11.363281 10.21875 -10.875 C 10.21875 -10.613281 10.117188 -10.351562 9.921875 -10.09375 C 9.722656 -9.84375 9.441406 -9.71875 9.078125 -9.71875 C 8.722656 -9.71875 8.429688 -9.847656 8.203125 -10.109375 C 7.984375 -10.378906 7.894531 -10.695312 7.9375 -11.0625 C 7.332031 -11.082031 6.722656 -10.847656 6.109375 -10.359375 C 5.492188 -9.878906 4.96875 -9.242188 4.53125 -8.453125 L 4.5625 -2.546875 C 4.5625 -1.828125 4.53125 -1.28125 4.46875 -0.90625 L 5.96875 -0.984375 L 5.96875 0 L 1.0625 0 Z M 1.0625 -0.71875 "/></g></g><g style="fill:#faf3dd;fill-opacity:1;"><g transform="translate(201.787057, 24.558341)"><path style="stroke:none" d="M 6.84375 6.5 C 5.46875 6.5 4.332031 6.347656 3.4375 6.046875 C 2.539062 5.742188 1.882812 5.34375 1.46875 4.84375 C 1.050781 4.351562 0.84375 3.828125 0.84375 3.265625 C 0.84375 2.585938 1.066406 2 1.515625 1.5 C 1.960938 1 2.472656 0.628906 3.046875 0.390625 C 2.503906 0.210938 2.09375 -0.0234375 1.8125 -0.328125 C 1.53125 -0.640625 1.390625 -1.035156 1.390625 -1.515625 C 1.390625 -2.085938 1.617188 -2.613281 2.078125 -3.09375 C 2.535156 -3.570312 3.109375 -3.867188 3.796875 -3.984375 C 3.035156 -4.335938 2.441406 -4.828125 2.015625 -5.453125 C 1.585938 -6.085938 1.375 -6.8125 1.375 -7.625 C 1.375 -8.5625 1.613281 -9.390625 2.09375 -10.109375 C 2.582031 -10.828125 3.210938 -11.382812 3.984375 -11.78125 C 4.765625 -12.1875 5.582031 -12.390625 6.4375 -12.390625 C 7.519531 -12.390625 8.535156 -12.09375 9.484375 -11.5 C 9.722656 -12.1875 10.109375 -12.742188 10.640625 -13.171875 C 11.179688 -13.609375 11.765625 -13.828125 12.390625 -13.828125 C 12.785156 -13.828125 13.09375 -13.71875 13.3125 -13.5 C 13.539062 -13.28125 13.65625 -12.988281 13.65625 -12.625 C 13.65625 -12.394531 13.570312 -12.171875 13.40625 -11.953125 C 13.238281 -11.742188 12.992188 -11.640625 12.671875 -11.640625 C 12.398438 -11.640625 12.164062 -11.71875 11.96875 -11.875 C 11.78125 -12.039062 11.660156 -12.242188 11.609375 -12.484375 C 11.234375 -12.429688 10.929688 -12.253906 10.703125 -11.953125 C 10.484375 -11.660156 10.320312 -11.304688 10.21875 -10.890625 C 10.625 -10.523438 10.9375 -10.09375 11.15625 -9.59375 C 11.382812 -9.101562 11.5 -8.585938 11.5 -8.046875 C 11.5 -7.160156 11.265625 -6.363281 10.796875 -5.65625 C 10.335938 -4.957031 9.71875 -4.40625 8.9375 -4 C 8.164062 -3.601562 7.332031 -3.40625 6.4375 -3.40625 C 6.226562 -3.40625 5.960938 -3.421875 5.640625 -3.453125 C 5.398438 -3.503906 5.128906 -3.53125 4.828125 -3.53125 C 4.296875 -3.53125 3.847656 -3.410156 3.484375 -3.171875 C 3.128906 -2.941406 2.953125 -2.660156 2.953125 -2.328125 C 2.953125 -1.859375 3.242188 -1.546875 3.828125 -1.390625 C 4.410156 -1.242188 5.40625 -1.148438 6.8125 -1.109375 C 8.78125 -1.003906 10.253906 -0.6875 11.234375 -0.15625 C 12.222656 0.375 12.71875 1.257812 12.71875 2.5 C 12.71875 3.3125 12.429688 4.019531 11.859375 4.625 C 11.296875 5.238281 10.5625 5.703125 9.65625 6.015625 C 8.75 6.335938 7.8125 6.5 6.84375 6.5 Z M 6.5 -4.265625 C 7.363281 -4.265625 8.023438 -4.566406 8.484375 -5.171875 C 8.941406 -5.785156 9.171875 -6.582031 9.171875 -7.5625 C 9.171875 -8.675781 8.925781 -9.617188 8.4375 -10.390625 C 7.945312 -11.160156 7.265625 -11.546875 6.390625 -11.546875 C 5.535156 -11.546875 4.867188 -11.226562 4.390625 -10.59375 C 3.910156 -9.957031 3.671875 -9.144531 3.671875 -8.15625 C 3.671875 -6.988281 3.921875 -6.046875 4.421875 -5.328125 C 4.929688 -4.617188 5.625 -4.265625 6.5 -4.265625 Z M 6.8125 5.5625 C 7.695312 5.5625 8.46875 5.445312 9.125 5.21875 C 9.789062 4.988281 10.300781 4.675781 10.65625 4.28125 C 11.007812 3.894531 11.1875 3.46875 11.1875 3 C 11.1875 2.1875 10.796875 1.625 10.015625 1.3125 C 9.242188 1.007812 8.097656 0.835938 6.578125 0.796875 C 5.566406 0.765625 4.742188 0.695312 4.109375 0.59375 C 3.671875 0.882812 3.332031 1.238281 3.09375 1.65625 C 2.851562 2.070312 2.734375 2.507812 2.734375 2.96875 C 2.734375 3.757812 3.101562 4.390625 3.84375 4.859375 C 4.59375 5.328125 5.582031 5.5625 6.8125 5.5625 Z M 6.8125 5.5625 "/></g></g><g style="fill:#faf3dd;fill-opacity:1;"><g transform="translate(216.012544, 24.558341)"><path style="stroke:none" d="M 3.4375 -14.609375 C 3.09375 -14.609375 2.789062 -14.75 2.53125 -15.03125 C 2.28125 -15.3125 2.15625 -15.644531 2.15625 -16.03125 C 2.15625 -16.414062 2.285156 -16.75 2.546875 -17.03125 C 2.816406 -17.320312 3.117188 -17.46875 3.453125 -17.46875 C 3.828125 -17.46875 4.132812 -17.328125 4.375 -17.046875 C 4.625 -16.765625 4.75 -16.425781 4.75 -16.03125 C 4.75 -15.644531 4.613281 -15.3125 4.34375 -15.03125 C 4.082031 -14.75 3.78125 -14.609375 3.4375 -14.609375 Z M 1.0625 -0.71875 C 1.519531 -0.71875 1.847656 -0.832031 2.046875 -1.0625 C 2.253906 -1.300781 2.375 -1.597656 2.40625 -1.953125 C 2.445312 -2.316406 2.46875 -2.878906 2.46875 -3.640625 L 2.46875 -9.125 C 2.46875 -9.582031 2.5 -10.101562 2.5625 -10.6875 L 0.859375 -10.578125 L 0.859375 -11.59375 C 1.804688 -11.59375 2.484375 -11.644531 2.890625 -11.75 C 3.296875 -11.863281 3.613281 -12.023438 3.84375 -12.234375 L 4.53125 -12.234375 L 4.53125 -2.546875 C 4.53125 -1.828125 4.5 -1.28125 4.4375 -0.90625 L 5.953125 -0.984375 L 5.953125 0 L 1.0625 0 Z M 1.0625 -0.71875 "/></g></g><g style="fill:#faf3dd;fill-opacity:1;"><g transform="translate(223.713227, 24.558341)"><path style="stroke:none" d="M 1.0625 -0.71875 C 1.519531 -0.71875 1.847656 -0.832031 2.046875 -1.0625 C 2.253906 -1.300781 2.375 -1.59375 2.40625 -1.9375 C 2.4375 -2.28125 2.457031 -2.847656 2.46875 -3.640625 L 2.5 -9.125 C 2.5 -9.789062 2.53125 -10.3125 2.59375 -10.6875 L 0.890625 -10.578125 L 0.890625 -11.59375 C 1.828125 -11.59375 2.472656 -11.644531 2.828125 -11.75 C 3.179688 -11.851562 3.476562 -12.015625 3.71875 -12.234375 L 4.421875 -12.234375 C 4.453125 -11.929688 4.484375 -11.445312 4.515625 -10.78125 C 5.054688 -11.257812 5.675781 -11.644531 6.375 -11.9375 C 7.070312 -12.238281 7.753906 -12.390625 8.421875 -12.390625 C 9.816406 -12.390625 10.832031 -11.953125 11.46875 -11.078125 C 12.113281 -10.203125 12.4375 -8.847656 12.4375 -7.015625 L 12.4375 -2.546875 C 12.4375 -1.828125 12.40625 -1.28125 12.34375 -0.90625 L 13.84375 -0.984375 L 13.84375 0 L 8.953125 0 L 8.953125 -0.71875 C 9.410156 -0.71875 9.738281 -0.832031 9.9375 -1.0625 C 10.144531 -1.300781 10.269531 -1.597656 10.3125 -1.953125 C 10.351562 -2.316406 10.375 -2.878906 10.375 -3.640625 L 10.375 -7.015625 C 10.351562 -8.390625 10.125 -9.421875 9.6875 -10.109375 C 9.257812 -10.804688 8.582031 -11.15625 7.65625 -11.15625 C 7.082031 -11.15625 6.507812 -11.007812 5.9375 -10.71875 C 5.375 -10.4375 4.90625 -10.0625 4.53125 -9.59375 C 4.550781 -9.425781 4.5625 -9.113281 4.5625 -8.65625 L 4.53125 -2.546875 C 4.53125 -1.828125 4.5 -1.28125 4.4375 -0.90625 L 5.953125 -0.984375 L 5.953125 0 L 1.0625 0 Z M 1.0625 -0.71875 "/></g></g><g style="fill:#faf3dd;fill-opacity:1;"><g transform="translate(239.234092, 24.558341)"><path style="stroke:none" d="M 6.84375 6.5 C 5.46875 6.5 4.332031 6.347656 3.4375 6.046875 C 2.539062 5.742188 1.882812 5.34375 1.46875 4.84375 C 1.050781 4.351562 0.84375 3.828125 0.84375 3.265625 C 0.84375 2.585938 1.066406 2 1.515625 1.5 C 1.960938 1 2.472656 0.628906 3.046875 0.390625 C 2.503906 0.210938 2.09375 -0.0234375 1.8125 -0.328125 C 1.53125 -0.640625 1.390625 -1.035156 1.390625 -1.515625 C 1.390625 -2.085938 1.617188 -2.613281 2.078125 -3.09375 C 2.535156 -3.570312 3.109375 -3.867188 3.796875 -3.984375 C 3.035156 -4.335938 2.441406 -4.828125 2.015625 -5.453125 C 1.585938 -6.085938 1.375 -6.8125 1.375 -7.625 C 1.375 -8.5625 1.613281 -9.390625 2.09375 -10.109375 C 2.582031 -10.828125 3.210938 -11.382812 3.984375 -11.78125 C 4.765625 -12.1875 5.582031 -12.390625 6.4375 -12.390625 C 7.519531 -12.390625 8.535156 -12.09375 9.484375 -11.5 C 9.722656 -12.1875 10.109375 -12.742188 10.640625 -13.171875 C 11.179688 -13.609375 11.765625 -13.828125 12.390625 -13.828125 C 12.785156 -13.828125 13.09375 -13.71875 13.3125 -13.5 C 13.539062 -13.28125 13.65625 -12.988281 13.65625 -12.625 C 13.65625 -12.394531 13.570312 -12.171875 13.40625 -11.953125 C 13.238281 -11.742188 12.992188 -11.640625 12.671875 -11.640625 C 12.398438 -11.640625 12.164062 -11.71875 11.96875 -11.875 C 11.78125 -12.039062 11.660156 -12.242188 11.609375 -12.484375 C 11.234375 -12.429688 10.929688 -12.253906 10.703125 -11.953125 C 10.484375 -11.660156 10.320312 -11.304688 10.21875 -10.890625 C 10.625 -10.523438 10.9375 -10.09375 11.15625 -9.59375 C 11.382812 -9.101562 11.5 -8.585938 11.5 -8.046875 C 11.5 -7.160156 11.265625 -6.363281 10.796875 -5.65625 C 10.335938 -4.957031 9.71875 -4.40625 8.9375 -4 C 8.164062 -3.601562 7.332031 -3.40625 6.4375 -3.40625 C 6.226562 -3.40625 5.960938 -3.421875 5.640625 -3.453125 C 5.398438 -3.503906 5.128906 -3.53125 4.828125 -3.53125 C 4.296875 -3.53125 3.847656 -3.410156 3.484375 -3.171875 C 3.128906 -2.941406 2.953125 -2.660156 2.953125 -2.328125 C 2.953125 -1.859375 3.242188 -1.546875 3.828125 -1.390625 C 4.410156 -1.242188 5.40625 -1.148438 6.8125 -1.109375 C 8.78125 -1.003906 10.253906 -0.6875 11.234375 -0.15625 C 12.222656 0.375 12.71875 1.257812 12.71875 2.5 C 12.71875 3.3125 12.429688 4.019531 11.859375 4.625 C 11.296875 5.238281 10.5625 5.703125 9.65625 6.015625 C 8.75 6.335938 7.8125 6.5 6.84375 6.5 Z M 6.5 -4.265625 C 7.363281 -4.265625 8.023438 -4.566406 8.484375 -5.171875 C 8.941406 -5.785156 9.171875 -6.582031 9.171875 -7.5625 C 9.171875 -8.675781 8.925781 -9.617188 8.4375 -10.390625 C 7.945312 -11.160156 7.265625 -11.546875 6.390625 -11.546875 C 5.535156 -11.546875 4.867188 -11.226562 4.390625 -10.59375 C 3.910156 -9.957031 3.671875 -9.144531 3.671875 -8.15625 C 3.671875 -6.988281 3.921875 -6.046875 4.421875 -5.328125 C 4.929688 -4.617188 5.625 -4.265625 6.5 -4.265625 Z M 6.8125 5.5625 C 7.695312 5.5625 8.46875 5.445312 9.125 5.21875 C 9.789062 4.988281 10.300781 4.675781 10.65625 4.28125 C 11.007812 3.894531 11.1875 3.46875 11.1875 3 C 11.1875 2.1875 10.796875 1.625 10.015625 1.3125 C 9.242188 1.007812 8.097656 0.835938 6.578125 0.796875 C 5.566406 0.765625 4.742188 0.695312 4.109375 0.59375 C 3.671875 0.882812 3.332031 1.238281 3.09375 1.65625 C 2.851562 2.070312 2.734375 2.507812 2.734375 2.96875 C 2.734375 3.757812 3.101562 4.390625 3.84375 4.859375 C 4.59375 5.328125 5.582031 5.5625 6.8125 5.5625 Z M 6.8125 5.5625 "/></g></g><g style="fill:#faf3dd;fill-opacity:1;"><g transform="translate(253.459555, 24.558341)"><path style="stroke:none" d=""/></g></g><g style="fill:#faf3dd;fill-opacity:1;"><g transform="translate(260.728476, 24.558341)"><path style="stroke:none" d="M 4.421875 0.390625 C 3.242188 0.390625 2.347656 0.125 1.734375 -0.40625 C 1.117188 -0.9375 0.8125 -1.625 0.8125 -2.46875 C 0.8125 -3.394531 1.179688 -4.175781 1.921875 -4.8125 C 2.671875 -5.457031 3.609375 -5.9375 4.734375 -6.25 C 5.867188 -6.5625 7.003906 -6.710938 8.140625 -6.703125 L 8.140625 -8.1875 C 8.140625 -9.226562 7.984375 -10.039062 7.671875 -10.625 C 7.367188 -11.207031 6.722656 -11.5 5.734375 -11.5 C 5.234375 -11.5 4.757812 -11.394531 4.3125 -11.1875 C 3.863281 -10.976562 3.539062 -10.664062 3.34375 -10.25 C 3.539062 -10.019531 3.640625 -9.71875 3.640625 -9.34375 C 3.640625 -9.09375 3.550781 -8.859375 3.375 -8.640625 C 3.207031 -8.429688 2.953125 -8.328125 2.609375 -8.328125 C 2.273438 -8.328125 2.007812 -8.429688 1.8125 -8.640625 C 1.625 -8.859375 1.53125 -9.144531 1.53125 -9.5 C 1.53125 -10.03125 1.734375 -10.515625 2.140625 -10.953125 C 2.554688 -11.390625 3.125 -11.738281 3.84375 -12 C 4.570312 -12.257812 5.382812 -12.390625 6.28125 -12.390625 C 7.625 -12.390625 8.613281 -12.03125 9.25 -11.3125 C 9.894531 -10.601562 10.210938 -9.476562 10.203125 -7.9375 L 10.171875 -2.546875 C 10.171875 -2.035156 10.140625 -1.488281 10.078125 -0.90625 L 11.78125 -1.015625 L 11.78125 0 L 8.359375 0 C 8.304688 -0.238281 8.25 -0.695312 8.1875 -1.375 C 7.019531 -0.195312 5.765625 0.390625 4.421875 0.390625 Z M 4.96875 -0.984375 C 5.570312 -0.984375 6.125 -1.097656 6.625 -1.328125 C 7.125 -1.566406 7.628906 -1.925781 8.140625 -2.40625 C 8.117188 -2.644531 8.109375 -3.050781 8.109375 -3.625 L 8.140625 -5.875 C 6.828125 -5.832031 5.65625 -5.566406 4.625 -5.078125 C 3.601562 -4.585938 3.09375 -3.835938 3.09375 -2.828125 C 3.09375 -2.234375 3.269531 -1.773438 3.625 -1.453125 C 3.976562 -1.140625 4.425781 -0.984375 4.96875 -0.984375 Z M 4.96875 -0.984375 "/></g></g><g style="fill:#faf3dd;fill-opacity:1;"><g transform="translate(274.066381, 24.558341)"><path style="stroke:none" d="M 1.0625 -0.71875 C 1.519531 -0.71875 1.847656 -0.832031 2.046875 -1.0625 C 2.253906 -1.300781 2.375 -1.597656 2.40625 -1.953125 C 2.445312 -2.316406 2.46875 -2.878906 2.46875 -3.640625 L 2.46875 -9.125 C 2.46875 -9.789062 2.5 -10.3125 2.5625 -10.6875 L 0.859375 -10.609375 L 0.859375 -11.59375 L 1.609375 -11.59375 C 2.210938 -11.59375 2.648438 -11.644531 2.921875 -11.75 C 3.203125 -11.851562 3.460938 -12.015625 3.703125 -12.234375 L 4.390625 -12.234375 C 4.453125 -11.609375 4.492188 -10.816406 4.515625 -9.859375 C 4.910156 -10.515625 5.476562 -11.097656 6.21875 -11.609375 C 6.96875 -12.128906 7.742188 -12.390625 8.546875 -12.390625 C 9.023438 -12.390625 9.421875 -12.257812 9.734375 -12 C 10.054688 -11.738281 10.21875 -11.363281 10.21875 -10.875 C 10.21875 -10.613281 10.117188 -10.351562 9.921875 -10.09375 C 9.722656 -9.84375 9.441406 -9.71875 9.078125 -9.71875 C 8.722656 -9.71875 8.429688 -9.847656 8.203125 -10.109375 C 7.984375 -10.378906 7.894531 -10.695312 7.9375 -11.0625 C 7.332031 -11.082031 6.722656 -10.847656 6.109375 -10.359375 C 5.492188 -9.878906 4.96875 -9.242188 4.53125 -8.453125 L 4.5625 -2.546875 C 4.5625 -1.828125 4.53125 -1.28125 4.46875 -0.90625 L 5.96875 -0.984375 L 5.96875 0 L 1.0625 0 Z M 1.0625 -0.71875 "/></g></g><g style="fill:#faf3dd;fill-opacity:1;"><g transform="translate(285.413289, 24.558341)"><path style="stroke:none" d="M 5.5625 0.390625 C 3.375 0.390625 2.285156 -1.082031 2.296875 -4.03125 L 2.359375 -10.984375 L 0.5 -10.96875 L 0.5 -12 C 1.269531 -12.019531 1.921875 -12.367188 2.453125 -13.046875 C 2.992188 -13.722656 3.390625 -14.492188 3.640625 -15.359375 L 4.46875 -15.359375 L 4.46875 -12 L 8.5 -12 L 8.5 -11.0625 L 4.46875 -11.015625 C 4.445312 -8.566406 4.429688 -6.867188 4.421875 -5.921875 C 4.421875 -4.984375 4.421875 -4.457031 4.421875 -4.34375 C 4.421875 -3.207031 4.554688 -2.363281 4.828125 -1.8125 C 5.097656 -1.257812 5.566406 -0.984375 6.234375 -0.984375 C 6.648438 -0.984375 7.0625 -1.109375 7.46875 -1.359375 C 7.882812 -1.617188 8.242188 -1.972656 8.546875 -2.421875 L 9.1875 -1.890625 C 8.5625 -0.960938 7.945312 -0.347656 7.34375 -0.046875 C 6.738281 0.242188 6.144531 0.390625 5.5625 0.390625 Z M 5.5625 0.390625 "/></g></g><g style="fill:#faf3dd;fill-opacity:1;"><g transform="translate(295.656711, 24.558341)"><path style="stroke:none" d="M 3.4375 -14.609375 C 3.09375 -14.609375 2.789062 -14.75 2.53125 -15.03125 C 2.28125 -15.3125 2.15625 -15.644531 2.15625 -16.03125 C 2.15625 -16.414062 2.285156 -16.75 2.546875 -17.03125 C 2.816406 -17.320312 3.117188 -17.46875 3.453125 -17.46875 C 3.828125 -17.46875 4.132812 -17.328125 4.375 -17.046875 C 4.625 -16.765625 4.75 -16.425781 4.75 -16.03125 C 4.75 -15.644531 4.613281 -15.3125 4.34375 -15.03125 C 4.082031 -14.75 3.78125 -14.609375 3.4375 -14.609375 Z M 1.0625 -0.71875 C 1.519531 -0.71875 1.847656 -0.832031 2.046875 -1.0625 C 2.253906 -1.300781 2.375 -1.597656 2.40625 -1.953125 C 2.445312 -2.316406 2.46875 -2.878906 2.46875 -3.640625 L 2.46875 -9.125 C 2.46875 -9.582031 2.5 -10.101562 2.5625 -10.6875 L 0.859375 -10.578125 L 0.859375 -11.59375 C 1.804688 -11.59375 2.484375 -11.644531 2.890625 -11.75 C 3.296875 -11.863281 3.613281 -12.023438 3.84375 -12.234375 L 4.53125 -12.234375 L 4.53125 -2.546875 C 4.53125 -1.828125 4.5 -1.28125 4.4375 -0.90625 L 5.953125 -0.984375 L 5.953125 0 L 1.0625 0 Z M 1.0625 -0.71875 "/></g></g><g style="fill:#faf3dd;fill-opacity:1;"><g transform="translate(303.357395, 24.558341)"><path style="stroke:none" d="M 5.96875 0.390625 C 5.21875 0.390625 4.53125 0.285156 3.90625 0.078125 C 3.28125 -0.117188 2.742188 -0.367188 2.296875 -0.671875 L 2.40625 0.171875 L 1.390625 0.171875 L 1.25 -3.953125 L 1.984375 -3.953125 C 2.023438 -3.296875 2.207031 -2.710938 2.53125 -2.203125 C 2.863281 -1.691406 3.296875 -1.285156 3.828125 -0.984375 C 4.359375 -0.691406 4.929688 -0.546875 5.546875 -0.546875 C 6.234375 -0.546875 6.84375 -0.707031 7.375 -1.03125 C 7.914062 -1.363281 8.1875 -1.835938 8.1875 -2.453125 C 8.1875 -2.898438 8.050781 -3.273438 7.78125 -3.578125 C 7.519531 -3.878906 7.191406 -4.128906 6.796875 -4.328125 C 6.410156 -4.523438 5.863281 -4.765625 5.15625 -5.046875 C 4.3125 -5.359375 3.632812 -5.65625 3.125 -5.9375 C 2.613281 -6.21875 2.171875 -6.597656 1.796875 -7.078125 C 1.429688 -7.554688 1.25 -8.164062 1.25 -8.90625 C 1.25 -9.4375 1.375 -9.960938 1.625 -10.484375 C 1.882812 -11.015625 2.316406 -11.460938 2.921875 -11.828125 C 3.535156 -12.203125 4.347656 -12.390625 5.359375 -12.390625 C 5.847656 -12.390625 6.351562 -12.304688 6.875 -12.140625 C 7.394531 -11.984375 7.878906 -11.722656 8.328125 -11.359375 L 8.28125 -12.265625 L 9.28125 -12.265625 L 9.28125 -8.0625 L 8.515625 -8.0625 C 8.472656 -8.988281 8.191406 -9.789062 7.671875 -10.46875 C 7.148438 -11.15625 6.414062 -11.5 5.46875 -11.5 C 4.75 -11.5 4.175781 -11.316406 3.75 -10.953125 C 3.332031 -10.597656 3.125 -10.171875 3.125 -9.671875 C 3.125 -9.203125 3.257812 -8.804688 3.53125 -8.484375 C 3.8125 -8.171875 4.160156 -7.898438 4.578125 -7.671875 C 4.992188 -7.453125 5.554688 -7.207031 6.265625 -6.9375 C 7.097656 -6.601562 7.769531 -6.289062 8.28125 -6 C 8.789062 -5.707031 9.222656 -5.328125 9.578125 -4.859375 C 9.941406 -4.390625 10.125 -3.816406 10.125 -3.140625 C 10.125 -2.367188 9.925781 -1.71875 9.53125 -1.1875 C 9.144531 -0.664062 8.632812 -0.269531 8 0 C 7.375 0.257812 6.695312 0.390625 5.96875 0.390625 Z M 5.96875 0.390625 "/></g></g><g style="fill:#faf3dd;fill-opacity:1;"><g transform="translate(315.423953, 24.558341)"><path style="stroke:none" d="M 5.5625 0.390625 C 3.375 0.390625 2.285156 -1.082031 2.296875 -4.03125 L 2.359375 -10.984375 L 0.5 -10.96875 L 0.5 -12 C 1.269531 -12.019531 1.921875 -12.367188 2.453125 -13.046875 C 2.992188 -13.722656 3.390625 -14.492188 3.640625 -15.359375 L 4.46875 -15.359375 L 4.46875 -12 L 8.5 -12 L 8.5 -11.0625 L 4.46875 -11.015625 C 4.445312 -8.566406 4.429688 -6.867188 4.421875 -5.921875 C 4.421875 -4.984375 4.421875 -4.457031 4.421875 -4.34375 C 4.421875 -3.207031 4.554688 -2.363281 4.828125 -1.8125 C 5.097656 -1.257812 5.566406 -0.984375 6.234375 -0.984375 C 6.648438 -0.984375 7.0625 -1.109375 7.46875 -1.359375 C 7.882812 -1.617188 8.242188 -1.972656 8.546875 -2.421875 L 9.1875 -1.890625 C 8.5625 -0.960938 7.945312 -0.347656 7.34375 -0.046875 C 6.738281 0.242188 6.144531 0.390625 5.5625 0.390625 Z M 5.5625 0.390625 "/></g></g><g style="fill:#faf3dd;fill-opacity:1;"><g transform="translate(325.667375, 24.558341)"><path style="stroke:none" d="M 5.96875 0.390625 C 5.21875 0.390625 4.53125 0.285156 3.90625 0.078125 C 3.28125 -0.117188 2.742188 -0.367188 2.296875 -0.671875 L 2.40625 0.171875 L 1.390625 0.171875 L 1.25 -3.953125 L 1.984375 -3.953125 C 2.023438 -3.296875 2.207031 -2.710938 2.53125 -2.203125 C 2.863281 -1.691406 3.296875 -1.285156 3.828125 -0.984375 C 4.359375 -0.691406 4.929688 -0.546875 5.546875 -0.546875 C 6.234375 -0.546875 6.84375 -0.707031 7.375 -1.03125 C 7.914062 -1.363281 8.1875 -1.835938 8.1875 -2.453125 C 8.1875 -2.898438 8.050781 -3.273438 7.78125 -3.578125 C 7.519531 -3.878906 7.191406 -4.128906 6.796875 -4.328125 C 6.410156 -4.523438 5.863281 -4.765625 5.15625 -5.046875 C 4.3125 -5.359375 3.632812 -5.65625 3.125 -5.9375 C 2.613281 -6.21875 2.171875 -6.597656 1.796875 -7.078125 C 1.429688 -7.554688 1.25 -8.164062 1.25 -8.90625 C 1.25 -9.4375 1.375 -9.960938 1.625 -10.484375 C 1.882812 -11.015625 2.316406 -11.460938 2.921875 -11.828125 C 3.535156 -12.203125 4.347656 -12.390625 5.359375 -12.390625 C 5.847656 -12.390625 6.351562 -12.304688 6.875 -12.140625 C 7.394531 -11.984375 7.878906 -11.722656 8.328125 -11.359375 L 8.28125 -12.265625 L 9.28125 -12.265625 L 9.28125 -8.0625 L 8.515625 -8.0625 C 8.472656 -8.988281 8.191406 -9.789062 7.671875 -10.46875 C 7.148438 -11.15625 6.414062 -11.5 5.46875 -11.5 C 4.75 -11.5 4.175781 -11.316406 3.75 -10.953125 C 3.332031 -10.597656 3.125 -10.171875 3.125 -9.671875 C 3.125 -9.203125 3.257812 -8.804688 3.53125 -8.484375 C 3.8125 -8.171875 4.160156 -7.898438 4.578125 -7.671875 C 4.992188 -7.453125 5.554688 -7.207031 6.265625 -6.9375 C 7.097656 -6.601562 7.769531 -6.289062 8.28125 -6 C 8.789062 -5.707031 9.222656 -5.328125 9.578125 -4.859375 C 9.941406 -4.390625 10.125 -3.816406 10.125 -3.140625 C 10.125 -2.367188 9.925781 -1.71875 9.53125 -1.1875 C 9.144531 -0.664062 8.632812 -0.269531 8 0 C 7.375 0.257812 6.695312 0.390625 5.96875 0.390625 Z M 5.96875 0.390625 "/></g></g><g style="fill:#fcf6e8;fill-opacity:1;"><g transform="translate(47.730731, 56.808339)"><path style="stroke:none" d="M 6.859375 0.390625 C 5.753906 0.390625 4.757812 0.128906 3.875 -0.390625 C 2.988281 -0.910156 2.289062 -1.65625 1.78125 -2.625 C 1.269531 -3.59375 1.015625 -4.707031 1.015625 -5.96875 C 1.015625 -7.09375 1.269531 -8.144531 1.78125 -9.125 C 2.289062 -10.113281 3.003906 -10.90625 3.921875 -11.5 C 4.835938 -12.09375 5.882812 -12.390625 7.0625 -12.390625 C 7.96875 -12.390625 8.785156 -12.1875 9.515625 -11.78125 C 10.253906 -11.382812 10.835938 -10.789062 11.265625 -10 C 11.703125 -9.207031 11.921875 -8.234375 11.921875 -7.078125 L 3.484375 -6.9375 C 3.460938 -5.019531 3.773438 -3.523438 4.421875 -2.453125 C 5.078125 -1.378906 6.082031 -0.84375 7.4375 -0.84375 C 8.175781 -0.84375 8.929688 -1.03125 9.703125 -1.40625 C 10.484375 -1.789062 11.082031 -2.265625 11.5 -2.828125 L 12.078125 -2.359375 C 11.460938 -1.421875 10.671875 -0.726562 9.703125 -0.28125 C 8.734375 0.164062 7.785156 0.390625 6.859375 0.390625 Z M 9.671875 -7.9375 C 9.671875 -8.90625 9.453125 -9.734375 9.015625 -10.421875 C 8.585938 -11.109375 7.941406 -11.453125 7.078125 -11.453125 C 5.097656 -11.453125 3.921875 -10.28125 3.546875 -7.9375 Z M 9.671875 -7.9375 "/></g></g><g style="fill:#fcf6e8;fill-opacity:1;"><g transform="translate(61.692351, 56.808339)"><path style="stroke:none" d="M 1.0625 -0.71875 C 1.519531 -0.71875 1.847656 -0.832031 2.046875 -1.0625 C 2.253906 -1.300781 2.375 -1.597656 2.40625 -1.953125 C 2.445312 -2.316406 2.46875 -2.878906 2.46875 -3.640625 L 2.46875 -9.125 C 2.46875 -9.789062 2.5 -10.3125 2.5625 -10.6875 L 0.859375 -10.578125 L 0.859375 -11.59375 C 1.804688 -11.59375 2.457031 -11.644531 2.8125 -11.75 C 3.164062 -11.851562 3.460938 -12.015625 3.703125 -12.234375 L 4.390625 -12.234375 C 4.421875 -11.992188 4.453125 -11.570312 4.484375 -10.96875 C 4.984375 -11.394531 5.546875 -11.738281 6.171875 -12 C 6.796875 -12.257812 7.410156 -12.390625 8.015625 -12.390625 C 8.796875 -12.390625 9.460938 -12.25 10.015625 -11.96875 C 10.566406 -11.6875 10.992188 -11.289062 11.296875 -10.78125 C 11.878906 -11.238281 12.523438 -11.617188 13.234375 -11.921875 C 13.941406 -12.234375 14.625 -12.390625 15.28125 -12.390625 C 16.695312 -12.390625 17.726562 -11.957031 18.375 -11.09375 C 19.019531 -10.238281 19.328125 -8.878906 19.296875 -7.015625 L 19.265625 -2.546875 C 19.265625 -1.828125 19.234375 -1.28125 19.171875 -0.90625 L 20.6875 -0.984375 L 20.6875 0 L 15.796875 0 L 15.796875 -0.71875 C 16.253906 -0.71875 16.582031 -0.832031 16.78125 -1.0625 C 16.988281 -1.300781 17.109375 -1.597656 17.140625 -1.953125 C 17.179688 -2.316406 17.203125 -2.878906 17.203125 -3.640625 L 17.203125 -7.015625 C 17.203125 -8.390625 16.984375 -9.414062 16.546875 -10.09375 C 16.117188 -10.769531 15.441406 -11.109375 14.515625 -11.109375 C 14.023438 -11.109375 13.523438 -11 13.015625 -10.78125 C 12.515625 -10.570312 12.070312 -10.289062 11.6875 -9.9375 C 11.84375 -9.4375 11.921875 -8.851562 11.921875 -8.1875 L 11.875 -2.546875 C 11.875 -1.828125 11.84375 -1.28125 11.78125 -0.90625 L 13.296875 -0.984375 L 13.296875 0 L 8.40625 0 L 8.40625 -0.71875 C 8.863281 -0.71875 9.191406 -0.832031 9.390625 -1.0625 C 9.597656 -1.300781 9.71875 -1.59375 9.75 -1.9375 C 9.78125 -2.28125 9.800781 -2.847656 9.8125 -3.640625 L 9.84375 -7.015625 C 9.851562 -8.398438 9.648438 -9.4375 9.234375 -10.125 C 8.816406 -10.8125 8.15625 -11.15625 7.25 -11.15625 C 6.75 -11.15625 6.253906 -11.050781 5.765625 -10.84375 C 5.285156 -10.632812 4.867188 -10.359375 4.515625 -10.015625 L 4.53125 -8.71875 L 4.53125 -2.546875 C 4.53125 -1.828125 4.5 -1.28125 4.4375 -0.90625 L 5.953125 -0.984375 L 5.953125 0 L 1.0625 0 Z M 1.0625 -0.71875 "/></g></g><g style="fill:#fcf6e8;fill-opacity:1;"><g transform="translate(84.097833, 56.808339)"><path style="stroke:none" d="M 0.84375 5.40625 C 1.300781 5.40625 1.628906 5.285156 1.828125 5.046875 C 2.035156 4.816406 2.15625 4.53125 2.1875 4.1875 C 2.21875 3.84375 2.238281 3.269531 2.25 2.46875 L 2.296875 -9.125 C 2.296875 -9.789062 2.332031 -10.3125 2.40625 -10.6875 L 0.703125 -10.578125 L 0.703125 -11.59375 C 1.640625 -11.59375 2.285156 -11.644531 2.640625 -11.75 C 2.992188 -11.851562 3.28125 -12.015625 3.5 -12.234375 L 4.21875 -12.234375 C 4.28125 -11.453125 4.3125 -11.019531 4.3125 -10.9375 C 4.800781 -11.375 5.378906 -11.722656 6.046875 -11.984375 C 6.722656 -12.253906 7.390625 -12.390625 8.046875 -12.390625 C 8.984375 -12.390625 9.851562 -12.144531 10.65625 -11.65625 C 11.457031 -11.164062 12.097656 -10.46875 12.578125 -9.5625 C 13.066406 -8.65625 13.3125 -7.613281 13.3125 -6.4375 C 13.3125 -5.101562 13.03125 -3.921875 12.46875 -2.890625 C 11.914062 -1.859375 11.171875 -1.050781 10.234375 -0.46875 C 9.296875 0.101562 8.285156 0.390625 7.203125 0.390625 C 6.097656 0.390625 5.132812 0.125 4.3125 -0.40625 L 4.3125 3.578125 C 4.3125 4.296875 4.28125 4.835938 4.21875 5.203125 L 5.734375 5.140625 L 5.734375 6.125 L 0.84375 6.125 Z M 7.15625 -0.578125 C 7.90625 -0.578125 8.554688 -0.804688 9.109375 -1.265625 C 9.660156 -1.734375 10.085938 -2.382812 10.390625 -3.21875 C 10.691406 -4.050781 10.84375 -4.992188 10.84375 -6.046875 C 10.84375 -7.484375 10.535156 -8.703125 9.921875 -9.703125 C 9.304688 -10.703125 8.390625 -11.203125 7.171875 -11.203125 C 6.648438 -11.203125 6.140625 -11.070312 5.640625 -10.8125 C 5.140625 -10.5625 4.707031 -10.242188 4.34375 -9.859375 C 4.363281 -9.753906 4.375 -9.269531 4.375 -8.40625 L 4.34375 -1.515625 C 5.15625 -0.890625 6.09375 -0.578125 7.15625 -0.578125 Z M 7.15625 -0.578125 "/></g></g><g style="fill:#fcf6e8;fill-opacity:1;"><g transform="translate(99.378807, 56.808339)"><path style="stroke:none" d="M 7.015625 0.390625 C 5.910156 0.390625 4.894531 0.128906 3.96875 -0.390625 C 3.050781 -0.910156 2.320312 -1.632812 1.78125 -2.5625 C 1.25 -3.488281 0.984375 -4.539062 0.984375 -5.71875 C 0.984375 -6.957031 1.242188 -8.082031 1.765625 -9.09375 C 2.296875 -10.113281 3.019531 -10.914062 3.9375 -11.5 C 4.863281 -12.09375 5.890625 -12.390625 7.015625 -12.390625 C 8.109375 -12.390625 9.117188 -12.117188 10.046875 -11.578125 C 10.984375 -11.046875 11.71875 -10.3125 12.25 -9.375 C 12.789062 -8.445312 13.0625 -7.414062 13.0625 -6.28125 C 13.0625 -5.070312 12.789062 -3.953125 12.25 -2.921875 C 11.71875 -1.898438 10.988281 -1.09375 10.0625 -0.5 C 9.144531 0.09375 8.128906 0.390625 7.015625 0.390625 Z M 7.203125 -0.578125 C 8.367188 -0.578125 9.226562 -1.054688 9.78125 -2.015625 C 10.332031 -2.972656 10.609375 -4.164062 10.609375 -5.59375 C 10.609375 -7.207031 10.304688 -8.585938 9.703125 -9.734375 C 9.109375 -10.890625 8.210938 -11.46875 7.015625 -11.46875 C 5.828125 -11.46875 4.929688 -10.976562 4.328125 -10 C 3.734375 -9.03125 3.4375 -7.832031 3.4375 -6.40625 C 3.4375 -5.382812 3.570312 -4.425781 3.84375 -3.53125 C 4.125 -2.644531 4.546875 -1.929688 5.109375 -1.390625 C 5.679688 -0.847656 6.378906 -0.578125 7.203125 -0.578125 Z M 7.203125 -0.578125 "/></g></g><g style="fill:#fcf6e8;fill-opacity:1;"><g transform="translate(114.371917, 56.808339)"><path style="stroke:none" d="M 2.046875 -9.140625 C 1.734375 -10.003906 1.523438 -10.65625 1.421875 -11.09375 L 0.140625 -11.015625 L 0.140625 -12 L 5.234375 -12 L 5.234375 -11.28125 C 4.421875 -11.257812 4.015625 -10.890625 4.015625 -10.171875 C 4.015625 -9.804688 4.113281 -9.3125 4.3125 -8.6875 L 6.1875 -3 L 6.90625 -5.140625 C 7.90625 -8.046875 8.675781 -10.332031 9.21875 -12 L 10.203125 -12 L 13.390625 -2.828125 L 15.703125 -9.484375 C 15.972656 -10.296875 16.210938 -10.832031 16.421875 -11.09375 L 15.03125 -11.015625 L 15.03125 -12 L 19.203125 -12 L 19.203125 -11.28125 C 18.671875 -11.25 18.253906 -11.15625 17.953125 -11 C 17.648438 -10.851562 17.414062 -10.65625 17.25 -10.40625 C 17.09375 -10.15625 16.9375 -9.816406 16.78125 -9.390625 L 13.3125 0.078125 L 12.359375 0.078125 L 9.21875 -9 L 6.09375 0.078125 L 5.1875 0.078125 Z M 2.046875 -9.140625 "/></g></g><g style="fill:#fcf6e8;fill-opacity:1;"><g transform="translate(134.546487, 56.808339)"><path style="stroke:none" d="M 6.859375 0.390625 C 5.753906 0.390625 4.757812 0.128906 3.875 -0.390625 C 2.988281 -0.910156 2.289062 -1.65625 1.78125 -2.625 C 1.269531 -3.59375 1.015625 -4.707031 1.015625 -5.96875 C 1.015625 -7.09375 1.269531 -8.144531 1.78125 -9.125 C 2.289062 -10.113281 3.003906 -10.90625 3.921875 -11.5 C 4.835938 -12.09375 5.882812 -12.390625 7.0625 -12.390625 C 7.96875 -12.390625 8.785156 -12.1875 9.515625 -11.78125 C 10.253906 -11.382812 10.835938 -10.789062 11.265625 -10 C 11.703125 -9.207031 11.921875 -8.234375 11.921875 -7.078125 L 3.484375 -6.9375 C 3.460938 -5.019531 3.773438 -3.523438 4.421875 -2.453125 C 5.078125 -1.378906 6.082031 -0.84375 7.4375 -0.84375 C 8.175781 -0.84375 8.929688 -1.03125 9.703125 -1.40625 C 10.484375 -1.789062 11.082031 -2.265625 11.5 -2.828125 L 12.078125 -2.359375 C 11.460938 -1.421875 10.671875 -0.726562 9.703125 -0.28125 C 8.734375 0.164062 7.785156 0.390625 6.859375 0.390625 Z M 9.671875 -7.9375 C 9.671875 -8.90625 9.453125 -9.734375 9.015625 -10.421875 C 8.585938 -11.109375 7.941406 -11.453125 7.078125 -11.453125 C 5.097656 -11.453125 3.921875 -10.28125 3.546875 -7.9375 Z M 9.671875 -7.9375 "/></g></g><g style="fill:#fcf6e8;fill-opacity:1;"><g transform="translate(148.508107, 56.808339)"><path style="stroke:none" d="M 1.0625 -0.71875 C 1.519531 -0.71875 1.847656 -0.832031 2.046875 -1.0625 C 2.253906 -1.300781 2.375 -1.597656 2.40625 -1.953125 C 2.445312 -2.316406 2.46875 -2.878906 2.46875 -3.640625 L 2.46875 -9.125 C 2.46875 -9.789062 2.5 -10.3125 2.5625 -10.6875 L 0.859375 -10.609375 L 0.859375 -11.59375 L 1.609375 -11.59375 C 2.210938 -11.59375 2.648438 -11.644531 2.921875 -11.75 C 3.203125 -11.851562 3.460938 -12.015625 3.703125 -12.234375 L 4.390625 -12.234375 C 4.453125 -11.609375 4.492188 -10.816406 4.515625 -9.859375 C 4.910156 -10.515625 5.476562 -11.097656 6.21875 -11.609375 C 6.96875 -12.128906 7.742188 -12.390625 8.546875 -12.390625 C 9.023438 -12.390625 9.421875 -12.257812 9.734375 -12 C 10.054688 -11.738281 10.21875 -11.363281 10.21875 -10.875 C 10.21875 -10.613281 10.117188 -10.351562 9.921875 -10.09375 C 9.722656 -9.84375 9.441406 -9.71875 9.078125 -9.71875 C 8.722656 -9.71875 8.429688 -9.847656 8.203125 -10.109375 C 7.984375 -10.378906 7.894531 -10.695312 7.9375 -11.0625 C 7.332031 -11.082031 6.722656 -10.847656 6.109375 -10.359375 C 5.492188 -9.878906 4.96875 -9.242188 4.53125 -8.453125 L 4.5625 -2.546875 C 4.5625 -1.828125 4.53125 -1.28125 4.46875 -0.90625 L 5.96875 -0.984375 L 5.96875 0 L 1.0625 0 Z M 1.0625 -0.71875 "/></g></g><g style="fill:#fcf6e8;fill-opacity:1;"><g transform="translate(159.855003, 56.808339)"><path style="stroke:none" d="M 3.4375 -14.609375 C 3.09375 -14.609375 2.789062 -14.75 2.53125 -15.03125 C 2.28125 -15.3125 2.15625 -15.644531 2.15625 -16.03125 C 2.15625 -16.414062 2.285156 -16.75 2.546875 -17.03125 C 2.816406 -17.320312 3.117188 -17.46875 3.453125 -17.46875 C 3.828125 -17.46875 4.132812 -17.328125 4.375 -17.046875 C 4.625 -16.765625 4.75 -16.425781 4.75 -16.03125 C 4.75 -15.644531 4.613281 -15.3125 4.34375 -15.03125 C 4.082031 -14.75 3.78125 -14.609375 3.4375 -14.609375 Z M 1.0625 -0.71875 C 1.519531 -0.71875 1.847656 -0.832031 2.046875 -1.0625 C 2.253906 -1.300781 2.375 -1.597656 2.40625 -1.953125 C 2.445312 -2.316406 2.46875 -2.878906 2.46875 -3.640625 L 2.46875 -9.125 C 2.46875 -9.582031 2.5 -10.101562 2.5625 -10.6875 L 0.859375 -10.578125 L 0.859375 -11.59375 C 1.804688 -11.59375 2.484375 -11.644531 2.890625 -11.75 C 3.296875 -11.863281 3.613281 -12.023438 3.84375 -12.234375 L 4.53125 -12.234375 L 4.53125 -2.546875 C 4.53125 -1.828125 4.5 -1.28125 4.4375 -0.90625 L 5.953125 -0.984375 L 5.953125 0 L 1.0625 0 Z M 1.0625 -0.71875 "/></g></g><g style="fill:#fcf6e8;fill-opacity:1;"><g transform="translate(167.555686, 56.808339)"><path style="stroke:none" d="M 1.0625 -0.71875 C 1.519531 -0.71875 1.847656 -0.832031 2.046875 -1.0625 C 2.253906 -1.300781 2.375 -1.59375 2.40625 -1.9375 C 2.4375 -2.28125 2.457031 -2.847656 2.46875 -3.640625 L 2.5 -9.125 C 2.5 -9.789062 2.53125 -10.3125 2.59375 -10.6875 L 0.890625 -10.578125 L 0.890625 -11.59375 C 1.828125 -11.59375 2.472656 -11.644531 2.828125 -11.75 C 3.179688 -11.851562 3.476562 -12.015625 3.71875 -12.234375 L 4.421875 -12.234375 C 4.453125 -11.929688 4.484375 -11.445312 4.515625 -10.78125 C 5.054688 -11.257812 5.675781 -11.644531 6.375 -11.9375 C 7.070312 -12.238281 7.753906 -12.390625 8.421875 -12.390625 C 9.816406 -12.390625 10.832031 -11.953125 11.46875 -11.078125 C 12.113281 -10.203125 12.4375 -8.847656 12.4375 -7.015625 L 12.4375 -2.546875 C 12.4375 -1.828125 12.40625 -1.28125 12.34375 -0.90625 L 13.84375 -0.984375 L 13.84375 0 L 8.953125 0 L 8.953125 -0.71875 C 9.410156 -0.71875 9.738281 -0.832031 9.9375 -1.0625 C 10.144531 -1.300781 10.269531 -1.597656 10.3125 -1.953125 C 10.351562 -2.316406 10.375 -2.878906 10.375 -3.640625 L 10.375 -7.015625 C 10.351562 -8.390625 10.125 -9.421875 9.6875 -10.109375 C 9.257812 -10.804688 8.582031 -11.15625 7.65625 -11.15625 C 7.082031 -11.15625 6.507812 -11.007812 5.9375 -10.71875 C 5.375 -10.4375 4.90625 -10.0625 4.53125 -9.59375 C 4.550781 -9.425781 4.5625 -9.113281 4.5625 -8.65625 L 4.53125 -2.546875 C 4.53125 -1.828125 4.5 -1.28125 4.4375 -0.90625 L 5.953125 -0.984375 L 5.953125 0 L 1.0625 0 Z M 1.0625 -0.71875 "/></g></g><g clip-rule="nonzero" clip-path="url(#ea21557c4d)"><g style="fill:#fcf6e8;fill-opacity:1;"><g transform="translate(183.07654, 56.808339)"><path style="stroke:none" d="M 6.84375 6.5 C 5.46875 6.5 4.332031 6.347656 3.4375 6.046875 C 2.539062 5.742188 1.882812 5.34375 1.46875 4.84375 C 1.050781 4.351562 0.84375 3.828125 0.84375 3.265625 C 0.84375 2.585938 1.066406 2 1.515625 1.5 C 1.960938 1 2.472656 0.628906 3.046875 0.390625 C 2.503906 0.210938 2.09375 -0.0234375 1.8125 -0.328125 C 1.53125 -0.640625 1.390625 -1.035156 1.390625 -1.515625 C 1.390625 -2.085938 1.617188 -2.613281 2.078125 -3.09375 C 2.535156 -3.570312 3.109375 -3.867188 3.796875 -3.984375 C 3.035156 -4.335938 2.441406 -4.828125 2.015625 -5.453125 C 1.585938 -6.085938 1.375 -6.8125 1.375 -7.625 C 1.375 -8.5625 1.613281 -9.390625 2.09375 -10.109375 C 2.582031 -10.828125 3.210938 -11.382812 3.984375 -11.78125 C 4.765625 -12.1875 5.582031 -12.390625 6.4375 -12.390625 C 7.519531 -12.390625 8.535156 -12.09375 9.484375 -11.5 C 9.722656 -12.1875 10.109375 -12.742188 10.640625 -13.171875 C 11.179688 -13.609375 11.765625 -13.828125 12.390625 -13.828125 C 12.785156 -13.828125 13.09375 -13.71875 13.3125 -13.5 C 13.539062 -13.28125 13.65625 -12.988281 13.65625 -12.625 C 13.65625 -12.394531 13.570312 -12.171875 13.40625 -11.953125 C 13.238281 -11.742188 12.992188 -11.640625 12.671875 -11.640625 C 12.398438 -11.640625 12.164062 -11.71875 11.96875 -11.875 C 11.78125 -12.039062 11.660156 -12.242188 11.609375 -12.484375 C 11.234375 -12.429688 10.929688 -12.253906 10.703125 -11.953125 C 10.484375 -11.660156 10.320312 -11.304688 10.21875 -10.890625 C 10.625 -10.523438 10.9375 -10.09375 11.15625 -9.59375 C 11.382812 -9.101562 11.5 -8.585938 11.5 -8.046875 C 11.5 -7.160156 11.265625 -6.363281 10.796875 -5.65625 C 10.335938 -4.957031 9.71875 -4.40625 8.9375 -4 C 8.164062 -3.601562 7.332031 -3.40625 6.4375 -3.40625 C 6.226562 -3.40625 5.960938 -3.421875 5.640625 -3.453125 C 5.398438 -3.503906 5.128906 -3.53125 4.828125 -3.53125 C 4.296875 -3.53125 3.847656 -3.410156 3.484375 -3.171875 C 3.128906 -2.941406 2.953125 -2.660156 2.953125 -2.328125 C 2.953125 -1.859375 3.242188 -1.546875 3.828125 -1.390625 C 4.410156 -1.242188 5.40625 -1.148438 6.8125 -1.109375 C 8.78125 -1.003906 10.253906 -0.6875 11.234375 -0.15625 C 12.222656 0.375 12.71875 1.257812 12.71875 2.5 C 12.71875 3.3125 12.429688 4.019531 11.859375 4.625 C 11.296875 5.238281 10.5625 5.703125 9.65625 6.015625 C 8.75 6.335938 7.8125 6.5 6.84375 6.5 Z M 6.5 -4.265625 C 7.363281 -4.265625 8.023438 -4.566406 8.484375 -5.171875 C 8.941406 -5.785156 9.171875 -6.582031 9.171875 -7.5625 C 9.171875 -8.675781 8.925781 -9.617188 8.4375 -10.390625 C 7.945312 -11.160156 7.265625 -11.546875 6.390625 -11.546875 C 5.535156 -11.546875 4.867188 -11.226562 4.390625 -10.59375 C 3.910156 -9.957031 3.671875 -9.144531 3.671875 -8.15625 C 3.671875 -6.988281 3.921875 -6.046875 4.421875 -5.328125 C 4.929688 -4.617188 5.625 -4.265625 6.5 -4.265625 Z M 6.8125 5.5625 C 7.695312 5.5625 8.46875 5.445312 9.125 5.21875 C 9.789062 4.988281 10.300781 4.675781 10.65625 4.28125 C 11.007812 3.894531 11.1875 3.46875 11.1875 3 C 11.1875 2.1875 10.796875 1.625 10.015625 1.3125 C 9.242188 1.007812 8.097656 0.835938 6.578125 0.796875 C 5.566406 0.765625 4.742188 0.695312 4.109375 0.59375 C 3.671875 0.882812 3.332031 1.238281 3.09375 1.65625 C 2.851562 2.070312 2.734375 2.507812 2.734375 2.96875 C 2.734375 3.757812 3.101562 4.390625 3.84375 4.859375 C 4.59375 5.328125 5.582031 5.5625 6.8125 5.5625 Z M 6.8125 5.5625 "/></g></g></g><g style="fill:#fcf6e8;fill-opacity:1;"><g transform="translate(197.302026, 56.808339)"><path style="stroke:none" d=""/></g></g><g clip-rule="nonzero" clip-path="url(#899b3fc0ea)"><g style="fill:#fcf6e8;fill-opacity:1;"><g transform="translate(204.570924, 56.808339)"><path style="stroke:none" d="M 6.84375 6.5 C 5.46875 6.5 4.332031 6.347656 3.4375 6.046875 C 2.539062 5.742188 1.882812 5.34375 1.46875 4.84375 C 1.050781 4.351562 0.84375 3.828125 0.84375 3.265625 C 0.84375 2.585938 1.066406 2 1.515625 1.5 C 1.960938 1 2.472656 0.628906 3.046875 0.390625 C 2.503906 0.210938 2.09375 -0.0234375 1.8125 -0.328125 C 1.53125 -0.640625 1.390625 -1.035156 1.390625 -1.515625 C 1.390625 -2.085938 1.617188 -2.613281 2.078125 -3.09375 C 2.535156 -3.570312 3.109375 -3.867188 3.796875 -3.984375 C 3.035156 -4.335938 2.441406 -4.828125 2.015625 -5.453125 C 1.585938 -6.085938 1.375 -6.8125 1.375 -7.625 C 1.375 -8.5625 1.613281 -9.390625 2.09375 -10.109375 C 2.582031 -10.828125 3.210938 -11.382812 3.984375 -11.78125 C 4.765625 -12.1875 5.582031 -12.390625 6.4375 -12.390625 C 7.519531 -12.390625 8.535156 -12.09375 9.484375 -11.5 C 9.722656 -12.1875 10.109375 -12.742188 10.640625 -13.171875 C 11.179688 -13.609375 11.765625 -13.828125 12.390625 -13.828125 C 12.785156 -13.828125 13.09375 -13.71875 13.3125 -13.5 C 13.539062 -13.28125 13.65625 -12.988281 13.65625 -12.625 C 13.65625 -12.394531 13.570312 -12.171875 13.40625 -11.953125 C 13.238281 -11.742188 12.992188 -11.640625 12.671875 -11.640625 C 12.398438 -11.640625 12.164062 -11.71875 11.96875 -11.875 C 11.78125 -12.039062 11.660156 -12.242188 11.609375 -12.484375 C 11.234375 -12.429688 10.929688 -12.253906 10.703125 -11.953125 C 10.484375 -11.660156 10.320312 -11.304688 10.21875 -10.890625 C 10.625 -10.523438 10.9375 -10.09375 11.15625 -9.59375 C 11.382812 -9.101562 11.5 -8.585938 11.5 -8.046875 C 11.5 -7.160156 11.265625 -6.363281 10.796875 -5.65625 C 10.335938 -4.957031 9.71875 -4.40625 8.9375 -4 C 8.164062 -3.601562 7.332031 -3.40625 6.4375 -3.40625 C 6.226562 -3.40625 5.960938 -3.421875 5.640625 -3.453125 C 5.398438 -3.503906 5.128906 -3.53125 4.828125 -3.53125 C 4.296875 -3.53125 3.847656 -3.410156 3.484375 -3.171875 C 3.128906 -2.941406 2.953125 -2.660156 2.953125 -2.328125 C 2.953125 -1.859375 3.242188 -1.546875 3.828125 -1.390625 C 4.410156 -1.242188 5.40625 -1.148438 6.8125 -1.109375 C 8.78125 -1.003906 10.253906 -0.6875 11.234375 -0.15625 C 12.222656 0.375 12.71875 1.257812 12.71875 2.5 C 12.71875 3.3125 12.429688 4.019531 11.859375 4.625 C 11.296875 5.238281 10.5625 5.703125 9.65625 6.015625 C 8.75 6.335938 7.8125 6.5 6.84375 6.5 Z M 6.5 -4.265625 C 7.363281 -4.265625 8.023438 -4.566406 8.484375 -5.171875 C 8.941406 -5.785156 9.171875 -6.582031 9.171875 -7.5625 C 9.171875 -8.675781 8.925781 -9.617188 8.4375 -10.390625 C 7.945312 -11.160156 7.265625 -11.546875 6.390625 -11.546875 C 5.535156 -11.546875 4.867188 -11.226562 4.390625 -10.59375 C 3.910156 -9.957031 3.671875 -9.144531 3.671875 -8.15625 C 3.671875 -6.988281 3.921875 -6.046875 4.421875 -5.328125 C 4.929688 -4.617188 5.625 -4.265625 6.5 -4.265625 Z M 6.8125 5.5625 C 7.695312 5.5625 8.46875 5.445312 9.125 5.21875 C 9.789062 4.988281 10.300781 4.675781 10.65625 4.28125 C 11.007812 3.894531 11.1875 3.46875 11.1875 3 C 11.1875 2.1875 10.796875 1.625 10.015625 1.3125 C 9.242188 1.007812 8.097656 0.835938 6.578125 0.796875 C 5.566406 0.765625 4.742188 0.695312 4.109375 0.59375 C 3.671875 0.882812 3.332031 1.238281 3.09375 1.65625 C 2.851562 2.070312 2.734375 2.507812 2.734375 2.96875 C 2.734375 3.757812 3.101562 4.390625 3.84375 4.859375 C 4.59375 5.328125 5.582031 5.5625 6.8125 5.5625 Z M 6.8125 5.5625 "/></g></g></g><g style="fill:#fcf6e8;fill-opacity:1;"><g transform="translate(218.79641, 56.808339)"><path style="stroke:none" d="M 1.0625 -0.71875 C 1.519531 -0.71875 1.847656 -0.832031 2.046875 -1.0625 C 2.253906 -1.300781 2.375 -1.597656 2.40625 -1.953125 C 2.445312 -2.316406 2.46875 -2.878906 2.46875 -3.640625 L 2.46875 -9.125 C 2.46875 -9.789062 2.5 -10.3125 2.5625 -10.6875 L 0.859375 -10.609375 L 0.859375 -11.59375 L 1.609375 -11.59375 C 2.210938 -11.59375 2.648438 -11.644531 2.921875 -11.75 C 3.203125 -11.851562 3.460938 -12.015625 3.703125 -12.234375 L 4.390625 -12.234375 C 4.453125 -11.609375 4.492188 -10.816406 4.515625 -9.859375 C 4.910156 -10.515625 5.476562 -11.097656 6.21875 -11.609375 C 6.96875 -12.128906 7.742188 -12.390625 8.546875 -12.390625 C 9.023438 -12.390625 9.421875 -12.257812 9.734375 -12 C 10.054688 -11.738281 10.21875 -11.363281 10.21875 -10.875 C 10.21875 -10.613281 10.117188 -10.351562 9.921875 -10.09375 C 9.722656 -9.84375 9.441406 -9.71875 9.078125 -9.71875 C 8.722656 -9.71875 8.429688 -9.847656 8.203125 -10.109375 C 7.984375 -10.378906 7.894531 -10.695312 7.9375 -11.0625 C 7.332031 -11.082031 6.722656 -10.847656 6.109375 -10.359375 C 5.492188 -9.878906 4.96875 -9.242188 4.53125 -8.453125 L 4.5625 -2.546875 C 4.5625 -1.828125 4.53125 -1.28125 4.46875 -0.90625 L 5.96875 -0.984375 L 5.96875 0 L 1.0625 0 Z M 1.0625 -0.71875 "/></g></g><g style="fill:#fcf6e8;fill-opacity:1;"><g transform="translate(230.143306, 56.808339)"><path style="stroke:none" d="M 7.015625 0.390625 C 5.910156 0.390625 4.894531 0.128906 3.96875 -0.390625 C 3.050781 -0.910156 2.320312 -1.632812 1.78125 -2.5625 C 1.25 -3.488281 0.984375 -4.539062 0.984375 -5.71875 C 0.984375 -6.957031 1.242188 -8.082031 1.765625 -9.09375 C 2.296875 -10.113281 3.019531 -10.914062 3.9375 -11.5 C 4.863281 -12.09375 5.890625 -12.390625 7.015625 -12.390625 C 8.109375 -12.390625 9.117188 -12.117188 10.046875 -11.578125 C 10.984375 -11.046875 11.71875 -10.3125 12.25 -9.375 C 12.789062 -8.445312 13.0625 -7.414062 13.0625 -6.28125 C 13.0625 -5.070312 12.789062 -3.953125 12.25 -2.921875 C 11.71875 -1.898438 10.988281 -1.09375 10.0625 -0.5 C 9.144531 0.09375 8.128906 0.390625 7.015625 0.390625 Z M 7.203125 -0.578125 C 8.367188 -0.578125 9.226562 -1.054688 9.78125 -2.015625 C 10.332031 -2.972656 10.609375 -4.164062 10.609375 -5.59375 C 10.609375 -7.207031 10.304688 -8.585938 9.703125 -9.734375 C 9.109375 -10.890625 8.210938 -11.46875 7.015625 -11.46875 C 5.828125 -11.46875 4.929688 -10.976562 4.328125 -10 C 3.734375 -9.03125 3.4375 -7.832031 3.4375 -6.40625 C 3.4375 -5.382812 3.570312 -4.425781 3.84375 -3.53125 C 4.125 -2.644531 4.546875 -1.929688 5.109375 -1.390625 C 5.679688 -0.847656 6.378906 -0.578125 7.203125 -0.578125 Z M 7.203125 -0.578125 "/></g></g><g style="fill:#fcf6e8;fill-opacity:1;"><g transform="translate(245.136404, 56.808339)"><path style="stroke:none" d="M 2.046875 -9.140625 C 1.734375 -10.003906 1.523438 -10.65625 1.421875 -11.09375 L 0.140625 -11.015625 L 0.140625 -12 L 5.234375 -12 L 5.234375 -11.28125 C 4.421875 -11.257812 4.015625 -10.890625 4.015625 -10.171875 C 4.015625 -9.804688 4.113281 -9.3125 4.3125 -8.6875 L 6.1875 -3 L 6.90625 -5.140625 C 7.90625 -8.046875 8.675781 -10.332031 9.21875 -12 L 10.203125 -12 L 13.390625 -2.828125 L 15.703125 -9.484375 C 15.972656 -10.296875 16.210938 -10.832031 16.421875 -11.09375 L 15.03125 -11.015625 L 15.03125 -12 L 19.203125 -12 L 19.203125 -11.28125 C 18.671875 -11.25 18.253906 -11.15625 17.953125 -11 C 17.648438 -10.851562 17.414062 -10.65625 17.25 -10.40625 C 17.09375 -10.15625 16.9375 -9.816406 16.78125 -9.390625 L 13.3125 0.078125 L 12.359375 0.078125 L 9.21875 -9 L 6.09375 0.078125 L 5.1875 0.078125 Z M 2.046875 -9.140625 "/></g></g><g style="fill:#fcf6e8;fill-opacity:1;"><g transform="translate(265.310987, 56.808339)"><path style="stroke:none" d="M 5.5625 0.390625 C 3.375 0.390625 2.285156 -1.082031 2.296875 -4.03125 L 2.359375 -10.984375 L 0.5 -10.96875 L 0.5 -12 C 1.269531 -12.019531 1.921875 -12.367188 2.453125 -13.046875 C 2.992188 -13.722656 3.390625 -14.492188 3.640625 -15.359375 L 4.46875 -15.359375 L 4.46875 -12 L 8.5 -12 L 8.5 -11.0625 L 4.46875 -11.015625 C 4.445312 -8.566406 4.429688 -6.867188 4.421875 -5.921875 C 4.421875 -4.984375 4.421875 -4.457031 4.421875 -4.34375 C 4.421875 -3.207031 4.554688 -2.363281 4.828125 -1.8125 C 5.097656 -1.257812 5.566406 -0.984375 6.234375 -0.984375 C 6.648438 -0.984375 7.0625 -1.109375 7.46875 -1.359375 C 7.882812 -1.617188 8.242188 -1.972656 8.546875 -2.421875 L 9.1875 -1.890625 C 8.5625 -0.960938 7.945312 -0.347656 7.34375 -0.046875 C 6.738281 0.242188 6.144531 0.390625 5.5625 0.390625 Z M 5.5625 0.390625 "/></g></g><g style="fill:#fcf6e8;fill-opacity:1;"><g transform="translate(275.554432, 56.808339)"><path style="stroke:none" d="M 0.8125 -0.71875 C 1.28125 -0.71875 1.617188 -0.832031 1.828125 -1.0625 C 2.035156 -1.300781 2.15625 -1.601562 2.1875 -1.96875 C 2.226562 -2.332031 2.25 -2.890625 2.25 -3.640625 L 2.25 -15 C 2.25 -15.601562 2.273438 -16.125 2.328125 -16.5625 L 0.625 -16.46875 L 0.625 -17.46875 C 1.582031 -17.46875 2.265625 -17.523438 2.671875 -17.640625 C 3.078125 -17.753906 3.394531 -17.914062 3.625 -18.125 L 4.3125 -18.125 L 4.3125 -10.796875 C 4.875 -11.265625 5.503906 -11.644531 6.203125 -11.9375 C 6.910156 -12.238281 7.59375 -12.390625 8.25 -12.390625 C 9.625 -12.390625 10.625 -11.957031 11.25 -11.09375 C 11.875 -10.226562 12.195312 -8.867188 12.21875 -7.015625 L 12.234375 -2.546875 C 12.234375 -1.828125 12.203125 -1.28125 12.140625 -0.90625 L 13.65625 -0.984375 L 13.65625 0 L 8.765625 0 L 8.765625 -0.71875 C 9.222656 -0.71875 9.550781 -0.832031 9.75 -1.0625 C 9.957031 -1.300781 10.078125 -1.597656 10.109375 -1.953125 C 10.148438 -2.316406 10.171875 -2.878906 10.171875 -3.640625 L 10.171875 -7.015625 C 10.171875 -8.390625 9.953125 -9.414062 9.515625 -10.09375 C 9.085938 -10.769531 8.410156 -11.109375 7.484375 -11.109375 C 6.890625 -11.109375 6.300781 -10.96875 5.71875 -10.6875 C 5.132812 -10.40625 4.664062 -10.050781 4.3125 -9.625 L 4.3125 -2.546875 C 4.3125 -1.921875 4.273438 -1.375 4.203125 -0.90625 L 5.71875 -0.984375 L 5.71875 0 L 0.8125 0 Z M 0.8125 -0.71875 "/></g></g></g><mask id="73d4a5236e"><g filter="url(#a48c498645)"><rect x="0" width="558" y="0" height="326.999992" style="fill:#000000;fill-opacity:0.86;stroke:none;"/></g></mask></g></g></svg>