<svg xmlns="http://www.w3.org/2000/svg" xmlns:xlink="http://www.w3.org/1999/xlink" width="169" zoomAndPan="magnify" viewBox="0 0 126.75 134.249994" height="179" preserveAspectRatio="xMidYMid meet" version="1.2"><defs><filter x="0%" y="0%" width="100%" filterUnits="objectBoundingBox" id="fc458488d6" height="100%"><feColorMatrix values="0 0 0 0 1 0 0 0 0 1 0 0 0 0 1 0 0 0 1 0" type="matrix" in="SourceGraphic"/></filter><clipPath id="b773e0510d"><path d="M 0.332031 0 L 122.605469 0 L 122.605469 103.03125 L 0.332031 103.03125 Z M 0.332031 0 "/></clipPath><clipPath id="2c87b4cb76"><rect x="0" width="123" y="0" height="104"/></clipPath><clipPath id="faffcc7dea"><path d="M 36 78 L 84 78 L 84 133.503906 L 36 133.503906 Z M 36 78 "/></clipPath><clipPath id="dc047f4512"><path d="M 19.476562 104.171875 L 59.65625 104.171875 L 59.65625 132.871094 L 19.476562 132.871094 Z M 19.476562 104.171875 "/></clipPath></defs><g id="474bb0d165"><g mask="url(#5e51971849)" transform="matrix(1,0,0,1,3,-0.00000000000001599)"><g clip-path="url(#2c87b4cb76)"><g clip-rule="nonzero" clip-path="url(#b773e0510d)"><path style=" stroke:none;fill-rule:nonzero;fill:#fcf6e8;fill-opacity:1;" d="M 122.011719 0.492188 C 121.714844 0.183594 121.308594 0.0117188 120.882812 0.0117188 C 95.546875 0.0117188 76.964844 6.898438 65.648438 20.480469 C 55.125 33.117188 53.457031 48.402344 53.597656 57.664062 C 51.695312 54.425781 49.429688 51.292969 46.738281 48.378906 C 36.390625 37.183594 21.714844 31.503906 3.125 31.503906 C 2.410156 31.503906 1.792969 31.984375 1.609375 32.671875 C 1.425781 33.359375 -2.730469 49.679688 7.289062 62.695312 C 15.042969 72.765625 28.992188 77.867188 48.746094 77.867188 C 49.203125 77.867188 49.636719 77.667969 49.9375 77.320312 C 50.234375 76.972656 50.363281 76.511719 50.292969 76.058594 C 50.175781 75.324219 47.164062 57.941406 20.085938 47.101562 C 19.289062 46.777344 18.367188 47.164062 18.050781 47.972656 C 17.726562 48.777344 18.121094 49.6875 18.921875 50.011719 C 39.183594 58.121094 45.109375 70.15625 46.679688 74.714844 C 29.0625 74.378906 16.660156 69.703125 9.792969 60.804688 C 2.167969 50.925781 3.683594 38.484375 4.390625 34.648438 C 21.460938 34.898438 34.925781 40.226562 44.421875 50.492188 C 62.441406 69.976562 60.242188 101.046875 60.214844 101.359375 C 60.148438 102.222656 60.792969 102.976562 61.65625 103.042969 C 61.699219 103.046875 61.742188 103.050781 61.78125 103.050781 C 62.59375 103.050781 63.277344 102.425781 63.34375 101.601562 C 63.421875 100.609375 64.703125 82.683594 57.328125 65.132812 C 56.890625 62.296875 53.90625 39.480469 68.058594 22.488281 C 78.5 9.953125 95.695312 3.453125 119.1875 3.15625 C 118.296875 12.539062 111.648438 58.859375 67.578125 59.933594 C 67.746094 54.425781 69.777344 35.0625 89.328125 23.820312 C 90.082031 23.386719 90.339844 22.429688 89.90625 21.679688 C 89.472656 20.929688 88.515625 20.671875 87.765625 21.101562 C 63.261719 35.191406 64.429688 61.34375 64.445312 61.609375 C 64.492188 62.4375 65.175781 63.089844 66.007812 63.089844 C 119.285156 63.089844 122.421875 2.257812 122.445312 1.644531 C 122.464844 1.21875 122.308594 0.800781 122.011719 0.492188 "/></g></g><mask id="5e51971849"><g filter="url(#fc458488d6)"><rect x="0" width="126.75" y="0" height="134.249994" style="fill:#000000;fill-opacity:0.97;stroke:none;"/></g></mask></g><g clip-rule="nonzero" clip-path="url(#faffcc7dea)"><path style="fill:none;stroke-width:14;stroke-linecap:round;stroke-linejoin:miter;stroke:#fcf6e8;stroke-opacity:1;stroke-miterlimit:4;" d="M 9.362804 9.172384 C 52.613208 26.837036 95.858912 26.827563 139.115648 9.138458 " transform="matrix(0.0767356,-0.221736,0.219227,0.0758672,52.298053,126.966124)"/></g><g clip-rule="nonzero" clip-path="url(#dc047f4512)"><path style=" stroke:none;fill-rule:nonzero;fill:#fcf6e8;fill-opacity:1;" d="M 39.589844 104.171875 C 50.699219 104.171875 59.703125 110.574219 59.703125 118.472656 C 59.703125 126.371094 50.699219 132.773438 39.589844 132.773438 C 28.484375 132.773438 19.480469 126.371094 19.480469 118.472656 C 19.480469 110.574219 28.484375 104.171875 39.589844 104.171875 Z M 24.734375 125.84375 C 28.285156 130.882812 37.816406 131.671875 46.023438 127.601562 C 54.230469 123.53125 58 116.144531 54.449219 111.101562 C 50.894531 106.0625 41.363281 105.273438 33.160156 109.34375 C 24.953125 113.414062 21.183594 120.800781 24.734375 125.84375 Z M 24.734375 125.84375 "/></g></g></svg>