<svg xmlns="http://www.w3.org/2000/svg" xmlns:xlink="http://www.w3.org/1999/xlink" width="269" zoomAndPan="magnify" viewBox="0 0 201.75 59.249999" height="79" preserveAspectRatio="xMidYMid meet" version="1.2"><defs><filter x="0%" y="0%" width="100%" filterUnits="objectBoundingBox" id="64928651b5" height="100%"><feColorMatrix values="0 0 0 0 1 0 0 0 0 1 0 0 0 0 1 0 0 0 1 0" type="matrix" in="SourceGraphic"/></filter><clipPath id="a63d268ff4"><path d="M 0.644531 0.59375 L 30.824219 0.59375 L 30.824219 25.945312 L 0.644531 25.945312 Z M 0.644531 0.59375 "/></clipPath><clipPath id="a7132d8840"><rect x="0" width="31" y="0" height="27"/></clipPath><clipPath id="0878b46e3a"><path d="M 173.707031 38.226562 L 183.59375 38.226562 L 183.59375 45.289062 L 173.707031 45.289062 Z M 173.707031 38.226562 "/></clipPath></defs><g id="637b59981c"><g mask="url(#507160e072)" transform="matrix(1,0,0,1,169,12)"><g clip-path="url(#a7132d8840)"><g clip-rule="nonzero" clip-path="url(#a63d268ff4)"><path style=" stroke:none;fill-rule:nonzero;fill:#5b6946;fill-opacity:1;" d="M 30.679688 0.714844 C 30.605469 0.636719 30.503906 0.59375 30.398438 0.59375 C 24.164062 0.59375 19.59375 2.289062 16.808594 5.632812 C 14.21875 8.742188 13.808594 12.503906 13.84375 14.78125 C 13.375 13.988281 12.816406 13.214844 12.15625 12.5 C 9.609375 9.742188 5.996094 8.34375 1.421875 8.34375 C 1.246094 8.34375 1.09375 8.464844 1.050781 8.632812 C 1.003906 8.800781 -0.0195312 12.816406 2.449219 16.019531 C 4.355469 18.5 7.789062 19.753906 12.648438 19.753906 C 12.761719 19.753906 12.867188 19.707031 12.941406 19.621094 C 13.015625 19.535156 13.046875 19.421875 13.03125 19.308594 C 13 19.128906 12.257812 14.851562 5.597656 12.183594 C 5.398438 12.105469 5.171875 12.199219 5.09375 12.398438 C 5.015625 12.597656 5.113281 12.820312 5.308594 12.898438 C 10.296875 14.894531 11.753906 17.855469 12.140625 18.976562 C 7.804688 18.894531 4.753906 17.746094 3.0625 15.554688 C 1.1875 13.125 1.558594 10.0625 1.734375 9.121094 C 5.933594 9.179688 9.25 10.492188 11.585938 13.019531 C 16.019531 17.8125 15.476562 25.457031 15.472656 25.535156 C 15.457031 25.746094 15.613281 25.933594 15.828125 25.949219 C 15.835938 25.949219 15.847656 25.953125 15.855469 25.953125 C 16.054688 25.953125 16.226562 25.796875 16.242188 25.59375 C 16.261719 25.351562 16.574219 20.941406 14.761719 16.621094 C 14.652344 15.921875 13.917969 10.308594 17.402344 6.125 C 19.972656 3.042969 24.203125 1.441406 29.984375 1.371094 C 29.765625 3.679688 28.128906 15.078125 17.28125 15.339844 C 17.324219 13.984375 17.824219 9.222656 22.636719 6.453125 C 22.820312 6.347656 22.882812 6.113281 22.777344 5.929688 C 22.671875 5.742188 22.4375 5.679688 22.25 5.785156 C 16.222656 9.253906 16.507812 15.6875 16.511719 15.753906 C 16.523438 15.957031 16.691406 16.117188 16.898438 16.117188 C 30.007812 16.117188 30.78125 1.148438 30.785156 0.996094 C 30.789062 0.890625 30.75 0.789062 30.679688 0.714844 "/></g></g><mask id="507160e072"><g filter="url(#64928651b5)"><rect x="0" width="201.75" y="0" height="59.249999" style="fill:#000000;fill-opacity:0.97;stroke:none;"/></g></mask></g><path style="fill:none;stroke-width:14;stroke-linecap:round;stroke-linejoin:miter;stroke:#5b6946;stroke-opacity:1;stroke-miterlimit:4;" d="M 9.381794 9.173844 C 52.585381 26.852485 95.888676 26.828513 139.099882 9.169063 " transform="matrix(0.0188831,-0.0545648,0.0539473,0.0186694,181.78497,43.836739)"/><g clip-rule="nonzero" clip-path="url(#0878b46e3a)"><path style=" stroke:none;fill-rule:nonzero;fill:#5b6946;fill-opacity:1;" d="M 178.65625 38.226562 C 181.390625 38.226562 183.605469 39.804688 183.605469 41.746094 C 183.605469 43.691406 181.390625 45.265625 178.65625 45.265625 C 175.925781 45.265625 173.710938 43.691406 173.710938 41.746094 C 173.710938 39.804688 175.925781 38.226562 178.65625 38.226562 Z M 175.003906 43.558594 C 175.875 44.800781 178.222656 44.996094 180.242188 43.992188 C 182.261719 42.992188 183.1875 41.171875 182.3125 39.933594 C 181.441406 38.691406 179.09375 38.5 177.074219 39.5 C 175.054688 40.503906 174.128906 42.320312 175.003906 43.558594 Z M 175.003906 43.558594 "/></g><g style="fill:#5b6946;fill-opacity:1;"><g transform="translate(24.777749, 39.170117)"><path style="stroke:none" d="M 5.21875 0.421875 C 3.976562 0.421875 2.671875 0.148438 1.296875 -0.390625 L 0.984375 -4.3125 L 1.5625 -4.40625 C 2.019531 -3.144531 2.554688 -2.164062 3.171875 -1.46875 C 3.796875 -0.769531 4.6875 -0.421875 5.84375 -0.421875 C 6.769531 -0.421875 7.53125 -0.679688 8.125 -1.203125 C 8.726562 -1.722656 9.03125 -2.390625 9.03125 -3.203125 C 9.03125 -3.890625 8.890625 -4.398438 8.609375 -4.734375 C 8.328125 -5.078125 7.921875 -5.347656 7.390625 -5.546875 C 6.859375 -5.742188 6.210938 -5.957031 5.453125 -6.1875 C 4.140625 -6.582031 3.140625 -7.085938 2.453125 -7.703125 C 1.773438 -8.328125 1.4375 -9.238281 1.4375 -10.4375 C 1.4375 -11.257812 1.65625 -11.992188 2.09375 -12.640625 C 2.539062 -13.296875 3.160156 -13.816406 3.953125 -14.203125 C 4.753906 -14.597656 5.6875 -14.796875 6.75 -14.796875 C 7.269531 -14.796875 7.800781 -14.742188 8.34375 -14.640625 C 8.882812 -14.535156 9.492188 -14.382812 10.171875 -14.1875 L 10.53125 -10.5625 L 10.015625 -10.46875 C 9.660156 -11.488281 9.164062 -12.316406 8.53125 -12.953125 C 7.90625 -13.597656 7.128906 -13.921875 6.203125 -13.921875 C 5.410156 -13.921875 4.757812 -13.691406 4.25 -13.234375 C 3.738281 -12.773438 3.484375 -12.222656 3.484375 -11.578125 C 3.484375 -10.941406 3.65625 -10.425781 4 -10.03125 C 4.351562 -9.644531 4.859375 -9.316406 5.515625 -9.046875 C 6.179688 -8.773438 6.960938 -8.5 7.859375 -8.21875 C 8.984375 -7.875 9.816406 -7.414062 10.359375 -6.84375 C 10.910156 -6.28125 11.1875 -5.5 11.1875 -4.5 C 11.1875 -3.582031 10.9375 -2.75 10.4375 -2 C 9.9375 -1.25 9.238281 -0.65625 8.34375 -0.21875 C 7.457031 0.207031 6.414062 0.421875 5.21875 0.421875 Z M 5.21875 0.421875 "/></g></g><g style="fill:#5b6946;fill-opacity:1;"><g transform="translate(36.504481, 39.170117)"><path style="stroke:none" d="M 7.59375 0.1875 C 7.3125 0.1875 6.953125 0.148438 6.515625 0.078125 C 6.085938 0.00390625 5.613281 -0.117188 5.09375 -0.296875 L 5.09375 3.5625 C 5.09375 4.269531 5.132812 4.828125 5.21875 5.234375 C 5.300781 5.640625 5.523438 5.96875 5.890625 6.21875 C 6.265625 6.46875 6.878906 6.710938 7.734375 6.953125 L 7.734375 7.5625 L 0.5625 7.5625 L 0.5625 6.953125 C 1.1875 6.710938 1.648438 6.488281 1.953125 6.28125 C 2.253906 6.070312 2.453125 5.757812 2.546875 5.34375 C 2.648438 4.9375 2.703125 4.34375 2.703125 3.5625 L 2.703125 -10.953125 C 2.703125 -11.804688 2.5 -12.414062 2.09375 -12.78125 C 1.695312 -13.15625 1.1875 -13.375 0.5625 -13.4375 L 0.5625 -14.046875 C 1.3125 -14.078125 2.0625 -14.15625 2.8125 -14.28125 C 3.570312 -14.414062 4.234375 -14.59375 4.796875 -14.8125 L 5.28125 -14.40625 L 5.046875 -12.875 C 5.921875 -13.425781 6.738281 -13.867188 7.5 -14.203125 C 8.257812 -14.535156 9.039062 -14.703125 9.84375 -14.703125 C 10.957031 -14.703125 11.945312 -14.410156 12.8125 -13.828125 C 13.6875 -13.242188 14.375 -12.429688 14.875 -11.390625 C 15.375 -10.359375 15.625 -9.128906 15.625 -7.703125 C 15.625 -6.523438 15.398438 -5.457031 14.953125 -4.5 C 14.503906 -3.539062 13.898438 -2.707031 13.140625 -2 C 12.378906 -1.300781 11.519531 -0.757812 10.5625 -0.375 C 9.601562 0 8.613281 0.1875 7.59375 0.1875 Z M 13.234375 -6.484375 C 13.234375 -8.640625 12.828125 -10.300781 12.015625 -11.46875 C 11.203125 -12.644531 10.128906 -13.234375 8.796875 -13.234375 C 8.234375 -13.234375 7.648438 -13.113281 7.046875 -12.875 C 6.453125 -12.632812 5.800781 -12.3125 5.09375 -11.90625 L 5.09375 -2.046875 C 5.613281 -1.660156 6.175781 -1.375 6.78125 -1.1875 C 7.382812 -1 8.015625 -0.90625 8.671875 -0.90625 C 10.128906 -0.90625 11.253906 -1.40625 12.046875 -2.40625 C 12.835938 -3.40625 13.234375 -4.765625 13.234375 -6.484375 Z M 13.234375 -6.484375 "/></g></g><g style="fill:#5b6946;fill-opacity:1;"><g transform="translate(52.490035, 39.170117)"><path style="stroke:none" d="M 9.71875 -14.734375 C 10.15625 -14.734375 10.554688 -14.609375 10.921875 -14.359375 C 11.296875 -14.109375 11.484375 -13.722656 11.484375 -13.203125 C 11.484375 -12.816406 11.378906 -12.476562 11.171875 -12.1875 C 10.960938 -11.90625 10.6875 -11.765625 10.34375 -11.765625 C 10.1875 -11.765625 10.003906 -11.835938 9.796875 -11.984375 C 9.585938 -12.128906 9.34375 -12.273438 9.0625 -12.421875 C 8.78125 -12.578125 8.429688 -12.65625 8.015625 -12.65625 C 7.753906 -12.65625 7.347656 -12.566406 6.796875 -12.390625 C 6.242188 -12.210938 5.675781 -11.863281 5.09375 -11.34375 L 5.09375 -3.984375 C 5.09375 -3.242188 5.128906 -2.664062 5.203125 -2.25 C 5.273438 -1.832031 5.453125 -1.503906 5.734375 -1.265625 C 6.015625 -1.023438 6.484375 -0.800781 7.140625 -0.59375 L 7.140625 0 L 0.5625 0 L 0.5625 -0.59375 C 1.1875 -0.800781 1.648438 -1.003906 1.953125 -1.203125 C 2.253906 -1.398438 2.453125 -1.707031 2.546875 -2.125 C 2.648438 -2.550781 2.703125 -3.171875 2.703125 -3.984375 L 2.703125 -10.953125 C 2.703125 -11.804688 2.5 -12.414062 2.09375 -12.78125 C 1.695312 -13.15625 1.1875 -13.375 0.5625 -13.4375 L 0.5625 -14.046875 C 1.3125 -14.078125 2.0625 -14.15625 2.8125 -14.28125 C 3.570312 -14.414062 4.234375 -14.59375 4.796875 -14.8125 L 5.28125 -14.40625 L 4.953125 -12.125 C 5.648438 -12.757812 6.425781 -13.351562 7.28125 -13.90625 C 8.144531 -14.457031 8.957031 -14.734375 9.71875 -14.734375 Z M 9.71875 -14.734375 "/></g></g><g style="fill:#5b6946;fill-opacity:1;"><g transform="translate(64.216768, 39.170117)"><path style="stroke:none" d="M 8.15625 0.390625 C 6.738281 0.390625 5.488281 0.0664062 4.40625 -0.578125 C 3.332031 -1.234375 2.492188 -2.125 1.890625 -3.25 C 1.285156 -4.382812 0.984375 -5.648438 0.984375 -7.046875 C 0.984375 -8.503906 1.328125 -9.816406 2.015625 -10.984375 C 2.710938 -12.160156 3.625 -13.085938 4.75 -13.765625 C 5.882812 -14.453125 7.113281 -14.796875 8.4375 -14.796875 C 9.851562 -14.796875 11.09375 -14.46875 12.15625 -13.8125 C 13.226562 -13.164062 14.0625 -12.296875 14.65625 -11.203125 C 15.257812 -10.109375 15.5625 -8.90625 15.5625 -7.59375 C 15.5625 -6.09375 15.234375 -4.738281 14.578125 -3.53125 C 13.921875 -2.332031 13.035156 -1.378906 11.921875 -0.671875 C 10.816406 0.0351562 9.5625 0.390625 8.15625 0.390625 Z M 8.8125 -0.515625 C 9.976562 -0.515625 10.957031 -0.941406 11.75 -1.796875 C 12.550781 -2.660156 12.953125 -3.910156 12.953125 -5.546875 C 12.953125 -7.210938 12.738281 -8.671875 12.3125 -9.921875 C 11.882812 -11.179688 11.296875 -12.160156 10.546875 -12.859375 C 9.796875 -13.566406 8.941406 -13.921875 7.984375 -13.921875 C 6.742188 -13.921875 5.71875 -13.472656 4.90625 -12.578125 C 4.09375 -11.691406 3.6875 -10.398438 3.6875 -8.703125 C 3.6875 -7.054688 3.898438 -5.617188 4.328125 -4.390625 C 4.765625 -3.160156 5.367188 -2.207031 6.140625 -1.53125 C 6.910156 -0.851562 7.800781 -0.515625 8.8125 -0.515625 Z M 8.8125 -0.515625 "/></g></g><g style="fill:#5b6946;fill-opacity:1;"><g transform="translate(80.142341, 39.170117)"><path style="stroke:none" d="M 14.21875 -3.9375 C 14.21875 -2.75 14.382812 -1.9375 14.71875 -1.5 C 15.0625 -1.0625 15.578125 -0.757812 16.265625 -0.59375 L 16.265625 0 L 12.359375 0 L 12.03125 -0.484375 L 12.03125 -1.859375 C 10.882812 -1.117188 9.882812 -0.578125 9.03125 -0.234375 C 8.1875 0.0976562 7.335938 0.265625 6.484375 0.265625 C 3.878906 0.265625 2.578125 -1.351562 2.578125 -4.59375 L 2.578125 -10.828125 C 2.578125 -11.609375 2.394531 -12.191406 2.03125 -12.578125 C 1.675781 -12.972656 1.148438 -13.21875 0.453125 -13.3125 L 0.453125 -13.921875 C 2.066406 -14.160156 3.414062 -14.53125 4.5 -15.03125 L 4.984375 -14.609375 L 4.984375 -6.09375 C 4.984375 -5.15625 5.035156 -4.320312 5.140625 -3.59375 C 5.253906 -2.875 5.503906 -2.3125 5.890625 -1.90625 C 6.285156 -1.507812 6.898438 -1.3125 7.734375 -1.3125 C 8.273438 -1.3125 8.882812 -1.414062 9.5625 -1.625 C 10.25 -1.84375 11 -2.210938 11.8125 -2.734375 L 11.8125 -10.6875 C 11.8125 -11.457031 11.628906 -12.035156 11.265625 -12.421875 C 10.910156 -12.816406 10.382812 -13.066406 9.6875 -13.171875 L 9.6875 -13.765625 C 11.3125 -14.003906 12.660156 -14.375 13.734375 -14.875 L 14.21875 -14.453125 Z M 14.21875 -3.9375 "/></g></g><g style="fill:#5b6946;fill-opacity:1;"><g transform="translate(96.427817, 39.170117)"><path style="stroke:none" d="M 9.515625 -1.890625 L 9.84375 -1.296875 C 7.957031 -0.148438 6.445312 0.421875 5.3125 0.421875 C 4.207031 0.421875 3.441406 0.046875 3.015625 -0.703125 C 2.585938 -1.453125 2.375 -2.585938 2.375 -4.109375 L 2.375 -13.140625 L 0.59375 -13.140625 L 0.59375 -13.734375 C 1.539062 -14.140625 2.320312 -14.632812 2.9375 -15.21875 C 3.5625 -15.8125 4.0625 -16.476562 4.4375 -17.21875 L 5.09375 -17.21875 L 4.828125 -14.015625 L 8.90625 -14.25 L 8.90625 -13.140625 L 4.765625 -13.140625 L 4.765625 -6.6875 C 4.765625 -5.289062 4.8125 -4.179688 4.90625 -3.359375 C 5.007812 -2.535156 5.222656 -1.953125 5.546875 -1.609375 C 5.867188 -1.273438 6.335938 -1.109375 6.953125 -1.109375 C 7.296875 -1.109375 7.675781 -1.164062 8.09375 -1.28125 C 8.519531 -1.40625 8.992188 -1.609375 9.515625 -1.890625 Z M 9.515625 -1.890625 "/></g></g><g style="fill:#5b6946;fill-opacity:1;"><g transform="translate(105.965152, 39.170117)"><path style="stroke:none" d="M 5.21875 0.421875 C 3.976562 0.421875 2.671875 0.148438 1.296875 -0.390625 L 0.984375 -4.3125 L 1.5625 -4.40625 C 2.019531 -3.144531 2.554688 -2.164062 3.171875 -1.46875 C 3.796875 -0.769531 4.6875 -0.421875 5.84375 -0.421875 C 6.769531 -0.421875 7.53125 -0.679688 8.125 -1.203125 C 8.726562 -1.722656 9.03125 -2.390625 9.03125 -3.203125 C 9.03125 -3.890625 8.890625 -4.398438 8.609375 -4.734375 C 8.328125 -5.078125 7.921875 -5.347656 7.390625 -5.546875 C 6.859375 -5.742188 6.210938 -5.957031 5.453125 -6.1875 C 4.140625 -6.582031 3.140625 -7.085938 2.453125 -7.703125 C 1.773438 -8.328125 1.4375 -9.238281 1.4375 -10.4375 C 1.4375 -11.257812 1.65625 -11.992188 2.09375 -12.640625 C 2.539062 -13.296875 3.160156 -13.816406 3.953125 -14.203125 C 4.753906 -14.597656 5.6875 -14.796875 6.75 -14.796875 C 7.269531 -14.796875 7.800781 -14.742188 8.34375 -14.640625 C 8.882812 -14.535156 9.492188 -14.382812 10.171875 -14.1875 L 10.53125 -10.5625 L 10.015625 -10.46875 C 9.660156 -11.488281 9.164062 -12.316406 8.53125 -12.953125 C 7.90625 -13.597656 7.128906 -13.921875 6.203125 -13.921875 C 5.410156 -13.921875 4.757812 -13.691406 4.25 -13.234375 C 3.738281 -12.773438 3.484375 -12.222656 3.484375 -11.578125 C 3.484375 -10.941406 3.65625 -10.425781 4 -10.03125 C 4.351562 -9.644531 4.859375 -9.316406 5.515625 -9.046875 C 6.179688 -8.773438 6.960938 -8.5 7.859375 -8.21875 C 8.984375 -7.875 9.816406 -7.414062 10.359375 -6.84375 C 10.910156 -6.28125 11.1875 -5.5 11.1875 -4.5 C 11.1875 -3.582031 10.9375 -2.75 10.4375 -2 C 9.9375 -1.25 9.238281 -0.65625 8.34375 -0.21875 C 7.457031 0.207031 6.414062 0.421875 5.21875 0.421875 Z M 5.21875 0.421875 "/></g></g><g style="fill:#5b6946;fill-opacity:1;"><g transform="translate(117.691889, 39.170117)"><path style="stroke:none" d="M 8.15625 0.390625 C 6.738281 0.390625 5.488281 0.0664062 4.40625 -0.578125 C 3.332031 -1.234375 2.492188 -2.125 1.890625 -3.25 C 1.285156 -4.382812 0.984375 -5.648438 0.984375 -7.046875 C 0.984375 -8.503906 1.328125 -9.816406 2.015625 -10.984375 C 2.710938 -12.160156 3.625 -13.085938 4.75 -13.765625 C 5.882812 -14.453125 7.113281 -14.796875 8.4375 -14.796875 C 9.851562 -14.796875 11.09375 -14.46875 12.15625 -13.8125 C 13.226562 -13.164062 14.0625 -12.296875 14.65625 -11.203125 C 15.257812 -10.109375 15.5625 -8.90625 15.5625 -7.59375 C 15.5625 -6.09375 15.234375 -4.738281 14.578125 -3.53125 C 13.921875 -2.332031 13.035156 -1.378906 11.921875 -0.671875 C 10.816406 0.0351562 9.5625 0.390625 8.15625 0.390625 Z M 8.8125 -0.515625 C 9.976562 -0.515625 10.957031 -0.941406 11.75 -1.796875 C 12.550781 -2.660156 12.953125 -3.910156 12.953125 -5.546875 C 12.953125 -7.210938 12.738281 -8.671875 12.3125 -9.921875 C 11.882812 -11.179688 11.296875 -12.160156 10.546875 -12.859375 C 9.796875 -13.566406 8.941406 -13.921875 7.984375 -13.921875 C 6.742188 -13.921875 5.71875 -13.472656 4.90625 -12.578125 C 4.09375 -11.691406 3.6875 -10.398438 3.6875 -8.703125 C 3.6875 -7.054688 3.898438 -5.617188 4.328125 -4.390625 C 4.765625 -3.160156 5.367188 -2.207031 6.140625 -1.53125 C 6.910156 -0.851562 7.800781 -0.515625 8.8125 -0.515625 Z M 8.8125 -0.515625 "/></g></g><g style="fill:#5b6946;fill-opacity:1;"><g transform="translate(133.617454, 39.170117)"><path style="stroke:none" d="M 14.484375 -9.9375 L 14.453125 -3.984375 C 14.453125 -3.242188 14.488281 -2.664062 14.5625 -2.25 C 14.632812 -1.832031 14.8125 -1.503906 15.09375 -1.265625 C 15.375 -1.023438 15.84375 -0.800781 16.5 -0.59375 L 16.5 0 L 9.9375 0 L 9.9375 -0.59375 C 10.550781 -0.800781 11.007812 -1.003906 11.3125 -1.203125 C 11.613281 -1.398438 11.8125 -1.707031 11.90625 -2.125 C 12.007812 -2.550781 12.0625 -3.171875 12.0625 -3.984375 L 12.0625 -8.734375 C 12.0625 -9.671875 12.003906 -10.472656 11.890625 -11.140625 C 11.785156 -11.816406 11.535156 -12.328125 11.140625 -12.671875 C 10.753906 -13.023438 10.140625 -13.203125 9.296875 -13.203125 C 8.179688 -13.203125 6.78125 -12.671875 5.09375 -11.609375 L 5.09375 -3.984375 C 5.09375 -3.242188 5.128906 -2.664062 5.203125 -2.25 C 5.273438 -1.832031 5.453125 -1.503906 5.734375 -1.265625 C 6.015625 -1.023438 6.484375 -0.800781 7.140625 -0.59375 L 7.140625 0 L 0.5625 0 L 0.5625 -0.59375 C 1.1875 -0.800781 1.648438 -1.003906 1.953125 -1.203125 C 2.253906 -1.398438 2.453125 -1.707031 2.546875 -2.125 C 2.648438 -2.550781 2.703125 -3.171875 2.703125 -3.984375 L 2.703125 -10.953125 C 2.703125 -11.804688 2.5 -12.414062 2.09375 -12.78125 C 1.695312 -13.15625 1.1875 -13.375 0.5625 -13.4375 L 0.5625 -14.046875 C 1.3125 -14.078125 2.0625 -14.15625 2.8125 -14.28125 C 3.570312 -14.414062 4.234375 -14.59375 4.796875 -14.8125 L 5.28125 -14.40625 L 5.015625 -12.421875 C 6.128906 -13.242188 7.113281 -13.84375 7.96875 -14.21875 C 8.832031 -14.601562 9.695312 -14.796875 10.5625 -14.796875 C 13.175781 -14.796875 14.484375 -13.175781 14.484375 -9.9375 Z M 14.484375 -9.9375 "/></g></g><g style="fill:#5b6946;fill-opacity:1;"><g transform="translate(149.962912, 39.170117)"><path style="stroke:none" d="M 13.59375 -15 C 13.925781 -15 14.148438 -14.882812 14.265625 -14.65625 C 14.390625 -14.425781 14.441406 -14.15625 14.421875 -13.84375 C 14.410156 -13.53125 14.332031 -13.242188 14.1875 -12.984375 L 10.828125 -13.265625 C 11.304688 -12.796875 11.679688 -12.25 11.953125 -11.625 C 12.222656 -11.007812 12.359375 -10.34375 12.359375 -9.625 C 12.359375 -8.789062 12.117188 -8.007812 11.640625 -7.28125 C 11.160156 -6.550781 10.488281 -5.953125 9.625 -5.484375 C 8.769531 -5.023438 7.78125 -4.796875 6.65625 -4.796875 C 6.394531 -4.796875 6.128906 -4.8125 5.859375 -4.84375 C 5.585938 -4.875 5.320312 -4.910156 5.0625 -4.953125 C 4.6875 -4.847656 4.363281 -4.691406 4.09375 -4.484375 C 3.820312 -4.273438 3.6875 -3.988281 3.6875 -3.625 C 3.6875 -3.25 3.898438 -2.945312 4.328125 -2.71875 C 4.765625 -2.488281 5.382812 -2.363281 6.1875 -2.34375 L 9.09375 -2.3125 C 10.75 -2.289062 11.988281 -2.054688 12.8125 -1.609375 C 13.644531 -1.160156 14.0625 -0.296875 14.0625 0.984375 C 14.0625 1.722656 13.859375 2.484375 13.453125 3.265625 C 13.046875 4.046875 12.441406 4.769531 11.640625 5.4375 C 10.835938 6.09375 9.921875 6.601562 8.890625 6.96875 C 7.859375 7.34375 6.765625 7.53125 5.609375 7.53125 C 4.648438 7.53125 3.785156 7.332031 3.015625 6.9375 C 2.242188 6.550781 1.632812 6.046875 1.1875 5.421875 C 0.738281 4.804688 0.515625 4.140625 0.515625 3.421875 C 0.515625 2.703125 0.75 2.023438 1.21875 1.390625 C 1.6875 0.765625 2.347656 0.0820312 3.203125 -0.65625 C 2.742188 -0.894531 2.410156 -1.191406 2.203125 -1.546875 C 1.992188 -1.910156 1.890625 -2.328125 1.890625 -2.796875 C 1.890625 -3.347656 2.097656 -3.84375 2.515625 -4.28125 C 2.941406 -4.726562 3.429688 -5.0625 3.984375 -5.28125 C 3.109375 -5.625 2.390625 -6.144531 1.828125 -6.84375 C 1.265625 -7.539062 0.984375 -8.378906 0.984375 -9.359375 C 0.984375 -10.335938 1.234375 -11.238281 1.734375 -12.0625 C 2.234375 -12.882812 2.925781 -13.539062 3.8125 -14.03125 C 4.707031 -14.519531 5.726562 -14.765625 6.875 -14.765625 C 7.488281 -14.765625 8.0625 -14.679688 8.59375 -14.515625 C 9.125 -14.359375 9.609375 -14.140625 10.046875 -13.859375 C 10.742188 -14.160156 11.398438 -14.425781 12.015625 -14.65625 C 12.640625 -14.882812 13.164062 -15 13.59375 -15 Z M 6.953125 -5.515625 C 7.898438 -5.597656 8.640625 -5.953125 9.171875 -6.578125 C 9.710938 -7.210938 9.984375 -8.109375 9.984375 -9.265625 C 9.984375 -10.765625 9.660156 -11.945312 9.015625 -12.8125 C 8.367188 -13.6875 7.515625 -14.085938 6.453125 -14.015625 C 5.492188 -13.929688 4.75 -13.585938 4.21875 -12.984375 C 3.6875 -12.390625 3.421875 -11.507812 3.421875 -10.34375 C 3.421875 -8.820312 3.742188 -7.625 4.390625 -6.75 C 5.046875 -5.875 5.898438 -5.460938 6.953125 -5.515625 Z M 8.515625 -0.1875 L 5.703125 -0.203125 C 5.359375 -0.203125 5.039062 -0.222656 4.75 -0.265625 C 4.457031 -0.304688 4.191406 -0.359375 3.953125 -0.421875 C 3.492188 0.140625 3.171875 0.644531 2.984375 1.09375 C 2.796875 1.539062 2.703125 2.015625 2.703125 2.515625 C 2.703125 3.660156 3.09375 4.566406 3.875 5.234375 C 4.664062 5.898438 5.703125 6.234375 6.984375 6.234375 C 8.585938 6.234375 9.847656 5.832031 10.765625 5.03125 C 11.691406 4.238281 12.15625 3.222656 12.15625 1.984375 C 12.15625 1.035156 11.84375 0.441406 11.21875 0.203125 C 10.601562 -0.0351562 9.703125 -0.164062 8.515625 -0.1875 Z M 8.515625 -0.1875 "/></g></g></g></svg>