<svg xmlns="http://www.w3.org/2000/svg" xmlns:xlink="http://www.w3.org/1999/xlink" width="42" zoomAndPan="magnify" viewBox="0 0 31.5 33.749999" height="45" preserveAspectRatio="xMidYMid meet" version="1.2"><defs><clipPath id="3edafb194d"><path d="M 0 0.140625 L 31 0.140625 L 31 26 L 0 26 Z M 0 0.140625 "/></clipPath><filter x="0%" y="0%" width="100%" filterUnits="objectBoundingBox" id="70d8cc07b3" height="100%"><feColorMatrix values="0 0 0 0 1 0 0 0 0 1 0 0 0 0 1 0 0 0 1 0" type="matrix" in="SourceGraphic"/></filter><clipPath id="6270f78a68"><path d="M 0.707031 0.140625 L 30.753906 0.140625 L 30.753906 25.414062 L 0.707031 25.414062 Z M 0.707031 0.140625 "/></clipPath><clipPath id="df91ddb436"><rect x="0" width="31" y="0" height="26"/></clipPath><clipPath id="4a7e40665f"><path d="M 8 19 L 21 19 L 21 33.363281 L 8 33.363281 Z M 8 19 "/></clipPath><clipPath id="3233db9aa2"><path d="M 4.722656 25.695312 L 14.578125 25.695312 L 14.578125 32.734375 L 4.722656 32.734375 Z M 4.722656 25.695312 "/></clipPath></defs><g id="3dfe6ad23f"><g clip-rule="nonzero" clip-path="url(#3edafb194d)"><g mask="url(#7ad26eee41)" transform="matrix(1,0,0,1,0,-0.000000000000004025)"><g clip-path="url(#df91ddb436)"><g clip-rule="nonzero" clip-path="url(#6270f78a68)"><path style=" stroke:none;fill-rule:nonzero;fill:#5b6946;fill-opacity:1;" d="M 30.609375 0.261719 C 30.539062 0.1875 30.4375 0.144531 30.332031 0.144531 C 24.117188 0.144531 19.558594 1.832031 16.785156 5.164062 C 14.203125 8.265625 13.792969 12.015625 13.828125 14.285156 C 13.359375 13.492188 12.804688 12.722656 12.144531 12.007812 C 9.605469 9.261719 6.007812 7.867188 1.445312 7.867188 C 1.273438 7.867188 1.121094 7.984375 1.074219 8.15625 C 1.03125 8.324219 0.0117188 12.328125 2.46875 15.519531 C 4.371094 17.988281 7.792969 19.242188 12.636719 19.242188 C 12.75 19.242188 12.855469 19.191406 12.929688 19.105469 C 13.003906 19.023438 13.035156 18.910156 13.015625 18.796875 C 12.988281 18.617188 12.25 14.355469 5.609375 11.695312 C 5.410156 11.617188 5.1875 11.710938 5.109375 11.910156 C 5.027344 12.105469 5.125 12.328125 5.320312 12.410156 C 10.292969 14.398438 11.746094 17.351562 12.128906 18.46875 C 7.808594 18.386719 4.765625 17.238281 3.082031 15.054688 C 1.210938 12.632812 1.582031 9.582031 1.757812 8.640625 C 5.945312 8.699219 9.246094 10.007812 11.578125 12.527344 C 15.996094 17.304688 15.457031 24.925781 15.453125 25.003906 C 15.433594 25.214844 15.59375 25.402344 15.804688 25.417969 C 15.816406 25.417969 15.824219 25.417969 15.835938 25.417969 C 16.035156 25.417969 16.203125 25.265625 16.21875 25.0625 C 16.238281 24.820312 16.550781 20.421875 14.742188 16.117188 C 14.636719 15.421875 13.902344 9.824219 17.375 5.65625 C 19.9375 2.582031 24.152344 0.988281 29.917969 0.914062 C 29.699219 3.214844 28.066406 14.578125 17.257812 14.84375 C 17.296875 13.492188 17.796875 8.742188 22.59375 5.984375 C 22.777344 5.878906 22.839844 5.644531 22.734375 5.457031 C 22.628906 5.273438 22.394531 5.210938 22.210938 5.316406 C 16.199219 8.773438 16.484375 15.1875 16.488281 15.253906 C 16.5 15.457031 16.667969 15.617188 16.871094 15.617188 C 29.941406 15.617188 30.710938 0.695312 30.714844 0.542969 C 30.722656 0.4375 30.683594 0.335938 30.609375 0.261719 "/></g></g><mask id="7ad26eee41"><g filter="url(#70d8cc07b3)"><rect x="0" width="31.5" y="0" height="33.749999" style="fill:#000000;fill-opacity:0.97;stroke:none;"/></g></mask></g></g><g clip-rule="nonzero" clip-path="url(#4a7e40665f)"><path style="fill:none;stroke-width:14;stroke-linecap:round;stroke-linejoin:miter;stroke:#5b6946;stroke-opacity:1;stroke-miterlimit:4;" d="M 9.385005 9.146171 C 52.639415 26.838513 95.865578 26.816944 139.149826 9.123882 " transform="matrix(0.0188233,-0.0543921,0.0537766,0.0186103,12.7729,31.285569)"/></g><g clip-rule="nonzero" clip-path="url(#3233db9aa2)"><path style=" stroke:none;fill-rule:nonzero;fill:#5b6946;fill-opacity:1;" d="M 9.65625 25.695312 C 12.378906 25.695312 14.589844 27.265625 14.589844 29.203125 C 14.589844 31.140625 12.378906 32.710938 9.65625 32.710938 C 6.929688 32.710938 4.722656 31.140625 4.722656 29.203125 C 4.722656 27.265625 6.929688 25.695312 9.65625 25.695312 Z M 6.011719 31.011719 C 6.882812 32.246094 9.222656 32.441406 11.234375 31.441406 C 13.246094 30.441406 14.171875 28.628906 13.300781 27.394531 C 12.429688 26.15625 10.089844 25.964844 8.078125 26.964844 C 6.066406 27.960938 5.140625 29.773438 6.011719 31.011719 Z M 6.011719 31.011719 "/></g></g></svg>